%TF.GenerationSoftware,KiCad,Pcbnew,5.1.9+dfsg1-1~bpo10+1*%
%TF.CreationDate,2021-06-27T11:52:40+02:00*%
%TF.ProjectId,flexm68k,666c6578-6d36-4386-9b2e-6b696361645f,0.2*%
%TF.SameCoordinates,Original*%
%TF.FileFunction,Paste,Top*%
%TF.FilePolarity,Positive*%
%FSLAX46Y46*%
G04 Gerber Fmt 4.6, Leading zero omitted, Abs format (unit mm)*
G04 Created by KiCad (PCBNEW 5.1.9+dfsg1-1~bpo10+1) date 2021-06-27 11:52:40*
%MOMM*%
%LPD*%
G01*
G04 APERTURE LIST*
%ADD10R,2.000000X1.800000*%
%ADD11R,1.600000X0.250000*%
G04 APERTURE END LIST*
D10*
%TO.C,J1*%
X153550000Y-86500000D03*
X153550000Y-122500000D03*
D11*
X149500000Y-88800000D03*
X149500000Y-89300000D03*
X149500000Y-89800000D03*
X149500000Y-90300000D03*
X149500000Y-90800000D03*
X149500000Y-91300000D03*
X149500000Y-91800000D03*
X149500000Y-92300000D03*
X149500000Y-92800000D03*
X149500000Y-93300000D03*
X149500000Y-93800000D03*
X149500000Y-94300000D03*
X149500000Y-94800000D03*
X149500000Y-95300000D03*
X149500000Y-95800000D03*
X149500000Y-96300000D03*
X149500000Y-96800000D03*
X149500000Y-97300000D03*
X149500000Y-97800000D03*
X149500000Y-98300000D03*
X149500000Y-98800000D03*
X149500000Y-99300000D03*
X149500000Y-99800000D03*
X149500000Y-100300000D03*
X149500000Y-100800000D03*
X149500000Y-101300000D03*
X149500000Y-101800000D03*
X149500000Y-102300000D03*
X149500000Y-102800000D03*
X149500000Y-103300000D03*
X149500000Y-103800000D03*
X149500000Y-104300000D03*
X149500000Y-104800000D03*
X149500000Y-105300000D03*
X149500000Y-105800000D03*
X149500000Y-106300000D03*
X149500000Y-106800000D03*
X149500000Y-107300000D03*
X149500000Y-107800000D03*
X149500000Y-108300000D03*
X149500000Y-108800000D03*
X149500000Y-109300000D03*
X149500000Y-109800000D03*
X149500000Y-110300000D03*
X149500000Y-110800000D03*
X149500000Y-111300000D03*
X149500000Y-111800000D03*
X149500000Y-112300000D03*
X149500000Y-112800000D03*
X149500000Y-113300000D03*
X149500000Y-113800000D03*
X149500000Y-114300000D03*
X149500000Y-114800000D03*
X149500000Y-115300000D03*
X149500000Y-115800000D03*
X149500000Y-116300000D03*
X149500000Y-116800000D03*
X149500000Y-117300000D03*
X149500000Y-117800000D03*
X149500000Y-118300000D03*
X149500000Y-118800000D03*
X149500000Y-119300000D03*
X149500000Y-119800000D03*
X149500000Y-120300000D03*
%TD*%
%TO.C,D1*%
G36*
G01*
X153505000Y-66330000D02*
X153505000Y-67580000D01*
G75*
G02*
X153255000Y-67830000I-250000J0D01*
G01*
X152330000Y-67830000D01*
G75*
G02*
X152080000Y-67580000I0J250000D01*
G01*
X152080000Y-66330000D01*
G75*
G02*
X152330000Y-66080000I250000J0D01*
G01*
X153255000Y-66080000D01*
G75*
G02*
X153505000Y-66330000I0J-250000D01*
G01*
G37*
G36*
G01*
X156480000Y-66330000D02*
X156480000Y-67580000D01*
G75*
G02*
X156230000Y-67830000I-250000J0D01*
G01*
X155305000Y-67830000D01*
G75*
G02*
X155055000Y-67580000I0J250000D01*
G01*
X155055000Y-66330000D01*
G75*
G02*
X155305000Y-66080000I250000J0D01*
G01*
X156230000Y-66080000D01*
G75*
G02*
X156480000Y-66330000I0J-250000D01*
G01*
G37*
%TD*%
%TO.C,R1*%
G36*
G01*
X149500000Y-67575000D02*
X149500000Y-66325000D01*
G75*
G02*
X149750000Y-66075000I250000J0D01*
G01*
X150550000Y-66075000D01*
G75*
G02*
X150800000Y-66325000I0J-250000D01*
G01*
X150800000Y-67575000D01*
G75*
G02*
X150550000Y-67825000I-250000J0D01*
G01*
X149750000Y-67825000D01*
G75*
G02*
X149500000Y-67575000I0J250000D01*
G01*
G37*
G36*
G01*
X146400000Y-67575000D02*
X146400000Y-66325000D01*
G75*
G02*
X146650000Y-66075000I250000J0D01*
G01*
X147450000Y-66075000D01*
G75*
G02*
X147700000Y-66325000I0J-250000D01*
G01*
X147700000Y-67575000D01*
G75*
G02*
X147450000Y-67825000I-250000J0D01*
G01*
X146650000Y-67825000D01*
G75*
G02*
X146400000Y-67575000I0J250000D01*
G01*
G37*
%TD*%
M02*
