%TF.GenerationSoftware,KiCad,Pcbnew,5.1.9+dfsg1-1~bpo10+1*%
%TF.CreationDate,2021-06-25T18:32:18+02:00*%
%TF.ProjectId,flexm68k,666c6578-6d36-4386-9b2e-6b696361645f,0.1*%
%TF.SameCoordinates,Original*%
%TF.FileFunction,Soldermask,Bot*%
%TF.FilePolarity,Negative*%
%FSLAX46Y46*%
G04 Gerber Fmt 4.6, Leading zero omitted, Abs format (unit mm)*
G04 Created by KiCad (PCBNEW 5.1.9+dfsg1-1~bpo10+1) date 2021-06-25 18:32:18*
%MOMM*%
%LPD*%
G01*
G04 APERTURE LIST*
%ADD10R,1.524000X1.524000*%
%ADD11C,1.524000*%
%ADD12C,0.800000*%
G04 APERTURE END LIST*
D10*
%TO.C,U1*%
X158800000Y-144950000D03*
D11*
X158800000Y-142410000D03*
X158800000Y-139870000D03*
X158800000Y-137330000D03*
X158800000Y-134790000D03*
X158800000Y-132250000D03*
X158800000Y-129710000D03*
X158800000Y-127170000D03*
X158800000Y-124630000D03*
X158800000Y-122090000D03*
X158800000Y-119550000D03*
X158800000Y-117010000D03*
X158800000Y-114470000D03*
X158800000Y-111930000D03*
X158800000Y-109390000D03*
X158800000Y-106850000D03*
X158800000Y-104310000D03*
X158800000Y-101770000D03*
X158800000Y-99230000D03*
X158800000Y-96690000D03*
X158800000Y-94150000D03*
X158800000Y-91610000D03*
X158800000Y-89070000D03*
X158800000Y-86530000D03*
X158800000Y-83990000D03*
X158800000Y-81450000D03*
X158800000Y-78910000D03*
X158800000Y-76370000D03*
X158800000Y-73830000D03*
X158800000Y-71290000D03*
X158800000Y-68750000D03*
X158800000Y-66210000D03*
X138480000Y-66210000D03*
X138480000Y-68750000D03*
X138480000Y-71290000D03*
X138480000Y-73830000D03*
X138480000Y-76370000D03*
X138480000Y-78910000D03*
X138480000Y-81450000D03*
X138480000Y-83990000D03*
X138480000Y-86530000D03*
X138480000Y-89070000D03*
X138480000Y-91610000D03*
X138480000Y-94150000D03*
X138480000Y-96690000D03*
X138480000Y-99230000D03*
X138480000Y-101770000D03*
X138480000Y-104310000D03*
X138480000Y-106850000D03*
X138480000Y-109390000D03*
X138480000Y-111930000D03*
X138480000Y-114470000D03*
X138480000Y-117010000D03*
X138480000Y-119550000D03*
X138480000Y-122090000D03*
X138480000Y-124630000D03*
X138480000Y-127170000D03*
X138480000Y-129710000D03*
X138480000Y-132250000D03*
X138480000Y-134790000D03*
X138480000Y-137330000D03*
X138480000Y-139870000D03*
X138480000Y-142410000D03*
X138480000Y-144950000D03*
%TD*%
D12*
X152150000Y-63050000D03*
M02*
