%TF.GenerationSoftware,KiCad,Pcbnew,5.1.9+dfsg1-1~bpo10+1*%
%TF.CreationDate,2021-06-27T11:52:40+02:00*%
%TF.ProjectId,flexm68k,666c6578-6d36-4386-9b2e-6b696361645f,0.2*%
%TF.SameCoordinates,Original*%
%TF.FileFunction,Soldermask,Bot*%
%TF.FilePolarity,Negative*%
%FSLAX46Y46*%
G04 Gerber Fmt 4.6, Leading zero omitted, Abs format (unit mm)*
G04 Created by KiCad (PCBNEW 5.1.9+dfsg1-1~bpo10+1) date 2021-06-27 11:52:40*
%MOMM*%
%LPD*%
G01*
G04 APERTURE LIST*
%ADD10C,1.524000*%
%ADD11R,1.524000X1.524000*%
%ADD12C,0.800000*%
G04 APERTURE END LIST*
D10*
%TO.C,U1*%
X141180000Y-145050000D03*
X141180000Y-142510000D03*
X141180000Y-139970000D03*
X141180000Y-137430000D03*
X141180000Y-134890000D03*
X141180000Y-132350000D03*
X141180000Y-129810000D03*
X141180000Y-127270000D03*
X141180000Y-124730000D03*
X141180000Y-122190000D03*
X141180000Y-119650000D03*
X141180000Y-117110000D03*
X141180000Y-114570000D03*
X141180000Y-112030000D03*
X141180000Y-109490000D03*
X141180000Y-106950000D03*
X141180000Y-104410000D03*
X141180000Y-101870000D03*
X141180000Y-99330000D03*
X141180000Y-96790000D03*
X141180000Y-94250000D03*
X141180000Y-91710000D03*
X141180000Y-89170000D03*
X141180000Y-86630000D03*
X141180000Y-84090000D03*
X141180000Y-81550000D03*
X141180000Y-79010000D03*
X141180000Y-76470000D03*
X141180000Y-73930000D03*
X141180000Y-71390000D03*
X141180000Y-68850000D03*
X141180000Y-66310000D03*
X161500000Y-66310000D03*
X161500000Y-68850000D03*
X161500000Y-71390000D03*
X161500000Y-73930000D03*
X161500000Y-76470000D03*
X161500000Y-79010000D03*
X161500000Y-81550000D03*
X161500000Y-84090000D03*
X161500000Y-86630000D03*
X161500000Y-89170000D03*
X161500000Y-91710000D03*
X161500000Y-94250000D03*
X161500000Y-96790000D03*
X161500000Y-99330000D03*
X161500000Y-101870000D03*
X161500000Y-104410000D03*
X161500000Y-106950000D03*
X161500000Y-109490000D03*
X161500000Y-112030000D03*
X161500000Y-114570000D03*
X161500000Y-117110000D03*
X161500000Y-119650000D03*
X161500000Y-122190000D03*
X161500000Y-124730000D03*
X161500000Y-127270000D03*
X161500000Y-129810000D03*
X161500000Y-132350000D03*
X161500000Y-134890000D03*
X161500000Y-137430000D03*
X161500000Y-139970000D03*
X161500000Y-142510000D03*
D11*
X161500000Y-145050000D03*
%TD*%
D12*
X154850000Y-63150000D03*
M02*
