M48
; DRILL file {KiCad 5.1.9+dfsg1-1~bpo10+1} date Fri Jun 25 18:32:10 2021
; FORMAT={-:-/ absolute / metric / decimal}
; #@! TF.CreationDate,2021-06-25T18:32:10+02:00
; #@! TF.GenerationSoftware,Kicad,Pcbnew,5.1.9+dfsg1-1~bpo10+1
; #@! TF.FileFunction,Plated,1,2,PTH
FMAT,2
METRIC
T1C0.400
T2C0.813
%
G90
G05
T1
X152.15Y-63.05
T2
X138.48Y-66.21
X138.48Y-68.75
X138.48Y-71.29
X138.48Y-73.83
X138.48Y-76.37
X138.48Y-78.91
X138.48Y-81.45
X138.48Y-83.99
X138.48Y-86.53
X138.48Y-89.07
X138.48Y-91.61
X138.48Y-94.15
X138.48Y-96.69
X138.48Y-99.23
X138.48Y-101.77
X138.48Y-104.31
X138.48Y-106.85
X138.48Y-109.39
X138.48Y-111.93
X138.48Y-114.47
X138.48Y-117.01
X138.48Y-119.55
X138.48Y-122.09
X138.48Y-124.63
X138.48Y-127.17
X138.48Y-129.71
X138.48Y-132.25
X138.48Y-134.79
X138.48Y-137.33
X138.48Y-139.87
X138.48Y-142.41
X138.48Y-144.95
X158.8Y-66.21
X158.8Y-68.75
X158.8Y-71.29
X158.8Y-73.83
X158.8Y-76.37
X158.8Y-78.91
X158.8Y-81.45
X158.8Y-83.99
X158.8Y-86.53
X158.8Y-89.07
X158.8Y-91.61
X158.8Y-94.15
X158.8Y-96.69
X158.8Y-99.23
X158.8Y-101.77
X158.8Y-104.31
X158.8Y-106.85
X158.8Y-109.39
X158.8Y-111.93
X158.8Y-114.47
X158.8Y-117.01
X158.8Y-119.55
X158.8Y-122.09
X158.8Y-124.63
X158.8Y-127.17
X158.8Y-129.71
X158.8Y-132.25
X158.8Y-134.79
X158.8Y-137.33
X158.8Y-139.87
X158.8Y-142.41
X158.8Y-144.95
T0
M30
