%TF.GenerationSoftware,KiCad,Pcbnew,5.1.9+dfsg1-1~bpo10+1*%
%TF.CreationDate,2021-08-08T22:35:49+02:00*%
%TF.ProjectId,flexm68k,666c6578-6d36-4386-9b2e-6b696361645f,0.2*%
%TF.SameCoordinates,Original*%
%TF.FileFunction,Legend,Bot*%
%TF.FilePolarity,Positive*%
%FSLAX46Y46*%
G04 Gerber Fmt 4.6, Leading zero omitted, Abs format (unit mm)*
G04 Created by KiCad (PCBNEW 5.1.9+dfsg1-1~bpo10+1) date 2021-08-08 22:35:49*
%MOMM*%
%LPD*%
G01*
G04 APERTURE LIST*
%ADD10C,0.150000*%
%ADD11C,0.120000*%
%ADD12C,0.010000*%
G04 APERTURE END LIST*
D10*
X157027380Y-101938095D02*
X156551190Y-101604761D01*
X157027380Y-101366666D02*
X156027380Y-101366666D01*
X156027380Y-101747619D01*
X156075000Y-101842857D01*
X156122619Y-101890476D01*
X156217857Y-101938095D01*
X156360714Y-101938095D01*
X156455952Y-101890476D01*
X156503571Y-101842857D01*
X156551190Y-101747619D01*
X156551190Y-101366666D01*
X156503571Y-102366666D02*
X156503571Y-102700000D01*
X157027380Y-102842857D02*
X157027380Y-102366666D01*
X156027380Y-102366666D01*
X156027380Y-102842857D01*
X156027380Y-103128571D02*
X156027380Y-103700000D01*
X157027380Y-103414285D02*
X156027380Y-103414285D01*
X157027380Y-104604761D02*
X156551190Y-104271428D01*
X157027380Y-104033333D02*
X156027380Y-104033333D01*
X156027380Y-104414285D01*
X156075000Y-104509523D01*
X156122619Y-104557142D01*
X156217857Y-104604761D01*
X156360714Y-104604761D01*
X156455952Y-104557142D01*
X156503571Y-104509523D01*
X156551190Y-104414285D01*
X156551190Y-104033333D01*
X156027380Y-105223809D02*
X156027380Y-105414285D01*
X156075000Y-105509523D01*
X156170238Y-105604761D01*
X156360714Y-105652380D01*
X156694047Y-105652380D01*
X156884523Y-105604761D01*
X156979761Y-105509523D01*
X157027380Y-105414285D01*
X157027380Y-105223809D01*
X156979761Y-105128571D01*
X156884523Y-105033333D01*
X156694047Y-104985714D01*
X156360714Y-104985714D01*
X156170238Y-105033333D01*
X156075000Y-105128571D01*
X156027380Y-105223809D01*
X156503571Y-106414285D02*
X156551190Y-106557142D01*
X156598809Y-106604761D01*
X156694047Y-106652380D01*
X156836904Y-106652380D01*
X156932142Y-106604761D01*
X156979761Y-106557142D01*
X157027380Y-106461904D01*
X157027380Y-106080952D01*
X156027380Y-106080952D01*
X156027380Y-106414285D01*
X156075000Y-106509523D01*
X156122619Y-106557142D01*
X156217857Y-106604761D01*
X156313095Y-106604761D01*
X156408333Y-106557142D01*
X156455952Y-106509523D01*
X156503571Y-106414285D01*
X156503571Y-106080952D01*
X157027380Y-107080952D02*
X156027380Y-107080952D01*
X156027380Y-107414285D02*
X156027380Y-107985714D01*
X157027380Y-107700000D02*
X156027380Y-107700000D01*
X157027380Y-109557142D02*
X157027380Y-109080952D01*
X156027380Y-109080952D01*
X156741666Y-109842857D02*
X156741666Y-110319047D01*
X157027380Y-109747619D02*
X156027380Y-110080952D01*
X157027380Y-110414285D01*
X156503571Y-111080952D02*
X156551190Y-111223809D01*
X156598809Y-111271428D01*
X156694047Y-111319047D01*
X156836904Y-111319047D01*
X156932142Y-111271428D01*
X156979761Y-111223809D01*
X157027380Y-111128571D01*
X157027380Y-110747619D01*
X156027380Y-110747619D01*
X156027380Y-111080952D01*
X156075000Y-111176190D01*
X156122619Y-111223809D01*
X156217857Y-111271428D01*
X156313095Y-111271428D01*
X156408333Y-111223809D01*
X156455952Y-111176190D01*
X156503571Y-111080952D01*
X156503571Y-110747619D01*
X157677380Y-89676190D02*
X157677380Y-89485714D01*
X157725000Y-89390476D01*
X157772619Y-89342857D01*
X157915476Y-89247619D01*
X158105952Y-89200000D01*
X158486904Y-89200000D01*
X158582142Y-89247619D01*
X158629761Y-89295238D01*
X158677380Y-89390476D01*
X158677380Y-89580952D01*
X158629761Y-89676190D01*
X158582142Y-89723809D01*
X158486904Y-89771428D01*
X158248809Y-89771428D01*
X158153571Y-89723809D01*
X158105952Y-89676190D01*
X158058333Y-89580952D01*
X158058333Y-89390476D01*
X158105952Y-89295238D01*
X158153571Y-89247619D01*
X158248809Y-89200000D01*
X158105952Y-90342857D02*
X158058333Y-90247619D01*
X158010714Y-90200000D01*
X157915476Y-90152380D01*
X157867857Y-90152380D01*
X157772619Y-90200000D01*
X157725000Y-90247619D01*
X157677380Y-90342857D01*
X157677380Y-90533333D01*
X157725000Y-90628571D01*
X157772619Y-90676190D01*
X157867857Y-90723809D01*
X157915476Y-90723809D01*
X158010714Y-90676190D01*
X158058333Y-90628571D01*
X158105952Y-90533333D01*
X158105952Y-90342857D01*
X158153571Y-90247619D01*
X158201190Y-90200000D01*
X158296428Y-90152380D01*
X158486904Y-90152380D01*
X158582142Y-90200000D01*
X158629761Y-90247619D01*
X158677380Y-90342857D01*
X158677380Y-90533333D01*
X158629761Y-90628571D01*
X158582142Y-90676190D01*
X158486904Y-90723809D01*
X158296428Y-90723809D01*
X158201190Y-90676190D01*
X158153571Y-90628571D01*
X158105952Y-90533333D01*
X157677380Y-91342857D02*
X157677380Y-91438095D01*
X157725000Y-91533333D01*
X157772619Y-91580952D01*
X157867857Y-91628571D01*
X158058333Y-91676190D01*
X158296428Y-91676190D01*
X158486904Y-91628571D01*
X158582142Y-91580952D01*
X158629761Y-91533333D01*
X158677380Y-91438095D01*
X158677380Y-91342857D01*
X158629761Y-91247619D01*
X158582142Y-91200000D01*
X158486904Y-91152380D01*
X158296428Y-91104761D01*
X158058333Y-91104761D01*
X157867857Y-91152380D01*
X157772619Y-91200000D01*
X157725000Y-91247619D01*
X157677380Y-91342857D01*
X157677380Y-92295238D02*
X157677380Y-92390476D01*
X157725000Y-92485714D01*
X157772619Y-92533333D01*
X157867857Y-92580952D01*
X158058333Y-92628571D01*
X158296428Y-92628571D01*
X158486904Y-92580952D01*
X158582142Y-92533333D01*
X158629761Y-92485714D01*
X158677380Y-92390476D01*
X158677380Y-92295238D01*
X158629761Y-92200000D01*
X158582142Y-92152380D01*
X158486904Y-92104761D01*
X158296428Y-92057142D01*
X158058333Y-92057142D01*
X157867857Y-92104761D01*
X157772619Y-92152380D01*
X157725000Y-92200000D01*
X157677380Y-92295238D01*
X157677380Y-93247619D02*
X157677380Y-93342857D01*
X157725000Y-93438095D01*
X157772619Y-93485714D01*
X157867857Y-93533333D01*
X158058333Y-93580952D01*
X158296428Y-93580952D01*
X158486904Y-93533333D01*
X158582142Y-93485714D01*
X158629761Y-93438095D01*
X158677380Y-93342857D01*
X158677380Y-93247619D01*
X158629761Y-93152380D01*
X158582142Y-93104761D01*
X158486904Y-93057142D01*
X158296428Y-93009523D01*
X158058333Y-93009523D01*
X157867857Y-93057142D01*
X157772619Y-93104761D01*
X157725000Y-93152380D01*
X157677380Y-93247619D01*
X158296428Y-94009523D02*
X158296428Y-94771428D01*
X157677380Y-95104761D02*
X157677380Y-95676190D01*
X158677380Y-95390476D02*
X157677380Y-95390476D01*
X157677380Y-96200000D02*
X157677380Y-96390476D01*
X157725000Y-96485714D01*
X157820238Y-96580952D01*
X158010714Y-96628571D01*
X158344047Y-96628571D01*
X158534523Y-96580952D01*
X158629761Y-96485714D01*
X158677380Y-96390476D01*
X158677380Y-96200000D01*
X158629761Y-96104761D01*
X158534523Y-96009523D01*
X158344047Y-95961904D01*
X158010714Y-95961904D01*
X157820238Y-96009523D01*
X157725000Y-96104761D01*
X157677380Y-96200000D01*
X158296428Y-97057142D02*
X158296428Y-97819047D01*
X158677380Y-98295238D02*
X157677380Y-98295238D01*
X157677380Y-98676190D01*
X157725000Y-98771428D01*
X157772619Y-98819047D01*
X157867857Y-98866666D01*
X158010714Y-98866666D01*
X158105952Y-98819047D01*
X158153571Y-98771428D01*
X158201190Y-98676190D01*
X158201190Y-98295238D01*
X158677380Y-99295238D02*
X158010714Y-99295238D01*
X157677380Y-99295238D02*
X157725000Y-99247619D01*
X157772619Y-99295238D01*
X157725000Y-99342857D01*
X157677380Y-99295238D01*
X157772619Y-99295238D01*
X158629761Y-99723809D02*
X158677380Y-99866666D01*
X158677380Y-100104761D01*
X158629761Y-100200000D01*
X158582142Y-100247619D01*
X158486904Y-100295238D01*
X158391666Y-100295238D01*
X158296428Y-100247619D01*
X158248809Y-100200000D01*
X158201190Y-100104761D01*
X158153571Y-99914285D01*
X158105952Y-99819047D01*
X158058333Y-99771428D01*
X157963095Y-99723809D01*
X157867857Y-99723809D01*
X157772619Y-99771428D01*
X157725000Y-99819047D01*
X157677380Y-99914285D01*
X157677380Y-100152380D01*
X157725000Y-100295238D01*
X158010714Y-100580952D02*
X158010714Y-100961904D01*
X157677380Y-100723809D02*
X158534523Y-100723809D01*
X158629761Y-100771428D01*
X158677380Y-100866666D01*
X158677380Y-100961904D01*
X158677380Y-101438095D02*
X158629761Y-101342857D01*
X158582142Y-101295238D01*
X158486904Y-101247619D01*
X158201190Y-101247619D01*
X158105952Y-101295238D01*
X158058333Y-101342857D01*
X158010714Y-101438095D01*
X158010714Y-101580952D01*
X158058333Y-101676190D01*
X158105952Y-101723809D01*
X158201190Y-101771428D01*
X158486904Y-101771428D01*
X158582142Y-101723809D01*
X158629761Y-101676190D01*
X158677380Y-101580952D01*
X158677380Y-101438095D01*
X158677380Y-102200000D02*
X158010714Y-102200000D01*
X158201190Y-102200000D02*
X158105952Y-102247619D01*
X158058333Y-102295238D01*
X158010714Y-102390476D01*
X158010714Y-102485714D01*
X158677380Y-102819047D02*
X158010714Y-102819047D01*
X158105952Y-102819047D02*
X158058333Y-102866666D01*
X158010714Y-102961904D01*
X158010714Y-103104761D01*
X158058333Y-103200000D01*
X158153571Y-103247619D01*
X158677380Y-103247619D01*
X158153571Y-103247619D02*
X158058333Y-103295238D01*
X158010714Y-103390476D01*
X158010714Y-103533333D01*
X158058333Y-103628571D01*
X158153571Y-103676190D01*
X158677380Y-103676190D01*
X158582142Y-105485714D02*
X158629761Y-105438095D01*
X158677380Y-105295238D01*
X158677380Y-105200000D01*
X158629761Y-105057142D01*
X158534523Y-104961904D01*
X158439285Y-104914285D01*
X158248809Y-104866666D01*
X158105952Y-104866666D01*
X157915476Y-104914285D01*
X157820238Y-104961904D01*
X157725000Y-105057142D01*
X157677380Y-105200000D01*
X157677380Y-105295238D01*
X157725000Y-105438095D01*
X157772619Y-105485714D01*
X158677380Y-105914285D02*
X157677380Y-105914285D01*
X157677380Y-106295238D01*
X157725000Y-106390476D01*
X157772619Y-106438095D01*
X157867857Y-106485714D01*
X158010714Y-106485714D01*
X158105952Y-106438095D01*
X158153571Y-106390476D01*
X158201190Y-106295238D01*
X158201190Y-105914285D01*
X157677380Y-106914285D02*
X158486904Y-106914285D01*
X158582142Y-106961904D01*
X158629761Y-107009523D01*
X158677380Y-107104761D01*
X158677380Y-107295238D01*
X158629761Y-107390476D01*
X158582142Y-107438095D01*
X158486904Y-107485714D01*
X157677380Y-107485714D01*
X158153571Y-109057142D02*
X158153571Y-108723809D01*
X158677380Y-108723809D02*
X157677380Y-108723809D01*
X157677380Y-109200000D01*
X158677380Y-110057142D02*
X158677380Y-109580952D01*
X157677380Y-109580952D01*
X158153571Y-110390476D02*
X158153571Y-110723809D01*
X158677380Y-110866666D02*
X158677380Y-110390476D01*
X157677380Y-110390476D01*
X157677380Y-110866666D01*
X157677380Y-111200000D02*
X158677380Y-111866666D01*
X157677380Y-111866666D02*
X158677380Y-111200000D01*
X158677380Y-112247619D02*
X157677380Y-112247619D01*
X158153571Y-113057142D02*
X158201190Y-113199999D01*
X158248809Y-113247619D01*
X158344047Y-113295238D01*
X158486904Y-113295238D01*
X158582142Y-113247619D01*
X158629761Y-113199999D01*
X158677380Y-113104761D01*
X158677380Y-112723809D01*
X157677380Y-112723809D01*
X157677380Y-113057142D01*
X157725000Y-113152380D01*
X157772619Y-113199999D01*
X157867857Y-113247619D01*
X157963095Y-113247619D01*
X158058333Y-113199999D01*
X158105952Y-113152380D01*
X158153571Y-113057142D01*
X158153571Y-112723809D01*
X158677380Y-114199999D02*
X158677380Y-113723809D01*
X157677380Y-113723809D01*
X158153571Y-114533333D02*
X158153571Y-114866666D01*
X158677380Y-115009523D02*
X158677380Y-114533333D01*
X157677380Y-114533333D01*
X157677380Y-115009523D01*
X158677380Y-116771428D02*
X158201190Y-116438095D01*
X158677380Y-116199999D02*
X157677380Y-116199999D01*
X157677380Y-116580952D01*
X157725000Y-116676190D01*
X157772619Y-116723809D01*
X157867857Y-116771428D01*
X158010714Y-116771428D01*
X158105952Y-116723809D01*
X158153571Y-116676190D01*
X158201190Y-116580952D01*
X158201190Y-116199999D01*
X158153571Y-117199999D02*
X158153571Y-117533333D01*
X158677380Y-117676190D02*
X158677380Y-117199999D01*
X157677380Y-117199999D01*
X157677380Y-117676190D01*
X158677380Y-118580952D02*
X158677380Y-118104761D01*
X157677380Y-118104761D01*
X157677380Y-119104761D02*
X157677380Y-119295238D01*
X157725000Y-119390476D01*
X157820238Y-119485714D01*
X158010714Y-119533333D01*
X158344047Y-119533333D01*
X158534523Y-119485714D01*
X158629761Y-119390476D01*
X158677380Y-119295238D01*
X158677380Y-119104761D01*
X158629761Y-119009523D01*
X158534523Y-118914285D01*
X158344047Y-118866666D01*
X158010714Y-118866666D01*
X157820238Y-118914285D01*
X157725000Y-119009523D01*
X157677380Y-119104761D01*
X158582142Y-120533333D02*
X158629761Y-120485714D01*
X158677380Y-120342857D01*
X158677380Y-120247619D01*
X158629761Y-120104761D01*
X158534523Y-120009523D01*
X158439285Y-119961904D01*
X158248809Y-119914285D01*
X158105952Y-119914285D01*
X157915476Y-119961904D01*
X157820238Y-120009523D01*
X157725000Y-120104761D01*
X157677380Y-120247619D01*
X157677380Y-120342857D01*
X157725000Y-120485714D01*
X157772619Y-120533333D01*
X158391666Y-120914285D02*
X158391666Y-121390476D01*
X158677380Y-120819047D02*
X157677380Y-121152380D01*
X158677380Y-121485714D01*
X157677380Y-121676190D02*
X157677380Y-122247619D01*
X158677380Y-121961904D02*
X157677380Y-121961904D01*
X157677380Y-122771428D02*
X157677380Y-122961904D01*
X157725000Y-123057142D01*
X157820238Y-123152380D01*
X158010714Y-123199999D01*
X158344047Y-123199999D01*
X158534523Y-123152380D01*
X158629761Y-123057142D01*
X158677380Y-122961904D01*
X158677380Y-122771428D01*
X158629761Y-122676190D01*
X158534523Y-122580952D01*
X158344047Y-122533333D01*
X158010714Y-122533333D01*
X157820238Y-122580952D01*
X157725000Y-122676190D01*
X157677380Y-122771428D01*
X158677380Y-124199999D02*
X158201190Y-123866666D01*
X158677380Y-123628571D02*
X157677380Y-123628571D01*
X157677380Y-124009523D01*
X157725000Y-124104761D01*
X157772619Y-124152380D01*
X157867857Y-124199999D01*
X158010714Y-124199999D01*
X158105952Y-124152380D01*
X158153571Y-124104761D01*
X158201190Y-124009523D01*
X158201190Y-123628571D01*
X158952380Y-66466666D02*
X158285714Y-66466666D01*
X157952380Y-66466666D02*
X158000000Y-66419047D01*
X158047619Y-66466666D01*
X158000000Y-66514285D01*
X157952380Y-66466666D01*
X158047619Y-66466666D01*
X158285714Y-66942857D02*
X158952380Y-66942857D01*
X158380952Y-66942857D02*
X158333333Y-66990476D01*
X158285714Y-67085714D01*
X158285714Y-67228571D01*
X158333333Y-67323809D01*
X158428571Y-67371428D01*
X158952380Y-67371428D01*
X158952380Y-68609523D02*
X158285714Y-68609523D01*
X158380952Y-68609523D02*
X158333333Y-68657142D01*
X158285714Y-68752380D01*
X158285714Y-68895238D01*
X158333333Y-68990476D01*
X158428571Y-69038095D01*
X158952380Y-69038095D01*
X158428571Y-69038095D02*
X158333333Y-69085714D01*
X158285714Y-69180952D01*
X158285714Y-69323809D01*
X158333333Y-69419047D01*
X158428571Y-69466666D01*
X158952380Y-69466666D01*
X158904761Y-70323809D02*
X158952380Y-70228571D01*
X158952380Y-70038095D01*
X158904761Y-69942857D01*
X158809523Y-69895238D01*
X158428571Y-69895238D01*
X158333333Y-69942857D01*
X158285714Y-70038095D01*
X158285714Y-70228571D01*
X158333333Y-70323809D01*
X158428571Y-70371428D01*
X158523809Y-70371428D01*
X158619047Y-69895238D01*
X158952380Y-70800000D02*
X158285714Y-70800000D01*
X158380952Y-70800000D02*
X158333333Y-70847619D01*
X158285714Y-70942857D01*
X158285714Y-71085714D01*
X158333333Y-71180952D01*
X158428571Y-71228571D01*
X158952380Y-71228571D01*
X158428571Y-71228571D02*
X158333333Y-71276190D01*
X158285714Y-71371428D01*
X158285714Y-71514285D01*
X158333333Y-71609523D01*
X158428571Y-71657142D01*
X158952380Y-71657142D01*
X158952380Y-72276190D02*
X158904761Y-72180952D01*
X158857142Y-72133333D01*
X158761904Y-72085714D01*
X158476190Y-72085714D01*
X158380952Y-72133333D01*
X158333333Y-72180952D01*
X158285714Y-72276190D01*
X158285714Y-72419047D01*
X158333333Y-72514285D01*
X158380952Y-72561904D01*
X158476190Y-72609523D01*
X158761904Y-72609523D01*
X158857142Y-72561904D01*
X158904761Y-72514285D01*
X158952380Y-72419047D01*
X158952380Y-72276190D01*
X158952380Y-73038095D02*
X158285714Y-73038095D01*
X158476190Y-73038095D02*
X158380952Y-73085714D01*
X158333333Y-73133333D01*
X158285714Y-73228571D01*
X158285714Y-73323809D01*
X158952380Y-73657142D02*
X158285714Y-73657142D01*
X157952380Y-73657142D02*
X158000000Y-73609523D01*
X158047619Y-73657142D01*
X158000000Y-73704761D01*
X157952380Y-73657142D01*
X158047619Y-73657142D01*
X158952380Y-74561904D02*
X158428571Y-74561904D01*
X158333333Y-74514285D01*
X158285714Y-74419047D01*
X158285714Y-74228571D01*
X158333333Y-74133333D01*
X158904761Y-74561904D02*
X158952380Y-74466666D01*
X158952380Y-74228571D01*
X158904761Y-74133333D01*
X158809523Y-74085714D01*
X158714285Y-74085714D01*
X158619047Y-74133333D01*
X158571428Y-74228571D01*
X158571428Y-74466666D01*
X158523809Y-74561904D01*
X158952380Y-75038095D02*
X158285714Y-75038095D01*
X158380952Y-75038095D02*
X158333333Y-75085714D01*
X158285714Y-75180952D01*
X158285714Y-75323809D01*
X158333333Y-75419047D01*
X158428571Y-75466666D01*
X158952380Y-75466666D01*
X158428571Y-75466666D02*
X158333333Y-75514285D01*
X158285714Y-75609523D01*
X158285714Y-75752380D01*
X158333333Y-75847619D01*
X158428571Y-75895238D01*
X158952380Y-75895238D01*
X158666666Y-77085714D02*
X158666666Y-77561904D01*
X158952380Y-76990476D02*
X157952380Y-77323809D01*
X158952380Y-77657142D01*
X158857142Y-77990476D02*
X158904761Y-78038095D01*
X158952380Y-77990476D01*
X158904761Y-77942857D01*
X158857142Y-77990476D01*
X158952380Y-77990476D01*
X158904761Y-78419047D02*
X158952380Y-78561904D01*
X158952380Y-78800000D01*
X158904761Y-78895238D01*
X158857142Y-78942857D01*
X158761904Y-78990476D01*
X158666666Y-78990476D01*
X158571428Y-78942857D01*
X158523809Y-78895238D01*
X158476190Y-78800000D01*
X158428571Y-78609523D01*
X158380952Y-78514285D01*
X158333333Y-78466666D01*
X158238095Y-78419047D01*
X158142857Y-78419047D01*
X158047619Y-78466666D01*
X158000000Y-78514285D01*
X157952380Y-78609523D01*
X157952380Y-78847619D01*
X158000000Y-78990476D01*
X158857142Y-79419047D02*
X158904761Y-79466666D01*
X158952380Y-79419047D01*
X158904761Y-79371428D01*
X158857142Y-79419047D01*
X158952380Y-79419047D01*
X158571428Y-80657142D02*
X158571428Y-81419047D01*
X158000000Y-83180952D02*
X157952380Y-83085714D01*
X157952380Y-82942857D01*
X158000000Y-82800000D01*
X158095238Y-82704761D01*
X158190476Y-82657142D01*
X158380952Y-82609523D01*
X158523809Y-82609523D01*
X158714285Y-82657142D01*
X158809523Y-82704761D01*
X158904761Y-82800000D01*
X158952380Y-82942857D01*
X158952380Y-83038095D01*
X158904761Y-83180952D01*
X158857142Y-83228571D01*
X158523809Y-83228571D01*
X158523809Y-83038095D01*
X158857142Y-83657142D02*
X158904761Y-83704761D01*
X158952380Y-83657142D01*
X158904761Y-83609523D01*
X158857142Y-83657142D01*
X158952380Y-83657142D01*
X158952380Y-84133333D02*
X157952380Y-84133333D01*
X157952380Y-84371428D01*
X158000000Y-84514285D01*
X158095238Y-84609523D01*
X158190476Y-84657142D01*
X158380952Y-84704761D01*
X158523809Y-84704761D01*
X158714285Y-84657142D01*
X158809523Y-84609523D01*
X158904761Y-84514285D01*
X158952380Y-84371428D01*
X158952380Y-84133333D01*
X158857142Y-85133333D02*
X158904761Y-85180952D01*
X158952380Y-85133333D01*
X158904761Y-85085714D01*
X158857142Y-85133333D01*
X158952380Y-85133333D01*
D11*
%TO.C,U1*%
X137016000Y-65663000D02*
X140064000Y-65663000D01*
X159876000Y-147197000D02*
X162924000Y-147197000D01*
X137016000Y-65663000D02*
X137016000Y-147197000D01*
X162924000Y-65663000D02*
X159876000Y-65663000D01*
X162924000Y-147197000D02*
X162924000Y-65663000D01*
X137016000Y-147197000D02*
X140064000Y-147197000D01*
X140064000Y-65663000D02*
X140064000Y-147197000D01*
X159876000Y-147197000D02*
X159876000Y-65663000D01*
D12*
%TO.C,L2*%
G36*
X148198600Y-111476623D02*
G01*
X148330930Y-112120917D01*
X148568773Y-112719455D01*
X148667998Y-112896529D01*
X148755671Y-113028536D01*
X148848976Y-113107012D01*
X148991490Y-113145914D01*
X149226792Y-113159196D01*
X149493026Y-113160742D01*
X149828440Y-113156926D01*
X150030370Y-113139026D01*
X150134580Y-113098258D01*
X150176837Y-113025836D01*
X150183653Y-112991099D01*
X150161581Y-112863348D01*
X150024902Y-112768638D01*
X149887319Y-112718762D01*
X149307554Y-112470473D01*
X148869402Y-112140686D01*
X148577276Y-111734463D01*
X148435587Y-111256864D01*
X148422000Y-111037675D01*
X148475192Y-110537888D01*
X148646150Y-110134040D01*
X148951940Y-109785932D01*
X148954394Y-109783775D01*
X149144373Y-109638896D01*
X149359350Y-109526901D01*
X149621907Y-109444433D01*
X149954631Y-109388135D01*
X150380103Y-109354650D01*
X150920909Y-109340622D01*
X151599632Y-109342692D01*
X151893333Y-109346917D01*
X152480718Y-109357509D01*
X152925369Y-109369184D01*
X153253876Y-109384967D01*
X153492827Y-109407882D01*
X153668811Y-109440955D01*
X153808416Y-109487209D01*
X153938232Y-109549671D01*
X154006723Y-109587333D01*
X154403828Y-109875208D01*
X154650261Y-110220921D01*
X154761688Y-110650617D01*
X154772000Y-110864342D01*
X154736387Y-111342742D01*
X154617951Y-111691870D01*
X154399295Y-111927695D01*
X154063021Y-112066181D01*
X153591732Y-112123296D01*
X153396166Y-112127017D01*
X152740000Y-112127333D01*
X152740000Y-111619333D01*
X152730246Y-111324361D01*
X152695671Y-111165991D01*
X152628302Y-111112335D01*
X152613000Y-111111333D01*
X152562555Y-111134702D01*
X152527151Y-111220738D01*
X152504317Y-111393330D01*
X152491580Y-111676370D01*
X152486470Y-112093750D01*
X152486000Y-112339000D01*
X152486000Y-113566667D01*
X152766966Y-113566667D01*
X153199975Y-113511886D01*
X153658335Y-113366535D01*
X154060876Y-113159098D01*
X154182179Y-113070035D01*
X154393732Y-112851737D01*
X154613204Y-112559143D01*
X154729403Y-112369103D01*
X154851035Y-112126427D01*
X154927980Y-111902516D01*
X154972236Y-111642035D01*
X154995800Y-111289648D01*
X155002095Y-111111333D01*
X155006880Y-110679983D01*
X154985663Y-110360285D01*
X154931610Y-110095648D01*
X154851341Y-109863089D01*
X154575424Y-109358309D01*
X154172275Y-108877711D01*
X153682980Y-108464004D01*
X153264545Y-108213541D01*
X153016672Y-108095625D01*
X152812210Y-108016969D01*
X152605943Y-107969646D01*
X152352656Y-107945727D01*
X152007134Y-107937282D01*
X151683675Y-107936333D01*
X151243744Y-107938871D01*
X150927311Y-107951675D01*
X150688561Y-107982529D01*
X150481678Y-108039216D01*
X150260843Y-108129520D01*
X150096424Y-108205995D01*
X149479424Y-108572929D01*
X148945525Y-109038722D01*
X148532915Y-109568678D01*
X148461831Y-109691128D01*
X148261337Y-110219537D01*
X148174498Y-110828766D01*
X148198600Y-111476623D01*
G37*
X148198600Y-111476623D02*
X148330930Y-112120917D01*
X148568773Y-112719455D01*
X148667998Y-112896529D01*
X148755671Y-113028536D01*
X148848976Y-113107012D01*
X148991490Y-113145914D01*
X149226792Y-113159196D01*
X149493026Y-113160742D01*
X149828440Y-113156926D01*
X150030370Y-113139026D01*
X150134580Y-113098258D01*
X150176837Y-113025836D01*
X150183653Y-112991099D01*
X150161581Y-112863348D01*
X150024902Y-112768638D01*
X149887319Y-112718762D01*
X149307554Y-112470473D01*
X148869402Y-112140686D01*
X148577276Y-111734463D01*
X148435587Y-111256864D01*
X148422000Y-111037675D01*
X148475192Y-110537888D01*
X148646150Y-110134040D01*
X148951940Y-109785932D01*
X148954394Y-109783775D01*
X149144373Y-109638896D01*
X149359350Y-109526901D01*
X149621907Y-109444433D01*
X149954631Y-109388135D01*
X150380103Y-109354650D01*
X150920909Y-109340622D01*
X151599632Y-109342692D01*
X151893333Y-109346917D01*
X152480718Y-109357509D01*
X152925369Y-109369184D01*
X153253876Y-109384967D01*
X153492827Y-109407882D01*
X153668811Y-109440955D01*
X153808416Y-109487209D01*
X153938232Y-109549671D01*
X154006723Y-109587333D01*
X154403828Y-109875208D01*
X154650261Y-110220921D01*
X154761688Y-110650617D01*
X154772000Y-110864342D01*
X154736387Y-111342742D01*
X154617951Y-111691870D01*
X154399295Y-111927695D01*
X154063021Y-112066181D01*
X153591732Y-112123296D01*
X153396166Y-112127017D01*
X152740000Y-112127333D01*
X152740000Y-111619333D01*
X152730246Y-111324361D01*
X152695671Y-111165991D01*
X152628302Y-111112335D01*
X152613000Y-111111333D01*
X152562555Y-111134702D01*
X152527151Y-111220738D01*
X152504317Y-111393330D01*
X152491580Y-111676370D01*
X152486470Y-112093750D01*
X152486000Y-112339000D01*
X152486000Y-113566667D01*
X152766966Y-113566667D01*
X153199975Y-113511886D01*
X153658335Y-113366535D01*
X154060876Y-113159098D01*
X154182179Y-113070035D01*
X154393732Y-112851737D01*
X154613204Y-112559143D01*
X154729403Y-112369103D01*
X154851035Y-112126427D01*
X154927980Y-111902516D01*
X154972236Y-111642035D01*
X154995800Y-111289648D01*
X155002095Y-111111333D01*
X155006880Y-110679983D01*
X154985663Y-110360285D01*
X154931610Y-110095648D01*
X154851341Y-109863089D01*
X154575424Y-109358309D01*
X154172275Y-108877711D01*
X153682980Y-108464004D01*
X153264545Y-108213541D01*
X153016672Y-108095625D01*
X152812210Y-108016969D01*
X152605943Y-107969646D01*
X152352656Y-107945727D01*
X152007134Y-107937282D01*
X151683675Y-107936333D01*
X151243744Y-107938871D01*
X150927311Y-107951675D01*
X150688561Y-107982529D01*
X150481678Y-108039216D01*
X150260843Y-108129520D01*
X150096424Y-108205995D01*
X149479424Y-108572929D01*
X148945525Y-109038722D01*
X148532915Y-109568678D01*
X148461831Y-109691128D01*
X148261337Y-110219537D01*
X148174498Y-110828766D01*
X148198600Y-111476623D01*
G36*
X148191868Y-93380426D02*
G01*
X148252708Y-93452393D01*
X148390521Y-93532991D01*
X148628574Y-93634210D01*
X148990133Y-93768038D01*
X149285398Y-93872252D01*
X149689917Y-94013647D01*
X150215823Y-94197417D01*
X150824635Y-94410118D01*
X151477869Y-94638305D01*
X152137045Y-94868535D01*
X152528333Y-95005182D01*
X154645000Y-95744333D01*
X154671034Y-96104167D01*
X154714849Y-96361059D01*
X154799844Y-96461767D01*
X154819201Y-96464000D01*
X154873616Y-96434258D01*
X154909706Y-96327892D01*
X154930752Y-96119193D01*
X154940039Y-95782451D01*
X154941333Y-95507674D01*
X154941333Y-94551349D01*
X153922887Y-94184100D01*
X152904442Y-93816851D01*
X152928054Y-92750043D01*
X152951666Y-91683236D01*
X153925333Y-91334453D01*
X154393138Y-91157758D01*
X154708388Y-91016402D01*
X154882790Y-90904589D01*
X154927949Y-90837993D01*
X154913578Y-90732045D01*
X154800949Y-90739900D01*
X154689364Y-90778952D01*
X154436531Y-90869536D01*
X154060293Y-91005195D01*
X153578497Y-91179472D01*
X153008987Y-91385909D01*
X152655333Y-91514310D01*
X152655333Y-91812375D01*
X152655333Y-92741187D01*
X152649944Y-93114882D01*
X152635333Y-93416734D01*
X152613836Y-93612525D01*
X152591933Y-93670000D01*
X152479794Y-93643843D01*
X152244793Y-93573244D01*
X151921842Y-93470008D01*
X151545851Y-93345944D01*
X151151733Y-93212857D01*
X150774399Y-93082554D01*
X150448759Y-92966842D01*
X150209724Y-92877527D01*
X150092207Y-92826417D01*
X150087472Y-92823012D01*
X150116194Y-92761157D01*
X150268344Y-92675957D01*
X150383806Y-92630632D01*
X150612589Y-92549487D01*
X150951768Y-92428044D01*
X151352576Y-92283807D01*
X151702833Y-92157247D01*
X152655333Y-91812375D01*
X152655333Y-91514310D01*
X152369609Y-91618048D01*
X151678207Y-91869431D01*
X151427666Y-91960608D01*
X150610798Y-92259002D01*
X149939976Y-92506798D01*
X149401534Y-92709661D01*
X148981806Y-92873257D01*
X148667126Y-93003252D01*
X148443828Y-93105312D01*
X148298245Y-93185103D01*
X148216711Y-93248291D01*
X148185561Y-93300541D01*
X148184732Y-93305102D01*
X148191868Y-93380426D01*
G37*
X148191868Y-93380426D02*
X148252708Y-93452393D01*
X148390521Y-93532991D01*
X148628574Y-93634210D01*
X148990133Y-93768038D01*
X149285398Y-93872252D01*
X149689917Y-94013647D01*
X150215823Y-94197417D01*
X150824635Y-94410118D01*
X151477869Y-94638305D01*
X152137045Y-94868535D01*
X152528333Y-95005182D01*
X154645000Y-95744333D01*
X154671034Y-96104167D01*
X154714849Y-96361059D01*
X154799844Y-96461767D01*
X154819201Y-96464000D01*
X154873616Y-96434258D01*
X154909706Y-96327892D01*
X154930752Y-96119193D01*
X154940039Y-95782451D01*
X154941333Y-95507674D01*
X154941333Y-94551349D01*
X153922887Y-94184100D01*
X152904442Y-93816851D01*
X152928054Y-92750043D01*
X152951666Y-91683236D01*
X153925333Y-91334453D01*
X154393138Y-91157758D01*
X154708388Y-91016402D01*
X154882790Y-90904589D01*
X154927949Y-90837993D01*
X154913578Y-90732045D01*
X154800949Y-90739900D01*
X154689364Y-90778952D01*
X154436531Y-90869536D01*
X154060293Y-91005195D01*
X153578497Y-91179472D01*
X153008987Y-91385909D01*
X152655333Y-91514310D01*
X152655333Y-91812375D01*
X152655333Y-92741187D01*
X152649944Y-93114882D01*
X152635333Y-93416734D01*
X152613836Y-93612525D01*
X152591933Y-93670000D01*
X152479794Y-93643843D01*
X152244793Y-93573244D01*
X151921842Y-93470008D01*
X151545851Y-93345944D01*
X151151733Y-93212857D01*
X150774399Y-93082554D01*
X150448759Y-92966842D01*
X150209724Y-92877527D01*
X150092207Y-92826417D01*
X150087472Y-92823012D01*
X150116194Y-92761157D01*
X150268344Y-92675957D01*
X150383806Y-92630632D01*
X150612589Y-92549487D01*
X150951768Y-92428044D01*
X151352576Y-92283807D01*
X151702833Y-92157247D01*
X152655333Y-91812375D01*
X152655333Y-91514310D01*
X152369609Y-91618048D01*
X151678207Y-91869431D01*
X151427666Y-91960608D01*
X150610798Y-92259002D01*
X149939976Y-92506798D01*
X149401534Y-92709661D01*
X148981806Y-92873257D01*
X148667126Y-93003252D01*
X148443828Y-93105312D01*
X148298245Y-93185103D01*
X148216711Y-93248291D01*
X148185561Y-93300541D01*
X148184732Y-93305102D01*
X148191868Y-93380426D01*
G36*
X154687333Y-102814000D02*
G01*
X154687333Y-103279667D01*
X154698735Y-103560491D01*
X154738743Y-103705072D01*
X154814333Y-103745333D01*
X154867226Y-103720804D01*
X154903478Y-103630516D01*
X154925980Y-103449424D01*
X154937620Y-103152480D01*
X154941290Y-102714636D01*
X154941333Y-102644667D01*
X154941333Y-101544000D01*
X151879222Y-101544000D01*
X151180111Y-101542956D01*
X150539218Y-101539983D01*
X149975070Y-101535324D01*
X149506195Y-101529220D01*
X149151118Y-101521911D01*
X148928367Y-101513638D01*
X148856445Y-101504666D01*
X148943253Y-101470692D01*
X149173337Y-101391076D01*
X149528689Y-101271773D01*
X149991303Y-101118737D01*
X150543174Y-100937922D01*
X151166293Y-100735281D01*
X151842656Y-100516769D01*
X151897389Y-100499146D01*
X152685556Y-100244409D01*
X153326651Y-100034416D01*
X153835311Y-99863664D01*
X154226171Y-99726651D01*
X154513866Y-99617873D01*
X154713033Y-99531827D01*
X154838306Y-99463012D01*
X154904321Y-99405925D01*
X154925052Y-99360796D01*
X154919421Y-99295323D01*
X154867681Y-99232006D01*
X154749158Y-99161742D01*
X154543176Y-99075429D01*
X154229060Y-98963966D01*
X153786134Y-98818248D01*
X153443386Y-98708499D01*
X152817727Y-98508658D01*
X152102584Y-98279268D01*
X151369450Y-98043316D01*
X150689817Y-97823793D01*
X150411666Y-97733630D01*
X148887666Y-97238892D01*
X151914500Y-97232446D01*
X152709548Y-97230505D01*
X153351605Y-97227785D01*
X153857011Y-97223337D01*
X154242107Y-97216211D01*
X154523235Y-97205460D01*
X154716735Y-97190133D01*
X154838948Y-97169283D01*
X154906217Y-97141959D01*
X154934881Y-97107213D01*
X154941283Y-97064097D01*
X154941333Y-97056667D01*
X154937109Y-97013111D01*
X154913792Y-96977747D01*
X154855414Y-96949720D01*
X154746008Y-96928178D01*
X154569607Y-96912268D01*
X154310243Y-96901138D01*
X153951948Y-96893934D01*
X153478755Y-96889805D01*
X152874698Y-96887897D01*
X152123807Y-96887357D01*
X151770558Y-96887333D01*
X148599783Y-96887333D01*
X148574391Y-96407189D01*
X148540970Y-96112088D01*
X148482722Y-95930646D01*
X148443166Y-95892133D01*
X148401070Y-95916800D01*
X148370997Y-96035336D01*
X148351389Y-96266424D01*
X148340688Y-96628745D01*
X148337336Y-97140984D01*
X148337333Y-97161312D01*
X148337333Y-98465401D01*
X152782333Y-99830443D01*
X150581000Y-100543159D01*
X148379666Y-101255875D01*
X148355322Y-102034937D01*
X148330978Y-102814000D01*
X154687333Y-102814000D01*
G37*
X154687333Y-102814000D02*
X154687333Y-103279667D01*
X154698735Y-103560491D01*
X154738743Y-103705072D01*
X154814333Y-103745333D01*
X154867226Y-103720804D01*
X154903478Y-103630516D01*
X154925980Y-103449424D01*
X154937620Y-103152480D01*
X154941290Y-102714636D01*
X154941333Y-102644667D01*
X154941333Y-101544000D01*
X151879222Y-101544000D01*
X151180111Y-101542956D01*
X150539218Y-101539983D01*
X149975070Y-101535324D01*
X149506195Y-101529220D01*
X149151118Y-101521911D01*
X148928367Y-101513638D01*
X148856445Y-101504666D01*
X148943253Y-101470692D01*
X149173337Y-101391076D01*
X149528689Y-101271773D01*
X149991303Y-101118737D01*
X150543174Y-100937922D01*
X151166293Y-100735281D01*
X151842656Y-100516769D01*
X151897389Y-100499146D01*
X152685556Y-100244409D01*
X153326651Y-100034416D01*
X153835311Y-99863664D01*
X154226171Y-99726651D01*
X154513866Y-99617873D01*
X154713033Y-99531827D01*
X154838306Y-99463012D01*
X154904321Y-99405925D01*
X154925052Y-99360796D01*
X154919421Y-99295323D01*
X154867681Y-99232006D01*
X154749158Y-99161742D01*
X154543176Y-99075429D01*
X154229060Y-98963966D01*
X153786134Y-98818248D01*
X153443386Y-98708499D01*
X152817727Y-98508658D01*
X152102584Y-98279268D01*
X151369450Y-98043316D01*
X150689817Y-97823793D01*
X150411666Y-97733630D01*
X148887666Y-97238892D01*
X151914500Y-97232446D01*
X152709548Y-97230505D01*
X153351605Y-97227785D01*
X153857011Y-97223337D01*
X154242107Y-97216211D01*
X154523235Y-97205460D01*
X154716735Y-97190133D01*
X154838948Y-97169283D01*
X154906217Y-97141959D01*
X154934881Y-97107213D01*
X154941283Y-97064097D01*
X154941333Y-97056667D01*
X154937109Y-97013111D01*
X154913792Y-96977747D01*
X154855414Y-96949720D01*
X154746008Y-96928178D01*
X154569607Y-96912268D01*
X154310243Y-96901138D01*
X153951948Y-96893934D01*
X153478755Y-96889805D01*
X152874698Y-96887897D01*
X152123807Y-96887357D01*
X151770558Y-96887333D01*
X148599783Y-96887333D01*
X148574391Y-96407189D01*
X148540970Y-96112088D01*
X148482722Y-95930646D01*
X148443166Y-95892133D01*
X148401070Y-95916800D01*
X148370997Y-96035336D01*
X148351389Y-96266424D01*
X148340688Y-96628745D01*
X148337336Y-97140984D01*
X148337333Y-97161312D01*
X148337333Y-98465401D01*
X152782333Y-99830443D01*
X150581000Y-100543159D01*
X148379666Y-101255875D01*
X148355322Y-102034937D01*
X148330978Y-102814000D01*
X154687333Y-102814000D01*
G36*
X148340167Y-106659860D02*
G01*
X148350599Y-106973813D01*
X148371523Y-107168612D01*
X148405832Y-107269316D01*
X148456421Y-107300981D01*
X148464333Y-107301333D01*
X148538009Y-107262383D01*
X148577603Y-107124275D01*
X148591069Y-106855125D01*
X148591333Y-106792264D01*
X148591333Y-106283194D01*
X151618166Y-106305430D01*
X154645000Y-106327667D01*
X154670391Y-106814500D01*
X154699047Y-107111038D01*
X154750900Y-107264440D01*
X154818558Y-107301333D01*
X154862590Y-107277465D01*
X154894998Y-107191857D01*
X154917428Y-107023510D01*
X154931525Y-106751421D01*
X154938937Y-106354589D01*
X154941309Y-105812012D01*
X154941333Y-105735000D01*
X154939454Y-105173113D01*
X154932724Y-104759549D01*
X154919501Y-104473330D01*
X154898143Y-104293475D01*
X154867008Y-104199006D01*
X154824455Y-104168943D01*
X154818757Y-104168667D01*
X154737289Y-104226280D01*
X154688341Y-104414429D01*
X154670591Y-104613167D01*
X154645000Y-105057667D01*
X151491166Y-105079864D01*
X148337333Y-105102061D01*
X148337333Y-106201697D01*
X148340167Y-106659860D01*
G37*
X148340167Y-106659860D02*
X148350599Y-106973813D01*
X148371523Y-107168612D01*
X148405832Y-107269316D01*
X148456421Y-107300981D01*
X148464333Y-107301333D01*
X148538009Y-107262383D01*
X148577603Y-107124275D01*
X148591069Y-106855125D01*
X148591333Y-106792264D01*
X148591333Y-106283194D01*
X151618166Y-106305430D01*
X154645000Y-106327667D01*
X154670391Y-106814500D01*
X154699047Y-107111038D01*
X154750900Y-107264440D01*
X154818558Y-107301333D01*
X154862590Y-107277465D01*
X154894998Y-107191857D01*
X154917428Y-107023510D01*
X154931525Y-106751421D01*
X154938937Y-106354589D01*
X154941309Y-105812012D01*
X154941333Y-105735000D01*
X154939454Y-105173113D01*
X154932724Y-104759549D01*
X154919501Y-104473330D01*
X154898143Y-104293475D01*
X154867008Y-104199006D01*
X154824455Y-104168943D01*
X154818757Y-104168667D01*
X154737289Y-104226280D01*
X154688341Y-104414429D01*
X154670591Y-104613167D01*
X154645000Y-105057667D01*
X151491166Y-105079864D01*
X148337333Y-105102061D01*
X148337333Y-106201697D01*
X148340167Y-106659860D01*
G36*
X148182153Y-116543213D02*
G01*
X148226263Y-116583379D01*
X148315355Y-116633504D01*
X148462958Y-116699039D01*
X148682601Y-116785435D01*
X148987811Y-116898145D01*
X149392118Y-117042619D01*
X149909050Y-117224310D01*
X150552136Y-117448669D01*
X151334903Y-117721149D01*
X151766333Y-117871368D01*
X154645000Y-118874034D01*
X154671034Y-119226017D01*
X154716354Y-119480368D01*
X154804512Y-119576735D01*
X154819201Y-119578000D01*
X154873701Y-119548207D01*
X154909814Y-119441664D01*
X154930839Y-119232628D01*
X154940076Y-118895354D01*
X154941333Y-118625082D01*
X154941333Y-117672165D01*
X153946500Y-117323883D01*
X152951666Y-116975601D01*
X152951666Y-114811145D01*
X153946069Y-114464073D01*
X154387090Y-114304126D01*
X154685427Y-114179925D01*
X154861402Y-114081355D01*
X154935336Y-113998300D01*
X154940902Y-113968833D01*
X154931242Y-113843835D01*
X154920166Y-113822429D01*
X154838738Y-113850802D01*
X154614774Y-113931150D01*
X154264841Y-114057472D01*
X153805500Y-114223769D01*
X153253319Y-114424039D01*
X152655333Y-114641216D01*
X152655333Y-114928922D01*
X152655333Y-115856461D01*
X152649687Y-116293706D01*
X152631281Y-116581274D01*
X152597912Y-116738491D01*
X152549500Y-116784726D01*
X152431743Y-116759682D01*
X152195921Y-116691393D01*
X151875423Y-116591101D01*
X151503639Y-116470051D01*
X151113959Y-116339485D01*
X150739772Y-116210647D01*
X150414470Y-116094780D01*
X150171442Y-116003128D01*
X150044078Y-115946934D01*
X150032952Y-115937333D01*
X150106534Y-115892353D01*
X150305737Y-115805341D01*
X150596494Y-115690593D01*
X150814331Y-115609407D01*
X151229175Y-115457551D01*
X151656340Y-115300399D01*
X152023140Y-115164713D01*
X152126166Y-115126368D01*
X152655333Y-114928922D01*
X152655333Y-114641216D01*
X152624861Y-114652283D01*
X151936690Y-114902500D01*
X151554666Y-115041517D01*
X150717024Y-115347499D01*
X150025946Y-115602715D01*
X149468256Y-115812586D01*
X149030777Y-115982532D01*
X148700333Y-116117974D01*
X148463748Y-116224331D01*
X148307846Y-116307024D01*
X148219451Y-116371473D01*
X148185385Y-116423099D01*
X148184432Y-116427944D01*
X148174766Y-116470947D01*
X148169497Y-116507552D01*
X148182153Y-116543213D01*
G37*
X148182153Y-116543213D02*
X148226263Y-116583379D01*
X148315355Y-116633504D01*
X148462958Y-116699039D01*
X148682601Y-116785435D01*
X148987811Y-116898145D01*
X149392118Y-117042619D01*
X149909050Y-117224310D01*
X150552136Y-117448669D01*
X151334903Y-117721149D01*
X151766333Y-117871368D01*
X154645000Y-118874034D01*
X154671034Y-119226017D01*
X154716354Y-119480368D01*
X154804512Y-119576735D01*
X154819201Y-119578000D01*
X154873701Y-119548207D01*
X154909814Y-119441664D01*
X154930839Y-119232628D01*
X154940076Y-118895354D01*
X154941333Y-118625082D01*
X154941333Y-117672165D01*
X153946500Y-117323883D01*
X152951666Y-116975601D01*
X152951666Y-114811145D01*
X153946069Y-114464073D01*
X154387090Y-114304126D01*
X154685427Y-114179925D01*
X154861402Y-114081355D01*
X154935336Y-113998300D01*
X154940902Y-113968833D01*
X154931242Y-113843835D01*
X154920166Y-113822429D01*
X154838738Y-113850802D01*
X154614774Y-113931150D01*
X154264841Y-114057472D01*
X153805500Y-114223769D01*
X153253319Y-114424039D01*
X152655333Y-114641216D01*
X152655333Y-114928922D01*
X152655333Y-115856461D01*
X152649687Y-116293706D01*
X152631281Y-116581274D01*
X152597912Y-116738491D01*
X152549500Y-116784726D01*
X152431743Y-116759682D01*
X152195921Y-116691393D01*
X151875423Y-116591101D01*
X151503639Y-116470051D01*
X151113959Y-116339485D01*
X150739772Y-116210647D01*
X150414470Y-116094780D01*
X150171442Y-116003128D01*
X150044078Y-115946934D01*
X150032952Y-115937333D01*
X150106534Y-115892353D01*
X150305737Y-115805341D01*
X150596494Y-115690593D01*
X150814331Y-115609407D01*
X151229175Y-115457551D01*
X151656340Y-115300399D01*
X152023140Y-115164713D01*
X152126166Y-115126368D01*
X152655333Y-114928922D01*
X152655333Y-114641216D01*
X152624861Y-114652283D01*
X151936690Y-114902500D01*
X151554666Y-115041517D01*
X150717024Y-115347499D01*
X150025946Y-115602715D01*
X149468256Y-115812586D01*
X149030777Y-115982532D01*
X148700333Y-116117974D01*
X148463748Y-116224331D01*
X148307846Y-116307024D01*
X148219451Y-116371473D01*
X148185385Y-116423099D01*
X148184432Y-116427944D01*
X148174766Y-116470947D01*
X148169497Y-116507552D01*
X148182153Y-116543213D01*
G36*
X145467633Y-106407739D02*
G01*
X145607635Y-106483128D01*
X145862898Y-106577177D01*
X146134033Y-106665705D01*
X146466241Y-106767201D01*
X146732499Y-106839747D01*
X146895814Y-106873721D01*
X146928509Y-106872320D01*
X146964932Y-106779884D01*
X147034733Y-106562821D01*
X147125798Y-106259608D01*
X147175198Y-106088842D01*
X147279591Y-105691393D01*
X147322952Y-105439452D01*
X147307038Y-105321263D01*
X147291479Y-105310294D01*
X147060605Y-105238992D01*
X146766548Y-105153610D01*
X146456746Y-105067191D01*
X146178638Y-104992776D01*
X145979660Y-104943409D01*
X145910703Y-104930667D01*
X145845300Y-105010411D01*
X145746430Y-105239191D01*
X145619901Y-105601326D01*
X145471518Y-106081134D01*
X145422928Y-106248051D01*
X145415272Y-106334788D01*
X145467633Y-106407739D01*
G37*
X145467633Y-106407739D02*
X145607635Y-106483128D01*
X145862898Y-106577177D01*
X146134033Y-106665705D01*
X146466241Y-106767201D01*
X146732499Y-106839747D01*
X146895814Y-106873721D01*
X146928509Y-106872320D01*
X146964932Y-106779884D01*
X147034733Y-106562821D01*
X147125798Y-106259608D01*
X147175198Y-106088842D01*
X147279591Y-105691393D01*
X147322952Y-105439452D01*
X147307038Y-105321263D01*
X147291479Y-105310294D01*
X147060605Y-105238992D01*
X146766548Y-105153610D01*
X146456746Y-105067191D01*
X146178638Y-104992776D01*
X145979660Y-104943409D01*
X145910703Y-104930667D01*
X145845300Y-105010411D01*
X145746430Y-105239191D01*
X145619901Y-105601326D01*
X145471518Y-106081134D01*
X145422928Y-106248051D01*
X145415272Y-106334788D01*
X145467633Y-106407739D01*
%TD*%
M02*
