M48
; DRILL file {KiCad 5.1.9+dfsg1-1~bpo10+1} date Sun Jun 27 11:52:29 2021
; FORMAT={-:-/ absolute / metric / decimal}
; #@! TF.CreationDate,2021-06-27T11:52:29+02:00
; #@! TF.GenerationSoftware,Kicad,Pcbnew,5.1.9+dfsg1-1~bpo10+1
; #@! TF.FileFunction,Plated,1,2,PTH
FMAT,2
METRIC
T1C0.400
T2C0.813
%
G90
G05
T1
X154.85Y-63.15
T2
X141.18Y-66.31
X141.18Y-68.85
X141.18Y-71.39
X141.18Y-73.93
X141.18Y-76.47
X141.18Y-79.01
X141.18Y-81.55
X141.18Y-84.09
X141.18Y-86.63
X141.18Y-89.17
X141.18Y-91.71
X141.18Y-94.25
X141.18Y-96.79
X141.18Y-99.33
X141.18Y-101.87
X141.18Y-104.41
X141.18Y-106.95
X141.18Y-109.49
X141.18Y-112.03
X141.18Y-114.57
X141.18Y-117.11
X141.18Y-119.65
X141.18Y-122.19
X141.18Y-124.73
X141.18Y-127.27
X141.18Y-129.81
X141.18Y-132.35
X141.18Y-134.89
X141.18Y-137.43
X141.18Y-139.97
X141.18Y-142.51
X141.18Y-145.05
X161.5Y-66.31
X161.5Y-68.85
X161.5Y-71.39
X161.5Y-73.93
X161.5Y-76.47
X161.5Y-79.01
X161.5Y-81.55
X161.5Y-84.09
X161.5Y-86.63
X161.5Y-89.17
X161.5Y-91.71
X161.5Y-94.25
X161.5Y-96.79
X161.5Y-99.33
X161.5Y-101.87
X161.5Y-104.41
X161.5Y-106.95
X161.5Y-109.49
X161.5Y-112.03
X161.5Y-114.57
X161.5Y-117.11
X161.5Y-119.65
X161.5Y-122.19
X161.5Y-124.73
X161.5Y-127.27
X161.5Y-129.81
X161.5Y-132.35
X161.5Y-134.89
X161.5Y-137.43
X161.5Y-139.97
X161.5Y-142.51
X161.5Y-145.05
T0
M30
