%TF.GenerationSoftware,KiCad,Pcbnew,5.1.9+dfsg1-1~bpo10+1*%
%TF.CreationDate,2021-08-08T22:35:49+02:00*%
%TF.ProjectId,flexm68k,666c6578-6d36-4386-9b2e-6b696361645f,0.2*%
%TF.SameCoordinates,Original*%
%TF.FileFunction,Copper,L2,Bot*%
%TF.FilePolarity,Positive*%
%FSLAX46Y46*%
G04 Gerber Fmt 4.6, Leading zero omitted, Abs format (unit mm)*
G04 Created by KiCad (PCBNEW 5.1.9+dfsg1-1~bpo10+1) date 2021-08-08 22:35:49*
%MOMM*%
%LPD*%
G01*
G04 APERTURE LIST*
%TA.AperFunction,ComponentPad*%
%ADD10O,2.400000X1.600000*%
%TD*%
%TA.AperFunction,ComponentPad*%
%ADD11R,2.400000X1.600000*%
%TD*%
%TA.AperFunction,ViaPad*%
%ADD12C,0.800000*%
%TD*%
%TA.AperFunction,Conductor*%
%ADD13C,0.250000*%
%TD*%
%TA.AperFunction,Conductor*%
%ADD14C,0.254000*%
%TD*%
%TA.AperFunction,Conductor*%
%ADD15C,0.100000*%
%TD*%
G04 APERTURE END LIST*
D10*
%TO.P,U1,64*%
%TO.N,/P2*%
X138540000Y-145800000D03*
%TO.P,U1,32*%
%TO.N,/P63*%
X161400000Y-67060000D03*
%TO.P,U1,63*%
%TO.N,/P4*%
X138540000Y-143260000D03*
%TO.P,U1,31*%
%TO.N,/P61*%
X161400000Y-69600000D03*
%TO.P,U1,62*%
%TO.N,/P6*%
X138540000Y-140720000D03*
%TO.P,U1,30*%
%TO.N,/P59*%
X161400000Y-72140000D03*
%TO.P,U1,61*%
%TO.N,/P8*%
X138540000Y-138180000D03*
%TO.P,U1,29*%
%TO.N,/P57*%
X161400000Y-74680000D03*
%TO.P,U1,60*%
%TO.N,/P10*%
X138540000Y-135640000D03*
%TO.P,U1,28*%
%TO.N,/P55*%
X161400000Y-77220000D03*
%TO.P,U1,59*%
%TO.N,/P12*%
X138540000Y-133100000D03*
%TO.P,U1,27*%
%TO.N,/P53*%
X161400000Y-79760000D03*
%TO.P,U1,58*%
%TO.N,/P14*%
X138540000Y-130560000D03*
%TO.P,U1,26*%
%TO.N,/P51*%
X161400000Y-82300000D03*
%TO.P,U1,57*%
%TO.N,/P16*%
X138540000Y-128020000D03*
%TO.P,U1,25*%
%TO.N,/P49*%
X161400000Y-84840000D03*
%TO.P,U1,56*%
%TO.N,/P18*%
X138540000Y-125480000D03*
%TO.P,U1,24*%
%TO.N,/P47*%
X161400000Y-87380000D03*
%TO.P,U1,55*%
%TO.N,/P20*%
X138540000Y-122940000D03*
%TO.P,U1,23*%
%TO.N,/P45*%
X161400000Y-89920000D03*
%TO.P,U1,54*%
%TO.N,/P22*%
X138540000Y-120400000D03*
%TO.P,U1,22*%
%TO.N,/P43*%
X161400000Y-92460000D03*
%TO.P,U1,53*%
%TO.N,GND*%
X138540000Y-117860000D03*
%TO.P,U1,21*%
%TO.N,/P41*%
X161400000Y-95000000D03*
%TO.P,U1,52*%
%TO.N,/P26*%
X138540000Y-115320000D03*
%TO.P,U1,20*%
%TO.N,/P39*%
X161400000Y-97540000D03*
%TO.P,U1,51*%
%TO.N,/P28*%
X138540000Y-112780000D03*
%TO.P,U1,19*%
%TO.N,/P37*%
X161400000Y-100080000D03*
%TO.P,U1,50*%
%TO.N,/P30*%
X138540000Y-110240000D03*
%TO.P,U1,18*%
%TO.N,/P35*%
X161400000Y-102620000D03*
%TO.P,U1,49*%
%TO.N,VCC*%
X138540000Y-107700000D03*
%TO.P,U1,17*%
%TO.N,/P33*%
X161400000Y-105160000D03*
%TO.P,U1,48*%
%TO.N,/P34*%
X138540000Y-105160000D03*
%TO.P,U1,16*%
%TO.N,GND*%
X161400000Y-107700000D03*
%TO.P,U1,47*%
%TO.N,/P36*%
X138540000Y-102620000D03*
%TO.P,U1,15*%
%TO.N,/P29*%
X161400000Y-110240000D03*
%TO.P,U1,46*%
%TO.N,/P38*%
X138540000Y-100080000D03*
%TO.P,U1,14*%
%TO.N,VCC*%
X161400000Y-112780000D03*
%TO.P,U1,45*%
%TO.N,/P40*%
X138540000Y-97540000D03*
%TO.P,U1,13*%
%TO.N,/P25*%
X161400000Y-115320000D03*
%TO.P,U1,44*%
%TO.N,/P42*%
X138540000Y-95000000D03*
%TO.P,U1,12*%
%TO.N,/P23*%
X161400000Y-117860000D03*
%TO.P,U1,43*%
%TO.N,/P44*%
X138540000Y-92460000D03*
%TO.P,U1,11*%
%TO.N,/P21*%
X161400000Y-120400000D03*
%TO.P,U1,42*%
%TO.N,/P46*%
X138540000Y-89920000D03*
%TO.P,U1,10*%
%TO.N,/P19*%
X161400000Y-122940000D03*
%TO.P,U1,41*%
%TO.N,/P48*%
X138540000Y-87380000D03*
%TO.P,U1,9*%
%TO.N,/P17*%
X161400000Y-125480000D03*
%TO.P,U1,40*%
%TO.N,/P50*%
X138540000Y-84840000D03*
%TO.P,U1,8*%
%TO.N,/P15*%
X161400000Y-128020000D03*
%TO.P,U1,39*%
%TO.N,/P52*%
X138540000Y-82300000D03*
%TO.P,U1,7*%
%TO.N,/P13*%
X161400000Y-130560000D03*
%TO.P,U1,38*%
%TO.N,/P54*%
X138540000Y-79760000D03*
%TO.P,U1,6*%
%TO.N,/P11*%
X161400000Y-133100000D03*
%TO.P,U1,37*%
%TO.N,/P56*%
X138540000Y-77220000D03*
%TO.P,U1,5*%
%TO.N,/P9*%
X161400000Y-135640000D03*
%TO.P,U1,36*%
%TO.N,/P58*%
X138540000Y-74680000D03*
%TO.P,U1,4*%
%TO.N,/P7*%
X161400000Y-138180000D03*
%TO.P,U1,35*%
%TO.N,/P60*%
X138540000Y-72140000D03*
%TO.P,U1,3*%
%TO.N,/P5*%
X161400000Y-140720000D03*
%TO.P,U1,34*%
%TO.N,/P62*%
X138540000Y-69600000D03*
%TO.P,U1,2*%
%TO.N,/P3*%
X161400000Y-143260000D03*
%TO.P,U1,33*%
%TO.N,/P64*%
X138540000Y-67060000D03*
D11*
%TO.P,U1,1*%
%TO.N,/P1*%
X161400000Y-145800000D03*
%TD*%
D12*
%TO.N,/P20*%
X150366400Y-113058700D03*
%TD*%
D13*
%TO.N,/P20*%
X138540000Y-122940000D02*
X140485100Y-122940000D01*
X140485100Y-122940000D02*
X150366400Y-113058700D01*
%TD*%
D14*
%TO.N,GND*%
X163340000Y-147340000D02*
X136660000Y-147340000D01*
X136660000Y-120400000D01*
X136698057Y-120400000D01*
X136725764Y-120681309D01*
X136807818Y-120951808D01*
X136941068Y-121201101D01*
X137120392Y-121419608D01*
X137338899Y-121598932D01*
X137471858Y-121670000D01*
X137338899Y-121741068D01*
X137120392Y-121920392D01*
X136941068Y-122138899D01*
X136807818Y-122388192D01*
X136725764Y-122658691D01*
X136698057Y-122940000D01*
X136725764Y-123221309D01*
X136807818Y-123491808D01*
X136941068Y-123741101D01*
X137120392Y-123959608D01*
X137338899Y-124138932D01*
X137471858Y-124210000D01*
X137338899Y-124281068D01*
X137120392Y-124460392D01*
X136941068Y-124678899D01*
X136807818Y-124928192D01*
X136725764Y-125198691D01*
X136698057Y-125480000D01*
X136725764Y-125761309D01*
X136807818Y-126031808D01*
X136941068Y-126281101D01*
X137120392Y-126499608D01*
X137338899Y-126678932D01*
X137471858Y-126750000D01*
X137338899Y-126821068D01*
X137120392Y-127000392D01*
X136941068Y-127218899D01*
X136807818Y-127468192D01*
X136725764Y-127738691D01*
X136698057Y-128020000D01*
X136725764Y-128301309D01*
X136807818Y-128571808D01*
X136941068Y-128821101D01*
X137120392Y-129039608D01*
X137338899Y-129218932D01*
X137471858Y-129290000D01*
X137338899Y-129361068D01*
X137120392Y-129540392D01*
X136941068Y-129758899D01*
X136807818Y-130008192D01*
X136725764Y-130278691D01*
X136698057Y-130560000D01*
X136725764Y-130841309D01*
X136807818Y-131111808D01*
X136941068Y-131361101D01*
X137120392Y-131579608D01*
X137338899Y-131758932D01*
X137471858Y-131830000D01*
X137338899Y-131901068D01*
X137120392Y-132080392D01*
X136941068Y-132298899D01*
X136807818Y-132548192D01*
X136725764Y-132818691D01*
X136698057Y-133100000D01*
X136725764Y-133381309D01*
X136807818Y-133651808D01*
X136941068Y-133901101D01*
X137120392Y-134119608D01*
X137338899Y-134298932D01*
X137471858Y-134370000D01*
X137338899Y-134441068D01*
X137120392Y-134620392D01*
X136941068Y-134838899D01*
X136807818Y-135088192D01*
X136725764Y-135358691D01*
X136698057Y-135640000D01*
X136725764Y-135921309D01*
X136807818Y-136191808D01*
X136941068Y-136441101D01*
X137120392Y-136659608D01*
X137338899Y-136838932D01*
X137471858Y-136910000D01*
X137338899Y-136981068D01*
X137120392Y-137160392D01*
X136941068Y-137378899D01*
X136807818Y-137628192D01*
X136725764Y-137898691D01*
X136698057Y-138180000D01*
X136725764Y-138461309D01*
X136807818Y-138731808D01*
X136941068Y-138981101D01*
X137120392Y-139199608D01*
X137338899Y-139378932D01*
X137471858Y-139450000D01*
X137338899Y-139521068D01*
X137120392Y-139700392D01*
X136941068Y-139918899D01*
X136807818Y-140168192D01*
X136725764Y-140438691D01*
X136698057Y-140720000D01*
X136725764Y-141001309D01*
X136807818Y-141271808D01*
X136941068Y-141521101D01*
X137120392Y-141739608D01*
X137338899Y-141918932D01*
X137471858Y-141990000D01*
X137338899Y-142061068D01*
X137120392Y-142240392D01*
X136941068Y-142458899D01*
X136807818Y-142708192D01*
X136725764Y-142978691D01*
X136698057Y-143260000D01*
X136725764Y-143541309D01*
X136807818Y-143811808D01*
X136941068Y-144061101D01*
X137120392Y-144279608D01*
X137338899Y-144458932D01*
X137471858Y-144530000D01*
X137338899Y-144601068D01*
X137120392Y-144780392D01*
X136941068Y-144998899D01*
X136807818Y-145248192D01*
X136725764Y-145518691D01*
X136698057Y-145800000D01*
X136725764Y-146081309D01*
X136807818Y-146351808D01*
X136941068Y-146601101D01*
X137120392Y-146819608D01*
X137338899Y-146998932D01*
X137588192Y-147132182D01*
X137858691Y-147214236D01*
X138069508Y-147235000D01*
X139010492Y-147235000D01*
X139221309Y-147214236D01*
X139491808Y-147132182D01*
X139741101Y-146998932D01*
X139959608Y-146819608D01*
X140138932Y-146601101D01*
X140272182Y-146351808D01*
X140354236Y-146081309D01*
X140381943Y-145800000D01*
X140354236Y-145518691D01*
X140272182Y-145248192D01*
X140138932Y-144998899D01*
X139959608Y-144780392D01*
X139741101Y-144601068D01*
X139608142Y-144530000D01*
X139741101Y-144458932D01*
X139959608Y-144279608D01*
X140138932Y-144061101D01*
X140272182Y-143811808D01*
X140354236Y-143541309D01*
X140381943Y-143260000D01*
X140354236Y-142978691D01*
X140272182Y-142708192D01*
X140138932Y-142458899D01*
X139959608Y-142240392D01*
X139741101Y-142061068D01*
X139608142Y-141990000D01*
X139741101Y-141918932D01*
X139959608Y-141739608D01*
X140138932Y-141521101D01*
X140272182Y-141271808D01*
X140354236Y-141001309D01*
X140381943Y-140720000D01*
X140354236Y-140438691D01*
X140272182Y-140168192D01*
X140138932Y-139918899D01*
X139959608Y-139700392D01*
X139741101Y-139521068D01*
X139608142Y-139450000D01*
X139741101Y-139378932D01*
X139959608Y-139199608D01*
X140138932Y-138981101D01*
X140272182Y-138731808D01*
X140354236Y-138461309D01*
X140381943Y-138180000D01*
X140354236Y-137898691D01*
X140272182Y-137628192D01*
X140138932Y-137378899D01*
X139959608Y-137160392D01*
X139741101Y-136981068D01*
X139608142Y-136910000D01*
X139741101Y-136838932D01*
X139959608Y-136659608D01*
X140138932Y-136441101D01*
X140272182Y-136191808D01*
X140354236Y-135921309D01*
X140381943Y-135640000D01*
X140354236Y-135358691D01*
X140272182Y-135088192D01*
X140138932Y-134838899D01*
X139959608Y-134620392D01*
X139741101Y-134441068D01*
X139608142Y-134370000D01*
X139741101Y-134298932D01*
X139959608Y-134119608D01*
X140138932Y-133901101D01*
X140272182Y-133651808D01*
X140354236Y-133381309D01*
X140381943Y-133100000D01*
X140354236Y-132818691D01*
X140272182Y-132548192D01*
X140138932Y-132298899D01*
X139959608Y-132080392D01*
X139741101Y-131901068D01*
X139608142Y-131830000D01*
X139741101Y-131758932D01*
X139959608Y-131579608D01*
X140138932Y-131361101D01*
X140272182Y-131111808D01*
X140354236Y-130841309D01*
X140381943Y-130560000D01*
X140354236Y-130278691D01*
X140272182Y-130008192D01*
X140138932Y-129758899D01*
X139959608Y-129540392D01*
X139741101Y-129361068D01*
X139608142Y-129290000D01*
X139741101Y-129218932D01*
X139959608Y-129039608D01*
X140138932Y-128821101D01*
X140272182Y-128571808D01*
X140354236Y-128301309D01*
X140381943Y-128020000D01*
X140354236Y-127738691D01*
X140272182Y-127468192D01*
X140138932Y-127218899D01*
X139959608Y-127000392D01*
X139741101Y-126821068D01*
X139608142Y-126750000D01*
X139741101Y-126678932D01*
X139959608Y-126499608D01*
X140138932Y-126281101D01*
X140272182Y-126031808D01*
X140354236Y-125761309D01*
X140381943Y-125480000D01*
X140354236Y-125198691D01*
X140272182Y-124928192D01*
X140138932Y-124678899D01*
X139959608Y-124460392D01*
X139741101Y-124281068D01*
X139608142Y-124210000D01*
X139741101Y-124138932D01*
X139959608Y-123959608D01*
X140138932Y-123741101D01*
X140160901Y-123700000D01*
X140447778Y-123700000D01*
X140485100Y-123703676D01*
X140522422Y-123700000D01*
X140522433Y-123700000D01*
X140634086Y-123689003D01*
X140777347Y-123645546D01*
X140909376Y-123574974D01*
X141025101Y-123480001D01*
X141048904Y-123450997D01*
X150406203Y-114093700D01*
X150468339Y-114093700D01*
X150668298Y-114053926D01*
X150856656Y-113975905D01*
X151026174Y-113862637D01*
X151170337Y-113718474D01*
X151283605Y-113548956D01*
X151361626Y-113360598D01*
X151401400Y-113160639D01*
X151401400Y-112956761D01*
X151361626Y-112756802D01*
X151283605Y-112568444D01*
X151170337Y-112398926D01*
X151026174Y-112254763D01*
X150856656Y-112141495D01*
X150668298Y-112063474D01*
X150468339Y-112023700D01*
X150264461Y-112023700D01*
X150064502Y-112063474D01*
X149876144Y-112141495D01*
X149706626Y-112254763D01*
X149562463Y-112398926D01*
X149449195Y-112568444D01*
X149371174Y-112756802D01*
X149331400Y-112956761D01*
X149331400Y-113018897D01*
X140170299Y-122180000D01*
X140160901Y-122180000D01*
X140138932Y-122138899D01*
X139959608Y-121920392D01*
X139741101Y-121741068D01*
X139608142Y-121670000D01*
X139741101Y-121598932D01*
X139959608Y-121419608D01*
X140138932Y-121201101D01*
X140272182Y-120951808D01*
X140354236Y-120681309D01*
X140381943Y-120400000D01*
X140354236Y-120118691D01*
X140272182Y-119848192D01*
X140138932Y-119598899D01*
X139959608Y-119380392D01*
X139741101Y-119201068D01*
X139613259Y-119132735D01*
X139842839Y-118982601D01*
X140044500Y-118784895D01*
X140203715Y-118551646D01*
X140314367Y-118291818D01*
X140331904Y-118209039D01*
X140209915Y-117987000D01*
X138667000Y-117987000D01*
X138667000Y-118007000D01*
X138413000Y-118007000D01*
X138413000Y-117987000D01*
X136870085Y-117987000D01*
X136748096Y-118209039D01*
X136765633Y-118291818D01*
X136876285Y-118551646D01*
X137035500Y-118784895D01*
X137237161Y-118982601D01*
X137466741Y-119132735D01*
X137338899Y-119201068D01*
X137120392Y-119380392D01*
X136941068Y-119598899D01*
X136807818Y-119848192D01*
X136725764Y-120118691D01*
X136698057Y-120400000D01*
X136660000Y-120400000D01*
X136660000Y-67060000D01*
X136698057Y-67060000D01*
X136725764Y-67341309D01*
X136807818Y-67611808D01*
X136941068Y-67861101D01*
X137120392Y-68079608D01*
X137338899Y-68258932D01*
X137471858Y-68330000D01*
X137338899Y-68401068D01*
X137120392Y-68580392D01*
X136941068Y-68798899D01*
X136807818Y-69048192D01*
X136725764Y-69318691D01*
X136698057Y-69600000D01*
X136725764Y-69881309D01*
X136807818Y-70151808D01*
X136941068Y-70401101D01*
X137120392Y-70619608D01*
X137338899Y-70798932D01*
X137471858Y-70870000D01*
X137338899Y-70941068D01*
X137120392Y-71120392D01*
X136941068Y-71338899D01*
X136807818Y-71588192D01*
X136725764Y-71858691D01*
X136698057Y-72140000D01*
X136725764Y-72421309D01*
X136807818Y-72691808D01*
X136941068Y-72941101D01*
X137120392Y-73159608D01*
X137338899Y-73338932D01*
X137471858Y-73410000D01*
X137338899Y-73481068D01*
X137120392Y-73660392D01*
X136941068Y-73878899D01*
X136807818Y-74128192D01*
X136725764Y-74398691D01*
X136698057Y-74680000D01*
X136725764Y-74961309D01*
X136807818Y-75231808D01*
X136941068Y-75481101D01*
X137120392Y-75699608D01*
X137338899Y-75878932D01*
X137471858Y-75950000D01*
X137338899Y-76021068D01*
X137120392Y-76200392D01*
X136941068Y-76418899D01*
X136807818Y-76668192D01*
X136725764Y-76938691D01*
X136698057Y-77220000D01*
X136725764Y-77501309D01*
X136807818Y-77771808D01*
X136941068Y-78021101D01*
X137120392Y-78239608D01*
X137338899Y-78418932D01*
X137471858Y-78490000D01*
X137338899Y-78561068D01*
X137120392Y-78740392D01*
X136941068Y-78958899D01*
X136807818Y-79208192D01*
X136725764Y-79478691D01*
X136698057Y-79760000D01*
X136725764Y-80041309D01*
X136807818Y-80311808D01*
X136941068Y-80561101D01*
X137120392Y-80779608D01*
X137338899Y-80958932D01*
X137471858Y-81030000D01*
X137338899Y-81101068D01*
X137120392Y-81280392D01*
X136941068Y-81498899D01*
X136807818Y-81748192D01*
X136725764Y-82018691D01*
X136698057Y-82300000D01*
X136725764Y-82581309D01*
X136807818Y-82851808D01*
X136941068Y-83101101D01*
X137120392Y-83319608D01*
X137338899Y-83498932D01*
X137471858Y-83570000D01*
X137338899Y-83641068D01*
X137120392Y-83820392D01*
X136941068Y-84038899D01*
X136807818Y-84288192D01*
X136725764Y-84558691D01*
X136698057Y-84840000D01*
X136725764Y-85121309D01*
X136807818Y-85391808D01*
X136941068Y-85641101D01*
X137120392Y-85859608D01*
X137338899Y-86038932D01*
X137471858Y-86110000D01*
X137338899Y-86181068D01*
X137120392Y-86360392D01*
X136941068Y-86578899D01*
X136807818Y-86828192D01*
X136725764Y-87098691D01*
X136698057Y-87380000D01*
X136725764Y-87661309D01*
X136807818Y-87931808D01*
X136941068Y-88181101D01*
X137120392Y-88399608D01*
X137338899Y-88578932D01*
X137471858Y-88650000D01*
X137338899Y-88721068D01*
X137120392Y-88900392D01*
X136941068Y-89118899D01*
X136807818Y-89368192D01*
X136725764Y-89638691D01*
X136698057Y-89920000D01*
X136725764Y-90201309D01*
X136807818Y-90471808D01*
X136941068Y-90721101D01*
X137120392Y-90939608D01*
X137338899Y-91118932D01*
X137471858Y-91190000D01*
X137338899Y-91261068D01*
X137120392Y-91440392D01*
X136941068Y-91658899D01*
X136807818Y-91908192D01*
X136725764Y-92178691D01*
X136698057Y-92460000D01*
X136725764Y-92741309D01*
X136807818Y-93011808D01*
X136941068Y-93261101D01*
X137120392Y-93479608D01*
X137338899Y-93658932D01*
X137471858Y-93730000D01*
X137338899Y-93801068D01*
X137120392Y-93980392D01*
X136941068Y-94198899D01*
X136807818Y-94448192D01*
X136725764Y-94718691D01*
X136698057Y-95000000D01*
X136725764Y-95281309D01*
X136807818Y-95551808D01*
X136941068Y-95801101D01*
X137120392Y-96019608D01*
X137338899Y-96198932D01*
X137471858Y-96270000D01*
X137338899Y-96341068D01*
X137120392Y-96520392D01*
X136941068Y-96738899D01*
X136807818Y-96988192D01*
X136725764Y-97258691D01*
X136698057Y-97540000D01*
X136725764Y-97821309D01*
X136807818Y-98091808D01*
X136941068Y-98341101D01*
X137120392Y-98559608D01*
X137338899Y-98738932D01*
X137471858Y-98810000D01*
X137338899Y-98881068D01*
X137120392Y-99060392D01*
X136941068Y-99278899D01*
X136807818Y-99528192D01*
X136725764Y-99798691D01*
X136698057Y-100080000D01*
X136725764Y-100361309D01*
X136807818Y-100631808D01*
X136941068Y-100881101D01*
X137120392Y-101099608D01*
X137338899Y-101278932D01*
X137471858Y-101350000D01*
X137338899Y-101421068D01*
X137120392Y-101600392D01*
X136941068Y-101818899D01*
X136807818Y-102068192D01*
X136725764Y-102338691D01*
X136698057Y-102620000D01*
X136725764Y-102901309D01*
X136807818Y-103171808D01*
X136941068Y-103421101D01*
X137120392Y-103639608D01*
X137338899Y-103818932D01*
X137471858Y-103890000D01*
X137338899Y-103961068D01*
X137120392Y-104140392D01*
X136941068Y-104358899D01*
X136807818Y-104608192D01*
X136725764Y-104878691D01*
X136698057Y-105160000D01*
X136725764Y-105441309D01*
X136807818Y-105711808D01*
X136941068Y-105961101D01*
X137120392Y-106179608D01*
X137338899Y-106358932D01*
X137471858Y-106430000D01*
X137338899Y-106501068D01*
X137120392Y-106680392D01*
X136941068Y-106898899D01*
X136807818Y-107148192D01*
X136725764Y-107418691D01*
X136698057Y-107700000D01*
X136725764Y-107981309D01*
X136807818Y-108251808D01*
X136941068Y-108501101D01*
X137120392Y-108719608D01*
X137338899Y-108898932D01*
X137471858Y-108970000D01*
X137338899Y-109041068D01*
X137120392Y-109220392D01*
X136941068Y-109438899D01*
X136807818Y-109688192D01*
X136725764Y-109958691D01*
X136698057Y-110240000D01*
X136725764Y-110521309D01*
X136807818Y-110791808D01*
X136941068Y-111041101D01*
X137120392Y-111259608D01*
X137338899Y-111438932D01*
X137471858Y-111510000D01*
X137338899Y-111581068D01*
X137120392Y-111760392D01*
X136941068Y-111978899D01*
X136807818Y-112228192D01*
X136725764Y-112498691D01*
X136698057Y-112780000D01*
X136725764Y-113061309D01*
X136807818Y-113331808D01*
X136941068Y-113581101D01*
X137120392Y-113799608D01*
X137338899Y-113978932D01*
X137471858Y-114050000D01*
X137338899Y-114121068D01*
X137120392Y-114300392D01*
X136941068Y-114518899D01*
X136807818Y-114768192D01*
X136725764Y-115038691D01*
X136698057Y-115320000D01*
X136725764Y-115601309D01*
X136807818Y-115871808D01*
X136941068Y-116121101D01*
X137120392Y-116339608D01*
X137338899Y-116518932D01*
X137466741Y-116587265D01*
X137237161Y-116737399D01*
X137035500Y-116935105D01*
X136876285Y-117168354D01*
X136765633Y-117428182D01*
X136748096Y-117510961D01*
X136870085Y-117733000D01*
X138413000Y-117733000D01*
X138413000Y-117713000D01*
X138667000Y-117713000D01*
X138667000Y-117733000D01*
X140209915Y-117733000D01*
X140331904Y-117510961D01*
X140314367Y-117428182D01*
X140203715Y-117168354D01*
X140044500Y-116935105D01*
X139842839Y-116737399D01*
X139613259Y-116587265D01*
X139741101Y-116518932D01*
X139959608Y-116339608D01*
X140138932Y-116121101D01*
X140272182Y-115871808D01*
X140354236Y-115601309D01*
X140381943Y-115320000D01*
X140354236Y-115038691D01*
X140272182Y-114768192D01*
X140138932Y-114518899D01*
X139959608Y-114300392D01*
X139741101Y-114121068D01*
X139608142Y-114050000D01*
X139741101Y-113978932D01*
X139959608Y-113799608D01*
X140138932Y-113581101D01*
X140272182Y-113331808D01*
X140354236Y-113061309D01*
X140381943Y-112780000D01*
X140354236Y-112498691D01*
X140272182Y-112228192D01*
X140138932Y-111978899D01*
X139959608Y-111760392D01*
X139741101Y-111581068D01*
X139608142Y-111510000D01*
X139741101Y-111438932D01*
X139959608Y-111259608D01*
X140138932Y-111041101D01*
X140272182Y-110791808D01*
X140354236Y-110521309D01*
X140381943Y-110240000D01*
X159558057Y-110240000D01*
X159585764Y-110521309D01*
X159667818Y-110791808D01*
X159801068Y-111041101D01*
X159980392Y-111259608D01*
X160198899Y-111438932D01*
X160331858Y-111510000D01*
X160198899Y-111581068D01*
X159980392Y-111760392D01*
X159801068Y-111978899D01*
X159667818Y-112228192D01*
X159585764Y-112498691D01*
X159558057Y-112780000D01*
X159585764Y-113061309D01*
X159667818Y-113331808D01*
X159801068Y-113581101D01*
X159980392Y-113799608D01*
X160198899Y-113978932D01*
X160331858Y-114050000D01*
X160198899Y-114121068D01*
X159980392Y-114300392D01*
X159801068Y-114518899D01*
X159667818Y-114768192D01*
X159585764Y-115038691D01*
X159558057Y-115320000D01*
X159585764Y-115601309D01*
X159667818Y-115871808D01*
X159801068Y-116121101D01*
X159980392Y-116339608D01*
X160198899Y-116518932D01*
X160331858Y-116590000D01*
X160198899Y-116661068D01*
X159980392Y-116840392D01*
X159801068Y-117058899D01*
X159667818Y-117308192D01*
X159585764Y-117578691D01*
X159558057Y-117860000D01*
X159585764Y-118141309D01*
X159667818Y-118411808D01*
X159801068Y-118661101D01*
X159980392Y-118879608D01*
X160198899Y-119058932D01*
X160331858Y-119130000D01*
X160198899Y-119201068D01*
X159980392Y-119380392D01*
X159801068Y-119598899D01*
X159667818Y-119848192D01*
X159585764Y-120118691D01*
X159558057Y-120400000D01*
X159585764Y-120681309D01*
X159667818Y-120951808D01*
X159801068Y-121201101D01*
X159980392Y-121419608D01*
X160198899Y-121598932D01*
X160331858Y-121670000D01*
X160198899Y-121741068D01*
X159980392Y-121920392D01*
X159801068Y-122138899D01*
X159667818Y-122388192D01*
X159585764Y-122658691D01*
X159558057Y-122940000D01*
X159585764Y-123221309D01*
X159667818Y-123491808D01*
X159801068Y-123741101D01*
X159980392Y-123959608D01*
X160198899Y-124138932D01*
X160331858Y-124210000D01*
X160198899Y-124281068D01*
X159980392Y-124460392D01*
X159801068Y-124678899D01*
X159667818Y-124928192D01*
X159585764Y-125198691D01*
X159558057Y-125480000D01*
X159585764Y-125761309D01*
X159667818Y-126031808D01*
X159801068Y-126281101D01*
X159980392Y-126499608D01*
X160198899Y-126678932D01*
X160331858Y-126750000D01*
X160198899Y-126821068D01*
X159980392Y-127000392D01*
X159801068Y-127218899D01*
X159667818Y-127468192D01*
X159585764Y-127738691D01*
X159558057Y-128020000D01*
X159585764Y-128301309D01*
X159667818Y-128571808D01*
X159801068Y-128821101D01*
X159980392Y-129039608D01*
X160198899Y-129218932D01*
X160331858Y-129290000D01*
X160198899Y-129361068D01*
X159980392Y-129540392D01*
X159801068Y-129758899D01*
X159667818Y-130008192D01*
X159585764Y-130278691D01*
X159558057Y-130560000D01*
X159585764Y-130841309D01*
X159667818Y-131111808D01*
X159801068Y-131361101D01*
X159980392Y-131579608D01*
X160198899Y-131758932D01*
X160331858Y-131830000D01*
X160198899Y-131901068D01*
X159980392Y-132080392D01*
X159801068Y-132298899D01*
X159667818Y-132548192D01*
X159585764Y-132818691D01*
X159558057Y-133100000D01*
X159585764Y-133381309D01*
X159667818Y-133651808D01*
X159801068Y-133901101D01*
X159980392Y-134119608D01*
X160198899Y-134298932D01*
X160331858Y-134370000D01*
X160198899Y-134441068D01*
X159980392Y-134620392D01*
X159801068Y-134838899D01*
X159667818Y-135088192D01*
X159585764Y-135358691D01*
X159558057Y-135640000D01*
X159585764Y-135921309D01*
X159667818Y-136191808D01*
X159801068Y-136441101D01*
X159980392Y-136659608D01*
X160198899Y-136838932D01*
X160331858Y-136910000D01*
X160198899Y-136981068D01*
X159980392Y-137160392D01*
X159801068Y-137378899D01*
X159667818Y-137628192D01*
X159585764Y-137898691D01*
X159558057Y-138180000D01*
X159585764Y-138461309D01*
X159667818Y-138731808D01*
X159801068Y-138981101D01*
X159980392Y-139199608D01*
X160198899Y-139378932D01*
X160331858Y-139450000D01*
X160198899Y-139521068D01*
X159980392Y-139700392D01*
X159801068Y-139918899D01*
X159667818Y-140168192D01*
X159585764Y-140438691D01*
X159558057Y-140720000D01*
X159585764Y-141001309D01*
X159667818Y-141271808D01*
X159801068Y-141521101D01*
X159980392Y-141739608D01*
X160198899Y-141918932D01*
X160331858Y-141990000D01*
X160198899Y-142061068D01*
X159980392Y-142240392D01*
X159801068Y-142458899D01*
X159667818Y-142708192D01*
X159585764Y-142978691D01*
X159558057Y-143260000D01*
X159585764Y-143541309D01*
X159667818Y-143811808D01*
X159801068Y-144061101D01*
X159980392Y-144279608D01*
X160093482Y-144372419D01*
X160075518Y-144374188D01*
X159955820Y-144410498D01*
X159845506Y-144469463D01*
X159748815Y-144548815D01*
X159669463Y-144645506D01*
X159610498Y-144755820D01*
X159574188Y-144875518D01*
X159561928Y-145000000D01*
X159561928Y-146600000D01*
X159574188Y-146724482D01*
X159610498Y-146844180D01*
X159669463Y-146954494D01*
X159748815Y-147051185D01*
X159845506Y-147130537D01*
X159955820Y-147189502D01*
X160075518Y-147225812D01*
X160200000Y-147238072D01*
X162600000Y-147238072D01*
X162724482Y-147225812D01*
X162844180Y-147189502D01*
X162954494Y-147130537D01*
X163051185Y-147051185D01*
X163130537Y-146954494D01*
X163189502Y-146844180D01*
X163225812Y-146724482D01*
X163238072Y-146600000D01*
X163238072Y-145000000D01*
X163225812Y-144875518D01*
X163189502Y-144755820D01*
X163130537Y-144645506D01*
X163051185Y-144548815D01*
X162954494Y-144469463D01*
X162844180Y-144410498D01*
X162724482Y-144374188D01*
X162706518Y-144372419D01*
X162819608Y-144279608D01*
X162998932Y-144061101D01*
X163132182Y-143811808D01*
X163214236Y-143541309D01*
X163241943Y-143260000D01*
X163214236Y-142978691D01*
X163132182Y-142708192D01*
X162998932Y-142458899D01*
X162819608Y-142240392D01*
X162601101Y-142061068D01*
X162468142Y-141990000D01*
X162601101Y-141918932D01*
X162819608Y-141739608D01*
X162998932Y-141521101D01*
X163132182Y-141271808D01*
X163214236Y-141001309D01*
X163241943Y-140720000D01*
X163214236Y-140438691D01*
X163132182Y-140168192D01*
X162998932Y-139918899D01*
X162819608Y-139700392D01*
X162601101Y-139521068D01*
X162468142Y-139450000D01*
X162601101Y-139378932D01*
X162819608Y-139199608D01*
X162998932Y-138981101D01*
X163132182Y-138731808D01*
X163214236Y-138461309D01*
X163241943Y-138180000D01*
X163214236Y-137898691D01*
X163132182Y-137628192D01*
X162998932Y-137378899D01*
X162819608Y-137160392D01*
X162601101Y-136981068D01*
X162468142Y-136910000D01*
X162601101Y-136838932D01*
X162819608Y-136659608D01*
X162998932Y-136441101D01*
X163132182Y-136191808D01*
X163214236Y-135921309D01*
X163241943Y-135640000D01*
X163214236Y-135358691D01*
X163132182Y-135088192D01*
X162998932Y-134838899D01*
X162819608Y-134620392D01*
X162601101Y-134441068D01*
X162468142Y-134370000D01*
X162601101Y-134298932D01*
X162819608Y-134119608D01*
X162998932Y-133901101D01*
X163132182Y-133651808D01*
X163214236Y-133381309D01*
X163241943Y-133100000D01*
X163214236Y-132818691D01*
X163132182Y-132548192D01*
X162998932Y-132298899D01*
X162819608Y-132080392D01*
X162601101Y-131901068D01*
X162468142Y-131830000D01*
X162601101Y-131758932D01*
X162819608Y-131579608D01*
X162998932Y-131361101D01*
X163132182Y-131111808D01*
X163214236Y-130841309D01*
X163241943Y-130560000D01*
X163214236Y-130278691D01*
X163132182Y-130008192D01*
X162998932Y-129758899D01*
X162819608Y-129540392D01*
X162601101Y-129361068D01*
X162468142Y-129290000D01*
X162601101Y-129218932D01*
X162819608Y-129039608D01*
X162998932Y-128821101D01*
X163132182Y-128571808D01*
X163214236Y-128301309D01*
X163241943Y-128020000D01*
X163214236Y-127738691D01*
X163132182Y-127468192D01*
X162998932Y-127218899D01*
X162819608Y-127000392D01*
X162601101Y-126821068D01*
X162468142Y-126750000D01*
X162601101Y-126678932D01*
X162819608Y-126499608D01*
X162998932Y-126281101D01*
X163132182Y-126031808D01*
X163214236Y-125761309D01*
X163241943Y-125480000D01*
X163214236Y-125198691D01*
X163132182Y-124928192D01*
X162998932Y-124678899D01*
X162819608Y-124460392D01*
X162601101Y-124281068D01*
X162468142Y-124210000D01*
X162601101Y-124138932D01*
X162819608Y-123959608D01*
X162998932Y-123741101D01*
X163132182Y-123491808D01*
X163214236Y-123221309D01*
X163241943Y-122940000D01*
X163214236Y-122658691D01*
X163132182Y-122388192D01*
X162998932Y-122138899D01*
X162819608Y-121920392D01*
X162601101Y-121741068D01*
X162468142Y-121670000D01*
X162601101Y-121598932D01*
X162819608Y-121419608D01*
X162998932Y-121201101D01*
X163132182Y-120951808D01*
X163214236Y-120681309D01*
X163241943Y-120400000D01*
X163214236Y-120118691D01*
X163132182Y-119848192D01*
X162998932Y-119598899D01*
X162819608Y-119380392D01*
X162601101Y-119201068D01*
X162468142Y-119130000D01*
X162601101Y-119058932D01*
X162819608Y-118879608D01*
X162998932Y-118661101D01*
X163132182Y-118411808D01*
X163214236Y-118141309D01*
X163241943Y-117860000D01*
X163214236Y-117578691D01*
X163132182Y-117308192D01*
X162998932Y-117058899D01*
X162819608Y-116840392D01*
X162601101Y-116661068D01*
X162468142Y-116590000D01*
X162601101Y-116518932D01*
X162819608Y-116339608D01*
X162998932Y-116121101D01*
X163132182Y-115871808D01*
X163214236Y-115601309D01*
X163241943Y-115320000D01*
X163214236Y-115038691D01*
X163132182Y-114768192D01*
X162998932Y-114518899D01*
X162819608Y-114300392D01*
X162601101Y-114121068D01*
X162468142Y-114050000D01*
X162601101Y-113978932D01*
X162819608Y-113799608D01*
X162998932Y-113581101D01*
X163132182Y-113331808D01*
X163214236Y-113061309D01*
X163241943Y-112780000D01*
X163214236Y-112498691D01*
X163132182Y-112228192D01*
X162998932Y-111978899D01*
X162819608Y-111760392D01*
X162601101Y-111581068D01*
X162468142Y-111510000D01*
X162601101Y-111438932D01*
X162819608Y-111259608D01*
X162998932Y-111041101D01*
X163132182Y-110791808D01*
X163214236Y-110521309D01*
X163241943Y-110240000D01*
X163214236Y-109958691D01*
X163132182Y-109688192D01*
X162998932Y-109438899D01*
X162819608Y-109220392D01*
X162601101Y-109041068D01*
X162473259Y-108972735D01*
X162702839Y-108822601D01*
X162904500Y-108624895D01*
X163063715Y-108391646D01*
X163174367Y-108131818D01*
X163191904Y-108049039D01*
X163069915Y-107827000D01*
X161527000Y-107827000D01*
X161527000Y-107847000D01*
X161273000Y-107847000D01*
X161273000Y-107827000D01*
X159730085Y-107827000D01*
X159608096Y-108049039D01*
X159625633Y-108131818D01*
X159736285Y-108391646D01*
X159895500Y-108624895D01*
X160097161Y-108822601D01*
X160326741Y-108972735D01*
X160198899Y-109041068D01*
X159980392Y-109220392D01*
X159801068Y-109438899D01*
X159667818Y-109688192D01*
X159585764Y-109958691D01*
X159558057Y-110240000D01*
X140381943Y-110240000D01*
X140354236Y-109958691D01*
X140272182Y-109688192D01*
X140138932Y-109438899D01*
X139959608Y-109220392D01*
X139741101Y-109041068D01*
X139608142Y-108970000D01*
X139741101Y-108898932D01*
X139959608Y-108719608D01*
X140138932Y-108501101D01*
X140272182Y-108251808D01*
X140354236Y-107981309D01*
X140381943Y-107700000D01*
X140354236Y-107418691D01*
X140272182Y-107148192D01*
X140138932Y-106898899D01*
X139959608Y-106680392D01*
X139741101Y-106501068D01*
X139608142Y-106430000D01*
X139741101Y-106358932D01*
X139959608Y-106179608D01*
X140138932Y-105961101D01*
X140272182Y-105711808D01*
X140354236Y-105441309D01*
X140381943Y-105160000D01*
X140354236Y-104878691D01*
X140272182Y-104608192D01*
X140138932Y-104358899D01*
X139959608Y-104140392D01*
X139741101Y-103961068D01*
X139608142Y-103890000D01*
X139741101Y-103818932D01*
X139959608Y-103639608D01*
X140138932Y-103421101D01*
X140272182Y-103171808D01*
X140354236Y-102901309D01*
X140381943Y-102620000D01*
X140354236Y-102338691D01*
X140272182Y-102068192D01*
X140138932Y-101818899D01*
X139959608Y-101600392D01*
X139741101Y-101421068D01*
X139608142Y-101350000D01*
X139741101Y-101278932D01*
X139959608Y-101099608D01*
X140138932Y-100881101D01*
X140272182Y-100631808D01*
X140354236Y-100361309D01*
X140381943Y-100080000D01*
X140354236Y-99798691D01*
X140272182Y-99528192D01*
X140138932Y-99278899D01*
X139959608Y-99060392D01*
X139741101Y-98881068D01*
X139608142Y-98810000D01*
X139741101Y-98738932D01*
X139959608Y-98559608D01*
X140138932Y-98341101D01*
X140272182Y-98091808D01*
X140354236Y-97821309D01*
X140381943Y-97540000D01*
X140354236Y-97258691D01*
X140272182Y-96988192D01*
X140138932Y-96738899D01*
X139959608Y-96520392D01*
X139741101Y-96341068D01*
X139608142Y-96270000D01*
X139741101Y-96198932D01*
X139959608Y-96019608D01*
X140138932Y-95801101D01*
X140272182Y-95551808D01*
X140354236Y-95281309D01*
X140381943Y-95000000D01*
X140354236Y-94718691D01*
X140272182Y-94448192D01*
X140138932Y-94198899D01*
X139959608Y-93980392D01*
X139741101Y-93801068D01*
X139608142Y-93730000D01*
X139741101Y-93658932D01*
X139959608Y-93479608D01*
X140138932Y-93261101D01*
X140272182Y-93011808D01*
X140354236Y-92741309D01*
X140381943Y-92460000D01*
X140354236Y-92178691D01*
X140272182Y-91908192D01*
X140138932Y-91658899D01*
X139959608Y-91440392D01*
X139741101Y-91261068D01*
X139608142Y-91190000D01*
X139741101Y-91118932D01*
X139959608Y-90939608D01*
X140138932Y-90721101D01*
X140272182Y-90471808D01*
X140354236Y-90201309D01*
X140381943Y-89920000D01*
X140354236Y-89638691D01*
X140272182Y-89368192D01*
X140138932Y-89118899D01*
X139959608Y-88900392D01*
X139741101Y-88721068D01*
X139608142Y-88650000D01*
X139741101Y-88578932D01*
X139959608Y-88399608D01*
X140138932Y-88181101D01*
X140272182Y-87931808D01*
X140354236Y-87661309D01*
X140381943Y-87380000D01*
X140354236Y-87098691D01*
X140272182Y-86828192D01*
X140138932Y-86578899D01*
X139959608Y-86360392D01*
X139741101Y-86181068D01*
X139608142Y-86110000D01*
X139741101Y-86038932D01*
X139959608Y-85859608D01*
X140138932Y-85641101D01*
X140272182Y-85391808D01*
X140354236Y-85121309D01*
X140381943Y-84840000D01*
X140354236Y-84558691D01*
X140272182Y-84288192D01*
X140138932Y-84038899D01*
X139959608Y-83820392D01*
X139741101Y-83641068D01*
X139608142Y-83570000D01*
X139741101Y-83498932D01*
X139959608Y-83319608D01*
X140138932Y-83101101D01*
X140272182Y-82851808D01*
X140354236Y-82581309D01*
X140381943Y-82300000D01*
X140354236Y-82018691D01*
X140272182Y-81748192D01*
X140138932Y-81498899D01*
X139959608Y-81280392D01*
X139741101Y-81101068D01*
X139608142Y-81030000D01*
X139741101Y-80958932D01*
X139959608Y-80779608D01*
X140138932Y-80561101D01*
X140272182Y-80311808D01*
X140354236Y-80041309D01*
X140381943Y-79760000D01*
X140354236Y-79478691D01*
X140272182Y-79208192D01*
X140138932Y-78958899D01*
X139959608Y-78740392D01*
X139741101Y-78561068D01*
X139608142Y-78490000D01*
X139741101Y-78418932D01*
X139959608Y-78239608D01*
X140138932Y-78021101D01*
X140272182Y-77771808D01*
X140354236Y-77501309D01*
X140381943Y-77220000D01*
X140354236Y-76938691D01*
X140272182Y-76668192D01*
X140138932Y-76418899D01*
X139959608Y-76200392D01*
X139741101Y-76021068D01*
X139608142Y-75950000D01*
X139741101Y-75878932D01*
X139959608Y-75699608D01*
X140138932Y-75481101D01*
X140272182Y-75231808D01*
X140354236Y-74961309D01*
X140381943Y-74680000D01*
X140354236Y-74398691D01*
X140272182Y-74128192D01*
X140138932Y-73878899D01*
X139959608Y-73660392D01*
X139741101Y-73481068D01*
X139608142Y-73410000D01*
X139741101Y-73338932D01*
X139959608Y-73159608D01*
X140138932Y-72941101D01*
X140272182Y-72691808D01*
X140354236Y-72421309D01*
X140381943Y-72140000D01*
X140354236Y-71858691D01*
X140272182Y-71588192D01*
X140138932Y-71338899D01*
X139959608Y-71120392D01*
X139741101Y-70941068D01*
X139608142Y-70870000D01*
X139741101Y-70798932D01*
X139959608Y-70619608D01*
X140138932Y-70401101D01*
X140272182Y-70151808D01*
X140354236Y-69881309D01*
X140381943Y-69600000D01*
X140354236Y-69318691D01*
X140272182Y-69048192D01*
X140138932Y-68798899D01*
X139959608Y-68580392D01*
X139741101Y-68401068D01*
X139608142Y-68330000D01*
X139741101Y-68258932D01*
X139959608Y-68079608D01*
X140138932Y-67861101D01*
X140272182Y-67611808D01*
X140354236Y-67341309D01*
X140381943Y-67060000D01*
X159558057Y-67060000D01*
X159585764Y-67341309D01*
X159667818Y-67611808D01*
X159801068Y-67861101D01*
X159980392Y-68079608D01*
X160198899Y-68258932D01*
X160331858Y-68330000D01*
X160198899Y-68401068D01*
X159980392Y-68580392D01*
X159801068Y-68798899D01*
X159667818Y-69048192D01*
X159585764Y-69318691D01*
X159558057Y-69600000D01*
X159585764Y-69881309D01*
X159667818Y-70151808D01*
X159801068Y-70401101D01*
X159980392Y-70619608D01*
X160198899Y-70798932D01*
X160331858Y-70870000D01*
X160198899Y-70941068D01*
X159980392Y-71120392D01*
X159801068Y-71338899D01*
X159667818Y-71588192D01*
X159585764Y-71858691D01*
X159558057Y-72140000D01*
X159585764Y-72421309D01*
X159667818Y-72691808D01*
X159801068Y-72941101D01*
X159980392Y-73159608D01*
X160198899Y-73338932D01*
X160331858Y-73410000D01*
X160198899Y-73481068D01*
X159980392Y-73660392D01*
X159801068Y-73878899D01*
X159667818Y-74128192D01*
X159585764Y-74398691D01*
X159558057Y-74680000D01*
X159585764Y-74961309D01*
X159667818Y-75231808D01*
X159801068Y-75481101D01*
X159980392Y-75699608D01*
X160198899Y-75878932D01*
X160331858Y-75950000D01*
X160198899Y-76021068D01*
X159980392Y-76200392D01*
X159801068Y-76418899D01*
X159667818Y-76668192D01*
X159585764Y-76938691D01*
X159558057Y-77220000D01*
X159585764Y-77501309D01*
X159667818Y-77771808D01*
X159801068Y-78021101D01*
X159980392Y-78239608D01*
X160198899Y-78418932D01*
X160331858Y-78490000D01*
X160198899Y-78561068D01*
X159980392Y-78740392D01*
X159801068Y-78958899D01*
X159667818Y-79208192D01*
X159585764Y-79478691D01*
X159558057Y-79760000D01*
X159585764Y-80041309D01*
X159667818Y-80311808D01*
X159801068Y-80561101D01*
X159980392Y-80779608D01*
X160198899Y-80958932D01*
X160331858Y-81030000D01*
X160198899Y-81101068D01*
X159980392Y-81280392D01*
X159801068Y-81498899D01*
X159667818Y-81748192D01*
X159585764Y-82018691D01*
X159558057Y-82300000D01*
X159585764Y-82581309D01*
X159667818Y-82851808D01*
X159801068Y-83101101D01*
X159980392Y-83319608D01*
X160198899Y-83498932D01*
X160331858Y-83570000D01*
X160198899Y-83641068D01*
X159980392Y-83820392D01*
X159801068Y-84038899D01*
X159667818Y-84288192D01*
X159585764Y-84558691D01*
X159558057Y-84840000D01*
X159585764Y-85121309D01*
X159667818Y-85391808D01*
X159801068Y-85641101D01*
X159980392Y-85859608D01*
X160198899Y-86038932D01*
X160331858Y-86110000D01*
X160198899Y-86181068D01*
X159980392Y-86360392D01*
X159801068Y-86578899D01*
X159667818Y-86828192D01*
X159585764Y-87098691D01*
X159558057Y-87380000D01*
X159585764Y-87661309D01*
X159667818Y-87931808D01*
X159801068Y-88181101D01*
X159980392Y-88399608D01*
X160198899Y-88578932D01*
X160331858Y-88650000D01*
X160198899Y-88721068D01*
X159980392Y-88900392D01*
X159801068Y-89118899D01*
X159667818Y-89368192D01*
X159585764Y-89638691D01*
X159558057Y-89920000D01*
X159585764Y-90201309D01*
X159667818Y-90471808D01*
X159801068Y-90721101D01*
X159980392Y-90939608D01*
X160198899Y-91118932D01*
X160331858Y-91190000D01*
X160198899Y-91261068D01*
X159980392Y-91440392D01*
X159801068Y-91658899D01*
X159667818Y-91908192D01*
X159585764Y-92178691D01*
X159558057Y-92460000D01*
X159585764Y-92741309D01*
X159667818Y-93011808D01*
X159801068Y-93261101D01*
X159980392Y-93479608D01*
X160198899Y-93658932D01*
X160331858Y-93730000D01*
X160198899Y-93801068D01*
X159980392Y-93980392D01*
X159801068Y-94198899D01*
X159667818Y-94448192D01*
X159585764Y-94718691D01*
X159558057Y-95000000D01*
X159585764Y-95281309D01*
X159667818Y-95551808D01*
X159801068Y-95801101D01*
X159980392Y-96019608D01*
X160198899Y-96198932D01*
X160331858Y-96270000D01*
X160198899Y-96341068D01*
X159980392Y-96520392D01*
X159801068Y-96738899D01*
X159667818Y-96988192D01*
X159585764Y-97258691D01*
X159558057Y-97540000D01*
X159585764Y-97821309D01*
X159667818Y-98091808D01*
X159801068Y-98341101D01*
X159980392Y-98559608D01*
X160198899Y-98738932D01*
X160331858Y-98810000D01*
X160198899Y-98881068D01*
X159980392Y-99060392D01*
X159801068Y-99278899D01*
X159667818Y-99528192D01*
X159585764Y-99798691D01*
X159558057Y-100080000D01*
X159585764Y-100361309D01*
X159667818Y-100631808D01*
X159801068Y-100881101D01*
X159980392Y-101099608D01*
X160198899Y-101278932D01*
X160331858Y-101350000D01*
X160198899Y-101421068D01*
X159980392Y-101600392D01*
X159801068Y-101818899D01*
X159667818Y-102068192D01*
X159585764Y-102338691D01*
X159558057Y-102620000D01*
X159585764Y-102901309D01*
X159667818Y-103171808D01*
X159801068Y-103421101D01*
X159980392Y-103639608D01*
X160198899Y-103818932D01*
X160331858Y-103890000D01*
X160198899Y-103961068D01*
X159980392Y-104140392D01*
X159801068Y-104358899D01*
X159667818Y-104608192D01*
X159585764Y-104878691D01*
X159558057Y-105160000D01*
X159585764Y-105441309D01*
X159667818Y-105711808D01*
X159801068Y-105961101D01*
X159980392Y-106179608D01*
X160198899Y-106358932D01*
X160326741Y-106427265D01*
X160097161Y-106577399D01*
X159895500Y-106775105D01*
X159736285Y-107008354D01*
X159625633Y-107268182D01*
X159608096Y-107350961D01*
X159730085Y-107573000D01*
X161273000Y-107573000D01*
X161273000Y-107553000D01*
X161527000Y-107553000D01*
X161527000Y-107573000D01*
X163069915Y-107573000D01*
X163191904Y-107350961D01*
X163174367Y-107268182D01*
X163063715Y-107008354D01*
X162904500Y-106775105D01*
X162702839Y-106577399D01*
X162473259Y-106427265D01*
X162601101Y-106358932D01*
X162819608Y-106179608D01*
X162998932Y-105961101D01*
X163132182Y-105711808D01*
X163214236Y-105441309D01*
X163241943Y-105160000D01*
X163214236Y-104878691D01*
X163132182Y-104608192D01*
X162998932Y-104358899D01*
X162819608Y-104140392D01*
X162601101Y-103961068D01*
X162468142Y-103890000D01*
X162601101Y-103818932D01*
X162819608Y-103639608D01*
X162998932Y-103421101D01*
X163132182Y-103171808D01*
X163214236Y-102901309D01*
X163241943Y-102620000D01*
X163214236Y-102338691D01*
X163132182Y-102068192D01*
X162998932Y-101818899D01*
X162819608Y-101600392D01*
X162601101Y-101421068D01*
X162468142Y-101350000D01*
X162601101Y-101278932D01*
X162819608Y-101099608D01*
X162998932Y-100881101D01*
X163132182Y-100631808D01*
X163214236Y-100361309D01*
X163241943Y-100080000D01*
X163214236Y-99798691D01*
X163132182Y-99528192D01*
X162998932Y-99278899D01*
X162819608Y-99060392D01*
X162601101Y-98881068D01*
X162468142Y-98810000D01*
X162601101Y-98738932D01*
X162819608Y-98559608D01*
X162998932Y-98341101D01*
X163132182Y-98091808D01*
X163214236Y-97821309D01*
X163241943Y-97540000D01*
X163214236Y-97258691D01*
X163132182Y-96988192D01*
X162998932Y-96738899D01*
X162819608Y-96520392D01*
X162601101Y-96341068D01*
X162468142Y-96270000D01*
X162601101Y-96198932D01*
X162819608Y-96019608D01*
X162998932Y-95801101D01*
X163132182Y-95551808D01*
X163214236Y-95281309D01*
X163241943Y-95000000D01*
X163214236Y-94718691D01*
X163132182Y-94448192D01*
X162998932Y-94198899D01*
X162819608Y-93980392D01*
X162601101Y-93801068D01*
X162468142Y-93730000D01*
X162601101Y-93658932D01*
X162819608Y-93479608D01*
X162998932Y-93261101D01*
X163132182Y-93011808D01*
X163214236Y-92741309D01*
X163241943Y-92460000D01*
X163214236Y-92178691D01*
X163132182Y-91908192D01*
X162998932Y-91658899D01*
X162819608Y-91440392D01*
X162601101Y-91261068D01*
X162468142Y-91190000D01*
X162601101Y-91118932D01*
X162819608Y-90939608D01*
X162998932Y-90721101D01*
X163132182Y-90471808D01*
X163214236Y-90201309D01*
X163241943Y-89920000D01*
X163214236Y-89638691D01*
X163132182Y-89368192D01*
X162998932Y-89118899D01*
X162819608Y-88900392D01*
X162601101Y-88721068D01*
X162468142Y-88650000D01*
X162601101Y-88578932D01*
X162819608Y-88399608D01*
X162998932Y-88181101D01*
X163132182Y-87931808D01*
X163214236Y-87661309D01*
X163241943Y-87380000D01*
X163214236Y-87098691D01*
X163132182Y-86828192D01*
X162998932Y-86578899D01*
X162819608Y-86360392D01*
X162601101Y-86181068D01*
X162468142Y-86110000D01*
X162601101Y-86038932D01*
X162819608Y-85859608D01*
X162998932Y-85641101D01*
X163132182Y-85391808D01*
X163214236Y-85121309D01*
X163241943Y-84840000D01*
X163214236Y-84558691D01*
X163132182Y-84288192D01*
X162998932Y-84038899D01*
X162819608Y-83820392D01*
X162601101Y-83641068D01*
X162468142Y-83570000D01*
X162601101Y-83498932D01*
X162819608Y-83319608D01*
X162998932Y-83101101D01*
X163132182Y-82851808D01*
X163214236Y-82581309D01*
X163241943Y-82300000D01*
X163214236Y-82018691D01*
X163132182Y-81748192D01*
X162998932Y-81498899D01*
X162819608Y-81280392D01*
X162601101Y-81101068D01*
X162468142Y-81030000D01*
X162601101Y-80958932D01*
X162819608Y-80779608D01*
X162998932Y-80561101D01*
X163132182Y-80311808D01*
X163214236Y-80041309D01*
X163241943Y-79760000D01*
X163214236Y-79478691D01*
X163132182Y-79208192D01*
X162998932Y-78958899D01*
X162819608Y-78740392D01*
X162601101Y-78561068D01*
X162468142Y-78490000D01*
X162601101Y-78418932D01*
X162819608Y-78239608D01*
X162998932Y-78021101D01*
X163132182Y-77771808D01*
X163214236Y-77501309D01*
X163241943Y-77220000D01*
X163214236Y-76938691D01*
X163132182Y-76668192D01*
X162998932Y-76418899D01*
X162819608Y-76200392D01*
X162601101Y-76021068D01*
X162468142Y-75950000D01*
X162601101Y-75878932D01*
X162819608Y-75699608D01*
X162998932Y-75481101D01*
X163132182Y-75231808D01*
X163214236Y-74961309D01*
X163241943Y-74680000D01*
X163214236Y-74398691D01*
X163132182Y-74128192D01*
X162998932Y-73878899D01*
X162819608Y-73660392D01*
X162601101Y-73481068D01*
X162468142Y-73410000D01*
X162601101Y-73338932D01*
X162819608Y-73159608D01*
X162998932Y-72941101D01*
X163132182Y-72691808D01*
X163214236Y-72421309D01*
X163241943Y-72140000D01*
X163214236Y-71858691D01*
X163132182Y-71588192D01*
X162998932Y-71338899D01*
X162819608Y-71120392D01*
X162601101Y-70941068D01*
X162468142Y-70870000D01*
X162601101Y-70798932D01*
X162819608Y-70619608D01*
X162998932Y-70401101D01*
X163132182Y-70151808D01*
X163214236Y-69881309D01*
X163241943Y-69600000D01*
X163214236Y-69318691D01*
X163132182Y-69048192D01*
X162998932Y-68798899D01*
X162819608Y-68580392D01*
X162601101Y-68401068D01*
X162468142Y-68330000D01*
X162601101Y-68258932D01*
X162819608Y-68079608D01*
X162998932Y-67861101D01*
X163132182Y-67611808D01*
X163214236Y-67341309D01*
X163241943Y-67060000D01*
X163214236Y-66778691D01*
X163132182Y-66508192D01*
X162998932Y-66258899D01*
X162819608Y-66040392D01*
X162601101Y-65861068D01*
X162351808Y-65727818D01*
X162081309Y-65645764D01*
X161870492Y-65625000D01*
X160929508Y-65625000D01*
X160718691Y-65645764D01*
X160448192Y-65727818D01*
X160198899Y-65861068D01*
X159980392Y-66040392D01*
X159801068Y-66258899D01*
X159667818Y-66508192D01*
X159585764Y-66778691D01*
X159558057Y-67060000D01*
X140381943Y-67060000D01*
X140354236Y-66778691D01*
X140272182Y-66508192D01*
X140138932Y-66258899D01*
X139959608Y-66040392D01*
X139741101Y-65861068D01*
X139491808Y-65727818D01*
X139221309Y-65645764D01*
X139010492Y-65625000D01*
X138069508Y-65625000D01*
X137858691Y-65645764D01*
X137588192Y-65727818D01*
X137338899Y-65861068D01*
X137120392Y-66040392D01*
X136941068Y-66258899D01*
X136807818Y-66508192D01*
X136725764Y-66778691D01*
X136698057Y-67060000D01*
X136660000Y-67060000D01*
X136660000Y-60660000D01*
X163340001Y-60660000D01*
X163340000Y-147340000D01*
%TA.AperFunction,Conductor*%
D15*
G36*
X163340000Y-147340000D02*
G01*
X136660000Y-147340000D01*
X136660000Y-120400000D01*
X136698057Y-120400000D01*
X136725764Y-120681309D01*
X136807818Y-120951808D01*
X136941068Y-121201101D01*
X137120392Y-121419608D01*
X137338899Y-121598932D01*
X137471858Y-121670000D01*
X137338899Y-121741068D01*
X137120392Y-121920392D01*
X136941068Y-122138899D01*
X136807818Y-122388192D01*
X136725764Y-122658691D01*
X136698057Y-122940000D01*
X136725764Y-123221309D01*
X136807818Y-123491808D01*
X136941068Y-123741101D01*
X137120392Y-123959608D01*
X137338899Y-124138932D01*
X137471858Y-124210000D01*
X137338899Y-124281068D01*
X137120392Y-124460392D01*
X136941068Y-124678899D01*
X136807818Y-124928192D01*
X136725764Y-125198691D01*
X136698057Y-125480000D01*
X136725764Y-125761309D01*
X136807818Y-126031808D01*
X136941068Y-126281101D01*
X137120392Y-126499608D01*
X137338899Y-126678932D01*
X137471858Y-126750000D01*
X137338899Y-126821068D01*
X137120392Y-127000392D01*
X136941068Y-127218899D01*
X136807818Y-127468192D01*
X136725764Y-127738691D01*
X136698057Y-128020000D01*
X136725764Y-128301309D01*
X136807818Y-128571808D01*
X136941068Y-128821101D01*
X137120392Y-129039608D01*
X137338899Y-129218932D01*
X137471858Y-129290000D01*
X137338899Y-129361068D01*
X137120392Y-129540392D01*
X136941068Y-129758899D01*
X136807818Y-130008192D01*
X136725764Y-130278691D01*
X136698057Y-130560000D01*
X136725764Y-130841309D01*
X136807818Y-131111808D01*
X136941068Y-131361101D01*
X137120392Y-131579608D01*
X137338899Y-131758932D01*
X137471858Y-131830000D01*
X137338899Y-131901068D01*
X137120392Y-132080392D01*
X136941068Y-132298899D01*
X136807818Y-132548192D01*
X136725764Y-132818691D01*
X136698057Y-133100000D01*
X136725764Y-133381309D01*
X136807818Y-133651808D01*
X136941068Y-133901101D01*
X137120392Y-134119608D01*
X137338899Y-134298932D01*
X137471858Y-134370000D01*
X137338899Y-134441068D01*
X137120392Y-134620392D01*
X136941068Y-134838899D01*
X136807818Y-135088192D01*
X136725764Y-135358691D01*
X136698057Y-135640000D01*
X136725764Y-135921309D01*
X136807818Y-136191808D01*
X136941068Y-136441101D01*
X137120392Y-136659608D01*
X137338899Y-136838932D01*
X137471858Y-136910000D01*
X137338899Y-136981068D01*
X137120392Y-137160392D01*
X136941068Y-137378899D01*
X136807818Y-137628192D01*
X136725764Y-137898691D01*
X136698057Y-138180000D01*
X136725764Y-138461309D01*
X136807818Y-138731808D01*
X136941068Y-138981101D01*
X137120392Y-139199608D01*
X137338899Y-139378932D01*
X137471858Y-139450000D01*
X137338899Y-139521068D01*
X137120392Y-139700392D01*
X136941068Y-139918899D01*
X136807818Y-140168192D01*
X136725764Y-140438691D01*
X136698057Y-140720000D01*
X136725764Y-141001309D01*
X136807818Y-141271808D01*
X136941068Y-141521101D01*
X137120392Y-141739608D01*
X137338899Y-141918932D01*
X137471858Y-141990000D01*
X137338899Y-142061068D01*
X137120392Y-142240392D01*
X136941068Y-142458899D01*
X136807818Y-142708192D01*
X136725764Y-142978691D01*
X136698057Y-143260000D01*
X136725764Y-143541309D01*
X136807818Y-143811808D01*
X136941068Y-144061101D01*
X137120392Y-144279608D01*
X137338899Y-144458932D01*
X137471858Y-144530000D01*
X137338899Y-144601068D01*
X137120392Y-144780392D01*
X136941068Y-144998899D01*
X136807818Y-145248192D01*
X136725764Y-145518691D01*
X136698057Y-145800000D01*
X136725764Y-146081309D01*
X136807818Y-146351808D01*
X136941068Y-146601101D01*
X137120392Y-146819608D01*
X137338899Y-146998932D01*
X137588192Y-147132182D01*
X137858691Y-147214236D01*
X138069508Y-147235000D01*
X139010492Y-147235000D01*
X139221309Y-147214236D01*
X139491808Y-147132182D01*
X139741101Y-146998932D01*
X139959608Y-146819608D01*
X140138932Y-146601101D01*
X140272182Y-146351808D01*
X140354236Y-146081309D01*
X140381943Y-145800000D01*
X140354236Y-145518691D01*
X140272182Y-145248192D01*
X140138932Y-144998899D01*
X139959608Y-144780392D01*
X139741101Y-144601068D01*
X139608142Y-144530000D01*
X139741101Y-144458932D01*
X139959608Y-144279608D01*
X140138932Y-144061101D01*
X140272182Y-143811808D01*
X140354236Y-143541309D01*
X140381943Y-143260000D01*
X140354236Y-142978691D01*
X140272182Y-142708192D01*
X140138932Y-142458899D01*
X139959608Y-142240392D01*
X139741101Y-142061068D01*
X139608142Y-141990000D01*
X139741101Y-141918932D01*
X139959608Y-141739608D01*
X140138932Y-141521101D01*
X140272182Y-141271808D01*
X140354236Y-141001309D01*
X140381943Y-140720000D01*
X140354236Y-140438691D01*
X140272182Y-140168192D01*
X140138932Y-139918899D01*
X139959608Y-139700392D01*
X139741101Y-139521068D01*
X139608142Y-139450000D01*
X139741101Y-139378932D01*
X139959608Y-139199608D01*
X140138932Y-138981101D01*
X140272182Y-138731808D01*
X140354236Y-138461309D01*
X140381943Y-138180000D01*
X140354236Y-137898691D01*
X140272182Y-137628192D01*
X140138932Y-137378899D01*
X139959608Y-137160392D01*
X139741101Y-136981068D01*
X139608142Y-136910000D01*
X139741101Y-136838932D01*
X139959608Y-136659608D01*
X140138932Y-136441101D01*
X140272182Y-136191808D01*
X140354236Y-135921309D01*
X140381943Y-135640000D01*
X140354236Y-135358691D01*
X140272182Y-135088192D01*
X140138932Y-134838899D01*
X139959608Y-134620392D01*
X139741101Y-134441068D01*
X139608142Y-134370000D01*
X139741101Y-134298932D01*
X139959608Y-134119608D01*
X140138932Y-133901101D01*
X140272182Y-133651808D01*
X140354236Y-133381309D01*
X140381943Y-133100000D01*
X140354236Y-132818691D01*
X140272182Y-132548192D01*
X140138932Y-132298899D01*
X139959608Y-132080392D01*
X139741101Y-131901068D01*
X139608142Y-131830000D01*
X139741101Y-131758932D01*
X139959608Y-131579608D01*
X140138932Y-131361101D01*
X140272182Y-131111808D01*
X140354236Y-130841309D01*
X140381943Y-130560000D01*
X140354236Y-130278691D01*
X140272182Y-130008192D01*
X140138932Y-129758899D01*
X139959608Y-129540392D01*
X139741101Y-129361068D01*
X139608142Y-129290000D01*
X139741101Y-129218932D01*
X139959608Y-129039608D01*
X140138932Y-128821101D01*
X140272182Y-128571808D01*
X140354236Y-128301309D01*
X140381943Y-128020000D01*
X140354236Y-127738691D01*
X140272182Y-127468192D01*
X140138932Y-127218899D01*
X139959608Y-127000392D01*
X139741101Y-126821068D01*
X139608142Y-126750000D01*
X139741101Y-126678932D01*
X139959608Y-126499608D01*
X140138932Y-126281101D01*
X140272182Y-126031808D01*
X140354236Y-125761309D01*
X140381943Y-125480000D01*
X140354236Y-125198691D01*
X140272182Y-124928192D01*
X140138932Y-124678899D01*
X139959608Y-124460392D01*
X139741101Y-124281068D01*
X139608142Y-124210000D01*
X139741101Y-124138932D01*
X139959608Y-123959608D01*
X140138932Y-123741101D01*
X140160901Y-123700000D01*
X140447778Y-123700000D01*
X140485100Y-123703676D01*
X140522422Y-123700000D01*
X140522433Y-123700000D01*
X140634086Y-123689003D01*
X140777347Y-123645546D01*
X140909376Y-123574974D01*
X141025101Y-123480001D01*
X141048904Y-123450997D01*
X150406203Y-114093700D01*
X150468339Y-114093700D01*
X150668298Y-114053926D01*
X150856656Y-113975905D01*
X151026174Y-113862637D01*
X151170337Y-113718474D01*
X151283605Y-113548956D01*
X151361626Y-113360598D01*
X151401400Y-113160639D01*
X151401400Y-112956761D01*
X151361626Y-112756802D01*
X151283605Y-112568444D01*
X151170337Y-112398926D01*
X151026174Y-112254763D01*
X150856656Y-112141495D01*
X150668298Y-112063474D01*
X150468339Y-112023700D01*
X150264461Y-112023700D01*
X150064502Y-112063474D01*
X149876144Y-112141495D01*
X149706626Y-112254763D01*
X149562463Y-112398926D01*
X149449195Y-112568444D01*
X149371174Y-112756802D01*
X149331400Y-112956761D01*
X149331400Y-113018897D01*
X140170299Y-122180000D01*
X140160901Y-122180000D01*
X140138932Y-122138899D01*
X139959608Y-121920392D01*
X139741101Y-121741068D01*
X139608142Y-121670000D01*
X139741101Y-121598932D01*
X139959608Y-121419608D01*
X140138932Y-121201101D01*
X140272182Y-120951808D01*
X140354236Y-120681309D01*
X140381943Y-120400000D01*
X140354236Y-120118691D01*
X140272182Y-119848192D01*
X140138932Y-119598899D01*
X139959608Y-119380392D01*
X139741101Y-119201068D01*
X139613259Y-119132735D01*
X139842839Y-118982601D01*
X140044500Y-118784895D01*
X140203715Y-118551646D01*
X140314367Y-118291818D01*
X140331904Y-118209039D01*
X140209915Y-117987000D01*
X138667000Y-117987000D01*
X138667000Y-118007000D01*
X138413000Y-118007000D01*
X138413000Y-117987000D01*
X136870085Y-117987000D01*
X136748096Y-118209039D01*
X136765633Y-118291818D01*
X136876285Y-118551646D01*
X137035500Y-118784895D01*
X137237161Y-118982601D01*
X137466741Y-119132735D01*
X137338899Y-119201068D01*
X137120392Y-119380392D01*
X136941068Y-119598899D01*
X136807818Y-119848192D01*
X136725764Y-120118691D01*
X136698057Y-120400000D01*
X136660000Y-120400000D01*
X136660000Y-67060000D01*
X136698057Y-67060000D01*
X136725764Y-67341309D01*
X136807818Y-67611808D01*
X136941068Y-67861101D01*
X137120392Y-68079608D01*
X137338899Y-68258932D01*
X137471858Y-68330000D01*
X137338899Y-68401068D01*
X137120392Y-68580392D01*
X136941068Y-68798899D01*
X136807818Y-69048192D01*
X136725764Y-69318691D01*
X136698057Y-69600000D01*
X136725764Y-69881309D01*
X136807818Y-70151808D01*
X136941068Y-70401101D01*
X137120392Y-70619608D01*
X137338899Y-70798932D01*
X137471858Y-70870000D01*
X137338899Y-70941068D01*
X137120392Y-71120392D01*
X136941068Y-71338899D01*
X136807818Y-71588192D01*
X136725764Y-71858691D01*
X136698057Y-72140000D01*
X136725764Y-72421309D01*
X136807818Y-72691808D01*
X136941068Y-72941101D01*
X137120392Y-73159608D01*
X137338899Y-73338932D01*
X137471858Y-73410000D01*
X137338899Y-73481068D01*
X137120392Y-73660392D01*
X136941068Y-73878899D01*
X136807818Y-74128192D01*
X136725764Y-74398691D01*
X136698057Y-74680000D01*
X136725764Y-74961309D01*
X136807818Y-75231808D01*
X136941068Y-75481101D01*
X137120392Y-75699608D01*
X137338899Y-75878932D01*
X137471858Y-75950000D01*
X137338899Y-76021068D01*
X137120392Y-76200392D01*
X136941068Y-76418899D01*
X136807818Y-76668192D01*
X136725764Y-76938691D01*
X136698057Y-77220000D01*
X136725764Y-77501309D01*
X136807818Y-77771808D01*
X136941068Y-78021101D01*
X137120392Y-78239608D01*
X137338899Y-78418932D01*
X137471858Y-78490000D01*
X137338899Y-78561068D01*
X137120392Y-78740392D01*
X136941068Y-78958899D01*
X136807818Y-79208192D01*
X136725764Y-79478691D01*
X136698057Y-79760000D01*
X136725764Y-80041309D01*
X136807818Y-80311808D01*
X136941068Y-80561101D01*
X137120392Y-80779608D01*
X137338899Y-80958932D01*
X137471858Y-81030000D01*
X137338899Y-81101068D01*
X137120392Y-81280392D01*
X136941068Y-81498899D01*
X136807818Y-81748192D01*
X136725764Y-82018691D01*
X136698057Y-82300000D01*
X136725764Y-82581309D01*
X136807818Y-82851808D01*
X136941068Y-83101101D01*
X137120392Y-83319608D01*
X137338899Y-83498932D01*
X137471858Y-83570000D01*
X137338899Y-83641068D01*
X137120392Y-83820392D01*
X136941068Y-84038899D01*
X136807818Y-84288192D01*
X136725764Y-84558691D01*
X136698057Y-84840000D01*
X136725764Y-85121309D01*
X136807818Y-85391808D01*
X136941068Y-85641101D01*
X137120392Y-85859608D01*
X137338899Y-86038932D01*
X137471858Y-86110000D01*
X137338899Y-86181068D01*
X137120392Y-86360392D01*
X136941068Y-86578899D01*
X136807818Y-86828192D01*
X136725764Y-87098691D01*
X136698057Y-87380000D01*
X136725764Y-87661309D01*
X136807818Y-87931808D01*
X136941068Y-88181101D01*
X137120392Y-88399608D01*
X137338899Y-88578932D01*
X137471858Y-88650000D01*
X137338899Y-88721068D01*
X137120392Y-88900392D01*
X136941068Y-89118899D01*
X136807818Y-89368192D01*
X136725764Y-89638691D01*
X136698057Y-89920000D01*
X136725764Y-90201309D01*
X136807818Y-90471808D01*
X136941068Y-90721101D01*
X137120392Y-90939608D01*
X137338899Y-91118932D01*
X137471858Y-91190000D01*
X137338899Y-91261068D01*
X137120392Y-91440392D01*
X136941068Y-91658899D01*
X136807818Y-91908192D01*
X136725764Y-92178691D01*
X136698057Y-92460000D01*
X136725764Y-92741309D01*
X136807818Y-93011808D01*
X136941068Y-93261101D01*
X137120392Y-93479608D01*
X137338899Y-93658932D01*
X137471858Y-93730000D01*
X137338899Y-93801068D01*
X137120392Y-93980392D01*
X136941068Y-94198899D01*
X136807818Y-94448192D01*
X136725764Y-94718691D01*
X136698057Y-95000000D01*
X136725764Y-95281309D01*
X136807818Y-95551808D01*
X136941068Y-95801101D01*
X137120392Y-96019608D01*
X137338899Y-96198932D01*
X137471858Y-96270000D01*
X137338899Y-96341068D01*
X137120392Y-96520392D01*
X136941068Y-96738899D01*
X136807818Y-96988192D01*
X136725764Y-97258691D01*
X136698057Y-97540000D01*
X136725764Y-97821309D01*
X136807818Y-98091808D01*
X136941068Y-98341101D01*
X137120392Y-98559608D01*
X137338899Y-98738932D01*
X137471858Y-98810000D01*
X137338899Y-98881068D01*
X137120392Y-99060392D01*
X136941068Y-99278899D01*
X136807818Y-99528192D01*
X136725764Y-99798691D01*
X136698057Y-100080000D01*
X136725764Y-100361309D01*
X136807818Y-100631808D01*
X136941068Y-100881101D01*
X137120392Y-101099608D01*
X137338899Y-101278932D01*
X137471858Y-101350000D01*
X137338899Y-101421068D01*
X137120392Y-101600392D01*
X136941068Y-101818899D01*
X136807818Y-102068192D01*
X136725764Y-102338691D01*
X136698057Y-102620000D01*
X136725764Y-102901309D01*
X136807818Y-103171808D01*
X136941068Y-103421101D01*
X137120392Y-103639608D01*
X137338899Y-103818932D01*
X137471858Y-103890000D01*
X137338899Y-103961068D01*
X137120392Y-104140392D01*
X136941068Y-104358899D01*
X136807818Y-104608192D01*
X136725764Y-104878691D01*
X136698057Y-105160000D01*
X136725764Y-105441309D01*
X136807818Y-105711808D01*
X136941068Y-105961101D01*
X137120392Y-106179608D01*
X137338899Y-106358932D01*
X137471858Y-106430000D01*
X137338899Y-106501068D01*
X137120392Y-106680392D01*
X136941068Y-106898899D01*
X136807818Y-107148192D01*
X136725764Y-107418691D01*
X136698057Y-107700000D01*
X136725764Y-107981309D01*
X136807818Y-108251808D01*
X136941068Y-108501101D01*
X137120392Y-108719608D01*
X137338899Y-108898932D01*
X137471858Y-108970000D01*
X137338899Y-109041068D01*
X137120392Y-109220392D01*
X136941068Y-109438899D01*
X136807818Y-109688192D01*
X136725764Y-109958691D01*
X136698057Y-110240000D01*
X136725764Y-110521309D01*
X136807818Y-110791808D01*
X136941068Y-111041101D01*
X137120392Y-111259608D01*
X137338899Y-111438932D01*
X137471858Y-111510000D01*
X137338899Y-111581068D01*
X137120392Y-111760392D01*
X136941068Y-111978899D01*
X136807818Y-112228192D01*
X136725764Y-112498691D01*
X136698057Y-112780000D01*
X136725764Y-113061309D01*
X136807818Y-113331808D01*
X136941068Y-113581101D01*
X137120392Y-113799608D01*
X137338899Y-113978932D01*
X137471858Y-114050000D01*
X137338899Y-114121068D01*
X137120392Y-114300392D01*
X136941068Y-114518899D01*
X136807818Y-114768192D01*
X136725764Y-115038691D01*
X136698057Y-115320000D01*
X136725764Y-115601309D01*
X136807818Y-115871808D01*
X136941068Y-116121101D01*
X137120392Y-116339608D01*
X137338899Y-116518932D01*
X137466741Y-116587265D01*
X137237161Y-116737399D01*
X137035500Y-116935105D01*
X136876285Y-117168354D01*
X136765633Y-117428182D01*
X136748096Y-117510961D01*
X136870085Y-117733000D01*
X138413000Y-117733000D01*
X138413000Y-117713000D01*
X138667000Y-117713000D01*
X138667000Y-117733000D01*
X140209915Y-117733000D01*
X140331904Y-117510961D01*
X140314367Y-117428182D01*
X140203715Y-117168354D01*
X140044500Y-116935105D01*
X139842839Y-116737399D01*
X139613259Y-116587265D01*
X139741101Y-116518932D01*
X139959608Y-116339608D01*
X140138932Y-116121101D01*
X140272182Y-115871808D01*
X140354236Y-115601309D01*
X140381943Y-115320000D01*
X140354236Y-115038691D01*
X140272182Y-114768192D01*
X140138932Y-114518899D01*
X139959608Y-114300392D01*
X139741101Y-114121068D01*
X139608142Y-114050000D01*
X139741101Y-113978932D01*
X139959608Y-113799608D01*
X140138932Y-113581101D01*
X140272182Y-113331808D01*
X140354236Y-113061309D01*
X140381943Y-112780000D01*
X140354236Y-112498691D01*
X140272182Y-112228192D01*
X140138932Y-111978899D01*
X139959608Y-111760392D01*
X139741101Y-111581068D01*
X139608142Y-111510000D01*
X139741101Y-111438932D01*
X139959608Y-111259608D01*
X140138932Y-111041101D01*
X140272182Y-110791808D01*
X140354236Y-110521309D01*
X140381943Y-110240000D01*
X159558057Y-110240000D01*
X159585764Y-110521309D01*
X159667818Y-110791808D01*
X159801068Y-111041101D01*
X159980392Y-111259608D01*
X160198899Y-111438932D01*
X160331858Y-111510000D01*
X160198899Y-111581068D01*
X159980392Y-111760392D01*
X159801068Y-111978899D01*
X159667818Y-112228192D01*
X159585764Y-112498691D01*
X159558057Y-112780000D01*
X159585764Y-113061309D01*
X159667818Y-113331808D01*
X159801068Y-113581101D01*
X159980392Y-113799608D01*
X160198899Y-113978932D01*
X160331858Y-114050000D01*
X160198899Y-114121068D01*
X159980392Y-114300392D01*
X159801068Y-114518899D01*
X159667818Y-114768192D01*
X159585764Y-115038691D01*
X159558057Y-115320000D01*
X159585764Y-115601309D01*
X159667818Y-115871808D01*
X159801068Y-116121101D01*
X159980392Y-116339608D01*
X160198899Y-116518932D01*
X160331858Y-116590000D01*
X160198899Y-116661068D01*
X159980392Y-116840392D01*
X159801068Y-117058899D01*
X159667818Y-117308192D01*
X159585764Y-117578691D01*
X159558057Y-117860000D01*
X159585764Y-118141309D01*
X159667818Y-118411808D01*
X159801068Y-118661101D01*
X159980392Y-118879608D01*
X160198899Y-119058932D01*
X160331858Y-119130000D01*
X160198899Y-119201068D01*
X159980392Y-119380392D01*
X159801068Y-119598899D01*
X159667818Y-119848192D01*
X159585764Y-120118691D01*
X159558057Y-120400000D01*
X159585764Y-120681309D01*
X159667818Y-120951808D01*
X159801068Y-121201101D01*
X159980392Y-121419608D01*
X160198899Y-121598932D01*
X160331858Y-121670000D01*
X160198899Y-121741068D01*
X159980392Y-121920392D01*
X159801068Y-122138899D01*
X159667818Y-122388192D01*
X159585764Y-122658691D01*
X159558057Y-122940000D01*
X159585764Y-123221309D01*
X159667818Y-123491808D01*
X159801068Y-123741101D01*
X159980392Y-123959608D01*
X160198899Y-124138932D01*
X160331858Y-124210000D01*
X160198899Y-124281068D01*
X159980392Y-124460392D01*
X159801068Y-124678899D01*
X159667818Y-124928192D01*
X159585764Y-125198691D01*
X159558057Y-125480000D01*
X159585764Y-125761309D01*
X159667818Y-126031808D01*
X159801068Y-126281101D01*
X159980392Y-126499608D01*
X160198899Y-126678932D01*
X160331858Y-126750000D01*
X160198899Y-126821068D01*
X159980392Y-127000392D01*
X159801068Y-127218899D01*
X159667818Y-127468192D01*
X159585764Y-127738691D01*
X159558057Y-128020000D01*
X159585764Y-128301309D01*
X159667818Y-128571808D01*
X159801068Y-128821101D01*
X159980392Y-129039608D01*
X160198899Y-129218932D01*
X160331858Y-129290000D01*
X160198899Y-129361068D01*
X159980392Y-129540392D01*
X159801068Y-129758899D01*
X159667818Y-130008192D01*
X159585764Y-130278691D01*
X159558057Y-130560000D01*
X159585764Y-130841309D01*
X159667818Y-131111808D01*
X159801068Y-131361101D01*
X159980392Y-131579608D01*
X160198899Y-131758932D01*
X160331858Y-131830000D01*
X160198899Y-131901068D01*
X159980392Y-132080392D01*
X159801068Y-132298899D01*
X159667818Y-132548192D01*
X159585764Y-132818691D01*
X159558057Y-133100000D01*
X159585764Y-133381309D01*
X159667818Y-133651808D01*
X159801068Y-133901101D01*
X159980392Y-134119608D01*
X160198899Y-134298932D01*
X160331858Y-134370000D01*
X160198899Y-134441068D01*
X159980392Y-134620392D01*
X159801068Y-134838899D01*
X159667818Y-135088192D01*
X159585764Y-135358691D01*
X159558057Y-135640000D01*
X159585764Y-135921309D01*
X159667818Y-136191808D01*
X159801068Y-136441101D01*
X159980392Y-136659608D01*
X160198899Y-136838932D01*
X160331858Y-136910000D01*
X160198899Y-136981068D01*
X159980392Y-137160392D01*
X159801068Y-137378899D01*
X159667818Y-137628192D01*
X159585764Y-137898691D01*
X159558057Y-138180000D01*
X159585764Y-138461309D01*
X159667818Y-138731808D01*
X159801068Y-138981101D01*
X159980392Y-139199608D01*
X160198899Y-139378932D01*
X160331858Y-139450000D01*
X160198899Y-139521068D01*
X159980392Y-139700392D01*
X159801068Y-139918899D01*
X159667818Y-140168192D01*
X159585764Y-140438691D01*
X159558057Y-140720000D01*
X159585764Y-141001309D01*
X159667818Y-141271808D01*
X159801068Y-141521101D01*
X159980392Y-141739608D01*
X160198899Y-141918932D01*
X160331858Y-141990000D01*
X160198899Y-142061068D01*
X159980392Y-142240392D01*
X159801068Y-142458899D01*
X159667818Y-142708192D01*
X159585764Y-142978691D01*
X159558057Y-143260000D01*
X159585764Y-143541309D01*
X159667818Y-143811808D01*
X159801068Y-144061101D01*
X159980392Y-144279608D01*
X160093482Y-144372419D01*
X160075518Y-144374188D01*
X159955820Y-144410498D01*
X159845506Y-144469463D01*
X159748815Y-144548815D01*
X159669463Y-144645506D01*
X159610498Y-144755820D01*
X159574188Y-144875518D01*
X159561928Y-145000000D01*
X159561928Y-146600000D01*
X159574188Y-146724482D01*
X159610498Y-146844180D01*
X159669463Y-146954494D01*
X159748815Y-147051185D01*
X159845506Y-147130537D01*
X159955820Y-147189502D01*
X160075518Y-147225812D01*
X160200000Y-147238072D01*
X162600000Y-147238072D01*
X162724482Y-147225812D01*
X162844180Y-147189502D01*
X162954494Y-147130537D01*
X163051185Y-147051185D01*
X163130537Y-146954494D01*
X163189502Y-146844180D01*
X163225812Y-146724482D01*
X163238072Y-146600000D01*
X163238072Y-145000000D01*
X163225812Y-144875518D01*
X163189502Y-144755820D01*
X163130537Y-144645506D01*
X163051185Y-144548815D01*
X162954494Y-144469463D01*
X162844180Y-144410498D01*
X162724482Y-144374188D01*
X162706518Y-144372419D01*
X162819608Y-144279608D01*
X162998932Y-144061101D01*
X163132182Y-143811808D01*
X163214236Y-143541309D01*
X163241943Y-143260000D01*
X163214236Y-142978691D01*
X163132182Y-142708192D01*
X162998932Y-142458899D01*
X162819608Y-142240392D01*
X162601101Y-142061068D01*
X162468142Y-141990000D01*
X162601101Y-141918932D01*
X162819608Y-141739608D01*
X162998932Y-141521101D01*
X163132182Y-141271808D01*
X163214236Y-141001309D01*
X163241943Y-140720000D01*
X163214236Y-140438691D01*
X163132182Y-140168192D01*
X162998932Y-139918899D01*
X162819608Y-139700392D01*
X162601101Y-139521068D01*
X162468142Y-139450000D01*
X162601101Y-139378932D01*
X162819608Y-139199608D01*
X162998932Y-138981101D01*
X163132182Y-138731808D01*
X163214236Y-138461309D01*
X163241943Y-138180000D01*
X163214236Y-137898691D01*
X163132182Y-137628192D01*
X162998932Y-137378899D01*
X162819608Y-137160392D01*
X162601101Y-136981068D01*
X162468142Y-136910000D01*
X162601101Y-136838932D01*
X162819608Y-136659608D01*
X162998932Y-136441101D01*
X163132182Y-136191808D01*
X163214236Y-135921309D01*
X163241943Y-135640000D01*
X163214236Y-135358691D01*
X163132182Y-135088192D01*
X162998932Y-134838899D01*
X162819608Y-134620392D01*
X162601101Y-134441068D01*
X162468142Y-134370000D01*
X162601101Y-134298932D01*
X162819608Y-134119608D01*
X162998932Y-133901101D01*
X163132182Y-133651808D01*
X163214236Y-133381309D01*
X163241943Y-133100000D01*
X163214236Y-132818691D01*
X163132182Y-132548192D01*
X162998932Y-132298899D01*
X162819608Y-132080392D01*
X162601101Y-131901068D01*
X162468142Y-131830000D01*
X162601101Y-131758932D01*
X162819608Y-131579608D01*
X162998932Y-131361101D01*
X163132182Y-131111808D01*
X163214236Y-130841309D01*
X163241943Y-130560000D01*
X163214236Y-130278691D01*
X163132182Y-130008192D01*
X162998932Y-129758899D01*
X162819608Y-129540392D01*
X162601101Y-129361068D01*
X162468142Y-129290000D01*
X162601101Y-129218932D01*
X162819608Y-129039608D01*
X162998932Y-128821101D01*
X163132182Y-128571808D01*
X163214236Y-128301309D01*
X163241943Y-128020000D01*
X163214236Y-127738691D01*
X163132182Y-127468192D01*
X162998932Y-127218899D01*
X162819608Y-127000392D01*
X162601101Y-126821068D01*
X162468142Y-126750000D01*
X162601101Y-126678932D01*
X162819608Y-126499608D01*
X162998932Y-126281101D01*
X163132182Y-126031808D01*
X163214236Y-125761309D01*
X163241943Y-125480000D01*
X163214236Y-125198691D01*
X163132182Y-124928192D01*
X162998932Y-124678899D01*
X162819608Y-124460392D01*
X162601101Y-124281068D01*
X162468142Y-124210000D01*
X162601101Y-124138932D01*
X162819608Y-123959608D01*
X162998932Y-123741101D01*
X163132182Y-123491808D01*
X163214236Y-123221309D01*
X163241943Y-122940000D01*
X163214236Y-122658691D01*
X163132182Y-122388192D01*
X162998932Y-122138899D01*
X162819608Y-121920392D01*
X162601101Y-121741068D01*
X162468142Y-121670000D01*
X162601101Y-121598932D01*
X162819608Y-121419608D01*
X162998932Y-121201101D01*
X163132182Y-120951808D01*
X163214236Y-120681309D01*
X163241943Y-120400000D01*
X163214236Y-120118691D01*
X163132182Y-119848192D01*
X162998932Y-119598899D01*
X162819608Y-119380392D01*
X162601101Y-119201068D01*
X162468142Y-119130000D01*
X162601101Y-119058932D01*
X162819608Y-118879608D01*
X162998932Y-118661101D01*
X163132182Y-118411808D01*
X163214236Y-118141309D01*
X163241943Y-117860000D01*
X163214236Y-117578691D01*
X163132182Y-117308192D01*
X162998932Y-117058899D01*
X162819608Y-116840392D01*
X162601101Y-116661068D01*
X162468142Y-116590000D01*
X162601101Y-116518932D01*
X162819608Y-116339608D01*
X162998932Y-116121101D01*
X163132182Y-115871808D01*
X163214236Y-115601309D01*
X163241943Y-115320000D01*
X163214236Y-115038691D01*
X163132182Y-114768192D01*
X162998932Y-114518899D01*
X162819608Y-114300392D01*
X162601101Y-114121068D01*
X162468142Y-114050000D01*
X162601101Y-113978932D01*
X162819608Y-113799608D01*
X162998932Y-113581101D01*
X163132182Y-113331808D01*
X163214236Y-113061309D01*
X163241943Y-112780000D01*
X163214236Y-112498691D01*
X163132182Y-112228192D01*
X162998932Y-111978899D01*
X162819608Y-111760392D01*
X162601101Y-111581068D01*
X162468142Y-111510000D01*
X162601101Y-111438932D01*
X162819608Y-111259608D01*
X162998932Y-111041101D01*
X163132182Y-110791808D01*
X163214236Y-110521309D01*
X163241943Y-110240000D01*
X163214236Y-109958691D01*
X163132182Y-109688192D01*
X162998932Y-109438899D01*
X162819608Y-109220392D01*
X162601101Y-109041068D01*
X162473259Y-108972735D01*
X162702839Y-108822601D01*
X162904500Y-108624895D01*
X163063715Y-108391646D01*
X163174367Y-108131818D01*
X163191904Y-108049039D01*
X163069915Y-107827000D01*
X161527000Y-107827000D01*
X161527000Y-107847000D01*
X161273000Y-107847000D01*
X161273000Y-107827000D01*
X159730085Y-107827000D01*
X159608096Y-108049039D01*
X159625633Y-108131818D01*
X159736285Y-108391646D01*
X159895500Y-108624895D01*
X160097161Y-108822601D01*
X160326741Y-108972735D01*
X160198899Y-109041068D01*
X159980392Y-109220392D01*
X159801068Y-109438899D01*
X159667818Y-109688192D01*
X159585764Y-109958691D01*
X159558057Y-110240000D01*
X140381943Y-110240000D01*
X140354236Y-109958691D01*
X140272182Y-109688192D01*
X140138932Y-109438899D01*
X139959608Y-109220392D01*
X139741101Y-109041068D01*
X139608142Y-108970000D01*
X139741101Y-108898932D01*
X139959608Y-108719608D01*
X140138932Y-108501101D01*
X140272182Y-108251808D01*
X140354236Y-107981309D01*
X140381943Y-107700000D01*
X140354236Y-107418691D01*
X140272182Y-107148192D01*
X140138932Y-106898899D01*
X139959608Y-106680392D01*
X139741101Y-106501068D01*
X139608142Y-106430000D01*
X139741101Y-106358932D01*
X139959608Y-106179608D01*
X140138932Y-105961101D01*
X140272182Y-105711808D01*
X140354236Y-105441309D01*
X140381943Y-105160000D01*
X140354236Y-104878691D01*
X140272182Y-104608192D01*
X140138932Y-104358899D01*
X139959608Y-104140392D01*
X139741101Y-103961068D01*
X139608142Y-103890000D01*
X139741101Y-103818932D01*
X139959608Y-103639608D01*
X140138932Y-103421101D01*
X140272182Y-103171808D01*
X140354236Y-102901309D01*
X140381943Y-102620000D01*
X140354236Y-102338691D01*
X140272182Y-102068192D01*
X140138932Y-101818899D01*
X139959608Y-101600392D01*
X139741101Y-101421068D01*
X139608142Y-101350000D01*
X139741101Y-101278932D01*
X139959608Y-101099608D01*
X140138932Y-100881101D01*
X140272182Y-100631808D01*
X140354236Y-100361309D01*
X140381943Y-100080000D01*
X140354236Y-99798691D01*
X140272182Y-99528192D01*
X140138932Y-99278899D01*
X139959608Y-99060392D01*
X139741101Y-98881068D01*
X139608142Y-98810000D01*
X139741101Y-98738932D01*
X139959608Y-98559608D01*
X140138932Y-98341101D01*
X140272182Y-98091808D01*
X140354236Y-97821309D01*
X140381943Y-97540000D01*
X140354236Y-97258691D01*
X140272182Y-96988192D01*
X140138932Y-96738899D01*
X139959608Y-96520392D01*
X139741101Y-96341068D01*
X139608142Y-96270000D01*
X139741101Y-96198932D01*
X139959608Y-96019608D01*
X140138932Y-95801101D01*
X140272182Y-95551808D01*
X140354236Y-95281309D01*
X140381943Y-95000000D01*
X140354236Y-94718691D01*
X140272182Y-94448192D01*
X140138932Y-94198899D01*
X139959608Y-93980392D01*
X139741101Y-93801068D01*
X139608142Y-93730000D01*
X139741101Y-93658932D01*
X139959608Y-93479608D01*
X140138932Y-93261101D01*
X140272182Y-93011808D01*
X140354236Y-92741309D01*
X140381943Y-92460000D01*
X140354236Y-92178691D01*
X140272182Y-91908192D01*
X140138932Y-91658899D01*
X139959608Y-91440392D01*
X139741101Y-91261068D01*
X139608142Y-91190000D01*
X139741101Y-91118932D01*
X139959608Y-90939608D01*
X140138932Y-90721101D01*
X140272182Y-90471808D01*
X140354236Y-90201309D01*
X140381943Y-89920000D01*
X140354236Y-89638691D01*
X140272182Y-89368192D01*
X140138932Y-89118899D01*
X139959608Y-88900392D01*
X139741101Y-88721068D01*
X139608142Y-88650000D01*
X139741101Y-88578932D01*
X139959608Y-88399608D01*
X140138932Y-88181101D01*
X140272182Y-87931808D01*
X140354236Y-87661309D01*
X140381943Y-87380000D01*
X140354236Y-87098691D01*
X140272182Y-86828192D01*
X140138932Y-86578899D01*
X139959608Y-86360392D01*
X139741101Y-86181068D01*
X139608142Y-86110000D01*
X139741101Y-86038932D01*
X139959608Y-85859608D01*
X140138932Y-85641101D01*
X140272182Y-85391808D01*
X140354236Y-85121309D01*
X140381943Y-84840000D01*
X140354236Y-84558691D01*
X140272182Y-84288192D01*
X140138932Y-84038899D01*
X139959608Y-83820392D01*
X139741101Y-83641068D01*
X139608142Y-83570000D01*
X139741101Y-83498932D01*
X139959608Y-83319608D01*
X140138932Y-83101101D01*
X140272182Y-82851808D01*
X140354236Y-82581309D01*
X140381943Y-82300000D01*
X140354236Y-82018691D01*
X140272182Y-81748192D01*
X140138932Y-81498899D01*
X139959608Y-81280392D01*
X139741101Y-81101068D01*
X139608142Y-81030000D01*
X139741101Y-80958932D01*
X139959608Y-80779608D01*
X140138932Y-80561101D01*
X140272182Y-80311808D01*
X140354236Y-80041309D01*
X140381943Y-79760000D01*
X140354236Y-79478691D01*
X140272182Y-79208192D01*
X140138932Y-78958899D01*
X139959608Y-78740392D01*
X139741101Y-78561068D01*
X139608142Y-78490000D01*
X139741101Y-78418932D01*
X139959608Y-78239608D01*
X140138932Y-78021101D01*
X140272182Y-77771808D01*
X140354236Y-77501309D01*
X140381943Y-77220000D01*
X140354236Y-76938691D01*
X140272182Y-76668192D01*
X140138932Y-76418899D01*
X139959608Y-76200392D01*
X139741101Y-76021068D01*
X139608142Y-75950000D01*
X139741101Y-75878932D01*
X139959608Y-75699608D01*
X140138932Y-75481101D01*
X140272182Y-75231808D01*
X140354236Y-74961309D01*
X140381943Y-74680000D01*
X140354236Y-74398691D01*
X140272182Y-74128192D01*
X140138932Y-73878899D01*
X139959608Y-73660392D01*
X139741101Y-73481068D01*
X139608142Y-73410000D01*
X139741101Y-73338932D01*
X139959608Y-73159608D01*
X140138932Y-72941101D01*
X140272182Y-72691808D01*
X140354236Y-72421309D01*
X140381943Y-72140000D01*
X140354236Y-71858691D01*
X140272182Y-71588192D01*
X140138932Y-71338899D01*
X139959608Y-71120392D01*
X139741101Y-70941068D01*
X139608142Y-70870000D01*
X139741101Y-70798932D01*
X139959608Y-70619608D01*
X140138932Y-70401101D01*
X140272182Y-70151808D01*
X140354236Y-69881309D01*
X140381943Y-69600000D01*
X140354236Y-69318691D01*
X140272182Y-69048192D01*
X140138932Y-68798899D01*
X139959608Y-68580392D01*
X139741101Y-68401068D01*
X139608142Y-68330000D01*
X139741101Y-68258932D01*
X139959608Y-68079608D01*
X140138932Y-67861101D01*
X140272182Y-67611808D01*
X140354236Y-67341309D01*
X140381943Y-67060000D01*
X159558057Y-67060000D01*
X159585764Y-67341309D01*
X159667818Y-67611808D01*
X159801068Y-67861101D01*
X159980392Y-68079608D01*
X160198899Y-68258932D01*
X160331858Y-68330000D01*
X160198899Y-68401068D01*
X159980392Y-68580392D01*
X159801068Y-68798899D01*
X159667818Y-69048192D01*
X159585764Y-69318691D01*
X159558057Y-69600000D01*
X159585764Y-69881309D01*
X159667818Y-70151808D01*
X159801068Y-70401101D01*
X159980392Y-70619608D01*
X160198899Y-70798932D01*
X160331858Y-70870000D01*
X160198899Y-70941068D01*
X159980392Y-71120392D01*
X159801068Y-71338899D01*
X159667818Y-71588192D01*
X159585764Y-71858691D01*
X159558057Y-72140000D01*
X159585764Y-72421309D01*
X159667818Y-72691808D01*
X159801068Y-72941101D01*
X159980392Y-73159608D01*
X160198899Y-73338932D01*
X160331858Y-73410000D01*
X160198899Y-73481068D01*
X159980392Y-73660392D01*
X159801068Y-73878899D01*
X159667818Y-74128192D01*
X159585764Y-74398691D01*
X159558057Y-74680000D01*
X159585764Y-74961309D01*
X159667818Y-75231808D01*
X159801068Y-75481101D01*
X159980392Y-75699608D01*
X160198899Y-75878932D01*
X160331858Y-75950000D01*
X160198899Y-76021068D01*
X159980392Y-76200392D01*
X159801068Y-76418899D01*
X159667818Y-76668192D01*
X159585764Y-76938691D01*
X159558057Y-77220000D01*
X159585764Y-77501309D01*
X159667818Y-77771808D01*
X159801068Y-78021101D01*
X159980392Y-78239608D01*
X160198899Y-78418932D01*
X160331858Y-78490000D01*
X160198899Y-78561068D01*
X159980392Y-78740392D01*
X159801068Y-78958899D01*
X159667818Y-79208192D01*
X159585764Y-79478691D01*
X159558057Y-79760000D01*
X159585764Y-80041309D01*
X159667818Y-80311808D01*
X159801068Y-80561101D01*
X159980392Y-80779608D01*
X160198899Y-80958932D01*
X160331858Y-81030000D01*
X160198899Y-81101068D01*
X159980392Y-81280392D01*
X159801068Y-81498899D01*
X159667818Y-81748192D01*
X159585764Y-82018691D01*
X159558057Y-82300000D01*
X159585764Y-82581309D01*
X159667818Y-82851808D01*
X159801068Y-83101101D01*
X159980392Y-83319608D01*
X160198899Y-83498932D01*
X160331858Y-83570000D01*
X160198899Y-83641068D01*
X159980392Y-83820392D01*
X159801068Y-84038899D01*
X159667818Y-84288192D01*
X159585764Y-84558691D01*
X159558057Y-84840000D01*
X159585764Y-85121309D01*
X159667818Y-85391808D01*
X159801068Y-85641101D01*
X159980392Y-85859608D01*
X160198899Y-86038932D01*
X160331858Y-86110000D01*
X160198899Y-86181068D01*
X159980392Y-86360392D01*
X159801068Y-86578899D01*
X159667818Y-86828192D01*
X159585764Y-87098691D01*
X159558057Y-87380000D01*
X159585764Y-87661309D01*
X159667818Y-87931808D01*
X159801068Y-88181101D01*
X159980392Y-88399608D01*
X160198899Y-88578932D01*
X160331858Y-88650000D01*
X160198899Y-88721068D01*
X159980392Y-88900392D01*
X159801068Y-89118899D01*
X159667818Y-89368192D01*
X159585764Y-89638691D01*
X159558057Y-89920000D01*
X159585764Y-90201309D01*
X159667818Y-90471808D01*
X159801068Y-90721101D01*
X159980392Y-90939608D01*
X160198899Y-91118932D01*
X160331858Y-91190000D01*
X160198899Y-91261068D01*
X159980392Y-91440392D01*
X159801068Y-91658899D01*
X159667818Y-91908192D01*
X159585764Y-92178691D01*
X159558057Y-92460000D01*
X159585764Y-92741309D01*
X159667818Y-93011808D01*
X159801068Y-93261101D01*
X159980392Y-93479608D01*
X160198899Y-93658932D01*
X160331858Y-93730000D01*
X160198899Y-93801068D01*
X159980392Y-93980392D01*
X159801068Y-94198899D01*
X159667818Y-94448192D01*
X159585764Y-94718691D01*
X159558057Y-95000000D01*
X159585764Y-95281309D01*
X159667818Y-95551808D01*
X159801068Y-95801101D01*
X159980392Y-96019608D01*
X160198899Y-96198932D01*
X160331858Y-96270000D01*
X160198899Y-96341068D01*
X159980392Y-96520392D01*
X159801068Y-96738899D01*
X159667818Y-96988192D01*
X159585764Y-97258691D01*
X159558057Y-97540000D01*
X159585764Y-97821309D01*
X159667818Y-98091808D01*
X159801068Y-98341101D01*
X159980392Y-98559608D01*
X160198899Y-98738932D01*
X160331858Y-98810000D01*
X160198899Y-98881068D01*
X159980392Y-99060392D01*
X159801068Y-99278899D01*
X159667818Y-99528192D01*
X159585764Y-99798691D01*
X159558057Y-100080000D01*
X159585764Y-100361309D01*
X159667818Y-100631808D01*
X159801068Y-100881101D01*
X159980392Y-101099608D01*
X160198899Y-101278932D01*
X160331858Y-101350000D01*
X160198899Y-101421068D01*
X159980392Y-101600392D01*
X159801068Y-101818899D01*
X159667818Y-102068192D01*
X159585764Y-102338691D01*
X159558057Y-102620000D01*
X159585764Y-102901309D01*
X159667818Y-103171808D01*
X159801068Y-103421101D01*
X159980392Y-103639608D01*
X160198899Y-103818932D01*
X160331858Y-103890000D01*
X160198899Y-103961068D01*
X159980392Y-104140392D01*
X159801068Y-104358899D01*
X159667818Y-104608192D01*
X159585764Y-104878691D01*
X159558057Y-105160000D01*
X159585764Y-105441309D01*
X159667818Y-105711808D01*
X159801068Y-105961101D01*
X159980392Y-106179608D01*
X160198899Y-106358932D01*
X160326741Y-106427265D01*
X160097161Y-106577399D01*
X159895500Y-106775105D01*
X159736285Y-107008354D01*
X159625633Y-107268182D01*
X159608096Y-107350961D01*
X159730085Y-107573000D01*
X161273000Y-107573000D01*
X161273000Y-107553000D01*
X161527000Y-107553000D01*
X161527000Y-107573000D01*
X163069915Y-107573000D01*
X163191904Y-107350961D01*
X163174367Y-107268182D01*
X163063715Y-107008354D01*
X162904500Y-106775105D01*
X162702839Y-106577399D01*
X162473259Y-106427265D01*
X162601101Y-106358932D01*
X162819608Y-106179608D01*
X162998932Y-105961101D01*
X163132182Y-105711808D01*
X163214236Y-105441309D01*
X163241943Y-105160000D01*
X163214236Y-104878691D01*
X163132182Y-104608192D01*
X162998932Y-104358899D01*
X162819608Y-104140392D01*
X162601101Y-103961068D01*
X162468142Y-103890000D01*
X162601101Y-103818932D01*
X162819608Y-103639608D01*
X162998932Y-103421101D01*
X163132182Y-103171808D01*
X163214236Y-102901309D01*
X163241943Y-102620000D01*
X163214236Y-102338691D01*
X163132182Y-102068192D01*
X162998932Y-101818899D01*
X162819608Y-101600392D01*
X162601101Y-101421068D01*
X162468142Y-101350000D01*
X162601101Y-101278932D01*
X162819608Y-101099608D01*
X162998932Y-100881101D01*
X163132182Y-100631808D01*
X163214236Y-100361309D01*
X163241943Y-100080000D01*
X163214236Y-99798691D01*
X163132182Y-99528192D01*
X162998932Y-99278899D01*
X162819608Y-99060392D01*
X162601101Y-98881068D01*
X162468142Y-98810000D01*
X162601101Y-98738932D01*
X162819608Y-98559608D01*
X162998932Y-98341101D01*
X163132182Y-98091808D01*
X163214236Y-97821309D01*
X163241943Y-97540000D01*
X163214236Y-97258691D01*
X163132182Y-96988192D01*
X162998932Y-96738899D01*
X162819608Y-96520392D01*
X162601101Y-96341068D01*
X162468142Y-96270000D01*
X162601101Y-96198932D01*
X162819608Y-96019608D01*
X162998932Y-95801101D01*
X163132182Y-95551808D01*
X163214236Y-95281309D01*
X163241943Y-95000000D01*
X163214236Y-94718691D01*
X163132182Y-94448192D01*
X162998932Y-94198899D01*
X162819608Y-93980392D01*
X162601101Y-93801068D01*
X162468142Y-93730000D01*
X162601101Y-93658932D01*
X162819608Y-93479608D01*
X162998932Y-93261101D01*
X163132182Y-93011808D01*
X163214236Y-92741309D01*
X163241943Y-92460000D01*
X163214236Y-92178691D01*
X163132182Y-91908192D01*
X162998932Y-91658899D01*
X162819608Y-91440392D01*
X162601101Y-91261068D01*
X162468142Y-91190000D01*
X162601101Y-91118932D01*
X162819608Y-90939608D01*
X162998932Y-90721101D01*
X163132182Y-90471808D01*
X163214236Y-90201309D01*
X163241943Y-89920000D01*
X163214236Y-89638691D01*
X163132182Y-89368192D01*
X162998932Y-89118899D01*
X162819608Y-88900392D01*
X162601101Y-88721068D01*
X162468142Y-88650000D01*
X162601101Y-88578932D01*
X162819608Y-88399608D01*
X162998932Y-88181101D01*
X163132182Y-87931808D01*
X163214236Y-87661309D01*
X163241943Y-87380000D01*
X163214236Y-87098691D01*
X163132182Y-86828192D01*
X162998932Y-86578899D01*
X162819608Y-86360392D01*
X162601101Y-86181068D01*
X162468142Y-86110000D01*
X162601101Y-86038932D01*
X162819608Y-85859608D01*
X162998932Y-85641101D01*
X163132182Y-85391808D01*
X163214236Y-85121309D01*
X163241943Y-84840000D01*
X163214236Y-84558691D01*
X163132182Y-84288192D01*
X162998932Y-84038899D01*
X162819608Y-83820392D01*
X162601101Y-83641068D01*
X162468142Y-83570000D01*
X162601101Y-83498932D01*
X162819608Y-83319608D01*
X162998932Y-83101101D01*
X163132182Y-82851808D01*
X163214236Y-82581309D01*
X163241943Y-82300000D01*
X163214236Y-82018691D01*
X163132182Y-81748192D01*
X162998932Y-81498899D01*
X162819608Y-81280392D01*
X162601101Y-81101068D01*
X162468142Y-81030000D01*
X162601101Y-80958932D01*
X162819608Y-80779608D01*
X162998932Y-80561101D01*
X163132182Y-80311808D01*
X163214236Y-80041309D01*
X163241943Y-79760000D01*
X163214236Y-79478691D01*
X163132182Y-79208192D01*
X162998932Y-78958899D01*
X162819608Y-78740392D01*
X162601101Y-78561068D01*
X162468142Y-78490000D01*
X162601101Y-78418932D01*
X162819608Y-78239608D01*
X162998932Y-78021101D01*
X163132182Y-77771808D01*
X163214236Y-77501309D01*
X163241943Y-77220000D01*
X163214236Y-76938691D01*
X163132182Y-76668192D01*
X162998932Y-76418899D01*
X162819608Y-76200392D01*
X162601101Y-76021068D01*
X162468142Y-75950000D01*
X162601101Y-75878932D01*
X162819608Y-75699608D01*
X162998932Y-75481101D01*
X163132182Y-75231808D01*
X163214236Y-74961309D01*
X163241943Y-74680000D01*
X163214236Y-74398691D01*
X163132182Y-74128192D01*
X162998932Y-73878899D01*
X162819608Y-73660392D01*
X162601101Y-73481068D01*
X162468142Y-73410000D01*
X162601101Y-73338932D01*
X162819608Y-73159608D01*
X162998932Y-72941101D01*
X163132182Y-72691808D01*
X163214236Y-72421309D01*
X163241943Y-72140000D01*
X163214236Y-71858691D01*
X163132182Y-71588192D01*
X162998932Y-71338899D01*
X162819608Y-71120392D01*
X162601101Y-70941068D01*
X162468142Y-70870000D01*
X162601101Y-70798932D01*
X162819608Y-70619608D01*
X162998932Y-70401101D01*
X163132182Y-70151808D01*
X163214236Y-69881309D01*
X163241943Y-69600000D01*
X163214236Y-69318691D01*
X163132182Y-69048192D01*
X162998932Y-68798899D01*
X162819608Y-68580392D01*
X162601101Y-68401068D01*
X162468142Y-68330000D01*
X162601101Y-68258932D01*
X162819608Y-68079608D01*
X162998932Y-67861101D01*
X163132182Y-67611808D01*
X163214236Y-67341309D01*
X163241943Y-67060000D01*
X163214236Y-66778691D01*
X163132182Y-66508192D01*
X162998932Y-66258899D01*
X162819608Y-66040392D01*
X162601101Y-65861068D01*
X162351808Y-65727818D01*
X162081309Y-65645764D01*
X161870492Y-65625000D01*
X160929508Y-65625000D01*
X160718691Y-65645764D01*
X160448192Y-65727818D01*
X160198899Y-65861068D01*
X159980392Y-66040392D01*
X159801068Y-66258899D01*
X159667818Y-66508192D01*
X159585764Y-66778691D01*
X159558057Y-67060000D01*
X140381943Y-67060000D01*
X140354236Y-66778691D01*
X140272182Y-66508192D01*
X140138932Y-66258899D01*
X139959608Y-66040392D01*
X139741101Y-65861068D01*
X139491808Y-65727818D01*
X139221309Y-65645764D01*
X139010492Y-65625000D01*
X138069508Y-65625000D01*
X137858691Y-65645764D01*
X137588192Y-65727818D01*
X137338899Y-65861068D01*
X137120392Y-66040392D01*
X136941068Y-66258899D01*
X136807818Y-66508192D01*
X136725764Y-66778691D01*
X136698057Y-67060000D01*
X136660000Y-67060000D01*
X136660000Y-60660000D01*
X163340001Y-60660000D01*
X163340000Y-147340000D01*
G37*
%TD.AperFunction*%
%TD*%
M02*
