%TF.GenerationSoftware,KiCad,Pcbnew,5.1.9+dfsg1-1~bpo10+1*%
%TF.CreationDate,2021-06-27T11:52:40+02:00*%
%TF.ProjectId,flexm68k,666c6578-6d36-4386-9b2e-6b696361645f,0.2*%
%TF.SameCoordinates,Original*%
%TF.FileFunction,Legend,Bot*%
%TF.FilePolarity,Positive*%
%FSLAX46Y46*%
G04 Gerber Fmt 4.6, Leading zero omitted, Abs format (unit mm)*
G04 Created by KiCad (PCBNEW 5.1.9+dfsg1-1~bpo10+1) date 2021-06-27 11:52:40*
%MOMM*%
%LPD*%
G01*
G04 APERTURE LIST*
%ADD10C,0.150000*%
%ADD11C,0.010000*%
G04 APERTURE END LIST*
D10*
X157577380Y-100038095D02*
X157101190Y-99704761D01*
X157577380Y-99466666D02*
X156577380Y-99466666D01*
X156577380Y-99847619D01*
X156625000Y-99942857D01*
X156672619Y-99990476D01*
X156767857Y-100038095D01*
X156910714Y-100038095D01*
X157005952Y-99990476D01*
X157053571Y-99942857D01*
X157101190Y-99847619D01*
X157101190Y-99466666D01*
X157053571Y-100466666D02*
X157053571Y-100800000D01*
X157577380Y-100942857D02*
X157577380Y-100466666D01*
X156577380Y-100466666D01*
X156577380Y-100942857D01*
X156577380Y-101228571D02*
X156577380Y-101800000D01*
X157577380Y-101514285D02*
X156577380Y-101514285D01*
X157577380Y-102704761D02*
X157101190Y-102371428D01*
X157577380Y-102133333D02*
X156577380Y-102133333D01*
X156577380Y-102514285D01*
X156625000Y-102609523D01*
X156672619Y-102657142D01*
X156767857Y-102704761D01*
X156910714Y-102704761D01*
X157005952Y-102657142D01*
X157053571Y-102609523D01*
X157101190Y-102514285D01*
X157101190Y-102133333D01*
X156577380Y-103323809D02*
X156577380Y-103514285D01*
X156625000Y-103609523D01*
X156720238Y-103704761D01*
X156910714Y-103752380D01*
X157244047Y-103752380D01*
X157434523Y-103704761D01*
X157529761Y-103609523D01*
X157577380Y-103514285D01*
X157577380Y-103323809D01*
X157529761Y-103228571D01*
X157434523Y-103133333D01*
X157244047Y-103085714D01*
X156910714Y-103085714D01*
X156720238Y-103133333D01*
X156625000Y-103228571D01*
X156577380Y-103323809D01*
X157053571Y-104514285D02*
X157101190Y-104657142D01*
X157148809Y-104704761D01*
X157244047Y-104752380D01*
X157386904Y-104752380D01*
X157482142Y-104704761D01*
X157529761Y-104657142D01*
X157577380Y-104561904D01*
X157577380Y-104180952D01*
X156577380Y-104180952D01*
X156577380Y-104514285D01*
X156625000Y-104609523D01*
X156672619Y-104657142D01*
X156767857Y-104704761D01*
X156863095Y-104704761D01*
X156958333Y-104657142D01*
X157005952Y-104609523D01*
X157053571Y-104514285D01*
X157053571Y-104180952D01*
X157577380Y-105180952D02*
X156577380Y-105180952D01*
X156577380Y-105514285D02*
X156577380Y-106085714D01*
X157577380Y-105800000D02*
X156577380Y-105800000D01*
X157577380Y-107657142D02*
X157577380Y-107180952D01*
X156577380Y-107180952D01*
X157291666Y-107942857D02*
X157291666Y-108419047D01*
X157577380Y-107847619D02*
X156577380Y-108180952D01*
X157577380Y-108514285D01*
X157053571Y-109180952D02*
X157101190Y-109323809D01*
X157148809Y-109371428D01*
X157244047Y-109419047D01*
X157386904Y-109419047D01*
X157482142Y-109371428D01*
X157529761Y-109323809D01*
X157577380Y-109228571D01*
X157577380Y-108847619D01*
X156577380Y-108847619D01*
X156577380Y-109180952D01*
X156625000Y-109276190D01*
X156672619Y-109323809D01*
X156767857Y-109371428D01*
X156863095Y-109371428D01*
X156958333Y-109323809D01*
X157005952Y-109276190D01*
X157053571Y-109180952D01*
X157053571Y-108847619D01*
X158227380Y-87776190D02*
X158227380Y-87585714D01*
X158275000Y-87490476D01*
X158322619Y-87442857D01*
X158465476Y-87347619D01*
X158655952Y-87300000D01*
X159036904Y-87300000D01*
X159132142Y-87347619D01*
X159179761Y-87395238D01*
X159227380Y-87490476D01*
X159227380Y-87680952D01*
X159179761Y-87776190D01*
X159132142Y-87823809D01*
X159036904Y-87871428D01*
X158798809Y-87871428D01*
X158703571Y-87823809D01*
X158655952Y-87776190D01*
X158608333Y-87680952D01*
X158608333Y-87490476D01*
X158655952Y-87395238D01*
X158703571Y-87347619D01*
X158798809Y-87300000D01*
X158655952Y-88442857D02*
X158608333Y-88347619D01*
X158560714Y-88300000D01*
X158465476Y-88252380D01*
X158417857Y-88252380D01*
X158322619Y-88300000D01*
X158275000Y-88347619D01*
X158227380Y-88442857D01*
X158227380Y-88633333D01*
X158275000Y-88728571D01*
X158322619Y-88776190D01*
X158417857Y-88823809D01*
X158465476Y-88823809D01*
X158560714Y-88776190D01*
X158608333Y-88728571D01*
X158655952Y-88633333D01*
X158655952Y-88442857D01*
X158703571Y-88347619D01*
X158751190Y-88300000D01*
X158846428Y-88252380D01*
X159036904Y-88252380D01*
X159132142Y-88300000D01*
X159179761Y-88347619D01*
X159227380Y-88442857D01*
X159227380Y-88633333D01*
X159179761Y-88728571D01*
X159132142Y-88776190D01*
X159036904Y-88823809D01*
X158846428Y-88823809D01*
X158751190Y-88776190D01*
X158703571Y-88728571D01*
X158655952Y-88633333D01*
X158227380Y-89442857D02*
X158227380Y-89538095D01*
X158275000Y-89633333D01*
X158322619Y-89680952D01*
X158417857Y-89728571D01*
X158608333Y-89776190D01*
X158846428Y-89776190D01*
X159036904Y-89728571D01*
X159132142Y-89680952D01*
X159179761Y-89633333D01*
X159227380Y-89538095D01*
X159227380Y-89442857D01*
X159179761Y-89347619D01*
X159132142Y-89300000D01*
X159036904Y-89252380D01*
X158846428Y-89204761D01*
X158608333Y-89204761D01*
X158417857Y-89252380D01*
X158322619Y-89300000D01*
X158275000Y-89347619D01*
X158227380Y-89442857D01*
X158227380Y-90395238D02*
X158227380Y-90490476D01*
X158275000Y-90585714D01*
X158322619Y-90633333D01*
X158417857Y-90680952D01*
X158608333Y-90728571D01*
X158846428Y-90728571D01*
X159036904Y-90680952D01*
X159132142Y-90633333D01*
X159179761Y-90585714D01*
X159227380Y-90490476D01*
X159227380Y-90395238D01*
X159179761Y-90300000D01*
X159132142Y-90252380D01*
X159036904Y-90204761D01*
X158846428Y-90157142D01*
X158608333Y-90157142D01*
X158417857Y-90204761D01*
X158322619Y-90252380D01*
X158275000Y-90300000D01*
X158227380Y-90395238D01*
X158227380Y-91347619D02*
X158227380Y-91442857D01*
X158275000Y-91538095D01*
X158322619Y-91585714D01*
X158417857Y-91633333D01*
X158608333Y-91680952D01*
X158846428Y-91680952D01*
X159036904Y-91633333D01*
X159132142Y-91585714D01*
X159179761Y-91538095D01*
X159227380Y-91442857D01*
X159227380Y-91347619D01*
X159179761Y-91252380D01*
X159132142Y-91204761D01*
X159036904Y-91157142D01*
X158846428Y-91109523D01*
X158608333Y-91109523D01*
X158417857Y-91157142D01*
X158322619Y-91204761D01*
X158275000Y-91252380D01*
X158227380Y-91347619D01*
X158846428Y-92109523D02*
X158846428Y-92871428D01*
X158227380Y-93204761D02*
X158227380Y-93776190D01*
X159227380Y-93490476D02*
X158227380Y-93490476D01*
X158227380Y-94300000D02*
X158227380Y-94490476D01*
X158275000Y-94585714D01*
X158370238Y-94680952D01*
X158560714Y-94728571D01*
X158894047Y-94728571D01*
X159084523Y-94680952D01*
X159179761Y-94585714D01*
X159227380Y-94490476D01*
X159227380Y-94300000D01*
X159179761Y-94204761D01*
X159084523Y-94109523D01*
X158894047Y-94061904D01*
X158560714Y-94061904D01*
X158370238Y-94109523D01*
X158275000Y-94204761D01*
X158227380Y-94300000D01*
X158846428Y-95157142D02*
X158846428Y-95919047D01*
X159227380Y-96395238D02*
X158227380Y-96395238D01*
X158227380Y-96776190D01*
X158275000Y-96871428D01*
X158322619Y-96919047D01*
X158417857Y-96966666D01*
X158560714Y-96966666D01*
X158655952Y-96919047D01*
X158703571Y-96871428D01*
X158751190Y-96776190D01*
X158751190Y-96395238D01*
X159227380Y-97395238D02*
X158560714Y-97395238D01*
X158227380Y-97395238D02*
X158275000Y-97347619D01*
X158322619Y-97395238D01*
X158275000Y-97442857D01*
X158227380Y-97395238D01*
X158322619Y-97395238D01*
X159179761Y-97823809D02*
X159227380Y-97966666D01*
X159227380Y-98204761D01*
X159179761Y-98300000D01*
X159132142Y-98347619D01*
X159036904Y-98395238D01*
X158941666Y-98395238D01*
X158846428Y-98347619D01*
X158798809Y-98300000D01*
X158751190Y-98204761D01*
X158703571Y-98014285D01*
X158655952Y-97919047D01*
X158608333Y-97871428D01*
X158513095Y-97823809D01*
X158417857Y-97823809D01*
X158322619Y-97871428D01*
X158275000Y-97919047D01*
X158227380Y-98014285D01*
X158227380Y-98252380D01*
X158275000Y-98395238D01*
X158560714Y-98680952D02*
X158560714Y-99061904D01*
X158227380Y-98823809D02*
X159084523Y-98823809D01*
X159179761Y-98871428D01*
X159227380Y-98966666D01*
X159227380Y-99061904D01*
X159227380Y-99538095D02*
X159179761Y-99442857D01*
X159132142Y-99395238D01*
X159036904Y-99347619D01*
X158751190Y-99347619D01*
X158655952Y-99395238D01*
X158608333Y-99442857D01*
X158560714Y-99538095D01*
X158560714Y-99680952D01*
X158608333Y-99776190D01*
X158655952Y-99823809D01*
X158751190Y-99871428D01*
X159036904Y-99871428D01*
X159132142Y-99823809D01*
X159179761Y-99776190D01*
X159227380Y-99680952D01*
X159227380Y-99538095D01*
X159227380Y-100300000D02*
X158560714Y-100300000D01*
X158751190Y-100300000D02*
X158655952Y-100347619D01*
X158608333Y-100395238D01*
X158560714Y-100490476D01*
X158560714Y-100585714D01*
X159227380Y-100919047D02*
X158560714Y-100919047D01*
X158655952Y-100919047D02*
X158608333Y-100966666D01*
X158560714Y-101061904D01*
X158560714Y-101204761D01*
X158608333Y-101300000D01*
X158703571Y-101347619D01*
X159227380Y-101347619D01*
X158703571Y-101347619D02*
X158608333Y-101395238D01*
X158560714Y-101490476D01*
X158560714Y-101633333D01*
X158608333Y-101728571D01*
X158703571Y-101776190D01*
X159227380Y-101776190D01*
X159132142Y-103585714D02*
X159179761Y-103538095D01*
X159227380Y-103395238D01*
X159227380Y-103300000D01*
X159179761Y-103157142D01*
X159084523Y-103061904D01*
X158989285Y-103014285D01*
X158798809Y-102966666D01*
X158655952Y-102966666D01*
X158465476Y-103014285D01*
X158370238Y-103061904D01*
X158275000Y-103157142D01*
X158227380Y-103300000D01*
X158227380Y-103395238D01*
X158275000Y-103538095D01*
X158322619Y-103585714D01*
X159227380Y-104014285D02*
X158227380Y-104014285D01*
X158227380Y-104395238D01*
X158275000Y-104490476D01*
X158322619Y-104538095D01*
X158417857Y-104585714D01*
X158560714Y-104585714D01*
X158655952Y-104538095D01*
X158703571Y-104490476D01*
X158751190Y-104395238D01*
X158751190Y-104014285D01*
X158227380Y-105014285D02*
X159036904Y-105014285D01*
X159132142Y-105061904D01*
X159179761Y-105109523D01*
X159227380Y-105204761D01*
X159227380Y-105395238D01*
X159179761Y-105490476D01*
X159132142Y-105538095D01*
X159036904Y-105585714D01*
X158227380Y-105585714D01*
X158703571Y-107157142D02*
X158703571Y-106823809D01*
X159227380Y-106823809D02*
X158227380Y-106823809D01*
X158227380Y-107300000D01*
X159227380Y-108157142D02*
X159227380Y-107680952D01*
X158227380Y-107680952D01*
X158703571Y-108490476D02*
X158703571Y-108823809D01*
X159227380Y-108966666D02*
X159227380Y-108490476D01*
X158227380Y-108490476D01*
X158227380Y-108966666D01*
X158227380Y-109300000D02*
X159227380Y-109966666D01*
X158227380Y-109966666D02*
X159227380Y-109300000D01*
X159227380Y-110347619D02*
X158227380Y-110347619D01*
X158703571Y-111157142D02*
X158751190Y-111299999D01*
X158798809Y-111347619D01*
X158894047Y-111395238D01*
X159036904Y-111395238D01*
X159132142Y-111347619D01*
X159179761Y-111299999D01*
X159227380Y-111204761D01*
X159227380Y-110823809D01*
X158227380Y-110823809D01*
X158227380Y-111157142D01*
X158275000Y-111252380D01*
X158322619Y-111299999D01*
X158417857Y-111347619D01*
X158513095Y-111347619D01*
X158608333Y-111299999D01*
X158655952Y-111252380D01*
X158703571Y-111157142D01*
X158703571Y-110823809D01*
X159227380Y-112299999D02*
X159227380Y-111823809D01*
X158227380Y-111823809D01*
X158703571Y-112633333D02*
X158703571Y-112966666D01*
X159227380Y-113109523D02*
X159227380Y-112633333D01*
X158227380Y-112633333D01*
X158227380Y-113109523D01*
X159227380Y-114871428D02*
X158751190Y-114538095D01*
X159227380Y-114299999D02*
X158227380Y-114299999D01*
X158227380Y-114680952D01*
X158275000Y-114776190D01*
X158322619Y-114823809D01*
X158417857Y-114871428D01*
X158560714Y-114871428D01*
X158655952Y-114823809D01*
X158703571Y-114776190D01*
X158751190Y-114680952D01*
X158751190Y-114299999D01*
X158703571Y-115299999D02*
X158703571Y-115633333D01*
X159227380Y-115776190D02*
X159227380Y-115299999D01*
X158227380Y-115299999D01*
X158227380Y-115776190D01*
X159227380Y-116680952D02*
X159227380Y-116204761D01*
X158227380Y-116204761D01*
X158227380Y-117204761D02*
X158227380Y-117395238D01*
X158275000Y-117490476D01*
X158370238Y-117585714D01*
X158560714Y-117633333D01*
X158894047Y-117633333D01*
X159084523Y-117585714D01*
X159179761Y-117490476D01*
X159227380Y-117395238D01*
X159227380Y-117204761D01*
X159179761Y-117109523D01*
X159084523Y-117014285D01*
X158894047Y-116966666D01*
X158560714Y-116966666D01*
X158370238Y-117014285D01*
X158275000Y-117109523D01*
X158227380Y-117204761D01*
X159132142Y-118633333D02*
X159179761Y-118585714D01*
X159227380Y-118442857D01*
X159227380Y-118347619D01*
X159179761Y-118204761D01*
X159084523Y-118109523D01*
X158989285Y-118061904D01*
X158798809Y-118014285D01*
X158655952Y-118014285D01*
X158465476Y-118061904D01*
X158370238Y-118109523D01*
X158275000Y-118204761D01*
X158227380Y-118347619D01*
X158227380Y-118442857D01*
X158275000Y-118585714D01*
X158322619Y-118633333D01*
X158941666Y-119014285D02*
X158941666Y-119490476D01*
X159227380Y-118919047D02*
X158227380Y-119252380D01*
X159227380Y-119585714D01*
X158227380Y-119776190D02*
X158227380Y-120347619D01*
X159227380Y-120061904D02*
X158227380Y-120061904D01*
X158227380Y-120871428D02*
X158227380Y-121061904D01*
X158275000Y-121157142D01*
X158370238Y-121252380D01*
X158560714Y-121299999D01*
X158894047Y-121299999D01*
X159084523Y-121252380D01*
X159179761Y-121157142D01*
X159227380Y-121061904D01*
X159227380Y-120871428D01*
X159179761Y-120776190D01*
X159084523Y-120680952D01*
X158894047Y-120633333D01*
X158560714Y-120633333D01*
X158370238Y-120680952D01*
X158275000Y-120776190D01*
X158227380Y-120871428D01*
X159227380Y-122299999D02*
X158751190Y-121966666D01*
X159227380Y-121728571D02*
X158227380Y-121728571D01*
X158227380Y-122109523D01*
X158275000Y-122204761D01*
X158322619Y-122252380D01*
X158417857Y-122299999D01*
X158560714Y-122299999D01*
X158655952Y-122252380D01*
X158703571Y-122204761D01*
X158751190Y-122109523D01*
X158751190Y-121728571D01*
X159452380Y-64716666D02*
X158785714Y-64716666D01*
X158452380Y-64716666D02*
X158500000Y-64669047D01*
X158547619Y-64716666D01*
X158500000Y-64764285D01*
X158452380Y-64716666D01*
X158547619Y-64716666D01*
X158785714Y-65192857D02*
X159452380Y-65192857D01*
X158880952Y-65192857D02*
X158833333Y-65240476D01*
X158785714Y-65335714D01*
X158785714Y-65478571D01*
X158833333Y-65573809D01*
X158928571Y-65621428D01*
X159452380Y-65621428D01*
X159452380Y-66859523D02*
X158785714Y-66859523D01*
X158880952Y-66859523D02*
X158833333Y-66907142D01*
X158785714Y-67002380D01*
X158785714Y-67145238D01*
X158833333Y-67240476D01*
X158928571Y-67288095D01*
X159452380Y-67288095D01*
X158928571Y-67288095D02*
X158833333Y-67335714D01*
X158785714Y-67430952D01*
X158785714Y-67573809D01*
X158833333Y-67669047D01*
X158928571Y-67716666D01*
X159452380Y-67716666D01*
X159404761Y-68573809D02*
X159452380Y-68478571D01*
X159452380Y-68288095D01*
X159404761Y-68192857D01*
X159309523Y-68145238D01*
X158928571Y-68145238D01*
X158833333Y-68192857D01*
X158785714Y-68288095D01*
X158785714Y-68478571D01*
X158833333Y-68573809D01*
X158928571Y-68621428D01*
X159023809Y-68621428D01*
X159119047Y-68145238D01*
X159452380Y-69050000D02*
X158785714Y-69050000D01*
X158880952Y-69050000D02*
X158833333Y-69097619D01*
X158785714Y-69192857D01*
X158785714Y-69335714D01*
X158833333Y-69430952D01*
X158928571Y-69478571D01*
X159452380Y-69478571D01*
X158928571Y-69478571D02*
X158833333Y-69526190D01*
X158785714Y-69621428D01*
X158785714Y-69764285D01*
X158833333Y-69859523D01*
X158928571Y-69907142D01*
X159452380Y-69907142D01*
X159452380Y-70526190D02*
X159404761Y-70430952D01*
X159357142Y-70383333D01*
X159261904Y-70335714D01*
X158976190Y-70335714D01*
X158880952Y-70383333D01*
X158833333Y-70430952D01*
X158785714Y-70526190D01*
X158785714Y-70669047D01*
X158833333Y-70764285D01*
X158880952Y-70811904D01*
X158976190Y-70859523D01*
X159261904Y-70859523D01*
X159357142Y-70811904D01*
X159404761Y-70764285D01*
X159452380Y-70669047D01*
X159452380Y-70526190D01*
X159452380Y-71288095D02*
X158785714Y-71288095D01*
X158976190Y-71288095D02*
X158880952Y-71335714D01*
X158833333Y-71383333D01*
X158785714Y-71478571D01*
X158785714Y-71573809D01*
X159452380Y-71907142D02*
X158785714Y-71907142D01*
X158452380Y-71907142D02*
X158500000Y-71859523D01*
X158547619Y-71907142D01*
X158500000Y-71954761D01*
X158452380Y-71907142D01*
X158547619Y-71907142D01*
X159452380Y-72811904D02*
X158928571Y-72811904D01*
X158833333Y-72764285D01*
X158785714Y-72669047D01*
X158785714Y-72478571D01*
X158833333Y-72383333D01*
X159404761Y-72811904D02*
X159452380Y-72716666D01*
X159452380Y-72478571D01*
X159404761Y-72383333D01*
X159309523Y-72335714D01*
X159214285Y-72335714D01*
X159119047Y-72383333D01*
X159071428Y-72478571D01*
X159071428Y-72716666D01*
X159023809Y-72811904D01*
X159452380Y-73288095D02*
X158785714Y-73288095D01*
X158880952Y-73288095D02*
X158833333Y-73335714D01*
X158785714Y-73430952D01*
X158785714Y-73573809D01*
X158833333Y-73669047D01*
X158928571Y-73716666D01*
X159452380Y-73716666D01*
X158928571Y-73716666D02*
X158833333Y-73764285D01*
X158785714Y-73859523D01*
X158785714Y-74002380D01*
X158833333Y-74097619D01*
X158928571Y-74145238D01*
X159452380Y-74145238D01*
X159166666Y-75335714D02*
X159166666Y-75811904D01*
X159452380Y-75240476D02*
X158452380Y-75573809D01*
X159452380Y-75907142D01*
X159357142Y-76240476D02*
X159404761Y-76288095D01*
X159452380Y-76240476D01*
X159404761Y-76192857D01*
X159357142Y-76240476D01*
X159452380Y-76240476D01*
X159404761Y-76669047D02*
X159452380Y-76811904D01*
X159452380Y-77050000D01*
X159404761Y-77145238D01*
X159357142Y-77192857D01*
X159261904Y-77240476D01*
X159166666Y-77240476D01*
X159071428Y-77192857D01*
X159023809Y-77145238D01*
X158976190Y-77050000D01*
X158928571Y-76859523D01*
X158880952Y-76764285D01*
X158833333Y-76716666D01*
X158738095Y-76669047D01*
X158642857Y-76669047D01*
X158547619Y-76716666D01*
X158500000Y-76764285D01*
X158452380Y-76859523D01*
X158452380Y-77097619D01*
X158500000Y-77240476D01*
X159357142Y-77669047D02*
X159404761Y-77716666D01*
X159452380Y-77669047D01*
X159404761Y-77621428D01*
X159357142Y-77669047D01*
X159452380Y-77669047D01*
X159071428Y-78907142D02*
X159071428Y-79669047D01*
X158500000Y-81430952D02*
X158452380Y-81335714D01*
X158452380Y-81192857D01*
X158500000Y-81050000D01*
X158595238Y-80954761D01*
X158690476Y-80907142D01*
X158880952Y-80859523D01*
X159023809Y-80859523D01*
X159214285Y-80907142D01*
X159309523Y-80954761D01*
X159404761Y-81050000D01*
X159452380Y-81192857D01*
X159452380Y-81288095D01*
X159404761Y-81430952D01*
X159357142Y-81478571D01*
X159023809Y-81478571D01*
X159023809Y-81288095D01*
X159357142Y-81907142D02*
X159404761Y-81954761D01*
X159452380Y-81907142D01*
X159404761Y-81859523D01*
X159357142Y-81907142D01*
X159452380Y-81907142D01*
X159452380Y-82383333D02*
X158452380Y-82383333D01*
X158452380Y-82621428D01*
X158500000Y-82764285D01*
X158595238Y-82859523D01*
X158690476Y-82907142D01*
X158880952Y-82954761D01*
X159023809Y-82954761D01*
X159214285Y-82907142D01*
X159309523Y-82859523D01*
X159404761Y-82764285D01*
X159452380Y-82621428D01*
X159452380Y-82383333D01*
X159357142Y-83383333D02*
X159404761Y-83430952D01*
X159452380Y-83383333D01*
X159404761Y-83335714D01*
X159357142Y-83383333D01*
X159452380Y-83383333D01*
D11*
%TO.C,L2*%
G36*
X145467633Y-106407739D02*
G01*
X145607635Y-106483128D01*
X145862898Y-106577177D01*
X146134033Y-106665705D01*
X146466241Y-106767201D01*
X146732499Y-106839747D01*
X146895814Y-106873721D01*
X146928509Y-106872320D01*
X146964932Y-106779884D01*
X147034733Y-106562821D01*
X147125798Y-106259608D01*
X147175198Y-106088842D01*
X147279591Y-105691393D01*
X147322952Y-105439452D01*
X147307038Y-105321263D01*
X147291479Y-105310294D01*
X147060605Y-105238992D01*
X146766548Y-105153610D01*
X146456746Y-105067191D01*
X146178638Y-104992776D01*
X145979660Y-104943409D01*
X145910703Y-104930667D01*
X145845300Y-105010411D01*
X145746430Y-105239191D01*
X145619901Y-105601326D01*
X145471518Y-106081134D01*
X145422928Y-106248051D01*
X145415272Y-106334788D01*
X145467633Y-106407739D01*
G37*
X145467633Y-106407739D02*
X145607635Y-106483128D01*
X145862898Y-106577177D01*
X146134033Y-106665705D01*
X146466241Y-106767201D01*
X146732499Y-106839747D01*
X146895814Y-106873721D01*
X146928509Y-106872320D01*
X146964932Y-106779884D01*
X147034733Y-106562821D01*
X147125798Y-106259608D01*
X147175198Y-106088842D01*
X147279591Y-105691393D01*
X147322952Y-105439452D01*
X147307038Y-105321263D01*
X147291479Y-105310294D01*
X147060605Y-105238992D01*
X146766548Y-105153610D01*
X146456746Y-105067191D01*
X146178638Y-104992776D01*
X145979660Y-104943409D01*
X145910703Y-104930667D01*
X145845300Y-105010411D01*
X145746430Y-105239191D01*
X145619901Y-105601326D01*
X145471518Y-106081134D01*
X145422928Y-106248051D01*
X145415272Y-106334788D01*
X145467633Y-106407739D01*
G36*
X148182153Y-116543213D02*
G01*
X148226263Y-116583379D01*
X148315355Y-116633504D01*
X148462958Y-116699039D01*
X148682601Y-116785435D01*
X148987811Y-116898145D01*
X149392118Y-117042619D01*
X149909050Y-117224310D01*
X150552136Y-117448669D01*
X151334903Y-117721149D01*
X151766333Y-117871368D01*
X154645000Y-118874034D01*
X154671034Y-119226017D01*
X154716354Y-119480368D01*
X154804512Y-119576735D01*
X154819201Y-119578000D01*
X154873701Y-119548207D01*
X154909814Y-119441664D01*
X154930839Y-119232628D01*
X154940076Y-118895354D01*
X154941333Y-118625082D01*
X154941333Y-117672165D01*
X153946500Y-117323883D01*
X152951666Y-116975601D01*
X152951666Y-114811145D01*
X153946069Y-114464073D01*
X154387090Y-114304126D01*
X154685427Y-114179925D01*
X154861402Y-114081355D01*
X154935336Y-113998300D01*
X154940902Y-113968833D01*
X154931242Y-113843835D01*
X154920166Y-113822429D01*
X154838738Y-113850802D01*
X154614774Y-113931150D01*
X154264841Y-114057472D01*
X153805500Y-114223769D01*
X153253319Y-114424039D01*
X152655333Y-114641216D01*
X152655333Y-114928922D01*
X152655333Y-115856461D01*
X152649687Y-116293706D01*
X152631281Y-116581274D01*
X152597912Y-116738491D01*
X152549500Y-116784726D01*
X152431743Y-116759682D01*
X152195921Y-116691393D01*
X151875423Y-116591101D01*
X151503639Y-116470051D01*
X151113959Y-116339485D01*
X150739772Y-116210647D01*
X150414470Y-116094780D01*
X150171442Y-116003128D01*
X150044078Y-115946934D01*
X150032952Y-115937333D01*
X150106534Y-115892353D01*
X150305737Y-115805341D01*
X150596494Y-115690593D01*
X150814331Y-115609407D01*
X151229175Y-115457551D01*
X151656340Y-115300399D01*
X152023140Y-115164713D01*
X152126166Y-115126368D01*
X152655333Y-114928922D01*
X152655333Y-114641216D01*
X152624861Y-114652283D01*
X151936690Y-114902500D01*
X151554666Y-115041517D01*
X150717024Y-115347499D01*
X150025946Y-115602715D01*
X149468256Y-115812586D01*
X149030777Y-115982532D01*
X148700333Y-116117974D01*
X148463748Y-116224331D01*
X148307846Y-116307024D01*
X148219451Y-116371473D01*
X148185385Y-116423099D01*
X148184432Y-116427944D01*
X148174766Y-116470947D01*
X148169497Y-116507552D01*
X148182153Y-116543213D01*
G37*
X148182153Y-116543213D02*
X148226263Y-116583379D01*
X148315355Y-116633504D01*
X148462958Y-116699039D01*
X148682601Y-116785435D01*
X148987811Y-116898145D01*
X149392118Y-117042619D01*
X149909050Y-117224310D01*
X150552136Y-117448669D01*
X151334903Y-117721149D01*
X151766333Y-117871368D01*
X154645000Y-118874034D01*
X154671034Y-119226017D01*
X154716354Y-119480368D01*
X154804512Y-119576735D01*
X154819201Y-119578000D01*
X154873701Y-119548207D01*
X154909814Y-119441664D01*
X154930839Y-119232628D01*
X154940076Y-118895354D01*
X154941333Y-118625082D01*
X154941333Y-117672165D01*
X153946500Y-117323883D01*
X152951666Y-116975601D01*
X152951666Y-114811145D01*
X153946069Y-114464073D01*
X154387090Y-114304126D01*
X154685427Y-114179925D01*
X154861402Y-114081355D01*
X154935336Y-113998300D01*
X154940902Y-113968833D01*
X154931242Y-113843835D01*
X154920166Y-113822429D01*
X154838738Y-113850802D01*
X154614774Y-113931150D01*
X154264841Y-114057472D01*
X153805500Y-114223769D01*
X153253319Y-114424039D01*
X152655333Y-114641216D01*
X152655333Y-114928922D01*
X152655333Y-115856461D01*
X152649687Y-116293706D01*
X152631281Y-116581274D01*
X152597912Y-116738491D01*
X152549500Y-116784726D01*
X152431743Y-116759682D01*
X152195921Y-116691393D01*
X151875423Y-116591101D01*
X151503639Y-116470051D01*
X151113959Y-116339485D01*
X150739772Y-116210647D01*
X150414470Y-116094780D01*
X150171442Y-116003128D01*
X150044078Y-115946934D01*
X150032952Y-115937333D01*
X150106534Y-115892353D01*
X150305737Y-115805341D01*
X150596494Y-115690593D01*
X150814331Y-115609407D01*
X151229175Y-115457551D01*
X151656340Y-115300399D01*
X152023140Y-115164713D01*
X152126166Y-115126368D01*
X152655333Y-114928922D01*
X152655333Y-114641216D01*
X152624861Y-114652283D01*
X151936690Y-114902500D01*
X151554666Y-115041517D01*
X150717024Y-115347499D01*
X150025946Y-115602715D01*
X149468256Y-115812586D01*
X149030777Y-115982532D01*
X148700333Y-116117974D01*
X148463748Y-116224331D01*
X148307846Y-116307024D01*
X148219451Y-116371473D01*
X148185385Y-116423099D01*
X148184432Y-116427944D01*
X148174766Y-116470947D01*
X148169497Y-116507552D01*
X148182153Y-116543213D01*
G36*
X148340167Y-106659860D02*
G01*
X148350599Y-106973813D01*
X148371523Y-107168612D01*
X148405832Y-107269316D01*
X148456421Y-107300981D01*
X148464333Y-107301333D01*
X148538009Y-107262383D01*
X148577603Y-107124275D01*
X148591069Y-106855125D01*
X148591333Y-106792264D01*
X148591333Y-106283194D01*
X151618166Y-106305430D01*
X154645000Y-106327667D01*
X154670391Y-106814500D01*
X154699047Y-107111038D01*
X154750900Y-107264440D01*
X154818558Y-107301333D01*
X154862590Y-107277465D01*
X154894998Y-107191857D01*
X154917428Y-107023510D01*
X154931525Y-106751421D01*
X154938937Y-106354589D01*
X154941309Y-105812012D01*
X154941333Y-105735000D01*
X154939454Y-105173113D01*
X154932724Y-104759549D01*
X154919501Y-104473330D01*
X154898143Y-104293475D01*
X154867008Y-104199006D01*
X154824455Y-104168943D01*
X154818757Y-104168667D01*
X154737289Y-104226280D01*
X154688341Y-104414429D01*
X154670591Y-104613167D01*
X154645000Y-105057667D01*
X151491166Y-105079864D01*
X148337333Y-105102061D01*
X148337333Y-106201697D01*
X148340167Y-106659860D01*
G37*
X148340167Y-106659860D02*
X148350599Y-106973813D01*
X148371523Y-107168612D01*
X148405832Y-107269316D01*
X148456421Y-107300981D01*
X148464333Y-107301333D01*
X148538009Y-107262383D01*
X148577603Y-107124275D01*
X148591069Y-106855125D01*
X148591333Y-106792264D01*
X148591333Y-106283194D01*
X151618166Y-106305430D01*
X154645000Y-106327667D01*
X154670391Y-106814500D01*
X154699047Y-107111038D01*
X154750900Y-107264440D01*
X154818558Y-107301333D01*
X154862590Y-107277465D01*
X154894998Y-107191857D01*
X154917428Y-107023510D01*
X154931525Y-106751421D01*
X154938937Y-106354589D01*
X154941309Y-105812012D01*
X154941333Y-105735000D01*
X154939454Y-105173113D01*
X154932724Y-104759549D01*
X154919501Y-104473330D01*
X154898143Y-104293475D01*
X154867008Y-104199006D01*
X154824455Y-104168943D01*
X154818757Y-104168667D01*
X154737289Y-104226280D01*
X154688341Y-104414429D01*
X154670591Y-104613167D01*
X154645000Y-105057667D01*
X151491166Y-105079864D01*
X148337333Y-105102061D01*
X148337333Y-106201697D01*
X148340167Y-106659860D01*
G36*
X154687333Y-102814000D02*
G01*
X154687333Y-103279667D01*
X154698735Y-103560491D01*
X154738743Y-103705072D01*
X154814333Y-103745333D01*
X154867226Y-103720804D01*
X154903478Y-103630516D01*
X154925980Y-103449424D01*
X154937620Y-103152480D01*
X154941290Y-102714636D01*
X154941333Y-102644667D01*
X154941333Y-101544000D01*
X151879222Y-101544000D01*
X151180111Y-101542956D01*
X150539218Y-101539983D01*
X149975070Y-101535324D01*
X149506195Y-101529220D01*
X149151118Y-101521911D01*
X148928367Y-101513638D01*
X148856445Y-101504666D01*
X148943253Y-101470692D01*
X149173337Y-101391076D01*
X149528689Y-101271773D01*
X149991303Y-101118737D01*
X150543174Y-100937922D01*
X151166293Y-100735281D01*
X151842656Y-100516769D01*
X151897389Y-100499146D01*
X152685556Y-100244409D01*
X153326651Y-100034416D01*
X153835311Y-99863664D01*
X154226171Y-99726651D01*
X154513866Y-99617873D01*
X154713033Y-99531827D01*
X154838306Y-99463012D01*
X154904321Y-99405925D01*
X154925052Y-99360796D01*
X154919421Y-99295323D01*
X154867681Y-99232006D01*
X154749158Y-99161742D01*
X154543176Y-99075429D01*
X154229060Y-98963966D01*
X153786134Y-98818248D01*
X153443386Y-98708499D01*
X152817727Y-98508658D01*
X152102584Y-98279268D01*
X151369450Y-98043316D01*
X150689817Y-97823793D01*
X150411666Y-97733630D01*
X148887666Y-97238892D01*
X151914500Y-97232446D01*
X152709548Y-97230505D01*
X153351605Y-97227785D01*
X153857011Y-97223337D01*
X154242107Y-97216211D01*
X154523235Y-97205460D01*
X154716735Y-97190133D01*
X154838948Y-97169283D01*
X154906217Y-97141959D01*
X154934881Y-97107213D01*
X154941283Y-97064097D01*
X154941333Y-97056667D01*
X154937109Y-97013111D01*
X154913792Y-96977747D01*
X154855414Y-96949720D01*
X154746008Y-96928178D01*
X154569607Y-96912268D01*
X154310243Y-96901138D01*
X153951948Y-96893934D01*
X153478755Y-96889805D01*
X152874698Y-96887897D01*
X152123807Y-96887357D01*
X151770558Y-96887333D01*
X148599783Y-96887333D01*
X148574391Y-96407189D01*
X148540970Y-96112088D01*
X148482722Y-95930646D01*
X148443166Y-95892133D01*
X148401070Y-95916800D01*
X148370997Y-96035336D01*
X148351389Y-96266424D01*
X148340688Y-96628745D01*
X148337336Y-97140984D01*
X148337333Y-97161312D01*
X148337333Y-98465401D01*
X152782333Y-99830443D01*
X150581000Y-100543159D01*
X148379666Y-101255875D01*
X148355322Y-102034937D01*
X148330978Y-102814000D01*
X154687333Y-102814000D01*
G37*
X154687333Y-102814000D02*
X154687333Y-103279667D01*
X154698735Y-103560491D01*
X154738743Y-103705072D01*
X154814333Y-103745333D01*
X154867226Y-103720804D01*
X154903478Y-103630516D01*
X154925980Y-103449424D01*
X154937620Y-103152480D01*
X154941290Y-102714636D01*
X154941333Y-102644667D01*
X154941333Y-101544000D01*
X151879222Y-101544000D01*
X151180111Y-101542956D01*
X150539218Y-101539983D01*
X149975070Y-101535324D01*
X149506195Y-101529220D01*
X149151118Y-101521911D01*
X148928367Y-101513638D01*
X148856445Y-101504666D01*
X148943253Y-101470692D01*
X149173337Y-101391076D01*
X149528689Y-101271773D01*
X149991303Y-101118737D01*
X150543174Y-100937922D01*
X151166293Y-100735281D01*
X151842656Y-100516769D01*
X151897389Y-100499146D01*
X152685556Y-100244409D01*
X153326651Y-100034416D01*
X153835311Y-99863664D01*
X154226171Y-99726651D01*
X154513866Y-99617873D01*
X154713033Y-99531827D01*
X154838306Y-99463012D01*
X154904321Y-99405925D01*
X154925052Y-99360796D01*
X154919421Y-99295323D01*
X154867681Y-99232006D01*
X154749158Y-99161742D01*
X154543176Y-99075429D01*
X154229060Y-98963966D01*
X153786134Y-98818248D01*
X153443386Y-98708499D01*
X152817727Y-98508658D01*
X152102584Y-98279268D01*
X151369450Y-98043316D01*
X150689817Y-97823793D01*
X150411666Y-97733630D01*
X148887666Y-97238892D01*
X151914500Y-97232446D01*
X152709548Y-97230505D01*
X153351605Y-97227785D01*
X153857011Y-97223337D01*
X154242107Y-97216211D01*
X154523235Y-97205460D01*
X154716735Y-97190133D01*
X154838948Y-97169283D01*
X154906217Y-97141959D01*
X154934881Y-97107213D01*
X154941283Y-97064097D01*
X154941333Y-97056667D01*
X154937109Y-97013111D01*
X154913792Y-96977747D01*
X154855414Y-96949720D01*
X154746008Y-96928178D01*
X154569607Y-96912268D01*
X154310243Y-96901138D01*
X153951948Y-96893934D01*
X153478755Y-96889805D01*
X152874698Y-96887897D01*
X152123807Y-96887357D01*
X151770558Y-96887333D01*
X148599783Y-96887333D01*
X148574391Y-96407189D01*
X148540970Y-96112088D01*
X148482722Y-95930646D01*
X148443166Y-95892133D01*
X148401070Y-95916800D01*
X148370997Y-96035336D01*
X148351389Y-96266424D01*
X148340688Y-96628745D01*
X148337336Y-97140984D01*
X148337333Y-97161312D01*
X148337333Y-98465401D01*
X152782333Y-99830443D01*
X150581000Y-100543159D01*
X148379666Y-101255875D01*
X148355322Y-102034937D01*
X148330978Y-102814000D01*
X154687333Y-102814000D01*
G36*
X148191868Y-93380426D02*
G01*
X148252708Y-93452393D01*
X148390521Y-93532991D01*
X148628574Y-93634210D01*
X148990133Y-93768038D01*
X149285398Y-93872252D01*
X149689917Y-94013647D01*
X150215823Y-94197417D01*
X150824635Y-94410118D01*
X151477869Y-94638305D01*
X152137045Y-94868535D01*
X152528333Y-95005182D01*
X154645000Y-95744333D01*
X154671034Y-96104167D01*
X154714849Y-96361059D01*
X154799844Y-96461767D01*
X154819201Y-96464000D01*
X154873616Y-96434258D01*
X154909706Y-96327892D01*
X154930752Y-96119193D01*
X154940039Y-95782451D01*
X154941333Y-95507674D01*
X154941333Y-94551349D01*
X153922887Y-94184100D01*
X152904442Y-93816851D01*
X152928054Y-92750043D01*
X152951666Y-91683236D01*
X153925333Y-91334453D01*
X154393138Y-91157758D01*
X154708388Y-91016402D01*
X154882790Y-90904589D01*
X154927949Y-90837993D01*
X154913578Y-90732045D01*
X154800949Y-90739900D01*
X154689364Y-90778952D01*
X154436531Y-90869536D01*
X154060293Y-91005195D01*
X153578497Y-91179472D01*
X153008987Y-91385909D01*
X152655333Y-91514310D01*
X152655333Y-91812375D01*
X152655333Y-92741187D01*
X152649944Y-93114882D01*
X152635333Y-93416734D01*
X152613836Y-93612525D01*
X152591933Y-93670000D01*
X152479794Y-93643843D01*
X152244793Y-93573244D01*
X151921842Y-93470008D01*
X151545851Y-93345944D01*
X151151733Y-93212857D01*
X150774399Y-93082554D01*
X150448759Y-92966842D01*
X150209724Y-92877527D01*
X150092207Y-92826417D01*
X150087472Y-92823012D01*
X150116194Y-92761157D01*
X150268344Y-92675957D01*
X150383806Y-92630632D01*
X150612589Y-92549487D01*
X150951768Y-92428044D01*
X151352576Y-92283807D01*
X151702833Y-92157247D01*
X152655333Y-91812375D01*
X152655333Y-91514310D01*
X152369609Y-91618048D01*
X151678207Y-91869431D01*
X151427666Y-91960608D01*
X150610798Y-92259002D01*
X149939976Y-92506798D01*
X149401534Y-92709661D01*
X148981806Y-92873257D01*
X148667126Y-93003252D01*
X148443828Y-93105312D01*
X148298245Y-93185103D01*
X148216711Y-93248291D01*
X148185561Y-93300541D01*
X148184732Y-93305102D01*
X148191868Y-93380426D01*
G37*
X148191868Y-93380426D02*
X148252708Y-93452393D01*
X148390521Y-93532991D01*
X148628574Y-93634210D01*
X148990133Y-93768038D01*
X149285398Y-93872252D01*
X149689917Y-94013647D01*
X150215823Y-94197417D01*
X150824635Y-94410118D01*
X151477869Y-94638305D01*
X152137045Y-94868535D01*
X152528333Y-95005182D01*
X154645000Y-95744333D01*
X154671034Y-96104167D01*
X154714849Y-96361059D01*
X154799844Y-96461767D01*
X154819201Y-96464000D01*
X154873616Y-96434258D01*
X154909706Y-96327892D01*
X154930752Y-96119193D01*
X154940039Y-95782451D01*
X154941333Y-95507674D01*
X154941333Y-94551349D01*
X153922887Y-94184100D01*
X152904442Y-93816851D01*
X152928054Y-92750043D01*
X152951666Y-91683236D01*
X153925333Y-91334453D01*
X154393138Y-91157758D01*
X154708388Y-91016402D01*
X154882790Y-90904589D01*
X154927949Y-90837993D01*
X154913578Y-90732045D01*
X154800949Y-90739900D01*
X154689364Y-90778952D01*
X154436531Y-90869536D01*
X154060293Y-91005195D01*
X153578497Y-91179472D01*
X153008987Y-91385909D01*
X152655333Y-91514310D01*
X152655333Y-91812375D01*
X152655333Y-92741187D01*
X152649944Y-93114882D01*
X152635333Y-93416734D01*
X152613836Y-93612525D01*
X152591933Y-93670000D01*
X152479794Y-93643843D01*
X152244793Y-93573244D01*
X151921842Y-93470008D01*
X151545851Y-93345944D01*
X151151733Y-93212857D01*
X150774399Y-93082554D01*
X150448759Y-92966842D01*
X150209724Y-92877527D01*
X150092207Y-92826417D01*
X150087472Y-92823012D01*
X150116194Y-92761157D01*
X150268344Y-92675957D01*
X150383806Y-92630632D01*
X150612589Y-92549487D01*
X150951768Y-92428044D01*
X151352576Y-92283807D01*
X151702833Y-92157247D01*
X152655333Y-91812375D01*
X152655333Y-91514310D01*
X152369609Y-91618048D01*
X151678207Y-91869431D01*
X151427666Y-91960608D01*
X150610798Y-92259002D01*
X149939976Y-92506798D01*
X149401534Y-92709661D01*
X148981806Y-92873257D01*
X148667126Y-93003252D01*
X148443828Y-93105312D01*
X148298245Y-93185103D01*
X148216711Y-93248291D01*
X148185561Y-93300541D01*
X148184732Y-93305102D01*
X148191868Y-93380426D01*
G36*
X148198600Y-111476623D02*
G01*
X148330930Y-112120917D01*
X148568773Y-112719455D01*
X148667998Y-112896529D01*
X148755671Y-113028536D01*
X148848976Y-113107012D01*
X148991490Y-113145914D01*
X149226792Y-113159196D01*
X149493026Y-113160742D01*
X149828440Y-113156926D01*
X150030370Y-113139026D01*
X150134580Y-113098258D01*
X150176837Y-113025836D01*
X150183653Y-112991099D01*
X150161581Y-112863348D01*
X150024902Y-112768638D01*
X149887319Y-112718762D01*
X149307554Y-112470473D01*
X148869402Y-112140686D01*
X148577276Y-111734463D01*
X148435587Y-111256864D01*
X148422000Y-111037675D01*
X148475192Y-110537888D01*
X148646150Y-110134040D01*
X148951940Y-109785932D01*
X148954394Y-109783775D01*
X149144373Y-109638896D01*
X149359350Y-109526901D01*
X149621907Y-109444433D01*
X149954631Y-109388135D01*
X150380103Y-109354650D01*
X150920909Y-109340622D01*
X151599632Y-109342692D01*
X151893333Y-109346917D01*
X152480718Y-109357509D01*
X152925369Y-109369184D01*
X153253876Y-109384967D01*
X153492827Y-109407882D01*
X153668811Y-109440955D01*
X153808416Y-109487209D01*
X153938232Y-109549671D01*
X154006723Y-109587333D01*
X154403828Y-109875208D01*
X154650261Y-110220921D01*
X154761688Y-110650617D01*
X154772000Y-110864342D01*
X154736387Y-111342742D01*
X154617951Y-111691870D01*
X154399295Y-111927695D01*
X154063021Y-112066181D01*
X153591732Y-112123296D01*
X153396166Y-112127017D01*
X152740000Y-112127333D01*
X152740000Y-111619333D01*
X152730246Y-111324361D01*
X152695671Y-111165991D01*
X152628302Y-111112335D01*
X152613000Y-111111333D01*
X152562555Y-111134702D01*
X152527151Y-111220738D01*
X152504317Y-111393330D01*
X152491580Y-111676370D01*
X152486470Y-112093750D01*
X152486000Y-112339000D01*
X152486000Y-113566667D01*
X152766966Y-113566667D01*
X153199975Y-113511886D01*
X153658335Y-113366535D01*
X154060876Y-113159098D01*
X154182179Y-113070035D01*
X154393732Y-112851737D01*
X154613204Y-112559143D01*
X154729403Y-112369103D01*
X154851035Y-112126427D01*
X154927980Y-111902516D01*
X154972236Y-111642035D01*
X154995800Y-111289648D01*
X155002095Y-111111333D01*
X155006880Y-110679983D01*
X154985663Y-110360285D01*
X154931610Y-110095648D01*
X154851341Y-109863089D01*
X154575424Y-109358309D01*
X154172275Y-108877711D01*
X153682980Y-108464004D01*
X153264545Y-108213541D01*
X153016672Y-108095625D01*
X152812210Y-108016969D01*
X152605943Y-107969646D01*
X152352656Y-107945727D01*
X152007134Y-107937282D01*
X151683675Y-107936333D01*
X151243744Y-107938871D01*
X150927311Y-107951675D01*
X150688561Y-107982529D01*
X150481678Y-108039216D01*
X150260843Y-108129520D01*
X150096424Y-108205995D01*
X149479424Y-108572929D01*
X148945525Y-109038722D01*
X148532915Y-109568678D01*
X148461831Y-109691128D01*
X148261337Y-110219537D01*
X148174498Y-110828766D01*
X148198600Y-111476623D01*
G37*
X148198600Y-111476623D02*
X148330930Y-112120917D01*
X148568773Y-112719455D01*
X148667998Y-112896529D01*
X148755671Y-113028536D01*
X148848976Y-113107012D01*
X148991490Y-113145914D01*
X149226792Y-113159196D01*
X149493026Y-113160742D01*
X149828440Y-113156926D01*
X150030370Y-113139026D01*
X150134580Y-113098258D01*
X150176837Y-113025836D01*
X150183653Y-112991099D01*
X150161581Y-112863348D01*
X150024902Y-112768638D01*
X149887319Y-112718762D01*
X149307554Y-112470473D01*
X148869402Y-112140686D01*
X148577276Y-111734463D01*
X148435587Y-111256864D01*
X148422000Y-111037675D01*
X148475192Y-110537888D01*
X148646150Y-110134040D01*
X148951940Y-109785932D01*
X148954394Y-109783775D01*
X149144373Y-109638896D01*
X149359350Y-109526901D01*
X149621907Y-109444433D01*
X149954631Y-109388135D01*
X150380103Y-109354650D01*
X150920909Y-109340622D01*
X151599632Y-109342692D01*
X151893333Y-109346917D01*
X152480718Y-109357509D01*
X152925369Y-109369184D01*
X153253876Y-109384967D01*
X153492827Y-109407882D01*
X153668811Y-109440955D01*
X153808416Y-109487209D01*
X153938232Y-109549671D01*
X154006723Y-109587333D01*
X154403828Y-109875208D01*
X154650261Y-110220921D01*
X154761688Y-110650617D01*
X154772000Y-110864342D01*
X154736387Y-111342742D01*
X154617951Y-111691870D01*
X154399295Y-111927695D01*
X154063021Y-112066181D01*
X153591732Y-112123296D01*
X153396166Y-112127017D01*
X152740000Y-112127333D01*
X152740000Y-111619333D01*
X152730246Y-111324361D01*
X152695671Y-111165991D01*
X152628302Y-111112335D01*
X152613000Y-111111333D01*
X152562555Y-111134702D01*
X152527151Y-111220738D01*
X152504317Y-111393330D01*
X152491580Y-111676370D01*
X152486470Y-112093750D01*
X152486000Y-112339000D01*
X152486000Y-113566667D01*
X152766966Y-113566667D01*
X153199975Y-113511886D01*
X153658335Y-113366535D01*
X154060876Y-113159098D01*
X154182179Y-113070035D01*
X154393732Y-112851737D01*
X154613204Y-112559143D01*
X154729403Y-112369103D01*
X154851035Y-112126427D01*
X154927980Y-111902516D01*
X154972236Y-111642035D01*
X154995800Y-111289648D01*
X155002095Y-111111333D01*
X155006880Y-110679983D01*
X154985663Y-110360285D01*
X154931610Y-110095648D01*
X154851341Y-109863089D01*
X154575424Y-109358309D01*
X154172275Y-108877711D01*
X153682980Y-108464004D01*
X153264545Y-108213541D01*
X153016672Y-108095625D01*
X152812210Y-108016969D01*
X152605943Y-107969646D01*
X152352656Y-107945727D01*
X152007134Y-107937282D01*
X151683675Y-107936333D01*
X151243744Y-107938871D01*
X150927311Y-107951675D01*
X150688561Y-107982529D01*
X150481678Y-108039216D01*
X150260843Y-108129520D01*
X150096424Y-108205995D01*
X149479424Y-108572929D01*
X148945525Y-109038722D01*
X148532915Y-109568678D01*
X148461831Y-109691128D01*
X148261337Y-110219537D01*
X148174498Y-110828766D01*
X148198600Y-111476623D01*
%TD*%
M02*
