%TF.GenerationSoftware,KiCad,Pcbnew,5.1.9+dfsg1-1~bpo10+1*%
%TF.CreationDate,2021-08-08T22:35:49+02:00*%
%TF.ProjectId,flexm68k,666c6578-6d36-4386-9b2e-6b696361645f,0.2*%
%TF.SameCoordinates,Original*%
%TF.FileFunction,Soldermask,Top*%
%TF.FilePolarity,Negative*%
%FSLAX46Y46*%
G04 Gerber Fmt 4.6, Leading zero omitted, Abs format (unit mm)*
G04 Created by KiCad (PCBNEW 5.1.9+dfsg1-1~bpo10+1) date 2021-08-08 22:35:49*
%MOMM*%
%LPD*%
G01*
G04 APERTURE LIST*
%ADD10O,2.400000X1.600000*%
%ADD11R,2.400000X1.600000*%
%ADD12R,1.600000X0.250000*%
%ADD13R,2.000000X1.800000*%
%ADD14C,0.800000*%
G04 APERTURE END LIST*
D10*
%TO.C,U1*%
X138540000Y-145800000D03*
X161400000Y-67060000D03*
X138540000Y-143260000D03*
X161400000Y-69600000D03*
X138540000Y-140720000D03*
X161400000Y-72140000D03*
X138540000Y-138180000D03*
X161400000Y-74680000D03*
X138540000Y-135640000D03*
X161400000Y-77220000D03*
X138540000Y-133100000D03*
X161400000Y-79760000D03*
X138540000Y-130560000D03*
X161400000Y-82300000D03*
X138540000Y-128020000D03*
X161400000Y-84840000D03*
X138540000Y-125480000D03*
X161400000Y-87380000D03*
X138540000Y-122940000D03*
X161400000Y-89920000D03*
X138540000Y-120400000D03*
X161400000Y-92460000D03*
X138540000Y-117860000D03*
X161400000Y-95000000D03*
X138540000Y-115320000D03*
X161400000Y-97540000D03*
X138540000Y-112780000D03*
X161400000Y-100080000D03*
X138540000Y-110240000D03*
X161400000Y-102620000D03*
X138540000Y-107700000D03*
X161400000Y-105160000D03*
X138540000Y-105160000D03*
X161400000Y-107700000D03*
X138540000Y-102620000D03*
X161400000Y-110240000D03*
X138540000Y-100080000D03*
X161400000Y-112780000D03*
X138540000Y-97540000D03*
X161400000Y-115320000D03*
X138540000Y-95000000D03*
X161400000Y-117860000D03*
X138540000Y-92460000D03*
X161400000Y-120400000D03*
X138540000Y-89920000D03*
X161400000Y-122940000D03*
X138540000Y-87380000D03*
X161400000Y-125480000D03*
X138540000Y-84840000D03*
X161400000Y-128020000D03*
X138540000Y-82300000D03*
X161400000Y-130560000D03*
X138540000Y-79760000D03*
X161400000Y-133100000D03*
X138540000Y-77220000D03*
X161400000Y-135640000D03*
X138540000Y-74680000D03*
X161400000Y-138180000D03*
X138540000Y-72140000D03*
X161400000Y-140720000D03*
X138540000Y-69600000D03*
X161400000Y-143260000D03*
X138540000Y-67060000D03*
D11*
X161400000Y-145800000D03*
%TD*%
%TO.C,D1*%
G36*
G01*
X152805000Y-62930000D02*
X152805000Y-64180000D01*
G75*
G02*
X152555000Y-64430000I-250000J0D01*
G01*
X151630000Y-64430000D01*
G75*
G02*
X151380000Y-64180000I0J250000D01*
G01*
X151380000Y-62930000D01*
G75*
G02*
X151630000Y-62680000I250000J0D01*
G01*
X152555000Y-62680000D01*
G75*
G02*
X152805000Y-62930000I0J-250000D01*
G01*
G37*
G36*
G01*
X155780000Y-62930000D02*
X155780000Y-64180000D01*
G75*
G02*
X155530000Y-64430000I-250000J0D01*
G01*
X154605000Y-64430000D01*
G75*
G02*
X154355000Y-64180000I0J250000D01*
G01*
X154355000Y-62930000D01*
G75*
G02*
X154605000Y-62680000I250000J0D01*
G01*
X155530000Y-62680000D01*
G75*
G02*
X155780000Y-62930000I0J-250000D01*
G01*
G37*
%TD*%
%TO.C,R1*%
G36*
G01*
X148800000Y-64175001D02*
X148800000Y-62924999D01*
G75*
G02*
X149049999Y-62675000I249999J0D01*
G01*
X149850001Y-62675000D01*
G75*
G02*
X150100000Y-62924999I0J-249999D01*
G01*
X150100000Y-64175001D01*
G75*
G02*
X149850001Y-64425000I-249999J0D01*
G01*
X149049999Y-64425000D01*
G75*
G02*
X148800000Y-64175001I0J249999D01*
G01*
G37*
G36*
G01*
X145700000Y-64175001D02*
X145700000Y-62924999D01*
G75*
G02*
X145949999Y-62675000I249999J0D01*
G01*
X146750001Y-62675000D01*
G75*
G02*
X147000000Y-62924999I0J-249999D01*
G01*
X147000000Y-64175001D01*
G75*
G02*
X146750001Y-64425000I-249999J0D01*
G01*
X145949999Y-64425000D01*
G75*
G02*
X145700000Y-64175001I0J249999D01*
G01*
G37*
%TD*%
D12*
%TO.C,J1*%
X148700000Y-122550000D03*
X148700000Y-122050000D03*
X148700000Y-121550000D03*
X148700000Y-121050000D03*
X148700000Y-120550000D03*
X148700000Y-120050000D03*
X148700000Y-119550000D03*
X148700000Y-119050000D03*
X148700000Y-118550000D03*
X148700000Y-118050000D03*
X148700000Y-117550000D03*
X148700000Y-117050000D03*
X148700000Y-116550000D03*
X148700000Y-116050000D03*
X148700000Y-115550000D03*
X148700000Y-115050000D03*
X148700000Y-114550000D03*
X148700000Y-114050000D03*
X148700000Y-113550000D03*
X148700000Y-113050000D03*
X148700000Y-112550000D03*
X148700000Y-112050000D03*
X148700000Y-111550000D03*
X148700000Y-111050000D03*
X148700000Y-110550000D03*
X148700000Y-110050000D03*
X148700000Y-109550000D03*
X148700000Y-109050000D03*
X148700000Y-108550000D03*
X148700000Y-108050000D03*
X148700000Y-107550000D03*
X148700000Y-107050000D03*
X148700000Y-106550000D03*
X148700000Y-106050000D03*
X148700000Y-105550000D03*
X148700000Y-105050000D03*
X148700000Y-104550000D03*
X148700000Y-104050000D03*
X148700000Y-103550000D03*
X148700000Y-103050000D03*
X148700000Y-102550000D03*
X148700000Y-102050000D03*
X148700000Y-101550000D03*
X148700000Y-101050000D03*
X148700000Y-100550000D03*
X148700000Y-100050000D03*
X148700000Y-99550000D03*
X148700000Y-99050000D03*
X148700000Y-98550000D03*
X148700000Y-98050000D03*
X148700000Y-97550000D03*
X148700000Y-97050000D03*
X148700000Y-96550000D03*
X148700000Y-96050000D03*
X148700000Y-95550000D03*
X148700000Y-95050000D03*
X148700000Y-94550000D03*
X148700000Y-94050000D03*
X148700000Y-93550000D03*
X148700000Y-93050000D03*
X148700000Y-92550000D03*
X148700000Y-92050000D03*
X148700000Y-91550000D03*
X148700000Y-91050000D03*
D13*
X152750000Y-124750000D03*
X152750000Y-88750000D03*
%TD*%
D14*
X150366400Y-113058700D03*
M02*
