M48
; DRILL file {KiCad 5.1.9+dfsg1-1~bpo10+1} date Sun Aug  8 22:35:53 2021
; FORMAT={-:-/ absolute / metric / decimal}
; #@! TF.CreationDate,2021-08-08T22:35:53+02:00
; #@! TF.GenerationSoftware,Kicad,Pcbnew,5.1.9+dfsg1-1~bpo10+1
; #@! TF.FileFunction,Plated,1,2,PTH
FMAT,2
METRIC
T1C0.400
T2C0.800
%
G90
G05
T1
X150.366Y-113.059
T2
X138.54Y-67.06
X138.54Y-69.6
X138.54Y-72.14
X138.54Y-74.68
X138.54Y-77.22
X138.54Y-79.76
X138.54Y-82.3
X138.54Y-84.84
X138.54Y-87.38
X138.54Y-89.92
X138.54Y-92.46
X138.54Y-95.0
X138.54Y-97.54
X138.54Y-100.08
X138.54Y-102.62
X138.54Y-105.16
X138.54Y-107.7
X138.54Y-110.24
X138.54Y-112.78
X138.54Y-115.32
X138.54Y-117.86
X138.54Y-120.4
X138.54Y-122.94
X138.54Y-125.48
X138.54Y-128.02
X138.54Y-130.56
X138.54Y-133.1
X138.54Y-135.64
X138.54Y-138.18
X138.54Y-140.72
X138.54Y-143.26
X138.54Y-145.8
X161.4Y-67.06
X161.4Y-69.6
X161.4Y-72.14
X161.4Y-74.68
X161.4Y-77.22
X161.4Y-79.76
X161.4Y-82.3
X161.4Y-84.84
X161.4Y-87.38
X161.4Y-89.92
X161.4Y-92.46
X161.4Y-95.0
X161.4Y-97.54
X161.4Y-100.08
X161.4Y-102.62
X161.4Y-105.16
X161.4Y-107.7
X161.4Y-110.24
X161.4Y-112.78
X161.4Y-115.32
X161.4Y-117.86
X161.4Y-120.4
X161.4Y-122.94
X161.4Y-125.48
X161.4Y-128.02
X161.4Y-130.56
X161.4Y-133.1
X161.4Y-135.64
X161.4Y-138.18
X161.4Y-140.72
X161.4Y-143.26
X161.4Y-145.8
T0
M30
