%TF.GenerationSoftware,KiCad,Pcbnew,5.1.9+dfsg1-1~bpo10+1*%
%TF.CreationDate,2021-06-25T21:43:00+02:00*%
%TF.ProjectId,flexm68k,666c6578-6d36-4386-9b2e-6b696361645f,0.1*%
%TF.SameCoordinates,Original*%
%TF.FileFunction,Soldermask,Top*%
%TF.FilePolarity,Negative*%
%FSLAX46Y46*%
G04 Gerber Fmt 4.6, Leading zero omitted, Abs format (unit mm)*
G04 Created by KiCad (PCBNEW 5.1.9+dfsg1-1~bpo10+1) date 2021-06-25 21:43:00*
%MOMM*%
%LPD*%
G01*
G04 APERTURE LIST*
%ADD10R,1.600000X0.250000*%
%ADD11R,2.000000X1.800000*%
%ADD12R,1.524000X1.524000*%
%ADD13C,1.524000*%
%ADD14C,0.800000*%
G04 APERTURE END LIST*
D10*
%TO.C,J1*%
X146800000Y-120200000D03*
X146800000Y-119700000D03*
X146800000Y-119200000D03*
X146800000Y-118700000D03*
X146800000Y-118200000D03*
X146800000Y-117700000D03*
X146800000Y-117200000D03*
X146800000Y-116700000D03*
X146800000Y-116200000D03*
X146800000Y-115700000D03*
X146800000Y-115200000D03*
X146800000Y-114700000D03*
X146800000Y-114200000D03*
X146800000Y-113700000D03*
X146800000Y-113200000D03*
X146800000Y-112700000D03*
X146800000Y-112200000D03*
X146800000Y-111700000D03*
X146800000Y-111200000D03*
X146800000Y-110700000D03*
X146800000Y-110200000D03*
X146800000Y-109700000D03*
X146800000Y-109200000D03*
X146800000Y-108700000D03*
X146800000Y-108200000D03*
X146800000Y-107700000D03*
X146800000Y-107200000D03*
X146800000Y-106700000D03*
X146800000Y-106200000D03*
X146800000Y-105700000D03*
X146800000Y-105200000D03*
X146800000Y-104700000D03*
X146800000Y-104200000D03*
X146800000Y-103700000D03*
X146800000Y-103200000D03*
X146800000Y-102700000D03*
X146800000Y-102200000D03*
X146800000Y-101700000D03*
X146800000Y-101200000D03*
X146800000Y-100700000D03*
X146800000Y-100200000D03*
X146800000Y-99700000D03*
X146800000Y-99200000D03*
X146800000Y-98700000D03*
X146800000Y-98200000D03*
X146800000Y-97700000D03*
X146800000Y-97200000D03*
X146800000Y-96700000D03*
X146800000Y-96200000D03*
X146800000Y-95700000D03*
X146800000Y-95200000D03*
X146800000Y-94700000D03*
X146800000Y-94200000D03*
X146800000Y-93700000D03*
X146800000Y-93200000D03*
X146800000Y-92700000D03*
X146800000Y-92200000D03*
X146800000Y-91700000D03*
X146800000Y-91200000D03*
X146800000Y-90700000D03*
X146800000Y-90200000D03*
X146800000Y-89700000D03*
X146800000Y-89200000D03*
X146800000Y-88700000D03*
D11*
X150850000Y-122400000D03*
X150850000Y-86400000D03*
%TD*%
%TO.C,D1*%
G36*
G01*
X153780000Y-66230000D02*
X153780000Y-67480000D01*
G75*
G02*
X153530000Y-67730000I-250000J0D01*
G01*
X152605000Y-67730000D01*
G75*
G02*
X152355000Y-67480000I0J250000D01*
G01*
X152355000Y-66230000D01*
G75*
G02*
X152605000Y-65980000I250000J0D01*
G01*
X153530000Y-65980000D01*
G75*
G02*
X153780000Y-66230000I0J-250000D01*
G01*
G37*
G36*
G01*
X150805000Y-66230000D02*
X150805000Y-67480000D01*
G75*
G02*
X150555000Y-67730000I-250000J0D01*
G01*
X149630000Y-67730000D01*
G75*
G02*
X149380000Y-67480000I0J250000D01*
G01*
X149380000Y-66230000D01*
G75*
G02*
X149630000Y-65980000I250000J0D01*
G01*
X150555000Y-65980000D01*
G75*
G02*
X150805000Y-66230000I0J-250000D01*
G01*
G37*
%TD*%
%TO.C,R1*%
G36*
G01*
X143700000Y-67475001D02*
X143700000Y-66224999D01*
G75*
G02*
X143949999Y-65975000I249999J0D01*
G01*
X144750001Y-65975000D01*
G75*
G02*
X145000000Y-66224999I0J-249999D01*
G01*
X145000000Y-67475001D01*
G75*
G02*
X144750001Y-67725000I-249999J0D01*
G01*
X143949999Y-67725000D01*
G75*
G02*
X143700000Y-67475001I0J249999D01*
G01*
G37*
G36*
G01*
X146800000Y-67475001D02*
X146800000Y-66224999D01*
G75*
G02*
X147049999Y-65975000I249999J0D01*
G01*
X147850001Y-65975000D01*
G75*
G02*
X148100000Y-66224999I0J-249999D01*
G01*
X148100000Y-67475001D01*
G75*
G02*
X147850001Y-67725000I-249999J0D01*
G01*
X147049999Y-67725000D01*
G75*
G02*
X146800000Y-67475001I0J249999D01*
G01*
G37*
%TD*%
D12*
%TO.C,U1*%
X158800000Y-144950000D03*
D13*
X158800000Y-142410000D03*
X158800000Y-139870000D03*
X158800000Y-137330000D03*
X158800000Y-134790000D03*
X158800000Y-132250000D03*
X158800000Y-129710000D03*
X158800000Y-127170000D03*
X158800000Y-124630000D03*
X158800000Y-122090000D03*
X158800000Y-119550000D03*
X158800000Y-117010000D03*
X158800000Y-114470000D03*
X158800000Y-111930000D03*
X158800000Y-109390000D03*
X158800000Y-106850000D03*
X158800000Y-104310000D03*
X158800000Y-101770000D03*
X158800000Y-99230000D03*
X158800000Y-96690000D03*
X158800000Y-94150000D03*
X158800000Y-91610000D03*
X158800000Y-89070000D03*
X158800000Y-86530000D03*
X158800000Y-83990000D03*
X158800000Y-81450000D03*
X158800000Y-78910000D03*
X158800000Y-76370000D03*
X158800000Y-73830000D03*
X158800000Y-71290000D03*
X158800000Y-68750000D03*
X158800000Y-66210000D03*
X138480000Y-66210000D03*
X138480000Y-68750000D03*
X138480000Y-71290000D03*
X138480000Y-73830000D03*
X138480000Y-76370000D03*
X138480000Y-78910000D03*
X138480000Y-81450000D03*
X138480000Y-83990000D03*
X138480000Y-86530000D03*
X138480000Y-89070000D03*
X138480000Y-91610000D03*
X138480000Y-94150000D03*
X138480000Y-96690000D03*
X138480000Y-99230000D03*
X138480000Y-101770000D03*
X138480000Y-104310000D03*
X138480000Y-106850000D03*
X138480000Y-109390000D03*
X138480000Y-111930000D03*
X138480000Y-114470000D03*
X138480000Y-117010000D03*
X138480000Y-119550000D03*
X138480000Y-122090000D03*
X138480000Y-124630000D03*
X138480000Y-127170000D03*
X138480000Y-129710000D03*
X138480000Y-132250000D03*
X138480000Y-134790000D03*
X138480000Y-137330000D03*
X138480000Y-139870000D03*
X138480000Y-142410000D03*
X138480000Y-144950000D03*
%TD*%
D14*
X152150000Y-63050000D03*
M02*
