%TF.GenerationSoftware,KiCad,Pcbnew,5.1.9+dfsg1-1~bpo10+1*%
%TF.CreationDate,2021-06-28T16:21:18+02:00*%
%TF.ProjectId,flexPiStorm,666c6578-5069-4537-946f-726d2e6b6963,0.2*%
%TF.SameCoordinates,Original*%
%TF.FileFunction,Legend,Top*%
%TF.FilePolarity,Positive*%
%FSLAX46Y46*%
G04 Gerber Fmt 4.6, Leading zero omitted, Abs format (unit mm)*
G04 Created by KiCad (PCBNEW 5.1.9+dfsg1-1~bpo10+1) date 2021-06-28 16:21:18*
%MOMM*%
%LPD*%
G01*
G04 APERTURE LIST*
%ADD10C,0.175000*%
%ADD11C,0.150000*%
%ADD12C,0.120000*%
%ADD13C,0.010000*%
G04 APERTURE END LIST*
D10*
X135800000Y-60064285D02*
X136333333Y-60064285D01*
X136066666Y-60407142D02*
X136066666Y-59721428D01*
X137000000Y-59507142D02*
X136666666Y-59507142D01*
X136633333Y-59935714D01*
X136666666Y-59892857D01*
X136733333Y-59850000D01*
X136900000Y-59850000D01*
X136966666Y-59892857D01*
X137000000Y-59935714D01*
X137033333Y-60021428D01*
X137033333Y-60235714D01*
X137000000Y-60321428D01*
X136966666Y-60364285D01*
X136900000Y-60407142D01*
X136733333Y-60407142D01*
X136666666Y-60364285D01*
X136633333Y-60321428D01*
X137233333Y-59507142D02*
X137466666Y-60407142D01*
X137700000Y-59507142D01*
X138833333Y-59550000D02*
X138766666Y-59507142D01*
X138666666Y-59507142D01*
X138566666Y-59550000D01*
X138500000Y-59635714D01*
X138466666Y-59721428D01*
X138433333Y-59892857D01*
X138433333Y-60021428D01*
X138466666Y-60192857D01*
X138500000Y-60278571D01*
X138566666Y-60364285D01*
X138666666Y-60407142D01*
X138733333Y-60407142D01*
X138833333Y-60364285D01*
X138866666Y-60321428D01*
X138866666Y-60021428D01*
X138733333Y-60021428D01*
X139166666Y-60407142D02*
X139166666Y-59507142D01*
X139566666Y-60407142D01*
X139566666Y-59507142D01*
X139900000Y-60407142D02*
X139900000Y-59507142D01*
X140066666Y-59507142D01*
X140166666Y-59550000D01*
X140233333Y-59635714D01*
X140266666Y-59721428D01*
X140300000Y-59892857D01*
X140300000Y-60021428D01*
X140266666Y-60192857D01*
X140233333Y-60278571D01*
X140166666Y-60364285D01*
X140066666Y-60407142D01*
X139900000Y-60407142D01*
X141500000Y-59550000D02*
X141433333Y-59507142D01*
X141333333Y-59507142D01*
X141233333Y-59550000D01*
X141166666Y-59635714D01*
X141133333Y-59721428D01*
X141100000Y-59892857D01*
X141100000Y-60021428D01*
X141133333Y-60192857D01*
X141166666Y-60278571D01*
X141233333Y-60364285D01*
X141333333Y-60407142D01*
X141400000Y-60407142D01*
X141500000Y-60364285D01*
X141533333Y-60321428D01*
X141533333Y-60021428D01*
X141400000Y-60021428D01*
X141833333Y-60407142D02*
X141833333Y-59507142D01*
X142233333Y-60407142D01*
X142233333Y-59507142D01*
X142566666Y-60407142D02*
X142566666Y-59507142D01*
X142733333Y-59507142D01*
X142833333Y-59550000D01*
X142900000Y-59635714D01*
X142933333Y-59721428D01*
X142966666Y-59892857D01*
X142966666Y-60021428D01*
X142933333Y-60192857D01*
X142900000Y-60278571D01*
X142833333Y-60364285D01*
X142733333Y-60407142D01*
X142566666Y-60407142D01*
X143800000Y-60064285D02*
X144333333Y-60064285D01*
X144666666Y-60064285D02*
X145200000Y-60064285D01*
D11*
X146627380Y-105380952D02*
X146151190Y-105714285D01*
X146627380Y-105952380D02*
X145627380Y-105952380D01*
X145627380Y-105571428D01*
X145675000Y-105476190D01*
X145722619Y-105428571D01*
X145817857Y-105380952D01*
X145960714Y-105380952D01*
X146055952Y-105428571D01*
X146103571Y-105476190D01*
X146151190Y-105571428D01*
X146151190Y-105952380D01*
X146103571Y-104952380D02*
X146103571Y-104619047D01*
X146627380Y-104476190D02*
X146627380Y-104952380D01*
X145627380Y-104952380D01*
X145627380Y-104476190D01*
X145627380Y-104190476D02*
X145627380Y-103619047D01*
X146627380Y-103904761D02*
X145627380Y-103904761D01*
X146627380Y-102714285D02*
X146151190Y-103047619D01*
X146627380Y-103285714D02*
X145627380Y-103285714D01*
X145627380Y-102904761D01*
X145675000Y-102809523D01*
X145722619Y-102761904D01*
X145817857Y-102714285D01*
X145960714Y-102714285D01*
X146055952Y-102761904D01*
X146103571Y-102809523D01*
X146151190Y-102904761D01*
X146151190Y-103285714D01*
X145627380Y-102095238D02*
X145627380Y-101904761D01*
X145675000Y-101809523D01*
X145770238Y-101714285D01*
X145960714Y-101666666D01*
X146294047Y-101666666D01*
X146484523Y-101714285D01*
X146579761Y-101809523D01*
X146627380Y-101904761D01*
X146627380Y-102095238D01*
X146579761Y-102190476D01*
X146484523Y-102285714D01*
X146294047Y-102333333D01*
X145960714Y-102333333D01*
X145770238Y-102285714D01*
X145675000Y-102190476D01*
X145627380Y-102095238D01*
X146103571Y-100904761D02*
X146151190Y-100761904D01*
X146198809Y-100714285D01*
X146294047Y-100666666D01*
X146436904Y-100666666D01*
X146532142Y-100714285D01*
X146579761Y-100761904D01*
X146627380Y-100857142D01*
X146627380Y-101238095D01*
X145627380Y-101238095D01*
X145627380Y-100904761D01*
X145675000Y-100809523D01*
X145722619Y-100761904D01*
X145817857Y-100714285D01*
X145913095Y-100714285D01*
X146008333Y-100761904D01*
X146055952Y-100809523D01*
X146103571Y-100904761D01*
X146103571Y-101238095D01*
X146627380Y-100238095D02*
X145627380Y-100238095D01*
X145627380Y-99904761D02*
X145627380Y-99333333D01*
X146627380Y-99619047D02*
X145627380Y-99619047D01*
X146627380Y-97761904D02*
X146627380Y-98238095D01*
X145627380Y-98238095D01*
X146341666Y-97476190D02*
X146341666Y-97000000D01*
X146627380Y-97571428D02*
X145627380Y-97238095D01*
X146627380Y-96904761D01*
X146103571Y-96238095D02*
X146151190Y-96095238D01*
X146198809Y-96047619D01*
X146294047Y-96000000D01*
X146436904Y-96000000D01*
X146532142Y-96047619D01*
X146579761Y-96095238D01*
X146627380Y-96190476D01*
X146627380Y-96571428D01*
X145627380Y-96571428D01*
X145627380Y-96238095D01*
X145675000Y-96142857D01*
X145722619Y-96095238D01*
X145817857Y-96047619D01*
X145913095Y-96047619D01*
X146008333Y-96095238D01*
X146055952Y-96142857D01*
X146103571Y-96238095D01*
X146103571Y-96571428D01*
X148277380Y-118452380D02*
X147277380Y-118452380D01*
X147277380Y-118071428D01*
X147325000Y-117976190D01*
X147372619Y-117928571D01*
X147467857Y-117880952D01*
X147610714Y-117880952D01*
X147705952Y-117928571D01*
X147753571Y-117976190D01*
X147801190Y-118071428D01*
X147801190Y-118452380D01*
X148277380Y-117452380D02*
X147610714Y-117452380D01*
X147277380Y-117452380D02*
X147325000Y-117500000D01*
X147372619Y-117452380D01*
X147325000Y-117404761D01*
X147277380Y-117452380D01*
X147372619Y-117452380D01*
X148229761Y-117023809D02*
X148277380Y-116880952D01*
X148277380Y-116642857D01*
X148229761Y-116547619D01*
X148182142Y-116500000D01*
X148086904Y-116452380D01*
X147991666Y-116452380D01*
X147896428Y-116500000D01*
X147848809Y-116547619D01*
X147801190Y-116642857D01*
X147753571Y-116833333D01*
X147705952Y-116928571D01*
X147658333Y-116976190D01*
X147563095Y-117023809D01*
X147467857Y-117023809D01*
X147372619Y-116976190D01*
X147325000Y-116928571D01*
X147277380Y-116833333D01*
X147277380Y-116595238D01*
X147325000Y-116452380D01*
X147610714Y-116166666D02*
X147610714Y-115785714D01*
X147277380Y-116023809D02*
X148134523Y-116023809D01*
X148229761Y-115976190D01*
X148277380Y-115880952D01*
X148277380Y-115785714D01*
X148277380Y-115309523D02*
X148229761Y-115404761D01*
X148182142Y-115452380D01*
X148086904Y-115500000D01*
X147801190Y-115500000D01*
X147705952Y-115452380D01*
X147658333Y-115404761D01*
X147610714Y-115309523D01*
X147610714Y-115166666D01*
X147658333Y-115071428D01*
X147705952Y-115023809D01*
X147801190Y-114976190D01*
X148086904Y-114976190D01*
X148182142Y-115023809D01*
X148229761Y-115071428D01*
X148277380Y-115166666D01*
X148277380Y-115309523D01*
X148277380Y-114547619D02*
X147610714Y-114547619D01*
X147801190Y-114547619D02*
X147705952Y-114500000D01*
X147658333Y-114452380D01*
X147610714Y-114357142D01*
X147610714Y-114261904D01*
X148277380Y-113928571D02*
X147610714Y-113928571D01*
X147705952Y-113928571D02*
X147658333Y-113880952D01*
X147610714Y-113785714D01*
X147610714Y-113642857D01*
X147658333Y-113547619D01*
X147753571Y-113500000D01*
X148277380Y-113500000D01*
X147753571Y-113500000D02*
X147658333Y-113452380D01*
X147610714Y-113357142D01*
X147610714Y-113214285D01*
X147658333Y-113119047D01*
X147753571Y-113071428D01*
X148277380Y-113071428D01*
X147896428Y-112595238D02*
X147896428Y-111833333D01*
X147277380Y-111500000D02*
X147277380Y-110928571D01*
X148277380Y-111214285D02*
X147277380Y-111214285D01*
X147277380Y-110404761D02*
X147277380Y-110214285D01*
X147325000Y-110119047D01*
X147420238Y-110023809D01*
X147610714Y-109976190D01*
X147944047Y-109976190D01*
X148134523Y-110023809D01*
X148229761Y-110119047D01*
X148277380Y-110214285D01*
X148277380Y-110404761D01*
X148229761Y-110500000D01*
X148134523Y-110595238D01*
X147944047Y-110642857D01*
X147610714Y-110642857D01*
X147420238Y-110595238D01*
X147325000Y-110500000D01*
X147277380Y-110404761D01*
X147896428Y-109547619D02*
X147896428Y-108785714D01*
X147277380Y-107880952D02*
X147277380Y-108071428D01*
X147325000Y-108166666D01*
X147372619Y-108214285D01*
X147515476Y-108309523D01*
X147705952Y-108357142D01*
X148086904Y-108357142D01*
X148182142Y-108309523D01*
X148229761Y-108261904D01*
X148277380Y-108166666D01*
X148277380Y-107976190D01*
X148229761Y-107880952D01*
X148182142Y-107833333D01*
X148086904Y-107785714D01*
X147848809Y-107785714D01*
X147753571Y-107833333D01*
X147705952Y-107880952D01*
X147658333Y-107976190D01*
X147658333Y-108166666D01*
X147705952Y-108261904D01*
X147753571Y-108309523D01*
X147848809Y-108357142D01*
X147705952Y-107214285D02*
X147658333Y-107309523D01*
X147610714Y-107357142D01*
X147515476Y-107404761D01*
X147467857Y-107404761D01*
X147372619Y-107357142D01*
X147325000Y-107309523D01*
X147277380Y-107214285D01*
X147277380Y-107023809D01*
X147325000Y-106928571D01*
X147372619Y-106880952D01*
X147467857Y-106833333D01*
X147515476Y-106833333D01*
X147610714Y-106880952D01*
X147658333Y-106928571D01*
X147705952Y-107023809D01*
X147705952Y-107214285D01*
X147753571Y-107309523D01*
X147801190Y-107357142D01*
X147896428Y-107404761D01*
X148086904Y-107404761D01*
X148182142Y-107357142D01*
X148229761Y-107309523D01*
X148277380Y-107214285D01*
X148277380Y-107023809D01*
X148229761Y-106928571D01*
X148182142Y-106880952D01*
X148086904Y-106833333D01*
X147896428Y-106833333D01*
X147801190Y-106880952D01*
X147753571Y-106928571D01*
X147705952Y-107023809D01*
X147277380Y-106214285D02*
X147277380Y-106119047D01*
X147325000Y-106023809D01*
X147372619Y-105976190D01*
X147467857Y-105928571D01*
X147658333Y-105880952D01*
X147896428Y-105880952D01*
X148086904Y-105928571D01*
X148182142Y-105976190D01*
X148229761Y-106023809D01*
X148277380Y-106119047D01*
X148277380Y-106214285D01*
X148229761Y-106309523D01*
X148182142Y-106357142D01*
X148086904Y-106404761D01*
X147896428Y-106452380D01*
X147658333Y-106452380D01*
X147467857Y-106404761D01*
X147372619Y-106357142D01*
X147325000Y-106309523D01*
X147277380Y-106214285D01*
X147277380Y-105261904D02*
X147277380Y-105166666D01*
X147325000Y-105071428D01*
X147372619Y-105023809D01*
X147467857Y-104976190D01*
X147658333Y-104928571D01*
X147896428Y-104928571D01*
X148086904Y-104976190D01*
X148182142Y-105023809D01*
X148229761Y-105071428D01*
X148277380Y-105166666D01*
X148277380Y-105261904D01*
X148229761Y-105357142D01*
X148182142Y-105404761D01*
X148086904Y-105452380D01*
X147896428Y-105500000D01*
X147658333Y-105500000D01*
X147467857Y-105452380D01*
X147372619Y-105404761D01*
X147325000Y-105357142D01*
X147277380Y-105261904D01*
X147277380Y-104309523D02*
X147277380Y-104214285D01*
X147325000Y-104119047D01*
X147372619Y-104071428D01*
X147467857Y-104023809D01*
X147658333Y-103976190D01*
X147896428Y-103976190D01*
X148086904Y-104023809D01*
X148182142Y-104071428D01*
X148229761Y-104119047D01*
X148277380Y-104214285D01*
X148277380Y-104309523D01*
X148229761Y-104404761D01*
X148182142Y-104452380D01*
X148086904Y-104500000D01*
X147896428Y-104547619D01*
X147658333Y-104547619D01*
X147467857Y-104500000D01*
X147372619Y-104452380D01*
X147325000Y-104404761D01*
X147277380Y-104309523D01*
X148182142Y-102214285D02*
X148229761Y-102261904D01*
X148277380Y-102404761D01*
X148277380Y-102500000D01*
X148229761Y-102642857D01*
X148134523Y-102738095D01*
X148039285Y-102785714D01*
X147848809Y-102833333D01*
X147705952Y-102833333D01*
X147515476Y-102785714D01*
X147420238Y-102738095D01*
X147325000Y-102642857D01*
X147277380Y-102500000D01*
X147277380Y-102404761D01*
X147325000Y-102261904D01*
X147372619Y-102214285D01*
X148277380Y-101785714D02*
X147277380Y-101785714D01*
X147277380Y-101404761D01*
X147325000Y-101309523D01*
X147372619Y-101261904D01*
X147467857Y-101214285D01*
X147610714Y-101214285D01*
X147705952Y-101261904D01*
X147753571Y-101309523D01*
X147801190Y-101404761D01*
X147801190Y-101785714D01*
X147277380Y-100785714D02*
X148086904Y-100785714D01*
X148182142Y-100738095D01*
X148229761Y-100690476D01*
X148277380Y-100595238D01*
X148277380Y-100404761D01*
X148229761Y-100309523D01*
X148182142Y-100261904D01*
X148086904Y-100214285D01*
X147277380Y-100214285D01*
X147753571Y-98642857D02*
X147753571Y-98976190D01*
X148277380Y-98976190D02*
X147277380Y-98976190D01*
X147277380Y-98500000D01*
X148277380Y-97642857D02*
X148277380Y-98119047D01*
X147277380Y-98119047D01*
X147753571Y-97309523D02*
X147753571Y-96976190D01*
X148277380Y-96833333D02*
X148277380Y-97309523D01*
X147277380Y-97309523D01*
X147277380Y-96833333D01*
X147277380Y-96500000D02*
X148277380Y-95833333D01*
X147277380Y-95833333D02*
X148277380Y-96500000D01*
X148277380Y-95452380D02*
X147277380Y-95452380D01*
X147753571Y-94642857D02*
X147801190Y-94500000D01*
X147848809Y-94452380D01*
X147944047Y-94404761D01*
X148086904Y-94404761D01*
X148182142Y-94452380D01*
X148229761Y-94500000D01*
X148277380Y-94595238D01*
X148277380Y-94976190D01*
X147277380Y-94976190D01*
X147277380Y-94642857D01*
X147325000Y-94547619D01*
X147372619Y-94500000D01*
X147467857Y-94452380D01*
X147563095Y-94452380D01*
X147658333Y-94500000D01*
X147705952Y-94547619D01*
X147753571Y-94642857D01*
X147753571Y-94976190D01*
X148277380Y-93500000D02*
X148277380Y-93976190D01*
X147277380Y-93976190D01*
X147753571Y-93166666D02*
X147753571Y-92833333D01*
X148277380Y-92690476D02*
X148277380Y-93166666D01*
X147277380Y-93166666D01*
X147277380Y-92690476D01*
X148277380Y-90928571D02*
X147801190Y-91261904D01*
X148277380Y-91500000D02*
X147277380Y-91500000D01*
X147277380Y-91119047D01*
X147325000Y-91023809D01*
X147372619Y-90976190D01*
X147467857Y-90928571D01*
X147610714Y-90928571D01*
X147705952Y-90976190D01*
X147753571Y-91023809D01*
X147801190Y-91119047D01*
X147801190Y-91500000D01*
X147753571Y-90500000D02*
X147753571Y-90166666D01*
X148277380Y-90023809D02*
X148277380Y-90500000D01*
X147277380Y-90500000D01*
X147277380Y-90023809D01*
X148277380Y-89119047D02*
X148277380Y-89595238D01*
X147277380Y-89595238D01*
X147277380Y-88595238D02*
X147277380Y-88404761D01*
X147325000Y-88309523D01*
X147420238Y-88214285D01*
X147610714Y-88166666D01*
X147944047Y-88166666D01*
X148134523Y-88214285D01*
X148229761Y-88309523D01*
X148277380Y-88404761D01*
X148277380Y-88595238D01*
X148229761Y-88690476D01*
X148134523Y-88785714D01*
X147944047Y-88833333D01*
X147610714Y-88833333D01*
X147420238Y-88785714D01*
X147325000Y-88690476D01*
X147277380Y-88595238D01*
X148182142Y-87166666D02*
X148229761Y-87214285D01*
X148277380Y-87357142D01*
X148277380Y-87452380D01*
X148229761Y-87595238D01*
X148134523Y-87690476D01*
X148039285Y-87738095D01*
X147848809Y-87785714D01*
X147705952Y-87785714D01*
X147515476Y-87738095D01*
X147420238Y-87690476D01*
X147325000Y-87595238D01*
X147277380Y-87452380D01*
X147277380Y-87357142D01*
X147325000Y-87214285D01*
X147372619Y-87166666D01*
X147991666Y-86785714D02*
X147991666Y-86309523D01*
X148277380Y-86880952D02*
X147277380Y-86547619D01*
X148277380Y-86214285D01*
X147277380Y-86023809D02*
X147277380Y-85452380D01*
X148277380Y-85738095D02*
X147277380Y-85738095D01*
X147277380Y-84928571D02*
X147277380Y-84738095D01*
X147325000Y-84642857D01*
X147420238Y-84547619D01*
X147610714Y-84500000D01*
X147944047Y-84500000D01*
X148134523Y-84547619D01*
X148229761Y-84642857D01*
X148277380Y-84738095D01*
X148277380Y-84928571D01*
X148229761Y-85023809D01*
X148134523Y-85119047D01*
X147944047Y-85166666D01*
X147610714Y-85166666D01*
X147420238Y-85119047D01*
X147325000Y-85023809D01*
X147277380Y-84928571D01*
X148277380Y-83500000D02*
X147801190Y-83833333D01*
X148277380Y-84071428D02*
X147277380Y-84071428D01*
X147277380Y-83690476D01*
X147325000Y-83595238D01*
X147372619Y-83547619D01*
X147467857Y-83500000D01*
X147610714Y-83500000D01*
X147705952Y-83547619D01*
X147753571Y-83595238D01*
X147801190Y-83690476D01*
X147801190Y-84071428D01*
X126547619Y-54666666D02*
X127214285Y-54666666D01*
X127547619Y-54666666D02*
X127500000Y-54619047D01*
X127452380Y-54666666D01*
X127500000Y-54714285D01*
X127547619Y-54666666D01*
X127452380Y-54666666D01*
X127214285Y-55142857D02*
X126547619Y-55142857D01*
X127119047Y-55142857D02*
X127166666Y-55190476D01*
X127214285Y-55285714D01*
X127214285Y-55428571D01*
X127166666Y-55523809D01*
X127071428Y-55571428D01*
X126547619Y-55571428D01*
X126547619Y-56809523D02*
X127214285Y-56809523D01*
X127119047Y-56809523D02*
X127166666Y-56857142D01*
X127214285Y-56952380D01*
X127214285Y-57095238D01*
X127166666Y-57190476D01*
X127071428Y-57238095D01*
X126547619Y-57238095D01*
X127071428Y-57238095D02*
X127166666Y-57285714D01*
X127214285Y-57380952D01*
X127214285Y-57523809D01*
X127166666Y-57619047D01*
X127071428Y-57666666D01*
X126547619Y-57666666D01*
X126595238Y-58523809D02*
X126547619Y-58428571D01*
X126547619Y-58238095D01*
X126595238Y-58142857D01*
X126690476Y-58095238D01*
X127071428Y-58095238D01*
X127166666Y-58142857D01*
X127214285Y-58238095D01*
X127214285Y-58428571D01*
X127166666Y-58523809D01*
X127071428Y-58571428D01*
X126976190Y-58571428D01*
X126880952Y-58095238D01*
X126547619Y-59000000D02*
X127214285Y-59000000D01*
X127119047Y-59000000D02*
X127166666Y-59047619D01*
X127214285Y-59142857D01*
X127214285Y-59285714D01*
X127166666Y-59380952D01*
X127071428Y-59428571D01*
X126547619Y-59428571D01*
X127071428Y-59428571D02*
X127166666Y-59476190D01*
X127214285Y-59571428D01*
X127214285Y-59714285D01*
X127166666Y-59809523D01*
X127071428Y-59857142D01*
X126547619Y-59857142D01*
X126547619Y-60476190D02*
X126595238Y-60380952D01*
X126642857Y-60333333D01*
X126738095Y-60285714D01*
X127023809Y-60285714D01*
X127119047Y-60333333D01*
X127166666Y-60380952D01*
X127214285Y-60476190D01*
X127214285Y-60619047D01*
X127166666Y-60714285D01*
X127119047Y-60761904D01*
X127023809Y-60809523D01*
X126738095Y-60809523D01*
X126642857Y-60761904D01*
X126595238Y-60714285D01*
X126547619Y-60619047D01*
X126547619Y-60476190D01*
X126547619Y-61238095D02*
X127214285Y-61238095D01*
X127023809Y-61238095D02*
X127119047Y-61285714D01*
X127166666Y-61333333D01*
X127214285Y-61428571D01*
X127214285Y-61523809D01*
X126547619Y-61857142D02*
X127214285Y-61857142D01*
X127547619Y-61857142D02*
X127500000Y-61809523D01*
X127452380Y-61857142D01*
X127500000Y-61904761D01*
X127547619Y-61857142D01*
X127452380Y-61857142D01*
X126547619Y-62761904D02*
X127071428Y-62761904D01*
X127166666Y-62714285D01*
X127214285Y-62619047D01*
X127214285Y-62428571D01*
X127166666Y-62333333D01*
X126595238Y-62761904D02*
X126547619Y-62666666D01*
X126547619Y-62428571D01*
X126595238Y-62333333D01*
X126690476Y-62285714D01*
X126785714Y-62285714D01*
X126880952Y-62333333D01*
X126928571Y-62428571D01*
X126928571Y-62666666D01*
X126976190Y-62761904D01*
X126547619Y-63238095D02*
X127214285Y-63238095D01*
X127119047Y-63238095D02*
X127166666Y-63285714D01*
X127214285Y-63380952D01*
X127214285Y-63523809D01*
X127166666Y-63619047D01*
X127071428Y-63666666D01*
X126547619Y-63666666D01*
X127071428Y-63666666D02*
X127166666Y-63714285D01*
X127214285Y-63809523D01*
X127214285Y-63952380D01*
X127166666Y-64047619D01*
X127071428Y-64095238D01*
X126547619Y-64095238D01*
X126833333Y-65285714D02*
X126833333Y-65761904D01*
X126547619Y-65190476D02*
X127547619Y-65523809D01*
X126547619Y-65857142D01*
X126642857Y-66190476D02*
X126595238Y-66238095D01*
X126547619Y-66190476D01*
X126595238Y-66142857D01*
X126642857Y-66190476D01*
X126547619Y-66190476D01*
X126595238Y-66619047D02*
X126547619Y-66761904D01*
X126547619Y-67000000D01*
X126595238Y-67095238D01*
X126642857Y-67142857D01*
X126738095Y-67190476D01*
X126833333Y-67190476D01*
X126928571Y-67142857D01*
X126976190Y-67095238D01*
X127023809Y-67000000D01*
X127071428Y-66809523D01*
X127119047Y-66714285D01*
X127166666Y-66666666D01*
X127261904Y-66619047D01*
X127357142Y-66619047D01*
X127452380Y-66666666D01*
X127500000Y-66714285D01*
X127547619Y-66809523D01*
X127547619Y-67047619D01*
X127500000Y-67190476D01*
X126642857Y-67619047D02*
X126595238Y-67666666D01*
X126547619Y-67619047D01*
X126595238Y-67571428D01*
X126642857Y-67619047D01*
X126547619Y-67619047D01*
X126928571Y-68857142D02*
X126928571Y-69619047D01*
X127500000Y-71380952D02*
X127547619Y-71285714D01*
X127547619Y-71142857D01*
X127500000Y-71000000D01*
X127404761Y-70904761D01*
X127309523Y-70857142D01*
X127119047Y-70809523D01*
X126976190Y-70809523D01*
X126785714Y-70857142D01*
X126690476Y-70904761D01*
X126595238Y-71000000D01*
X126547619Y-71142857D01*
X126547619Y-71238095D01*
X126595238Y-71380952D01*
X126642857Y-71428571D01*
X126976190Y-71428571D01*
X126976190Y-71238095D01*
X126642857Y-71857142D02*
X126595238Y-71904761D01*
X126547619Y-71857142D01*
X126595238Y-71809523D01*
X126642857Y-71857142D01*
X126547619Y-71857142D01*
X126547619Y-72333333D02*
X127547619Y-72333333D01*
X127547619Y-72571428D01*
X127500000Y-72714285D01*
X127404761Y-72809523D01*
X127309523Y-72857142D01*
X127119047Y-72904761D01*
X126976190Y-72904761D01*
X126785714Y-72857142D01*
X126690476Y-72809523D01*
X126595238Y-72714285D01*
X126547619Y-72571428D01*
X126547619Y-72333333D01*
X126642857Y-73333333D02*
X126595238Y-73380952D01*
X126547619Y-73333333D01*
X126595238Y-73285714D01*
X126642857Y-73333333D01*
X126547619Y-73333333D01*
D12*
X140200000Y-145650000D02*
G75*
G02*
X141500000Y-145650000I650000J0D01*
G01*
%TO.C,J1*%
X135670000Y-56560000D02*
X145950000Y-56560000D01*
X145950000Y-56560000D02*
X145950000Y-53900000D01*
X145950000Y-53900000D02*
X135670000Y-53900000D01*
X135670000Y-53900000D02*
X135670000Y-56560000D01*
X136620000Y-53900000D02*
X136620000Y-47900000D01*
X136620000Y-47900000D02*
X137380000Y-47900000D01*
X137380000Y-47900000D02*
X137380000Y-53900000D01*
X136680000Y-53900000D02*
X136680000Y-47900000D01*
X136800000Y-53900000D02*
X136800000Y-47900000D01*
X136920000Y-53900000D02*
X136920000Y-47900000D01*
X137040000Y-53900000D02*
X137040000Y-47900000D01*
X137160000Y-53900000D02*
X137160000Y-47900000D01*
X137280000Y-53900000D02*
X137280000Y-47900000D01*
X136620000Y-56890000D02*
X136620000Y-56560000D01*
X137380000Y-56890000D02*
X137380000Y-56560000D01*
X138270000Y-56560000D02*
X138270000Y-53900000D01*
X139160000Y-53900000D02*
X139160000Y-47900000D01*
X139160000Y-47900000D02*
X139920000Y-47900000D01*
X139920000Y-47900000D02*
X139920000Y-53900000D01*
X139160000Y-56957071D02*
X139160000Y-56560000D01*
X139920000Y-56957071D02*
X139920000Y-56560000D01*
X140810000Y-56560000D02*
X140810000Y-53900000D01*
X141700000Y-53900000D02*
X141700000Y-47900000D01*
X141700000Y-47900000D02*
X142460000Y-47900000D01*
X142460000Y-47900000D02*
X142460000Y-53900000D01*
X141700000Y-56957071D02*
X141700000Y-56560000D01*
X142460000Y-56957071D02*
X142460000Y-56560000D01*
X143350000Y-56560000D02*
X143350000Y-53900000D01*
X144240000Y-53900000D02*
X144240000Y-47900000D01*
X144240000Y-47900000D02*
X145000000Y-47900000D01*
X145000000Y-47900000D02*
X145000000Y-53900000D01*
X144240000Y-56957071D02*
X144240000Y-56560000D01*
X145000000Y-56957071D02*
X145000000Y-56560000D01*
X137000000Y-59270000D02*
X135730000Y-59270000D01*
X135730000Y-59270000D02*
X135730000Y-58000000D01*
%TO.C,U1*%
X149857000Y-145667000D02*
X149857000Y-61593000D01*
X131823000Y-145667000D02*
X149857000Y-145667000D01*
X131823000Y-61593000D02*
X131823000Y-145667000D01*
X149857000Y-61593000D02*
X131823000Y-61593000D01*
D13*
%TO.C,L3*%
G36*
X139697729Y-93991614D02*
G01*
X139759713Y-93528355D01*
X139840982Y-93316737D01*
X140137608Y-93163428D01*
X140624974Y-93083592D01*
X141163215Y-93088393D01*
X141584256Y-93177600D01*
X141808737Y-93411747D01*
X141850331Y-93598129D01*
X141891449Y-93851663D01*
X142030484Y-93861036D01*
X142290957Y-93611289D01*
X142696391Y-93087464D01*
X142733444Y-93036510D01*
X143364238Y-92166374D01*
X143364238Y-92845870D01*
X143305575Y-93335710D01*
X143098687Y-93835520D01*
X142697230Y-94456825D01*
X142691391Y-94464987D01*
X142245846Y-95177044D01*
X142035631Y-95728637D01*
X142063752Y-96098239D01*
X142333217Y-96264324D01*
X142439073Y-96271523D01*
X142768837Y-96350372D01*
X142859603Y-96607947D01*
X142804364Y-96884359D01*
X142609792Y-96896359D01*
X142280764Y-96686703D01*
X141949619Y-96538944D01*
X141508406Y-96458092D01*
X141072917Y-96448859D01*
X140758946Y-96515952D01*
X140672848Y-96621313D01*
X140817950Y-96726517D01*
X141194792Y-96688252D01*
X141607086Y-96686347D01*
X142090400Y-96800534D01*
X142530426Y-96987500D01*
X142812855Y-97203933D01*
X142859603Y-97319047D01*
X142780997Y-97424226D01*
X142512462Y-97430387D01*
X142004922Y-97333864D01*
X141550379Y-97221281D01*
X141055396Y-97102491D01*
X140828388Y-97081736D01*
X140815506Y-97159017D01*
X140861469Y-97221281D01*
X140941408Y-97395355D01*
X140736758Y-97448345D01*
X140682109Y-97449007D01*
X140504636Y-97405491D01*
X140504636Y-96271523D01*
X141187411Y-96271523D01*
X141613748Y-96236056D01*
X141776246Y-96140193D01*
X141766225Y-96103311D01*
X141522843Y-95948535D01*
X141419874Y-95935100D01*
X141263885Y-95832047D01*
X141189580Y-95486573D01*
X141177483Y-95112037D01*
X141126994Y-94505466D01*
X140974765Y-94215497D01*
X140941611Y-94198461D01*
X140717338Y-94161499D01*
X140584188Y-94299305D01*
X140520508Y-94665973D01*
X140504636Y-95290287D01*
X140504636Y-96271523D01*
X140504636Y-97405491D01*
X140414440Y-97383375D01*
X140409908Y-97146049D01*
X140409983Y-97145812D01*
X140393358Y-96778660D01*
X140269006Y-96518216D01*
X140105968Y-96316441D01*
X140074758Y-96388848D01*
X140119614Y-96653199D01*
X140128377Y-97011501D01*
X139977557Y-97112545D01*
X139867952Y-96958109D01*
X139779636Y-96549023D01*
X139715531Y-95966558D01*
X139678562Y-95291987D01*
X139671653Y-94606582D01*
X139697729Y-93991614D01*
G37*
X139697729Y-93991614D02*
X139759713Y-93528355D01*
X139840982Y-93316737D01*
X140137608Y-93163428D01*
X140624974Y-93083592D01*
X141163215Y-93088393D01*
X141584256Y-93177600D01*
X141808737Y-93411747D01*
X141850331Y-93598129D01*
X141891449Y-93851663D01*
X142030484Y-93861036D01*
X142290957Y-93611289D01*
X142696391Y-93087464D01*
X142733444Y-93036510D01*
X143364238Y-92166374D01*
X143364238Y-92845870D01*
X143305575Y-93335710D01*
X143098687Y-93835520D01*
X142697230Y-94456825D01*
X142691391Y-94464987D01*
X142245846Y-95177044D01*
X142035631Y-95728637D01*
X142063752Y-96098239D01*
X142333217Y-96264324D01*
X142439073Y-96271523D01*
X142768837Y-96350372D01*
X142859603Y-96607947D01*
X142804364Y-96884359D01*
X142609792Y-96896359D01*
X142280764Y-96686703D01*
X141949619Y-96538944D01*
X141508406Y-96458092D01*
X141072917Y-96448859D01*
X140758946Y-96515952D01*
X140672848Y-96621313D01*
X140817950Y-96726517D01*
X141194792Y-96688252D01*
X141607086Y-96686347D01*
X142090400Y-96800534D01*
X142530426Y-96987500D01*
X142812855Y-97203933D01*
X142859603Y-97319047D01*
X142780997Y-97424226D01*
X142512462Y-97430387D01*
X142004922Y-97333864D01*
X141550379Y-97221281D01*
X141055396Y-97102491D01*
X140828388Y-97081736D01*
X140815506Y-97159017D01*
X140861469Y-97221281D01*
X140941408Y-97395355D01*
X140736758Y-97448345D01*
X140682109Y-97449007D01*
X140504636Y-97405491D01*
X140504636Y-96271523D01*
X141187411Y-96271523D01*
X141613748Y-96236056D01*
X141776246Y-96140193D01*
X141766225Y-96103311D01*
X141522843Y-95948535D01*
X141419874Y-95935100D01*
X141263885Y-95832047D01*
X141189580Y-95486573D01*
X141177483Y-95112037D01*
X141126994Y-94505466D01*
X140974765Y-94215497D01*
X140941611Y-94198461D01*
X140717338Y-94161499D01*
X140584188Y-94299305D01*
X140520508Y-94665973D01*
X140504636Y-95290287D01*
X140504636Y-96271523D01*
X140504636Y-97405491D01*
X140414440Y-97383375D01*
X140409908Y-97146049D01*
X140409983Y-97145812D01*
X140393358Y-96778660D01*
X140269006Y-96518216D01*
X140105968Y-96316441D01*
X140074758Y-96388848D01*
X140119614Y-96653199D01*
X140128377Y-97011501D01*
X139977557Y-97112545D01*
X139867952Y-96958109D01*
X139779636Y-96549023D01*
X139715531Y-95966558D01*
X139678562Y-95291987D01*
X139671653Y-94606582D01*
X139697729Y-93991614D01*
G36*
X139682434Y-116288154D02*
G01*
X139738879Y-115574226D01*
X139832716Y-115191975D01*
X139865430Y-115144901D01*
X140172525Y-115012973D01*
X140662373Y-114953336D01*
X141188378Y-114969645D01*
X141603944Y-115065558D01*
X141669489Y-115099893D01*
X141812521Y-115335240D01*
X141915500Y-115850751D01*
X141983803Y-116673623D01*
X141984954Y-116695330D01*
X142026588Y-117392207D01*
X142076339Y-117818973D01*
X142155944Y-118041665D01*
X142287139Y-118126320D01*
X142460167Y-118139073D01*
X142731096Y-118187096D01*
X142841841Y-118396198D01*
X142859603Y-118727815D01*
X142859603Y-119316556D01*
X140504636Y-119316556D01*
X140504636Y-118139073D01*
X141219536Y-118127688D01*
X141640590Y-118111104D01*
X141764222Y-118065596D01*
X141629351Y-117969691D01*
X141564279Y-117937483D01*
X141314385Y-117732861D01*
X141185014Y-117364912D01*
X141143749Y-116983162D01*
X141073043Y-116464309D01*
X140928869Y-116208117D01*
X140799007Y-116151762D01*
X140635061Y-116164156D01*
X140545673Y-116326947D01*
X140509583Y-116709873D01*
X140504636Y-117117468D01*
X140504636Y-118139073D01*
X140504636Y-119316556D01*
X139663576Y-119316556D01*
X139663576Y-117331656D01*
X139682434Y-116288154D01*
G37*
X139682434Y-116288154D02*
X139738879Y-115574226D01*
X139832716Y-115191975D01*
X139865430Y-115144901D01*
X140172525Y-115012973D01*
X140662373Y-114953336D01*
X141188378Y-114969645D01*
X141603944Y-115065558D01*
X141669489Y-115099893D01*
X141812521Y-115335240D01*
X141915500Y-115850751D01*
X141983803Y-116673623D01*
X141984954Y-116695330D01*
X142026588Y-117392207D01*
X142076339Y-117818973D01*
X142155944Y-118041665D01*
X142287139Y-118126320D01*
X142460167Y-118139073D01*
X142731096Y-118187096D01*
X142841841Y-118396198D01*
X142859603Y-118727815D01*
X142859603Y-119316556D01*
X140504636Y-119316556D01*
X140504636Y-118139073D01*
X141219536Y-118127688D01*
X141640590Y-118111104D01*
X141764222Y-118065596D01*
X141629351Y-117969691D01*
X141564279Y-117937483D01*
X141314385Y-117732861D01*
X141185014Y-117364912D01*
X141143749Y-116983162D01*
X141073043Y-116464309D01*
X140928869Y-116208117D01*
X140799007Y-116151762D01*
X140635061Y-116164156D01*
X140545673Y-116326947D01*
X140509583Y-116709873D01*
X140504636Y-117117468D01*
X140504636Y-118139073D01*
X140504636Y-119316556D01*
X139663576Y-119316556D01*
X139663576Y-117331656D01*
X139682434Y-116288154D01*
G36*
X140084106Y-111272991D02*
G01*
X140420559Y-111549721D01*
X140504636Y-111942233D01*
X140529072Y-112236136D01*
X140663099Y-112375355D01*
X140997796Y-112417360D01*
X141261589Y-112419868D01*
X142018543Y-112419868D01*
X142018543Y-111750626D01*
X142031326Y-111328225D01*
X142109972Y-111173549D01*
X142314927Y-111217945D01*
X142439073Y-111272991D01*
X142635774Y-111380060D01*
X142759080Y-111531161D01*
X142826086Y-111797954D01*
X142853890Y-112252099D01*
X142859590Y-112965258D01*
X142859603Y-113035610D01*
X142844276Y-113715895D01*
X142803124Y-114247772D01*
X142743389Y-114557577D01*
X142705148Y-114606623D01*
X142254798Y-114479334D01*
X142036476Y-114111004D01*
X142018543Y-113915778D01*
X141994983Y-113616412D01*
X141863528Y-113474612D01*
X141533015Y-113431768D01*
X141261589Y-113429139D01*
X140796484Y-113441708D01*
X140576242Y-113526887D01*
X140509305Y-113755888D01*
X140504636Y-114017881D01*
X140464863Y-114444014D01*
X140303629Y-114592077D01*
X139958059Y-114515284D01*
X139929652Y-114504520D01*
X139803856Y-114398020D01*
X139723774Y-114154756D01*
X139680306Y-113714461D01*
X139664356Y-113016867D01*
X139663576Y-112741901D01*
X139663576Y-111081385D01*
X140084106Y-111272991D01*
G37*
X140084106Y-111272991D02*
X140420559Y-111549721D01*
X140504636Y-111942233D01*
X140529072Y-112236136D01*
X140663099Y-112375355D01*
X140997796Y-112417360D01*
X141261589Y-112419868D01*
X142018543Y-112419868D01*
X142018543Y-111750626D01*
X142031326Y-111328225D01*
X142109972Y-111173549D01*
X142314927Y-111217945D01*
X142439073Y-111272991D01*
X142635774Y-111380060D01*
X142759080Y-111531161D01*
X142826086Y-111797954D01*
X142853890Y-112252099D01*
X142859590Y-112965258D01*
X142859603Y-113035610D01*
X142844276Y-113715895D01*
X142803124Y-114247772D01*
X142743389Y-114557577D01*
X142705148Y-114606623D01*
X142254798Y-114479334D01*
X142036476Y-114111004D01*
X142018543Y-113915778D01*
X141994983Y-113616412D01*
X141863528Y-113474612D01*
X141533015Y-113431768D01*
X141261589Y-113429139D01*
X140796484Y-113441708D01*
X140576242Y-113526887D01*
X140509305Y-113755888D01*
X140504636Y-114017881D01*
X140464863Y-114444014D01*
X140303629Y-114592077D01*
X139958059Y-114515284D01*
X139929652Y-114504520D01*
X139803856Y-114398020D01*
X139723774Y-114154756D01*
X139680306Y-113714461D01*
X139664356Y-113016867D01*
X139663576Y-112741901D01*
X139663576Y-111081385D01*
X140084106Y-111272991D01*
G36*
X140084106Y-106700662D02*
G01*
X140283177Y-106712717D01*
X140406781Y-106792040D01*
X140472899Y-107003371D01*
X140499517Y-107411449D01*
X140504615Y-108081013D01*
X140504636Y-108214570D01*
X140522280Y-108939971D01*
X140571120Y-109457425D01*
X140645022Y-109711708D01*
X140672848Y-109728477D01*
X140758931Y-109572761D01*
X140818483Y-109154828D01*
X140841056Y-108548501D01*
X140841060Y-108539935D01*
X140870804Y-107710498D01*
X140976185Y-107163493D01*
X141181424Y-106848881D01*
X141510742Y-106716621D01*
X141730091Y-106703238D01*
X142148333Y-106724671D01*
X142438462Y-106819524D01*
X142626221Y-107040643D01*
X142737359Y-107440877D01*
X142797619Y-108073071D01*
X142832025Y-108965089D01*
X142888553Y-110905960D01*
X142018543Y-110905960D01*
X142018543Y-109401981D01*
X142000878Y-108722144D01*
X141953629Y-108176974D01*
X141885412Y-107848843D01*
X141850331Y-107794040D01*
X141751424Y-107885340D01*
X141686992Y-108275939D01*
X141665352Y-108751331D01*
X141625958Y-109608024D01*
X141526455Y-110190150D01*
X141346809Y-110557174D01*
X141066985Y-110768557D01*
X140973027Y-110806180D01*
X140518713Y-110863385D01*
X140097142Y-110677652D01*
X139907285Y-110538828D01*
X139782917Y-110374779D01*
X139710201Y-110117507D01*
X139675301Y-109699017D01*
X139664378Y-109051314D01*
X139663576Y-108547116D01*
X139663576Y-106700662D01*
X140084106Y-106700662D01*
G37*
X140084106Y-106700662D02*
X140283177Y-106712717D01*
X140406781Y-106792040D01*
X140472899Y-107003371D01*
X140499517Y-107411449D01*
X140504615Y-108081013D01*
X140504636Y-108214570D01*
X140522280Y-108939971D01*
X140571120Y-109457425D01*
X140645022Y-109711708D01*
X140672848Y-109728477D01*
X140758931Y-109572761D01*
X140818483Y-109154828D01*
X140841056Y-108548501D01*
X140841060Y-108539935D01*
X140870804Y-107710498D01*
X140976185Y-107163493D01*
X141181424Y-106848881D01*
X141510742Y-106716621D01*
X141730091Y-106703238D01*
X142148333Y-106724671D01*
X142438462Y-106819524D01*
X142626221Y-107040643D01*
X142737359Y-107440877D01*
X142797619Y-108073071D01*
X142832025Y-108965089D01*
X142888553Y-110905960D01*
X142018543Y-110905960D01*
X142018543Y-109401981D01*
X142000878Y-108722144D01*
X141953629Y-108176974D01*
X141885412Y-107848843D01*
X141850331Y-107794040D01*
X141751424Y-107885340D01*
X141686992Y-108275939D01*
X141665352Y-108751331D01*
X141625958Y-109608024D01*
X141526455Y-110190150D01*
X141346809Y-110557174D01*
X141066985Y-110768557D01*
X140973027Y-110806180D01*
X140518713Y-110863385D01*
X140097142Y-110677652D01*
X139907285Y-110538828D01*
X139782917Y-110374779D01*
X139710201Y-110117507D01*
X139675301Y-109699017D01*
X139664378Y-109051314D01*
X139663576Y-108547116D01*
X139663576Y-106700662D01*
X140084106Y-106700662D01*
G36*
X139666326Y-103797786D02*
G01*
X139683044Y-103287814D01*
X139726431Y-102998536D01*
X139809189Y-102872085D01*
X139944021Y-102850599D01*
X140042053Y-102862142D01*
X140355636Y-103023539D01*
X140473756Y-103378477D01*
X140516804Y-103621024D01*
X140627347Y-103759316D01*
X140882569Y-103822630D01*
X141359655Y-103840242D01*
X141693292Y-103841060D01*
X142859603Y-103841060D01*
X142859603Y-105018543D01*
X140504636Y-105018543D01*
X140504636Y-105517261D01*
X140373752Y-105971528D01*
X140049078Y-106287430D01*
X139758741Y-106364239D01*
X139719792Y-106207582D01*
X139688552Y-105783789D01*
X139668729Y-105162122D01*
X139663576Y-104586314D01*
X139666326Y-103797786D01*
G37*
X139666326Y-103797786D02*
X139683044Y-103287814D01*
X139726431Y-102998536D01*
X139809189Y-102872085D01*
X139944021Y-102850599D01*
X140042053Y-102862142D01*
X140355636Y-103023539D01*
X140473756Y-103378477D01*
X140516804Y-103621024D01*
X140627347Y-103759316D01*
X140882569Y-103822630D01*
X141359655Y-103840242D01*
X141693292Y-103841060D01*
X142859603Y-103841060D01*
X142859603Y-105018543D01*
X140504636Y-105018543D01*
X140504636Y-105517261D01*
X140373752Y-105971528D01*
X140049078Y-106287430D01*
X139758741Y-106364239D01*
X139719792Y-106207582D01*
X139688552Y-105783789D01*
X139668729Y-105162122D01*
X139663576Y-104586314D01*
X139666326Y-103797786D01*
G36*
X137043414Y-97700709D02*
G01*
X137380204Y-97891722D01*
X137514296Y-97988069D01*
X138180283Y-98450932D01*
X138662048Y-98694665D01*
X138937628Y-98708864D01*
X138970068Y-98677806D01*
X139165600Y-98491649D01*
X139524511Y-98213599D01*
X139648287Y-98125291D01*
X140044406Y-97894703D01*
X140468369Y-97778391D01*
X141049900Y-97747305D01*
X141318349Y-97751272D01*
X141911504Y-97791256D01*
X142375882Y-97869041D01*
X142595228Y-97958062D01*
X142670979Y-98191096D01*
X142735722Y-98670574D01*
X142785680Y-99306592D01*
X142817078Y-100009248D01*
X142826140Y-100688639D01*
X142809090Y-101254862D01*
X142762152Y-101618015D01*
X142750461Y-101654305D01*
X142419532Y-102081249D01*
X141834824Y-102296967D01*
X141408602Y-102327153D01*
X140555668Y-102241728D01*
X139975514Y-101979846D01*
X139650036Y-101534586D01*
X139477414Y-101171510D01*
X139329965Y-100983196D01*
X139190252Y-100770368D01*
X139060269Y-100391030D01*
X138992800Y-100060434D01*
X139050864Y-100000499D01*
X139215144Y-100118941D01*
X139443638Y-100397564D01*
X139495364Y-100563527D01*
X139633306Y-100790959D01*
X139935781Y-100971517D01*
X140210265Y-101008162D01*
X140336080Y-101097778D01*
X140336473Y-101107616D01*
X140484336Y-101191569D01*
X140847082Y-101232884D01*
X140915903Y-101233775D01*
X141320045Y-101182067D01*
X141646543Y-100978019D01*
X142004551Y-100560927D01*
X142397175Y-99912522D01*
X142506544Y-99389319D01*
X142328708Y-99011996D01*
X142304568Y-98990889D01*
X141900101Y-98806904D01*
X141277665Y-98691185D01*
X140551178Y-98656945D01*
X139881585Y-98709871D01*
X139423894Y-98789901D01*
X139261720Y-98857122D01*
X139356352Y-98937127D01*
X139468846Y-98982775D01*
X139844260Y-99053759D01*
X140057487Y-99011491D01*
X140431929Y-98923236D01*
X140935073Y-98974774D01*
X141461327Y-99130879D01*
X141905098Y-99356327D01*
X142160792Y-99615891D01*
X142186755Y-99721801D01*
X142043390Y-99999111D01*
X141686365Y-100304266D01*
X141225281Y-100571937D01*
X140769741Y-100736793D01*
X140467094Y-100746833D01*
X140156348Y-100583343D01*
X139701927Y-100253083D01*
X139199375Y-99825831D01*
X139173750Y-99802300D01*
X138718457Y-99395098D01*
X138358873Y-99096787D01*
X138164744Y-98964848D01*
X138155297Y-98962914D01*
X137957498Y-98858549D01*
X137646235Y-98600343D01*
X137304364Y-98270631D01*
X137014745Y-97951748D01*
X136860236Y-97726029D01*
X136858761Y-97674573D01*
X137043414Y-97700709D01*
G37*
X137043414Y-97700709D02*
X137380204Y-97891722D01*
X137514296Y-97988069D01*
X138180283Y-98450932D01*
X138662048Y-98694665D01*
X138937628Y-98708864D01*
X138970068Y-98677806D01*
X139165600Y-98491649D01*
X139524511Y-98213599D01*
X139648287Y-98125291D01*
X140044406Y-97894703D01*
X140468369Y-97778391D01*
X141049900Y-97747305D01*
X141318349Y-97751272D01*
X141911504Y-97791256D01*
X142375882Y-97869041D01*
X142595228Y-97958062D01*
X142670979Y-98191096D01*
X142735722Y-98670574D01*
X142785680Y-99306592D01*
X142817078Y-100009248D01*
X142826140Y-100688639D01*
X142809090Y-101254862D01*
X142762152Y-101618015D01*
X142750461Y-101654305D01*
X142419532Y-102081249D01*
X141834824Y-102296967D01*
X141408602Y-102327153D01*
X140555668Y-102241728D01*
X139975514Y-101979846D01*
X139650036Y-101534586D01*
X139477414Y-101171510D01*
X139329965Y-100983196D01*
X139190252Y-100770368D01*
X139060269Y-100391030D01*
X138992800Y-100060434D01*
X139050864Y-100000499D01*
X139215144Y-100118941D01*
X139443638Y-100397564D01*
X139495364Y-100563527D01*
X139633306Y-100790959D01*
X139935781Y-100971517D01*
X140210265Y-101008162D01*
X140336080Y-101097778D01*
X140336473Y-101107616D01*
X140484336Y-101191569D01*
X140847082Y-101232884D01*
X140915903Y-101233775D01*
X141320045Y-101182067D01*
X141646543Y-100978019D01*
X142004551Y-100560927D01*
X142397175Y-99912522D01*
X142506544Y-99389319D01*
X142328708Y-99011996D01*
X142304568Y-98990889D01*
X141900101Y-98806904D01*
X141277665Y-98691185D01*
X140551178Y-98656945D01*
X139881585Y-98709871D01*
X139423894Y-98789901D01*
X139261720Y-98857122D01*
X139356352Y-98937127D01*
X139468846Y-98982775D01*
X139844260Y-99053759D01*
X140057487Y-99011491D01*
X140431929Y-98923236D01*
X140935073Y-98974774D01*
X141461327Y-99130879D01*
X141905098Y-99356327D01*
X142160792Y-99615891D01*
X142186755Y-99721801D01*
X142043390Y-99999111D01*
X141686365Y-100304266D01*
X141225281Y-100571937D01*
X140769741Y-100736793D01*
X140467094Y-100746833D01*
X140156348Y-100583343D01*
X139701927Y-100253083D01*
X139199375Y-99825831D01*
X139173750Y-99802300D01*
X138718457Y-99395098D01*
X138358873Y-99096787D01*
X138164744Y-98964848D01*
X138155297Y-98962914D01*
X137957498Y-98858549D01*
X137646235Y-98600343D01*
X137304364Y-98270631D01*
X137014745Y-97951748D01*
X136860236Y-97726029D01*
X136858761Y-97674573D01*
X137043414Y-97700709D01*
G36*
X139704356Y-90807615D02*
G01*
X139858652Y-90302408D01*
X140174393Y-90016906D01*
X140699513Y-89895977D01*
X141148676Y-89879470D01*
X141687633Y-89854103D01*
X141956068Y-89765832D01*
X142018543Y-89627153D01*
X141933496Y-89473074D01*
X141636192Y-89394926D01*
X141119448Y-89374835D01*
X140458688Y-89327546D01*
X140028889Y-89149240D01*
X139784250Y-88785261D01*
X139678971Y-88180950D01*
X139663576Y-87637417D01*
X139663576Y-86515232D01*
X142859603Y-86515232D01*
X142859603Y-87692715D01*
X141682119Y-87692715D01*
X141042373Y-87707554D01*
X140676226Y-87760909D01*
X140521803Y-87866040D01*
X140504636Y-87945033D01*
X140594675Y-88103707D01*
X140906412Y-88181205D01*
X141345695Y-88197351D01*
X142083504Y-88282732D01*
X142558861Y-88559872D01*
X142805115Y-89060266D01*
X142859603Y-89627153D01*
X142769199Y-90323971D01*
X142475757Y-90772920D01*
X141945928Y-91005494D01*
X141345695Y-91056954D01*
X140816784Y-91083966D01*
X140558456Y-91177487D01*
X140504636Y-91309272D01*
X140573883Y-91446360D01*
X140822874Y-91524820D01*
X141313485Y-91557911D01*
X141682119Y-91561590D01*
X142859603Y-91561590D01*
X142859603Y-92739073D01*
X139663576Y-92739073D01*
X139663576Y-91587660D01*
X139704356Y-90807615D01*
G37*
X139704356Y-90807615D02*
X139858652Y-90302408D01*
X140174393Y-90016906D01*
X140699513Y-89895977D01*
X141148676Y-89879470D01*
X141687633Y-89854103D01*
X141956068Y-89765832D01*
X142018543Y-89627153D01*
X141933496Y-89473074D01*
X141636192Y-89394926D01*
X141119448Y-89374835D01*
X140458688Y-89327546D01*
X140028889Y-89149240D01*
X139784250Y-88785261D01*
X139678971Y-88180950D01*
X139663576Y-87637417D01*
X139663576Y-86515232D01*
X142859603Y-86515232D01*
X142859603Y-87692715D01*
X141682119Y-87692715D01*
X141042373Y-87707554D01*
X140676226Y-87760909D01*
X140521803Y-87866040D01*
X140504636Y-87945033D01*
X140594675Y-88103707D01*
X140906412Y-88181205D01*
X141345695Y-88197351D01*
X142083504Y-88282732D01*
X142558861Y-88559872D01*
X142805115Y-89060266D01*
X142859603Y-89627153D01*
X142769199Y-90323971D01*
X142475757Y-90772920D01*
X141945928Y-91005494D01*
X141345695Y-91056954D01*
X140816784Y-91083966D01*
X140558456Y-91177487D01*
X140504636Y-91309272D01*
X140573883Y-91446360D01*
X140822874Y-91524820D01*
X141313485Y-91557911D01*
X141682119Y-91561590D01*
X142859603Y-91561590D01*
X142859603Y-92739073D01*
X139663576Y-92739073D01*
X139663576Y-91587660D01*
X139704356Y-90807615D01*
G36*
X139800248Y-97334099D02*
G01*
X140063143Y-97314046D01*
X140122655Y-97347379D01*
X140072487Y-97423833D01*
X139901876Y-97435727D01*
X139722389Y-97394646D01*
X139800248Y-97334099D01*
G37*
X139800248Y-97334099D02*
X140063143Y-97314046D01*
X140122655Y-97347379D01*
X140072487Y-97423833D01*
X139901876Y-97435727D01*
X139722389Y-97394646D01*
X139800248Y-97334099D01*
D12*
%TO.C,C1*%
X130288748Y-57910000D02*
X131711252Y-57910000D01*
X130288748Y-56090000D02*
X131711252Y-56090000D01*
%TO.C,C2*%
X149698748Y-56090000D02*
X151121252Y-56090000D01*
X149698748Y-57910000D02*
X151121252Y-57910000D01*
%TO.C,J1*%
D11*
X133666666Y-47452380D02*
X133666666Y-48166666D01*
X133619047Y-48309523D01*
X133523809Y-48404761D01*
X133380952Y-48452380D01*
X133285714Y-48452380D01*
X134666666Y-48452380D02*
X134095238Y-48452380D01*
X134380952Y-48452380D02*
X134380952Y-47452380D01*
X134285714Y-47595238D01*
X134190476Y-47690476D01*
X134095238Y-47738095D01*
%TO.C,U1*%
X140188095Y-146252380D02*
X140188095Y-147061904D01*
X140235714Y-147157142D01*
X140283333Y-147204761D01*
X140378571Y-147252380D01*
X140569047Y-147252380D01*
X140664285Y-147204761D01*
X140711904Y-147157142D01*
X140759523Y-147061904D01*
X140759523Y-146252380D01*
X141759523Y-147252380D02*
X141188095Y-147252380D01*
X141473809Y-147252380D02*
X141473809Y-146252380D01*
X141378571Y-146395238D01*
X141283333Y-146490476D01*
X141188095Y-146538095D01*
X137785714Y-81452380D02*
X137785714Y-80452380D01*
X138119047Y-81166666D01*
X138452380Y-80452380D01*
X138452380Y-81452380D01*
X139500000Y-81357142D02*
X139452380Y-81404761D01*
X139309523Y-81452380D01*
X139214285Y-81452380D01*
X139071428Y-81404761D01*
X138976190Y-81309523D01*
X138928571Y-81214285D01*
X138880952Y-81023809D01*
X138880952Y-80880952D01*
X138928571Y-80690476D01*
X138976190Y-80595238D01*
X139071428Y-80500000D01*
X139214285Y-80452380D01*
X139309523Y-80452380D01*
X139452380Y-80500000D01*
X139500000Y-80547619D01*
X140357142Y-80452380D02*
X140166666Y-80452380D01*
X140071428Y-80500000D01*
X140023809Y-80547619D01*
X139928571Y-80690476D01*
X139880952Y-80880952D01*
X139880952Y-81261904D01*
X139928571Y-81357142D01*
X139976190Y-81404761D01*
X140071428Y-81452380D01*
X140261904Y-81452380D01*
X140357142Y-81404761D01*
X140404761Y-81357142D01*
X140452380Y-81261904D01*
X140452380Y-81023809D01*
X140404761Y-80928571D01*
X140357142Y-80880952D01*
X140261904Y-80833333D01*
X140071428Y-80833333D01*
X139976190Y-80880952D01*
X139928571Y-80928571D01*
X139880952Y-81023809D01*
X141023809Y-80880952D02*
X140928571Y-80833333D01*
X140880952Y-80785714D01*
X140833333Y-80690476D01*
X140833333Y-80642857D01*
X140880952Y-80547619D01*
X140928571Y-80500000D01*
X141023809Y-80452380D01*
X141214285Y-80452380D01*
X141309523Y-80500000D01*
X141357142Y-80547619D01*
X141404761Y-80642857D01*
X141404761Y-80690476D01*
X141357142Y-80785714D01*
X141309523Y-80833333D01*
X141214285Y-80880952D01*
X141023809Y-80880952D01*
X140928571Y-80928571D01*
X140880952Y-80976190D01*
X140833333Y-81071428D01*
X140833333Y-81261904D01*
X140880952Y-81357142D01*
X140928571Y-81404761D01*
X141023809Y-81452380D01*
X141214285Y-81452380D01*
X141309523Y-81404761D01*
X141357142Y-81357142D01*
X141404761Y-81261904D01*
X141404761Y-81071428D01*
X141357142Y-80976190D01*
X141309523Y-80928571D01*
X141214285Y-80880952D01*
X142023809Y-80452380D02*
X142119047Y-80452380D01*
X142214285Y-80500000D01*
X142261904Y-80547619D01*
X142309523Y-80642857D01*
X142357142Y-80833333D01*
X142357142Y-81071428D01*
X142309523Y-81261904D01*
X142261904Y-81357142D01*
X142214285Y-81404761D01*
X142119047Y-81452380D01*
X142023809Y-81452380D01*
X141928571Y-81404761D01*
X141880952Y-81357142D01*
X141833333Y-81261904D01*
X141785714Y-81071428D01*
X141785714Y-80833333D01*
X141833333Y-80642857D01*
X141880952Y-80547619D01*
X141928571Y-80500000D01*
X142023809Y-80452380D01*
X142976190Y-80452380D02*
X143071428Y-80452380D01*
X143166666Y-80500000D01*
X143214285Y-80547619D01*
X143261904Y-80642857D01*
X143309523Y-80833333D01*
X143309523Y-81071428D01*
X143261904Y-81261904D01*
X143214285Y-81357142D01*
X143166666Y-81404761D01*
X143071428Y-81452380D01*
X142976190Y-81452380D01*
X142880952Y-81404761D01*
X142833333Y-81357142D01*
X142785714Y-81261904D01*
X142738095Y-81071428D01*
X142738095Y-80833333D01*
X142785714Y-80642857D01*
X142833333Y-80547619D01*
X142880952Y-80500000D01*
X142976190Y-80452380D01*
X143928571Y-80452380D02*
X144023809Y-80452380D01*
X144119047Y-80500000D01*
X144166666Y-80547619D01*
X144214285Y-80642857D01*
X144261904Y-80833333D01*
X144261904Y-81071428D01*
X144214285Y-81261904D01*
X144166666Y-81357142D01*
X144119047Y-81404761D01*
X144023809Y-81452380D01*
X143928571Y-81452380D01*
X143833333Y-81404761D01*
X143785714Y-81357142D01*
X143738095Y-81261904D01*
X143690476Y-81071428D01*
X143690476Y-80833333D01*
X143738095Y-80642857D01*
X143785714Y-80547619D01*
X143833333Y-80500000D01*
X143928571Y-80452380D01*
X149000000Y-146452380D02*
X149000000Y-146690476D01*
X148761904Y-146595238D02*
X149000000Y-146690476D01*
X149238095Y-146595238D01*
X148857142Y-146880952D02*
X149000000Y-146690476D01*
X149142857Y-146880952D01*
X149000000Y-146452380D02*
X149000000Y-146690476D01*
X148761904Y-146595238D02*
X149000000Y-146690476D01*
X149238095Y-146595238D01*
X148857142Y-146880952D02*
X149000000Y-146690476D01*
X149142857Y-146880952D01*
%TO.C,C1*%
X130833333Y-55507142D02*
X130785714Y-55554761D01*
X130642857Y-55602380D01*
X130547619Y-55602380D01*
X130404761Y-55554761D01*
X130309523Y-55459523D01*
X130261904Y-55364285D01*
X130214285Y-55173809D01*
X130214285Y-55030952D01*
X130261904Y-54840476D01*
X130309523Y-54745238D01*
X130404761Y-54650000D01*
X130547619Y-54602380D01*
X130642857Y-54602380D01*
X130785714Y-54650000D01*
X130833333Y-54697619D01*
X131785714Y-55602380D02*
X131214285Y-55602380D01*
X131500000Y-55602380D02*
X131500000Y-54602380D01*
X131404761Y-54745238D01*
X131309523Y-54840476D01*
X131214285Y-54888095D01*
%TO.C,C2*%
X150243333Y-55507142D02*
X150195714Y-55554761D01*
X150052857Y-55602380D01*
X149957619Y-55602380D01*
X149814761Y-55554761D01*
X149719523Y-55459523D01*
X149671904Y-55364285D01*
X149624285Y-55173809D01*
X149624285Y-55030952D01*
X149671904Y-54840476D01*
X149719523Y-54745238D01*
X149814761Y-54650000D01*
X149957619Y-54602380D01*
X150052857Y-54602380D01*
X150195714Y-54650000D01*
X150243333Y-54697619D01*
X150624285Y-54697619D02*
X150671904Y-54650000D01*
X150767142Y-54602380D01*
X151005238Y-54602380D01*
X151100476Y-54650000D01*
X151148095Y-54697619D01*
X151195714Y-54792857D01*
X151195714Y-54888095D01*
X151148095Y-55030952D01*
X150576666Y-55602380D01*
X151195714Y-55602380D01*
%TD*%
M02*
