%TF.GenerationSoftware,KiCad,Pcbnew,5.1.9+dfsg1-1~bpo10+1*%
%TF.CreationDate,2021-08-08T22:23:22+02:00*%
%TF.ProjectId,flexPiStorm,666c6578-5069-4537-946f-726d2e6b6963,0.4*%
%TF.SameCoordinates,Original*%
%TF.FileFunction,Soldermask,Top*%
%TF.FilePolarity,Negative*%
%FSLAX46Y46*%
G04 Gerber Fmt 4.6, Leading zero omitted, Abs format (unit mm)*
G04 Created by KiCad (PCBNEW 5.1.9+dfsg1-1~bpo10+1) date 2021-08-08 22:23:22*
%MOMM*%
%LPD*%
G01*
G04 APERTURE LIST*
%ADD10R,2.400000X1.600000*%
%ADD11O,2.400000X1.600000*%
%ADD12R,1.700000X1.700000*%
%ADD13O,1.700000X1.700000*%
%ADD14C,3.200000*%
%ADD15C,0.800000*%
G04 APERTURE END LIST*
D10*
%TO.C,U1*%
X152000000Y-140000000D03*
D11*
X129140000Y-61260000D03*
X152000000Y-137460000D03*
X129140000Y-63800000D03*
X152000000Y-134920000D03*
X129140000Y-66340000D03*
X152000000Y-132380000D03*
X129140000Y-68880000D03*
X152000000Y-129840000D03*
X129140000Y-71420000D03*
X152000000Y-127300000D03*
X129140000Y-73960000D03*
X152000000Y-124760000D03*
X129140000Y-76500000D03*
X152000000Y-122220000D03*
X129140000Y-79040000D03*
X152000000Y-119680000D03*
X129140000Y-81580000D03*
X152000000Y-117140000D03*
X129140000Y-84120000D03*
X152000000Y-114600000D03*
X129140000Y-86660000D03*
X152000000Y-112060000D03*
X129140000Y-89200000D03*
X152000000Y-109520000D03*
X129140000Y-91740000D03*
X152000000Y-106980000D03*
X129140000Y-94280000D03*
X152000000Y-104440000D03*
X129140000Y-96820000D03*
X152000000Y-101900000D03*
X129140000Y-99360000D03*
X152000000Y-99360000D03*
X129140000Y-101900000D03*
X152000000Y-96820000D03*
X129140000Y-104440000D03*
X152000000Y-94280000D03*
X129140000Y-106980000D03*
X152000000Y-91740000D03*
X129140000Y-109520000D03*
X152000000Y-89200000D03*
X129140000Y-112060000D03*
X152000000Y-86660000D03*
X129140000Y-114600000D03*
X152000000Y-84120000D03*
X129140000Y-117140000D03*
X152000000Y-81580000D03*
X129140000Y-119680000D03*
X152000000Y-79040000D03*
X129140000Y-122220000D03*
X152000000Y-76500000D03*
X129140000Y-124760000D03*
X152000000Y-73960000D03*
X129140000Y-127300000D03*
X152000000Y-71420000D03*
X129140000Y-129840000D03*
X152000000Y-68880000D03*
X129140000Y-132380000D03*
X152000000Y-66340000D03*
X129140000Y-134920000D03*
X152000000Y-63800000D03*
X129140000Y-137460000D03*
X152000000Y-61260000D03*
X129140000Y-140000000D03*
%TD*%
D12*
%TO.C,J1*%
X137000000Y-56000000D03*
D13*
X139540000Y-56000000D03*
X142080000Y-56000000D03*
X144620000Y-56000000D03*
%TD*%
D14*
%TO.C,H1*%
X128000000Y-49000000D03*
%TD*%
%TO.C,H2*%
X154000000Y-49000000D03*
%TD*%
%TO.C,H3*%
X154000000Y-146000000D03*
%TD*%
%TO.C,H4*%
X128000000Y-146000000D03*
%TD*%
%TO.C,C1*%
G36*
G01*
X128775000Y-57650001D02*
X128775000Y-56349999D01*
G75*
G02*
X129024999Y-56100000I249999J0D01*
G01*
X129850001Y-56100000D01*
G75*
G02*
X130100000Y-56349999I0J-249999D01*
G01*
X130100000Y-57650001D01*
G75*
G02*
X129850001Y-57900000I-249999J0D01*
G01*
X129024999Y-57900000D01*
G75*
G02*
X128775000Y-57650001I0J249999D01*
G01*
G37*
G36*
G01*
X131900000Y-57650001D02*
X131900000Y-56349999D01*
G75*
G02*
X132149999Y-56100000I249999J0D01*
G01*
X132975001Y-56100000D01*
G75*
G02*
X133225000Y-56349999I0J-249999D01*
G01*
X133225000Y-57650001D01*
G75*
G02*
X132975001Y-57900000I-249999J0D01*
G01*
X132149999Y-57900000D01*
G75*
G02*
X131900000Y-57650001I0J249999D01*
G01*
G37*
%TD*%
%TO.C,C2*%
G36*
G01*
X151310000Y-57650001D02*
X151310000Y-56349999D01*
G75*
G02*
X151559999Y-56100000I249999J0D01*
G01*
X152385001Y-56100000D01*
G75*
G02*
X152635000Y-56349999I0J-249999D01*
G01*
X152635000Y-57650001D01*
G75*
G02*
X152385001Y-57900000I-249999J0D01*
G01*
X151559999Y-57900000D01*
G75*
G02*
X151310000Y-57650001I0J249999D01*
G01*
G37*
G36*
G01*
X148185000Y-57650001D02*
X148185000Y-56349999D01*
G75*
G02*
X148434999Y-56100000I249999J0D01*
G01*
X149260001Y-56100000D01*
G75*
G02*
X149510000Y-56349999I0J-249999D01*
G01*
X149510000Y-57650001D01*
G75*
G02*
X149260001Y-57900000I-249999J0D01*
G01*
X148434999Y-57900000D01*
G75*
G02*
X148185000Y-57650001I0J249999D01*
G01*
G37*
%TD*%
%TO.C,C3*%
G36*
G01*
X128775000Y-54425001D02*
X128775000Y-53574999D01*
G75*
G02*
X129024999Y-53325000I249999J0D01*
G01*
X130100001Y-53325000D01*
G75*
G02*
X130350000Y-53574999I0J-249999D01*
G01*
X130350000Y-54425001D01*
G75*
G02*
X130100001Y-54675000I-249999J0D01*
G01*
X129024999Y-54675000D01*
G75*
G02*
X128775000Y-54425001I0J249999D01*
G01*
G37*
G36*
G01*
X131650000Y-54425001D02*
X131650000Y-53574999D01*
G75*
G02*
X131899999Y-53325000I249999J0D01*
G01*
X132975001Y-53325000D01*
G75*
G02*
X133225000Y-53574999I0J-249999D01*
G01*
X133225000Y-54425001D01*
G75*
G02*
X132975001Y-54675000I-249999J0D01*
G01*
X131899999Y-54675000D01*
G75*
G02*
X131650000Y-54425001I0J249999D01*
G01*
G37*
%TD*%
%TO.C,C4*%
G36*
G01*
X151150000Y-54425001D02*
X151150000Y-53574999D01*
G75*
G02*
X151399999Y-53325000I249999J0D01*
G01*
X152475001Y-53325000D01*
G75*
G02*
X152725000Y-53574999I0J-249999D01*
G01*
X152725000Y-54425001D01*
G75*
G02*
X152475001Y-54675000I-249999J0D01*
G01*
X151399999Y-54675000D01*
G75*
G02*
X151150000Y-54425001I0J249999D01*
G01*
G37*
G36*
G01*
X148275000Y-54425001D02*
X148275000Y-53574999D01*
G75*
G02*
X148524999Y-53325000I249999J0D01*
G01*
X149600001Y-53325000D01*
G75*
G02*
X149850000Y-53574999I0J-249999D01*
G01*
X149850000Y-54425001D01*
G75*
G02*
X149600001Y-54675000I-249999J0D01*
G01*
X148524999Y-54675000D01*
G75*
G02*
X148275000Y-54425001I0J249999D01*
G01*
G37*
%TD*%
D15*
X135000000Y-63000000D03*
X133000000Y-52000000D03*
X154000000Y-57000000D03*
M02*
