%TF.GenerationSoftware,KiCad,Pcbnew,5.1.9+dfsg1-1~bpo10+1*%
%TF.CreationDate,2021-06-29T08:39:31+02:00*%
%TF.ProjectId,flexPiStorm,666c6578-5069-4537-946f-726d2e6b6963,0.4*%
%TF.SameCoordinates,Original*%
%TF.FileFunction,Copper,L1,Top*%
%TF.FilePolarity,Positive*%
%FSLAX46Y46*%
G04 Gerber Fmt 4.6, Leading zero omitted, Abs format (unit mm)*
G04 Created by KiCad (PCBNEW 5.1.9+dfsg1-1~bpo10+1) date 2021-06-29 08:39:31*
%MOMM*%
%LPD*%
G01*
G04 APERTURE LIST*
%TA.AperFunction,ComponentPad*%
%ADD10R,1.700000X1.700000*%
%TD*%
%TA.AperFunction,ComponentPad*%
%ADD11O,1.700000X1.700000*%
%TD*%
%TA.AperFunction,ComponentPad*%
%ADD12R,1.524000X1.524000*%
%TD*%
%TA.AperFunction,ComponentPad*%
%ADD13C,1.524000*%
%TD*%
%TA.AperFunction,ViaPad*%
%ADD14C,0.800000*%
%TD*%
%TA.AperFunction,Conductor*%
%ADD15C,0.500000*%
%TD*%
%TA.AperFunction,Conductor*%
%ADD16C,0.250000*%
%TD*%
%TA.AperFunction,Conductor*%
%ADD17C,1.000000*%
%TD*%
%TA.AperFunction,Conductor*%
%ADD18C,0.254000*%
%TD*%
%TA.AperFunction,Conductor*%
%ADD19C,0.100000*%
%TD*%
G04 APERTURE END LIST*
D10*
%TO.P,J1,1*%
%TO.N,VCC*%
X137000000Y-58000000D03*
D11*
%TO.P,J1,2*%
%TO.N,GND*%
X139540000Y-58000000D03*
%TO.P,J1,3*%
X142080000Y-58000000D03*
%TO.P,J1,4*%
%TO.N,Net-(J1-Pad4)*%
X144620000Y-58000000D03*
%TD*%
D12*
%TO.P,U1,1*%
%TO.N,/P1*%
X151000000Y-143000000D03*
D13*
%TO.P,U1,2*%
%TO.N,/P3*%
X151000000Y-140460000D03*
%TO.P,U1,3*%
%TO.N,/P5*%
X151000000Y-137920000D03*
%TO.P,U1,4*%
%TO.N,/P7*%
X151000000Y-135380000D03*
%TO.P,U1,5*%
%TO.N,/P9*%
X151000000Y-132840000D03*
%TO.P,U1,6*%
%TO.N,/P11*%
X151000000Y-130300000D03*
%TO.P,U1,7*%
%TO.N,/P13*%
X151000000Y-127760000D03*
%TO.P,U1,8*%
%TO.N,/P15*%
X151000000Y-125220000D03*
%TO.P,U1,9*%
%TO.N,/P17*%
X151000000Y-122680000D03*
%TO.P,U1,10*%
%TO.N,/P19*%
X151000000Y-120140000D03*
%TO.P,U1,11*%
%TO.N,/P21*%
X151000000Y-117600000D03*
%TO.P,U1,12*%
%TO.N,/P23*%
X151000000Y-115060000D03*
%TO.P,U1,13*%
%TO.N,/P25*%
X151000000Y-112520000D03*
%TO.P,U1,14*%
%TO.N,VCC*%
X151000000Y-109980000D03*
%TO.P,U1,15*%
%TO.N,/P29*%
X151000000Y-107440000D03*
%TO.P,U1,16*%
%TO.N,GND*%
X151000000Y-104900000D03*
%TO.P,U1,17*%
%TO.N,/P33*%
X151000000Y-102360000D03*
%TO.P,U1,18*%
%TO.N,/P35*%
X151000000Y-99820000D03*
%TO.P,U1,19*%
%TO.N,/P37*%
X151000000Y-97280000D03*
%TO.P,U1,20*%
%TO.N,/P39*%
X151000000Y-94740000D03*
%TO.P,U1,21*%
%TO.N,/P41*%
X151000000Y-92200000D03*
%TO.P,U1,22*%
%TO.N,/P43*%
X151000000Y-89660000D03*
%TO.P,U1,23*%
%TO.N,/P45*%
X151000000Y-87120000D03*
%TO.P,U1,24*%
%TO.N,/P47*%
X151000000Y-84580000D03*
%TO.P,U1,25*%
%TO.N,/P49*%
X151000000Y-82040000D03*
%TO.P,U1,26*%
%TO.N,/P51*%
X151000000Y-79500000D03*
%TO.P,U1,27*%
%TO.N,/P53*%
X151000000Y-76960000D03*
%TO.P,U1,28*%
%TO.N,/P55*%
X151000000Y-74420000D03*
%TO.P,U1,29*%
%TO.N,/P57*%
X151000000Y-71880000D03*
%TO.P,U1,30*%
%TO.N,/P59*%
X151000000Y-69340000D03*
%TO.P,U1,31*%
%TO.N,/P61*%
X151000000Y-66800000D03*
%TO.P,U1,32*%
%TO.N,/P63*%
X151000000Y-64260000D03*
%TO.P,U1,33*%
%TO.N,/P64*%
X130680000Y-64260000D03*
%TO.P,U1,34*%
%TO.N,/P62*%
X130680000Y-66800000D03*
%TO.P,U1,35*%
%TO.N,/P60*%
X130680000Y-69340000D03*
%TO.P,U1,36*%
%TO.N,/P58*%
X130680000Y-71880000D03*
%TO.P,U1,37*%
%TO.N,/P56*%
X130680000Y-74420000D03*
%TO.P,U1,38*%
%TO.N,/P54*%
X130680000Y-76960000D03*
%TO.P,U1,39*%
%TO.N,/P52*%
X130680000Y-79500000D03*
%TO.P,U1,40*%
%TO.N,/P50*%
X130680000Y-82040000D03*
%TO.P,U1,41*%
%TO.N,/P48*%
X130680000Y-84580000D03*
%TO.P,U1,42*%
%TO.N,/P46*%
X130680000Y-87120000D03*
%TO.P,U1,43*%
%TO.N,/P44*%
X130680000Y-89660000D03*
%TO.P,U1,44*%
%TO.N,/P42*%
X130680000Y-92200000D03*
%TO.P,U1,45*%
%TO.N,/P40*%
X130680000Y-94740000D03*
%TO.P,U1,46*%
%TO.N,/P38*%
X130680000Y-97280000D03*
%TO.P,U1,47*%
%TO.N,/P36*%
X130680000Y-99820000D03*
%TO.P,U1,48*%
%TO.N,/P34*%
X130680000Y-102360000D03*
%TO.P,U1,49*%
%TO.N,VCC*%
X130680000Y-104900000D03*
%TO.P,U1,50*%
%TO.N,/P30*%
X130680000Y-107440000D03*
%TO.P,U1,51*%
%TO.N,/P28*%
X130680000Y-109980000D03*
%TO.P,U1,52*%
%TO.N,/P26*%
X130680000Y-112520000D03*
%TO.P,U1,53*%
%TO.N,GND*%
X130680000Y-115060000D03*
%TO.P,U1,54*%
%TO.N,/P22*%
X130680000Y-117600000D03*
%TO.P,U1,55*%
%TO.N,/P20*%
X130680000Y-120140000D03*
%TO.P,U1,56*%
%TO.N,/P18*%
X130680000Y-122680000D03*
%TO.P,U1,57*%
%TO.N,/P16*%
X130680000Y-125220000D03*
%TO.P,U1,58*%
%TO.N,/P14*%
X130680000Y-127760000D03*
%TO.P,U1,59*%
%TO.N,/P12*%
X130680000Y-130300000D03*
%TO.P,U1,60*%
%TO.N,/P10*%
X130680000Y-132840000D03*
%TO.P,U1,61*%
%TO.N,/P8*%
X130680000Y-135380000D03*
%TO.P,U1,62*%
%TO.N,/P6*%
X130680000Y-137920000D03*
%TO.P,U1,63*%
%TO.N,/P4*%
X130680000Y-140460000D03*
%TO.P,U1,64*%
%TO.N,/P2*%
X130680000Y-143000000D03*
%TD*%
%TO.P,C1,1*%
%TO.N,VCC*%
%TA.AperFunction,SMDPad,CuDef*%
G36*
G01*
X128775000Y-57650001D02*
X128775000Y-56349999D01*
G75*
G02*
X129024999Y-56100000I249999J0D01*
G01*
X129850001Y-56100000D01*
G75*
G02*
X130100000Y-56349999I0J-249999D01*
G01*
X130100000Y-57650001D01*
G75*
G02*
X129850001Y-57900000I-249999J0D01*
G01*
X129024999Y-57900000D01*
G75*
G02*
X128775000Y-57650001I0J249999D01*
G01*
G37*
%TD.AperFunction*%
%TO.P,C1,2*%
%TO.N,GND*%
%TA.AperFunction,SMDPad,CuDef*%
G36*
G01*
X131900000Y-57650001D02*
X131900000Y-56349999D01*
G75*
G02*
X132149999Y-56100000I249999J0D01*
G01*
X132975001Y-56100000D01*
G75*
G02*
X133225000Y-56349999I0J-249999D01*
G01*
X133225000Y-57650001D01*
G75*
G02*
X132975001Y-57900000I-249999J0D01*
G01*
X132149999Y-57900000D01*
G75*
G02*
X131900000Y-57650001I0J249999D01*
G01*
G37*
%TD.AperFunction*%
%TD*%
%TO.P,C2,2*%
%TO.N,GND*%
%TA.AperFunction,SMDPad,CuDef*%
G36*
G01*
X151310000Y-57650001D02*
X151310000Y-56349999D01*
G75*
G02*
X151559999Y-56100000I249999J0D01*
G01*
X152385001Y-56100000D01*
G75*
G02*
X152635000Y-56349999I0J-249999D01*
G01*
X152635000Y-57650001D01*
G75*
G02*
X152385001Y-57900000I-249999J0D01*
G01*
X151559999Y-57900000D01*
G75*
G02*
X151310000Y-57650001I0J249999D01*
G01*
G37*
%TD.AperFunction*%
%TO.P,C2,1*%
%TO.N,VCC*%
%TA.AperFunction,SMDPad,CuDef*%
G36*
G01*
X148185000Y-57650001D02*
X148185000Y-56349999D01*
G75*
G02*
X148434999Y-56100000I249999J0D01*
G01*
X149260001Y-56100000D01*
G75*
G02*
X149510000Y-56349999I0J-249999D01*
G01*
X149510000Y-57650001D01*
G75*
G02*
X149260001Y-57900000I-249999J0D01*
G01*
X148434999Y-57900000D01*
G75*
G02*
X148185000Y-57650001I0J249999D01*
G01*
G37*
%TD.AperFunction*%
%TD*%
%TO.P,C3,1*%
%TO.N,VCC*%
%TA.AperFunction,SMDPad,CuDef*%
G36*
G01*
X128775000Y-54425001D02*
X128775000Y-53574999D01*
G75*
G02*
X129024999Y-53325000I249999J0D01*
G01*
X130100001Y-53325000D01*
G75*
G02*
X130350000Y-53574999I0J-249999D01*
G01*
X130350000Y-54425001D01*
G75*
G02*
X130100001Y-54675000I-249999J0D01*
G01*
X129024999Y-54675000D01*
G75*
G02*
X128775000Y-54425001I0J249999D01*
G01*
G37*
%TD.AperFunction*%
%TO.P,C3,2*%
%TO.N,GND*%
%TA.AperFunction,SMDPad,CuDef*%
G36*
G01*
X131650000Y-54425001D02*
X131650000Y-53574999D01*
G75*
G02*
X131899999Y-53325000I249999J0D01*
G01*
X132975001Y-53325000D01*
G75*
G02*
X133225000Y-53574999I0J-249999D01*
G01*
X133225000Y-54425001D01*
G75*
G02*
X132975001Y-54675000I-249999J0D01*
G01*
X131899999Y-54675000D01*
G75*
G02*
X131650000Y-54425001I0J249999D01*
G01*
G37*
%TD.AperFunction*%
%TD*%
%TO.P,C4,2*%
%TO.N,GND*%
%TA.AperFunction,SMDPad,CuDef*%
G36*
G01*
X151150000Y-54425001D02*
X151150000Y-53574999D01*
G75*
G02*
X151399999Y-53325000I249999J0D01*
G01*
X152475001Y-53325000D01*
G75*
G02*
X152725000Y-53574999I0J-249999D01*
G01*
X152725000Y-54425001D01*
G75*
G02*
X152475001Y-54675000I-249999J0D01*
G01*
X151399999Y-54675000D01*
G75*
G02*
X151150000Y-54425001I0J249999D01*
G01*
G37*
%TD.AperFunction*%
%TO.P,C4,1*%
%TO.N,VCC*%
%TA.AperFunction,SMDPad,CuDef*%
G36*
G01*
X148275000Y-54425001D02*
X148275000Y-53574999D01*
G75*
G02*
X148524999Y-53325000I249999J0D01*
G01*
X149600001Y-53325000D01*
G75*
G02*
X149850000Y-53574999I0J-249999D01*
G01*
X149850000Y-54425001D01*
G75*
G02*
X149600001Y-54675000I-249999J0D01*
G01*
X148524999Y-54675000D01*
G75*
G02*
X148275000Y-54425001I0J249999D01*
G01*
G37*
%TD.AperFunction*%
%TD*%
D14*
%TO.N,VCC*%
X128000000Y-57000000D03*
X149000000Y-59000000D03*
%TO.N,GND*%
X147000000Y-64000000D03*
%TO.N,Net-(J2-Pad0)*%
X137567100Y-118654000D03*
X137416100Y-86166900D03*
%TD*%
D15*
%TO.N,VCC*%
X129437500Y-57000000D02*
X128000000Y-57000000D01*
X148847500Y-57000000D02*
X148847500Y-58847500D01*
D16*
X148847500Y-58847500D02*
X149000000Y-59000000D01*
X149062500Y-56785000D02*
X148847500Y-57000000D01*
D17*
X149062500Y-54000000D02*
X149062500Y-56785000D01*
D16*
X129562500Y-56875000D02*
X129437500Y-57000000D01*
D17*
X129562500Y-54000000D02*
X129562500Y-56875000D01*
D16*
%TO.N,GND*%
X143100000Y-61200000D02*
X143100000Y-61300000D01*
D15*
X142080000Y-58000000D02*
X142080000Y-60180000D01*
X142080000Y-60180000D02*
X143100000Y-61200000D01*
X139540000Y-58000000D02*
X142080000Y-58000000D01*
X139540000Y-58000000D02*
X139540000Y-59960000D01*
X139540000Y-59960000D02*
X138200000Y-61300000D01*
X127800000Y-61300000D02*
X126800000Y-62300000D01*
X126800000Y-62300000D02*
X126800000Y-114100000D01*
X126800000Y-114100000D02*
X127760000Y-115060000D01*
X127760000Y-115060000D02*
X130680000Y-115060000D01*
X154300000Y-61300000D02*
X154300000Y-104000000D01*
X154300000Y-104000000D02*
X153400000Y-104900000D01*
X153400000Y-104900000D02*
X151000000Y-104900000D01*
D16*
X154400000Y-61200000D02*
X154300000Y-61300000D01*
D15*
X147000000Y-64000000D02*
X147000000Y-61519258D01*
X132562500Y-57000000D02*
X132562500Y-61037500D01*
D16*
X132562500Y-61037500D02*
X132300000Y-61300000D01*
D15*
X138200000Y-61300000D02*
X132300000Y-61300000D01*
X132300000Y-61300000D02*
X127800000Y-61300000D01*
X151972500Y-57000000D02*
X151972500Y-60972500D01*
D16*
X151937500Y-56965000D02*
X151972500Y-57000000D01*
D17*
X151937500Y-54000000D02*
X151937500Y-56965000D01*
D16*
X132437500Y-56875000D02*
X132562500Y-57000000D01*
D17*
X132437500Y-54000000D02*
X132437500Y-56875000D01*
D15*
X146680742Y-61200000D02*
X147000000Y-61519258D01*
X143100000Y-61200000D02*
X146680742Y-61200000D01*
D16*
X147000000Y-61519258D02*
X147080742Y-61519258D01*
D15*
X147080742Y-61519258D02*
X147300000Y-61300000D01*
X151645000Y-61300000D02*
X151972500Y-60972500D01*
X147300000Y-61300000D02*
X151645000Y-61300000D01*
X153972500Y-60972500D02*
X154300000Y-61300000D01*
X151972500Y-60972500D02*
X153972500Y-60972500D01*
D16*
%TO.N,Net-(J2-Pad0)*%
X137567100Y-118654000D02*
X137416100Y-118503000D01*
X137416100Y-118503000D02*
X137416100Y-86166900D01*
%TD*%
D18*
%TO.N,GND*%
X156340000Y-148340000D02*
X125660000Y-148340000D01*
X125660000Y-145779872D01*
X125765000Y-145779872D01*
X125765000Y-146220128D01*
X125850890Y-146651925D01*
X126019369Y-147058669D01*
X126263962Y-147424729D01*
X126575271Y-147736038D01*
X126941331Y-147980631D01*
X127348075Y-148149110D01*
X127779872Y-148235000D01*
X128220128Y-148235000D01*
X128651925Y-148149110D01*
X129058669Y-147980631D01*
X129424729Y-147736038D01*
X129736038Y-147424729D01*
X129980631Y-147058669D01*
X130149110Y-146651925D01*
X130235000Y-146220128D01*
X130235000Y-145779872D01*
X151765000Y-145779872D01*
X151765000Y-146220128D01*
X151850890Y-146651925D01*
X152019369Y-147058669D01*
X152263962Y-147424729D01*
X152575271Y-147736038D01*
X152941331Y-147980631D01*
X153348075Y-148149110D01*
X153779872Y-148235000D01*
X154220128Y-148235000D01*
X154651925Y-148149110D01*
X155058669Y-147980631D01*
X155424729Y-147736038D01*
X155736038Y-147424729D01*
X155980631Y-147058669D01*
X156149110Y-146651925D01*
X156235000Y-146220128D01*
X156235000Y-145779872D01*
X156149110Y-145348075D01*
X155980631Y-144941331D01*
X155736038Y-144575271D01*
X155424729Y-144263962D01*
X155058669Y-144019369D01*
X154651925Y-143850890D01*
X154220128Y-143765000D01*
X153779872Y-143765000D01*
X153348075Y-143850890D01*
X152941331Y-144019369D01*
X152575271Y-144263962D01*
X152263962Y-144575271D01*
X152019369Y-144941331D01*
X151850890Y-145348075D01*
X151765000Y-145779872D01*
X130235000Y-145779872D01*
X130149110Y-145348075D01*
X129980631Y-144941331D01*
X129736038Y-144575271D01*
X129424729Y-144263962D01*
X129058669Y-144019369D01*
X128651925Y-143850890D01*
X128220128Y-143765000D01*
X127779872Y-143765000D01*
X127348075Y-143850890D01*
X126941331Y-144019369D01*
X126575271Y-144263962D01*
X126263962Y-144575271D01*
X126019369Y-144941331D01*
X125850890Y-145348075D01*
X125765000Y-145779872D01*
X125660000Y-145779872D01*
X125660000Y-117462408D01*
X129283000Y-117462408D01*
X129283000Y-117737592D01*
X129336686Y-118007490D01*
X129441995Y-118261727D01*
X129594880Y-118490535D01*
X129789465Y-118685120D01*
X130018273Y-118838005D01*
X130095515Y-118870000D01*
X130018273Y-118901995D01*
X129789465Y-119054880D01*
X129594880Y-119249465D01*
X129441995Y-119478273D01*
X129336686Y-119732510D01*
X129283000Y-120002408D01*
X129283000Y-120277592D01*
X129336686Y-120547490D01*
X129441995Y-120801727D01*
X129594880Y-121030535D01*
X129789465Y-121225120D01*
X130018273Y-121378005D01*
X130095515Y-121410000D01*
X130018273Y-121441995D01*
X129789465Y-121594880D01*
X129594880Y-121789465D01*
X129441995Y-122018273D01*
X129336686Y-122272510D01*
X129283000Y-122542408D01*
X129283000Y-122817592D01*
X129336686Y-123087490D01*
X129441995Y-123341727D01*
X129594880Y-123570535D01*
X129789465Y-123765120D01*
X130018273Y-123918005D01*
X130095515Y-123950000D01*
X130018273Y-123981995D01*
X129789465Y-124134880D01*
X129594880Y-124329465D01*
X129441995Y-124558273D01*
X129336686Y-124812510D01*
X129283000Y-125082408D01*
X129283000Y-125357592D01*
X129336686Y-125627490D01*
X129441995Y-125881727D01*
X129594880Y-126110535D01*
X129789465Y-126305120D01*
X130018273Y-126458005D01*
X130095515Y-126490000D01*
X130018273Y-126521995D01*
X129789465Y-126674880D01*
X129594880Y-126869465D01*
X129441995Y-127098273D01*
X129336686Y-127352510D01*
X129283000Y-127622408D01*
X129283000Y-127897592D01*
X129336686Y-128167490D01*
X129441995Y-128421727D01*
X129594880Y-128650535D01*
X129789465Y-128845120D01*
X130018273Y-128998005D01*
X130095515Y-129030000D01*
X130018273Y-129061995D01*
X129789465Y-129214880D01*
X129594880Y-129409465D01*
X129441995Y-129638273D01*
X129336686Y-129892510D01*
X129283000Y-130162408D01*
X129283000Y-130437592D01*
X129336686Y-130707490D01*
X129441995Y-130961727D01*
X129594880Y-131190535D01*
X129789465Y-131385120D01*
X130018273Y-131538005D01*
X130095515Y-131570000D01*
X130018273Y-131601995D01*
X129789465Y-131754880D01*
X129594880Y-131949465D01*
X129441995Y-132178273D01*
X129336686Y-132432510D01*
X129283000Y-132702408D01*
X129283000Y-132977592D01*
X129336686Y-133247490D01*
X129441995Y-133501727D01*
X129594880Y-133730535D01*
X129789465Y-133925120D01*
X130018273Y-134078005D01*
X130095515Y-134110000D01*
X130018273Y-134141995D01*
X129789465Y-134294880D01*
X129594880Y-134489465D01*
X129441995Y-134718273D01*
X129336686Y-134972510D01*
X129283000Y-135242408D01*
X129283000Y-135517592D01*
X129336686Y-135787490D01*
X129441995Y-136041727D01*
X129594880Y-136270535D01*
X129789465Y-136465120D01*
X130018273Y-136618005D01*
X130095515Y-136650000D01*
X130018273Y-136681995D01*
X129789465Y-136834880D01*
X129594880Y-137029465D01*
X129441995Y-137258273D01*
X129336686Y-137512510D01*
X129283000Y-137782408D01*
X129283000Y-138057592D01*
X129336686Y-138327490D01*
X129441995Y-138581727D01*
X129594880Y-138810535D01*
X129789465Y-139005120D01*
X130018273Y-139158005D01*
X130095515Y-139190000D01*
X130018273Y-139221995D01*
X129789465Y-139374880D01*
X129594880Y-139569465D01*
X129441995Y-139798273D01*
X129336686Y-140052510D01*
X129283000Y-140322408D01*
X129283000Y-140597592D01*
X129336686Y-140867490D01*
X129441995Y-141121727D01*
X129594880Y-141350535D01*
X129789465Y-141545120D01*
X130018273Y-141698005D01*
X130095515Y-141730000D01*
X130018273Y-141761995D01*
X129789465Y-141914880D01*
X129594880Y-142109465D01*
X129441995Y-142338273D01*
X129336686Y-142592510D01*
X129283000Y-142862408D01*
X129283000Y-143137592D01*
X129336686Y-143407490D01*
X129441995Y-143661727D01*
X129594880Y-143890535D01*
X129789465Y-144085120D01*
X130018273Y-144238005D01*
X130272510Y-144343314D01*
X130542408Y-144397000D01*
X130817592Y-144397000D01*
X131087490Y-144343314D01*
X131341727Y-144238005D01*
X131570535Y-144085120D01*
X131765120Y-143890535D01*
X131918005Y-143661727D01*
X132023314Y-143407490D01*
X132077000Y-143137592D01*
X132077000Y-142862408D01*
X132023314Y-142592510D01*
X131918005Y-142338273D01*
X131851005Y-142238000D01*
X149599928Y-142238000D01*
X149599928Y-143762000D01*
X149612188Y-143886482D01*
X149648498Y-144006180D01*
X149707463Y-144116494D01*
X149786815Y-144213185D01*
X149883506Y-144292537D01*
X149993820Y-144351502D01*
X150113518Y-144387812D01*
X150238000Y-144400072D01*
X151762000Y-144400072D01*
X151886482Y-144387812D01*
X152006180Y-144351502D01*
X152116494Y-144292537D01*
X152213185Y-144213185D01*
X152292537Y-144116494D01*
X152351502Y-144006180D01*
X152387812Y-143886482D01*
X152400072Y-143762000D01*
X152400072Y-142238000D01*
X152387812Y-142113518D01*
X152351502Y-141993820D01*
X152292537Y-141883506D01*
X152213185Y-141786815D01*
X152116494Y-141707463D01*
X152006180Y-141648498D01*
X151886482Y-141612188D01*
X151802535Y-141603920D01*
X151890535Y-141545120D01*
X152085120Y-141350535D01*
X152238005Y-141121727D01*
X152343314Y-140867490D01*
X152397000Y-140597592D01*
X152397000Y-140322408D01*
X152343314Y-140052510D01*
X152238005Y-139798273D01*
X152085120Y-139569465D01*
X151890535Y-139374880D01*
X151661727Y-139221995D01*
X151584485Y-139190000D01*
X151661727Y-139158005D01*
X151890535Y-139005120D01*
X152085120Y-138810535D01*
X152238005Y-138581727D01*
X152343314Y-138327490D01*
X152397000Y-138057592D01*
X152397000Y-137782408D01*
X152343314Y-137512510D01*
X152238005Y-137258273D01*
X152085120Y-137029465D01*
X151890535Y-136834880D01*
X151661727Y-136681995D01*
X151584485Y-136650000D01*
X151661727Y-136618005D01*
X151890535Y-136465120D01*
X152085120Y-136270535D01*
X152238005Y-136041727D01*
X152343314Y-135787490D01*
X152397000Y-135517592D01*
X152397000Y-135242408D01*
X152343314Y-134972510D01*
X152238005Y-134718273D01*
X152085120Y-134489465D01*
X151890535Y-134294880D01*
X151661727Y-134141995D01*
X151584485Y-134110000D01*
X151661727Y-134078005D01*
X151890535Y-133925120D01*
X152085120Y-133730535D01*
X152238005Y-133501727D01*
X152343314Y-133247490D01*
X152397000Y-132977592D01*
X152397000Y-132702408D01*
X152343314Y-132432510D01*
X152238005Y-132178273D01*
X152085120Y-131949465D01*
X151890535Y-131754880D01*
X151661727Y-131601995D01*
X151584485Y-131570000D01*
X151661727Y-131538005D01*
X151890535Y-131385120D01*
X152085120Y-131190535D01*
X152238005Y-130961727D01*
X152343314Y-130707490D01*
X152397000Y-130437592D01*
X152397000Y-130162408D01*
X152343314Y-129892510D01*
X152238005Y-129638273D01*
X152085120Y-129409465D01*
X151890535Y-129214880D01*
X151661727Y-129061995D01*
X151584485Y-129030000D01*
X151661727Y-128998005D01*
X151890535Y-128845120D01*
X152085120Y-128650535D01*
X152238005Y-128421727D01*
X152343314Y-128167490D01*
X152397000Y-127897592D01*
X152397000Y-127622408D01*
X152343314Y-127352510D01*
X152238005Y-127098273D01*
X152085120Y-126869465D01*
X151890535Y-126674880D01*
X151661727Y-126521995D01*
X151584485Y-126490000D01*
X151661727Y-126458005D01*
X151890535Y-126305120D01*
X152085120Y-126110535D01*
X152238005Y-125881727D01*
X152343314Y-125627490D01*
X152397000Y-125357592D01*
X152397000Y-125082408D01*
X152343314Y-124812510D01*
X152238005Y-124558273D01*
X152085120Y-124329465D01*
X151890535Y-124134880D01*
X151661727Y-123981995D01*
X151584485Y-123950000D01*
X151661727Y-123918005D01*
X151890535Y-123765120D01*
X152085120Y-123570535D01*
X152238005Y-123341727D01*
X152343314Y-123087490D01*
X152397000Y-122817592D01*
X152397000Y-122542408D01*
X152343314Y-122272510D01*
X152238005Y-122018273D01*
X152085120Y-121789465D01*
X151890535Y-121594880D01*
X151661727Y-121441995D01*
X151584485Y-121410000D01*
X151661727Y-121378005D01*
X151890535Y-121225120D01*
X152085120Y-121030535D01*
X152238005Y-120801727D01*
X152343314Y-120547490D01*
X152397000Y-120277592D01*
X152397000Y-120002408D01*
X152343314Y-119732510D01*
X152238005Y-119478273D01*
X152085120Y-119249465D01*
X151890535Y-119054880D01*
X151661727Y-118901995D01*
X151584485Y-118870000D01*
X151661727Y-118838005D01*
X151890535Y-118685120D01*
X152085120Y-118490535D01*
X152238005Y-118261727D01*
X152343314Y-118007490D01*
X152397000Y-117737592D01*
X152397000Y-117462408D01*
X152343314Y-117192510D01*
X152238005Y-116938273D01*
X152085120Y-116709465D01*
X151890535Y-116514880D01*
X151661727Y-116361995D01*
X151584485Y-116330000D01*
X151661727Y-116298005D01*
X151890535Y-116145120D01*
X152085120Y-115950535D01*
X152238005Y-115721727D01*
X152343314Y-115467490D01*
X152397000Y-115197592D01*
X152397000Y-114922408D01*
X152343314Y-114652510D01*
X152238005Y-114398273D01*
X152085120Y-114169465D01*
X151890535Y-113974880D01*
X151661727Y-113821995D01*
X151584485Y-113790000D01*
X151661727Y-113758005D01*
X151890535Y-113605120D01*
X152085120Y-113410535D01*
X152238005Y-113181727D01*
X152343314Y-112927490D01*
X152397000Y-112657592D01*
X152397000Y-112382408D01*
X152343314Y-112112510D01*
X152238005Y-111858273D01*
X152085120Y-111629465D01*
X151890535Y-111434880D01*
X151661727Y-111281995D01*
X151584485Y-111250000D01*
X151661727Y-111218005D01*
X151890535Y-111065120D01*
X152085120Y-110870535D01*
X152238005Y-110641727D01*
X152343314Y-110387490D01*
X152397000Y-110117592D01*
X152397000Y-109842408D01*
X152343314Y-109572510D01*
X152238005Y-109318273D01*
X152085120Y-109089465D01*
X151890535Y-108894880D01*
X151661727Y-108741995D01*
X151584485Y-108710000D01*
X151661727Y-108678005D01*
X151890535Y-108525120D01*
X152085120Y-108330535D01*
X152238005Y-108101727D01*
X152343314Y-107847490D01*
X152397000Y-107577592D01*
X152397000Y-107302408D01*
X152343314Y-107032510D01*
X152238005Y-106778273D01*
X152085120Y-106549465D01*
X151890535Y-106354880D01*
X151661727Y-106201995D01*
X151590057Y-106172308D01*
X151603023Y-106167636D01*
X151718980Y-106105656D01*
X151785960Y-105865565D01*
X151000000Y-105079605D01*
X150214040Y-105865565D01*
X150281020Y-106105656D01*
X150416760Y-106169485D01*
X150338273Y-106201995D01*
X150109465Y-106354880D01*
X149914880Y-106549465D01*
X149761995Y-106778273D01*
X149656686Y-107032510D01*
X149603000Y-107302408D01*
X149603000Y-107577592D01*
X149656686Y-107847490D01*
X149761995Y-108101727D01*
X149914880Y-108330535D01*
X150109465Y-108525120D01*
X150338273Y-108678005D01*
X150415515Y-108710000D01*
X150338273Y-108741995D01*
X150109465Y-108894880D01*
X149914880Y-109089465D01*
X149761995Y-109318273D01*
X149656686Y-109572510D01*
X149603000Y-109842408D01*
X149603000Y-110117592D01*
X149656686Y-110387490D01*
X149761995Y-110641727D01*
X149914880Y-110870535D01*
X150109465Y-111065120D01*
X150338273Y-111218005D01*
X150415515Y-111250000D01*
X150338273Y-111281995D01*
X150109465Y-111434880D01*
X149914880Y-111629465D01*
X149761995Y-111858273D01*
X149656686Y-112112510D01*
X149603000Y-112382408D01*
X149603000Y-112657592D01*
X149656686Y-112927490D01*
X149761995Y-113181727D01*
X149914880Y-113410535D01*
X150109465Y-113605120D01*
X150338273Y-113758005D01*
X150415515Y-113790000D01*
X150338273Y-113821995D01*
X150109465Y-113974880D01*
X149914880Y-114169465D01*
X149761995Y-114398273D01*
X149656686Y-114652510D01*
X149603000Y-114922408D01*
X149603000Y-115197592D01*
X149656686Y-115467490D01*
X149761995Y-115721727D01*
X149914880Y-115950535D01*
X150109465Y-116145120D01*
X150338273Y-116298005D01*
X150415515Y-116330000D01*
X150338273Y-116361995D01*
X150109465Y-116514880D01*
X149914880Y-116709465D01*
X149761995Y-116938273D01*
X149656686Y-117192510D01*
X149603000Y-117462408D01*
X149603000Y-117737592D01*
X149656686Y-118007490D01*
X149761995Y-118261727D01*
X149914880Y-118490535D01*
X150109465Y-118685120D01*
X150338273Y-118838005D01*
X150415515Y-118870000D01*
X150338273Y-118901995D01*
X150109465Y-119054880D01*
X149914880Y-119249465D01*
X149761995Y-119478273D01*
X149656686Y-119732510D01*
X149603000Y-120002408D01*
X149603000Y-120277592D01*
X149656686Y-120547490D01*
X149761995Y-120801727D01*
X149914880Y-121030535D01*
X150109465Y-121225120D01*
X150338273Y-121378005D01*
X150415515Y-121410000D01*
X150338273Y-121441995D01*
X150109465Y-121594880D01*
X149914880Y-121789465D01*
X149761995Y-122018273D01*
X149656686Y-122272510D01*
X149603000Y-122542408D01*
X149603000Y-122817592D01*
X149656686Y-123087490D01*
X149761995Y-123341727D01*
X149914880Y-123570535D01*
X150109465Y-123765120D01*
X150338273Y-123918005D01*
X150415515Y-123950000D01*
X150338273Y-123981995D01*
X150109465Y-124134880D01*
X149914880Y-124329465D01*
X149761995Y-124558273D01*
X149656686Y-124812510D01*
X149603000Y-125082408D01*
X149603000Y-125357592D01*
X149656686Y-125627490D01*
X149761995Y-125881727D01*
X149914880Y-126110535D01*
X150109465Y-126305120D01*
X150338273Y-126458005D01*
X150415515Y-126490000D01*
X150338273Y-126521995D01*
X150109465Y-126674880D01*
X149914880Y-126869465D01*
X149761995Y-127098273D01*
X149656686Y-127352510D01*
X149603000Y-127622408D01*
X149603000Y-127897592D01*
X149656686Y-128167490D01*
X149761995Y-128421727D01*
X149914880Y-128650535D01*
X150109465Y-128845120D01*
X150338273Y-128998005D01*
X150415515Y-129030000D01*
X150338273Y-129061995D01*
X150109465Y-129214880D01*
X149914880Y-129409465D01*
X149761995Y-129638273D01*
X149656686Y-129892510D01*
X149603000Y-130162408D01*
X149603000Y-130437592D01*
X149656686Y-130707490D01*
X149761995Y-130961727D01*
X149914880Y-131190535D01*
X150109465Y-131385120D01*
X150338273Y-131538005D01*
X150415515Y-131570000D01*
X150338273Y-131601995D01*
X150109465Y-131754880D01*
X149914880Y-131949465D01*
X149761995Y-132178273D01*
X149656686Y-132432510D01*
X149603000Y-132702408D01*
X149603000Y-132977592D01*
X149656686Y-133247490D01*
X149761995Y-133501727D01*
X149914880Y-133730535D01*
X150109465Y-133925120D01*
X150338273Y-134078005D01*
X150415515Y-134110000D01*
X150338273Y-134141995D01*
X150109465Y-134294880D01*
X149914880Y-134489465D01*
X149761995Y-134718273D01*
X149656686Y-134972510D01*
X149603000Y-135242408D01*
X149603000Y-135517592D01*
X149656686Y-135787490D01*
X149761995Y-136041727D01*
X149914880Y-136270535D01*
X150109465Y-136465120D01*
X150338273Y-136618005D01*
X150415515Y-136650000D01*
X150338273Y-136681995D01*
X150109465Y-136834880D01*
X149914880Y-137029465D01*
X149761995Y-137258273D01*
X149656686Y-137512510D01*
X149603000Y-137782408D01*
X149603000Y-138057592D01*
X149656686Y-138327490D01*
X149761995Y-138581727D01*
X149914880Y-138810535D01*
X150109465Y-139005120D01*
X150338273Y-139158005D01*
X150415515Y-139190000D01*
X150338273Y-139221995D01*
X150109465Y-139374880D01*
X149914880Y-139569465D01*
X149761995Y-139798273D01*
X149656686Y-140052510D01*
X149603000Y-140322408D01*
X149603000Y-140597592D01*
X149656686Y-140867490D01*
X149761995Y-141121727D01*
X149914880Y-141350535D01*
X150109465Y-141545120D01*
X150197465Y-141603920D01*
X150113518Y-141612188D01*
X149993820Y-141648498D01*
X149883506Y-141707463D01*
X149786815Y-141786815D01*
X149707463Y-141883506D01*
X149648498Y-141993820D01*
X149612188Y-142113518D01*
X149599928Y-142238000D01*
X131851005Y-142238000D01*
X131765120Y-142109465D01*
X131570535Y-141914880D01*
X131341727Y-141761995D01*
X131264485Y-141730000D01*
X131341727Y-141698005D01*
X131570535Y-141545120D01*
X131765120Y-141350535D01*
X131918005Y-141121727D01*
X132023314Y-140867490D01*
X132077000Y-140597592D01*
X132077000Y-140322408D01*
X132023314Y-140052510D01*
X131918005Y-139798273D01*
X131765120Y-139569465D01*
X131570535Y-139374880D01*
X131341727Y-139221995D01*
X131264485Y-139190000D01*
X131341727Y-139158005D01*
X131570535Y-139005120D01*
X131765120Y-138810535D01*
X131918005Y-138581727D01*
X132023314Y-138327490D01*
X132077000Y-138057592D01*
X132077000Y-137782408D01*
X132023314Y-137512510D01*
X131918005Y-137258273D01*
X131765120Y-137029465D01*
X131570535Y-136834880D01*
X131341727Y-136681995D01*
X131264485Y-136650000D01*
X131341727Y-136618005D01*
X131570535Y-136465120D01*
X131765120Y-136270535D01*
X131918005Y-136041727D01*
X132023314Y-135787490D01*
X132077000Y-135517592D01*
X132077000Y-135242408D01*
X132023314Y-134972510D01*
X131918005Y-134718273D01*
X131765120Y-134489465D01*
X131570535Y-134294880D01*
X131341727Y-134141995D01*
X131264485Y-134110000D01*
X131341727Y-134078005D01*
X131570535Y-133925120D01*
X131765120Y-133730535D01*
X131918005Y-133501727D01*
X132023314Y-133247490D01*
X132077000Y-132977592D01*
X132077000Y-132702408D01*
X132023314Y-132432510D01*
X131918005Y-132178273D01*
X131765120Y-131949465D01*
X131570535Y-131754880D01*
X131341727Y-131601995D01*
X131264485Y-131570000D01*
X131341727Y-131538005D01*
X131570535Y-131385120D01*
X131765120Y-131190535D01*
X131918005Y-130961727D01*
X132023314Y-130707490D01*
X132077000Y-130437592D01*
X132077000Y-130162408D01*
X132023314Y-129892510D01*
X131918005Y-129638273D01*
X131765120Y-129409465D01*
X131570535Y-129214880D01*
X131341727Y-129061995D01*
X131264485Y-129030000D01*
X131341727Y-128998005D01*
X131570535Y-128845120D01*
X131765120Y-128650535D01*
X131918005Y-128421727D01*
X132023314Y-128167490D01*
X132077000Y-127897592D01*
X132077000Y-127622408D01*
X132023314Y-127352510D01*
X131918005Y-127098273D01*
X131765120Y-126869465D01*
X131570535Y-126674880D01*
X131341727Y-126521995D01*
X131264485Y-126490000D01*
X131341727Y-126458005D01*
X131570535Y-126305120D01*
X131765120Y-126110535D01*
X131918005Y-125881727D01*
X132023314Y-125627490D01*
X132077000Y-125357592D01*
X132077000Y-125082408D01*
X132023314Y-124812510D01*
X131918005Y-124558273D01*
X131765120Y-124329465D01*
X131570535Y-124134880D01*
X131341727Y-123981995D01*
X131264485Y-123950000D01*
X131341727Y-123918005D01*
X131570535Y-123765120D01*
X131765120Y-123570535D01*
X131918005Y-123341727D01*
X132023314Y-123087490D01*
X132077000Y-122817592D01*
X132077000Y-122542408D01*
X132023314Y-122272510D01*
X131918005Y-122018273D01*
X131765120Y-121789465D01*
X131570535Y-121594880D01*
X131341727Y-121441995D01*
X131264485Y-121410000D01*
X131341727Y-121378005D01*
X131570535Y-121225120D01*
X131765120Y-121030535D01*
X131918005Y-120801727D01*
X132023314Y-120547490D01*
X132077000Y-120277592D01*
X132077000Y-120002408D01*
X132023314Y-119732510D01*
X131918005Y-119478273D01*
X131765120Y-119249465D01*
X131570535Y-119054880D01*
X131341727Y-118901995D01*
X131264485Y-118870000D01*
X131341727Y-118838005D01*
X131570535Y-118685120D01*
X131765120Y-118490535D01*
X131918005Y-118261727D01*
X132023314Y-118007490D01*
X132077000Y-117737592D01*
X132077000Y-117462408D01*
X132023314Y-117192510D01*
X131918005Y-116938273D01*
X131765120Y-116709465D01*
X131570535Y-116514880D01*
X131341727Y-116361995D01*
X131270057Y-116332308D01*
X131283023Y-116327636D01*
X131398980Y-116265656D01*
X131465960Y-116025565D01*
X130680000Y-115239605D01*
X129894040Y-116025565D01*
X129961020Y-116265656D01*
X130096760Y-116329485D01*
X130018273Y-116361995D01*
X129789465Y-116514880D01*
X129594880Y-116709465D01*
X129441995Y-116938273D01*
X129336686Y-117192510D01*
X129283000Y-117462408D01*
X125660000Y-117462408D01*
X125660000Y-115132017D01*
X129278090Y-115132017D01*
X129319078Y-115404133D01*
X129412364Y-115663023D01*
X129474344Y-115778980D01*
X129714435Y-115845960D01*
X130500395Y-115060000D01*
X130859605Y-115060000D01*
X131645565Y-115845960D01*
X131885656Y-115778980D01*
X132002756Y-115529952D01*
X132069023Y-115262865D01*
X132081910Y-114987983D01*
X132040922Y-114715867D01*
X131947636Y-114456977D01*
X131885656Y-114341020D01*
X131645565Y-114274040D01*
X130859605Y-115060000D01*
X130500395Y-115060000D01*
X129714435Y-114274040D01*
X129474344Y-114341020D01*
X129357244Y-114590048D01*
X129290977Y-114857135D01*
X129278090Y-115132017D01*
X125660000Y-115132017D01*
X125660000Y-64122408D01*
X129283000Y-64122408D01*
X129283000Y-64397592D01*
X129336686Y-64667490D01*
X129441995Y-64921727D01*
X129594880Y-65150535D01*
X129789465Y-65345120D01*
X130018273Y-65498005D01*
X130095515Y-65530000D01*
X130018273Y-65561995D01*
X129789465Y-65714880D01*
X129594880Y-65909465D01*
X129441995Y-66138273D01*
X129336686Y-66392510D01*
X129283000Y-66662408D01*
X129283000Y-66937592D01*
X129336686Y-67207490D01*
X129441995Y-67461727D01*
X129594880Y-67690535D01*
X129789465Y-67885120D01*
X130018273Y-68038005D01*
X130095515Y-68070000D01*
X130018273Y-68101995D01*
X129789465Y-68254880D01*
X129594880Y-68449465D01*
X129441995Y-68678273D01*
X129336686Y-68932510D01*
X129283000Y-69202408D01*
X129283000Y-69477592D01*
X129336686Y-69747490D01*
X129441995Y-70001727D01*
X129594880Y-70230535D01*
X129789465Y-70425120D01*
X130018273Y-70578005D01*
X130095515Y-70610000D01*
X130018273Y-70641995D01*
X129789465Y-70794880D01*
X129594880Y-70989465D01*
X129441995Y-71218273D01*
X129336686Y-71472510D01*
X129283000Y-71742408D01*
X129283000Y-72017592D01*
X129336686Y-72287490D01*
X129441995Y-72541727D01*
X129594880Y-72770535D01*
X129789465Y-72965120D01*
X130018273Y-73118005D01*
X130095515Y-73150000D01*
X130018273Y-73181995D01*
X129789465Y-73334880D01*
X129594880Y-73529465D01*
X129441995Y-73758273D01*
X129336686Y-74012510D01*
X129283000Y-74282408D01*
X129283000Y-74557592D01*
X129336686Y-74827490D01*
X129441995Y-75081727D01*
X129594880Y-75310535D01*
X129789465Y-75505120D01*
X130018273Y-75658005D01*
X130095515Y-75690000D01*
X130018273Y-75721995D01*
X129789465Y-75874880D01*
X129594880Y-76069465D01*
X129441995Y-76298273D01*
X129336686Y-76552510D01*
X129283000Y-76822408D01*
X129283000Y-77097592D01*
X129336686Y-77367490D01*
X129441995Y-77621727D01*
X129594880Y-77850535D01*
X129789465Y-78045120D01*
X130018273Y-78198005D01*
X130095515Y-78230000D01*
X130018273Y-78261995D01*
X129789465Y-78414880D01*
X129594880Y-78609465D01*
X129441995Y-78838273D01*
X129336686Y-79092510D01*
X129283000Y-79362408D01*
X129283000Y-79637592D01*
X129336686Y-79907490D01*
X129441995Y-80161727D01*
X129594880Y-80390535D01*
X129789465Y-80585120D01*
X130018273Y-80738005D01*
X130095515Y-80770000D01*
X130018273Y-80801995D01*
X129789465Y-80954880D01*
X129594880Y-81149465D01*
X129441995Y-81378273D01*
X129336686Y-81632510D01*
X129283000Y-81902408D01*
X129283000Y-82177592D01*
X129336686Y-82447490D01*
X129441995Y-82701727D01*
X129594880Y-82930535D01*
X129789465Y-83125120D01*
X130018273Y-83278005D01*
X130095515Y-83310000D01*
X130018273Y-83341995D01*
X129789465Y-83494880D01*
X129594880Y-83689465D01*
X129441995Y-83918273D01*
X129336686Y-84172510D01*
X129283000Y-84442408D01*
X129283000Y-84717592D01*
X129336686Y-84987490D01*
X129441995Y-85241727D01*
X129594880Y-85470535D01*
X129789465Y-85665120D01*
X130018273Y-85818005D01*
X130095515Y-85850000D01*
X130018273Y-85881995D01*
X129789465Y-86034880D01*
X129594880Y-86229465D01*
X129441995Y-86458273D01*
X129336686Y-86712510D01*
X129283000Y-86982408D01*
X129283000Y-87257592D01*
X129336686Y-87527490D01*
X129441995Y-87781727D01*
X129594880Y-88010535D01*
X129789465Y-88205120D01*
X130018273Y-88358005D01*
X130095515Y-88390000D01*
X130018273Y-88421995D01*
X129789465Y-88574880D01*
X129594880Y-88769465D01*
X129441995Y-88998273D01*
X129336686Y-89252510D01*
X129283000Y-89522408D01*
X129283000Y-89797592D01*
X129336686Y-90067490D01*
X129441995Y-90321727D01*
X129594880Y-90550535D01*
X129789465Y-90745120D01*
X130018273Y-90898005D01*
X130095515Y-90930000D01*
X130018273Y-90961995D01*
X129789465Y-91114880D01*
X129594880Y-91309465D01*
X129441995Y-91538273D01*
X129336686Y-91792510D01*
X129283000Y-92062408D01*
X129283000Y-92337592D01*
X129336686Y-92607490D01*
X129441995Y-92861727D01*
X129594880Y-93090535D01*
X129789465Y-93285120D01*
X130018273Y-93438005D01*
X130095515Y-93470000D01*
X130018273Y-93501995D01*
X129789465Y-93654880D01*
X129594880Y-93849465D01*
X129441995Y-94078273D01*
X129336686Y-94332510D01*
X129283000Y-94602408D01*
X129283000Y-94877592D01*
X129336686Y-95147490D01*
X129441995Y-95401727D01*
X129594880Y-95630535D01*
X129789465Y-95825120D01*
X130018273Y-95978005D01*
X130095515Y-96010000D01*
X130018273Y-96041995D01*
X129789465Y-96194880D01*
X129594880Y-96389465D01*
X129441995Y-96618273D01*
X129336686Y-96872510D01*
X129283000Y-97142408D01*
X129283000Y-97417592D01*
X129336686Y-97687490D01*
X129441995Y-97941727D01*
X129594880Y-98170535D01*
X129789465Y-98365120D01*
X130018273Y-98518005D01*
X130095515Y-98550000D01*
X130018273Y-98581995D01*
X129789465Y-98734880D01*
X129594880Y-98929465D01*
X129441995Y-99158273D01*
X129336686Y-99412510D01*
X129283000Y-99682408D01*
X129283000Y-99957592D01*
X129336686Y-100227490D01*
X129441995Y-100481727D01*
X129594880Y-100710535D01*
X129789465Y-100905120D01*
X130018273Y-101058005D01*
X130095515Y-101090000D01*
X130018273Y-101121995D01*
X129789465Y-101274880D01*
X129594880Y-101469465D01*
X129441995Y-101698273D01*
X129336686Y-101952510D01*
X129283000Y-102222408D01*
X129283000Y-102497592D01*
X129336686Y-102767490D01*
X129441995Y-103021727D01*
X129594880Y-103250535D01*
X129789465Y-103445120D01*
X130018273Y-103598005D01*
X130095515Y-103630000D01*
X130018273Y-103661995D01*
X129789465Y-103814880D01*
X129594880Y-104009465D01*
X129441995Y-104238273D01*
X129336686Y-104492510D01*
X129283000Y-104762408D01*
X129283000Y-105037592D01*
X129336686Y-105307490D01*
X129441995Y-105561727D01*
X129594880Y-105790535D01*
X129789465Y-105985120D01*
X130018273Y-106138005D01*
X130095515Y-106170000D01*
X130018273Y-106201995D01*
X129789465Y-106354880D01*
X129594880Y-106549465D01*
X129441995Y-106778273D01*
X129336686Y-107032510D01*
X129283000Y-107302408D01*
X129283000Y-107577592D01*
X129336686Y-107847490D01*
X129441995Y-108101727D01*
X129594880Y-108330535D01*
X129789465Y-108525120D01*
X130018273Y-108678005D01*
X130095515Y-108710000D01*
X130018273Y-108741995D01*
X129789465Y-108894880D01*
X129594880Y-109089465D01*
X129441995Y-109318273D01*
X129336686Y-109572510D01*
X129283000Y-109842408D01*
X129283000Y-110117592D01*
X129336686Y-110387490D01*
X129441995Y-110641727D01*
X129594880Y-110870535D01*
X129789465Y-111065120D01*
X130018273Y-111218005D01*
X130095515Y-111250000D01*
X130018273Y-111281995D01*
X129789465Y-111434880D01*
X129594880Y-111629465D01*
X129441995Y-111858273D01*
X129336686Y-112112510D01*
X129283000Y-112382408D01*
X129283000Y-112657592D01*
X129336686Y-112927490D01*
X129441995Y-113181727D01*
X129594880Y-113410535D01*
X129789465Y-113605120D01*
X130018273Y-113758005D01*
X130089943Y-113787692D01*
X130076977Y-113792364D01*
X129961020Y-113854344D01*
X129894040Y-114094435D01*
X130680000Y-114880395D01*
X131465960Y-114094435D01*
X131398980Y-113854344D01*
X131263240Y-113790515D01*
X131341727Y-113758005D01*
X131570535Y-113605120D01*
X131765120Y-113410535D01*
X131918005Y-113181727D01*
X132023314Y-112927490D01*
X132077000Y-112657592D01*
X132077000Y-112382408D01*
X132023314Y-112112510D01*
X131918005Y-111858273D01*
X131765120Y-111629465D01*
X131570535Y-111434880D01*
X131341727Y-111281995D01*
X131264485Y-111250000D01*
X131341727Y-111218005D01*
X131570535Y-111065120D01*
X131765120Y-110870535D01*
X131918005Y-110641727D01*
X132023314Y-110387490D01*
X132077000Y-110117592D01*
X132077000Y-109842408D01*
X132023314Y-109572510D01*
X131918005Y-109318273D01*
X131765120Y-109089465D01*
X131570535Y-108894880D01*
X131341727Y-108741995D01*
X131264485Y-108710000D01*
X131341727Y-108678005D01*
X131570535Y-108525120D01*
X131765120Y-108330535D01*
X131918005Y-108101727D01*
X132023314Y-107847490D01*
X132077000Y-107577592D01*
X132077000Y-107302408D01*
X132023314Y-107032510D01*
X131918005Y-106778273D01*
X131765120Y-106549465D01*
X131570535Y-106354880D01*
X131341727Y-106201995D01*
X131264485Y-106170000D01*
X131341727Y-106138005D01*
X131570535Y-105985120D01*
X131765120Y-105790535D01*
X131918005Y-105561727D01*
X132023314Y-105307490D01*
X132077000Y-105037592D01*
X132077000Y-104762408D01*
X132023314Y-104492510D01*
X131918005Y-104238273D01*
X131765120Y-104009465D01*
X131570535Y-103814880D01*
X131341727Y-103661995D01*
X131264485Y-103630000D01*
X131341727Y-103598005D01*
X131570535Y-103445120D01*
X131765120Y-103250535D01*
X131918005Y-103021727D01*
X132023314Y-102767490D01*
X132077000Y-102497592D01*
X132077000Y-102222408D01*
X132023314Y-101952510D01*
X131918005Y-101698273D01*
X131765120Y-101469465D01*
X131570535Y-101274880D01*
X131341727Y-101121995D01*
X131264485Y-101090000D01*
X131341727Y-101058005D01*
X131570535Y-100905120D01*
X131765120Y-100710535D01*
X131918005Y-100481727D01*
X132023314Y-100227490D01*
X132077000Y-99957592D01*
X132077000Y-99682408D01*
X132023314Y-99412510D01*
X131918005Y-99158273D01*
X131765120Y-98929465D01*
X131570535Y-98734880D01*
X131341727Y-98581995D01*
X131264485Y-98550000D01*
X131341727Y-98518005D01*
X131570535Y-98365120D01*
X131765120Y-98170535D01*
X131918005Y-97941727D01*
X132023314Y-97687490D01*
X132077000Y-97417592D01*
X132077000Y-97142408D01*
X132023314Y-96872510D01*
X131918005Y-96618273D01*
X131765120Y-96389465D01*
X131570535Y-96194880D01*
X131341727Y-96041995D01*
X131264485Y-96010000D01*
X131341727Y-95978005D01*
X131570535Y-95825120D01*
X131765120Y-95630535D01*
X131918005Y-95401727D01*
X132023314Y-95147490D01*
X132077000Y-94877592D01*
X132077000Y-94602408D01*
X132023314Y-94332510D01*
X131918005Y-94078273D01*
X131765120Y-93849465D01*
X131570535Y-93654880D01*
X131341727Y-93501995D01*
X131264485Y-93470000D01*
X131341727Y-93438005D01*
X131570535Y-93285120D01*
X131765120Y-93090535D01*
X131918005Y-92861727D01*
X132023314Y-92607490D01*
X132077000Y-92337592D01*
X132077000Y-92062408D01*
X132023314Y-91792510D01*
X131918005Y-91538273D01*
X131765120Y-91309465D01*
X131570535Y-91114880D01*
X131341727Y-90961995D01*
X131264485Y-90930000D01*
X131341727Y-90898005D01*
X131570535Y-90745120D01*
X131765120Y-90550535D01*
X131918005Y-90321727D01*
X132023314Y-90067490D01*
X132077000Y-89797592D01*
X132077000Y-89522408D01*
X132023314Y-89252510D01*
X131918005Y-88998273D01*
X131765120Y-88769465D01*
X131570535Y-88574880D01*
X131341727Y-88421995D01*
X131264485Y-88390000D01*
X131341727Y-88358005D01*
X131570535Y-88205120D01*
X131765120Y-88010535D01*
X131918005Y-87781727D01*
X132023314Y-87527490D01*
X132077000Y-87257592D01*
X132077000Y-86982408D01*
X132023314Y-86712510D01*
X131918005Y-86458273D01*
X131765120Y-86229465D01*
X131600616Y-86064961D01*
X136381100Y-86064961D01*
X136381100Y-86268839D01*
X136420874Y-86468798D01*
X136498895Y-86657156D01*
X136612163Y-86826674D01*
X136656101Y-86870612D01*
X136656100Y-118154458D01*
X136649895Y-118163744D01*
X136571874Y-118352102D01*
X136532100Y-118552061D01*
X136532100Y-118755939D01*
X136571874Y-118955898D01*
X136649895Y-119144256D01*
X136763163Y-119313774D01*
X136907326Y-119457937D01*
X137076844Y-119571205D01*
X137265202Y-119649226D01*
X137465161Y-119689000D01*
X137669039Y-119689000D01*
X137868998Y-119649226D01*
X138057356Y-119571205D01*
X138226874Y-119457937D01*
X138371037Y-119313774D01*
X138484305Y-119144256D01*
X138562326Y-118955898D01*
X138602100Y-118755939D01*
X138602100Y-118552061D01*
X138562326Y-118352102D01*
X138484305Y-118163744D01*
X138371037Y-117994226D01*
X138226874Y-117850063D01*
X138176100Y-117816137D01*
X138176100Y-104972017D01*
X149598090Y-104972017D01*
X149639078Y-105244133D01*
X149732364Y-105503023D01*
X149794344Y-105618980D01*
X150034435Y-105685960D01*
X150820395Y-104900000D01*
X151179605Y-104900000D01*
X151965565Y-105685960D01*
X152205656Y-105618980D01*
X152322756Y-105369952D01*
X152389023Y-105102865D01*
X152401910Y-104827983D01*
X152360922Y-104555867D01*
X152267636Y-104296977D01*
X152205656Y-104181020D01*
X151965565Y-104114040D01*
X151179605Y-104900000D01*
X150820395Y-104900000D01*
X150034435Y-104114040D01*
X149794344Y-104181020D01*
X149677244Y-104430048D01*
X149610977Y-104697135D01*
X149598090Y-104972017D01*
X138176100Y-104972017D01*
X138176100Y-86870611D01*
X138220037Y-86826674D01*
X138333305Y-86657156D01*
X138411326Y-86468798D01*
X138451100Y-86268839D01*
X138451100Y-86064961D01*
X138411326Y-85865002D01*
X138333305Y-85676644D01*
X138220037Y-85507126D01*
X138075874Y-85362963D01*
X137906356Y-85249695D01*
X137717998Y-85171674D01*
X137518039Y-85131900D01*
X137314161Y-85131900D01*
X137114202Y-85171674D01*
X136925844Y-85249695D01*
X136756326Y-85362963D01*
X136612163Y-85507126D01*
X136498895Y-85676644D01*
X136420874Y-85865002D01*
X136381100Y-86064961D01*
X131600616Y-86064961D01*
X131570535Y-86034880D01*
X131341727Y-85881995D01*
X131264485Y-85850000D01*
X131341727Y-85818005D01*
X131570535Y-85665120D01*
X131765120Y-85470535D01*
X131918005Y-85241727D01*
X132023314Y-84987490D01*
X132077000Y-84717592D01*
X132077000Y-84442408D01*
X132023314Y-84172510D01*
X131918005Y-83918273D01*
X131765120Y-83689465D01*
X131570535Y-83494880D01*
X131341727Y-83341995D01*
X131264485Y-83310000D01*
X131341727Y-83278005D01*
X131570535Y-83125120D01*
X131765120Y-82930535D01*
X131918005Y-82701727D01*
X132023314Y-82447490D01*
X132077000Y-82177592D01*
X132077000Y-81902408D01*
X132023314Y-81632510D01*
X131918005Y-81378273D01*
X131765120Y-81149465D01*
X131570535Y-80954880D01*
X131341727Y-80801995D01*
X131264485Y-80770000D01*
X131341727Y-80738005D01*
X131570535Y-80585120D01*
X131765120Y-80390535D01*
X131918005Y-80161727D01*
X132023314Y-79907490D01*
X132077000Y-79637592D01*
X132077000Y-79362408D01*
X132023314Y-79092510D01*
X131918005Y-78838273D01*
X131765120Y-78609465D01*
X131570535Y-78414880D01*
X131341727Y-78261995D01*
X131264485Y-78230000D01*
X131341727Y-78198005D01*
X131570535Y-78045120D01*
X131765120Y-77850535D01*
X131918005Y-77621727D01*
X132023314Y-77367490D01*
X132077000Y-77097592D01*
X132077000Y-76822408D01*
X132023314Y-76552510D01*
X131918005Y-76298273D01*
X131765120Y-76069465D01*
X131570535Y-75874880D01*
X131341727Y-75721995D01*
X131264485Y-75690000D01*
X131341727Y-75658005D01*
X131570535Y-75505120D01*
X131765120Y-75310535D01*
X131918005Y-75081727D01*
X132023314Y-74827490D01*
X132077000Y-74557592D01*
X132077000Y-74282408D01*
X132023314Y-74012510D01*
X131918005Y-73758273D01*
X131765120Y-73529465D01*
X131570535Y-73334880D01*
X131341727Y-73181995D01*
X131264485Y-73150000D01*
X131341727Y-73118005D01*
X131570535Y-72965120D01*
X131765120Y-72770535D01*
X131918005Y-72541727D01*
X132023314Y-72287490D01*
X132077000Y-72017592D01*
X132077000Y-71742408D01*
X132023314Y-71472510D01*
X131918005Y-71218273D01*
X131765120Y-70989465D01*
X131570535Y-70794880D01*
X131341727Y-70641995D01*
X131264485Y-70610000D01*
X131341727Y-70578005D01*
X131570535Y-70425120D01*
X131765120Y-70230535D01*
X131918005Y-70001727D01*
X132023314Y-69747490D01*
X132077000Y-69477592D01*
X132077000Y-69202408D01*
X132023314Y-68932510D01*
X131918005Y-68678273D01*
X131765120Y-68449465D01*
X131570535Y-68254880D01*
X131341727Y-68101995D01*
X131264485Y-68070000D01*
X131341727Y-68038005D01*
X131570535Y-67885120D01*
X131765120Y-67690535D01*
X131918005Y-67461727D01*
X132023314Y-67207490D01*
X132077000Y-66937592D01*
X132077000Y-66662408D01*
X132023314Y-66392510D01*
X131918005Y-66138273D01*
X131765120Y-65909465D01*
X131570535Y-65714880D01*
X131341727Y-65561995D01*
X131264485Y-65530000D01*
X131341727Y-65498005D01*
X131570535Y-65345120D01*
X131765120Y-65150535D01*
X131918005Y-64921727D01*
X132023314Y-64667490D01*
X132077000Y-64397592D01*
X132077000Y-64122408D01*
X149603000Y-64122408D01*
X149603000Y-64397592D01*
X149656686Y-64667490D01*
X149761995Y-64921727D01*
X149914880Y-65150535D01*
X150109465Y-65345120D01*
X150338273Y-65498005D01*
X150415515Y-65530000D01*
X150338273Y-65561995D01*
X150109465Y-65714880D01*
X149914880Y-65909465D01*
X149761995Y-66138273D01*
X149656686Y-66392510D01*
X149603000Y-66662408D01*
X149603000Y-66937592D01*
X149656686Y-67207490D01*
X149761995Y-67461727D01*
X149914880Y-67690535D01*
X150109465Y-67885120D01*
X150338273Y-68038005D01*
X150415515Y-68070000D01*
X150338273Y-68101995D01*
X150109465Y-68254880D01*
X149914880Y-68449465D01*
X149761995Y-68678273D01*
X149656686Y-68932510D01*
X149603000Y-69202408D01*
X149603000Y-69477592D01*
X149656686Y-69747490D01*
X149761995Y-70001727D01*
X149914880Y-70230535D01*
X150109465Y-70425120D01*
X150338273Y-70578005D01*
X150415515Y-70610000D01*
X150338273Y-70641995D01*
X150109465Y-70794880D01*
X149914880Y-70989465D01*
X149761995Y-71218273D01*
X149656686Y-71472510D01*
X149603000Y-71742408D01*
X149603000Y-72017592D01*
X149656686Y-72287490D01*
X149761995Y-72541727D01*
X149914880Y-72770535D01*
X150109465Y-72965120D01*
X150338273Y-73118005D01*
X150415515Y-73150000D01*
X150338273Y-73181995D01*
X150109465Y-73334880D01*
X149914880Y-73529465D01*
X149761995Y-73758273D01*
X149656686Y-74012510D01*
X149603000Y-74282408D01*
X149603000Y-74557592D01*
X149656686Y-74827490D01*
X149761995Y-75081727D01*
X149914880Y-75310535D01*
X150109465Y-75505120D01*
X150338273Y-75658005D01*
X150415515Y-75690000D01*
X150338273Y-75721995D01*
X150109465Y-75874880D01*
X149914880Y-76069465D01*
X149761995Y-76298273D01*
X149656686Y-76552510D01*
X149603000Y-76822408D01*
X149603000Y-77097592D01*
X149656686Y-77367490D01*
X149761995Y-77621727D01*
X149914880Y-77850535D01*
X150109465Y-78045120D01*
X150338273Y-78198005D01*
X150415515Y-78230000D01*
X150338273Y-78261995D01*
X150109465Y-78414880D01*
X149914880Y-78609465D01*
X149761995Y-78838273D01*
X149656686Y-79092510D01*
X149603000Y-79362408D01*
X149603000Y-79637592D01*
X149656686Y-79907490D01*
X149761995Y-80161727D01*
X149914880Y-80390535D01*
X150109465Y-80585120D01*
X150338273Y-80738005D01*
X150415515Y-80770000D01*
X150338273Y-80801995D01*
X150109465Y-80954880D01*
X149914880Y-81149465D01*
X149761995Y-81378273D01*
X149656686Y-81632510D01*
X149603000Y-81902408D01*
X149603000Y-82177592D01*
X149656686Y-82447490D01*
X149761995Y-82701727D01*
X149914880Y-82930535D01*
X150109465Y-83125120D01*
X150338273Y-83278005D01*
X150415515Y-83310000D01*
X150338273Y-83341995D01*
X150109465Y-83494880D01*
X149914880Y-83689465D01*
X149761995Y-83918273D01*
X149656686Y-84172510D01*
X149603000Y-84442408D01*
X149603000Y-84717592D01*
X149656686Y-84987490D01*
X149761995Y-85241727D01*
X149914880Y-85470535D01*
X150109465Y-85665120D01*
X150338273Y-85818005D01*
X150415515Y-85850000D01*
X150338273Y-85881995D01*
X150109465Y-86034880D01*
X149914880Y-86229465D01*
X149761995Y-86458273D01*
X149656686Y-86712510D01*
X149603000Y-86982408D01*
X149603000Y-87257592D01*
X149656686Y-87527490D01*
X149761995Y-87781727D01*
X149914880Y-88010535D01*
X150109465Y-88205120D01*
X150338273Y-88358005D01*
X150415515Y-88390000D01*
X150338273Y-88421995D01*
X150109465Y-88574880D01*
X149914880Y-88769465D01*
X149761995Y-88998273D01*
X149656686Y-89252510D01*
X149603000Y-89522408D01*
X149603000Y-89797592D01*
X149656686Y-90067490D01*
X149761995Y-90321727D01*
X149914880Y-90550535D01*
X150109465Y-90745120D01*
X150338273Y-90898005D01*
X150415515Y-90930000D01*
X150338273Y-90961995D01*
X150109465Y-91114880D01*
X149914880Y-91309465D01*
X149761995Y-91538273D01*
X149656686Y-91792510D01*
X149603000Y-92062408D01*
X149603000Y-92337592D01*
X149656686Y-92607490D01*
X149761995Y-92861727D01*
X149914880Y-93090535D01*
X150109465Y-93285120D01*
X150338273Y-93438005D01*
X150415515Y-93470000D01*
X150338273Y-93501995D01*
X150109465Y-93654880D01*
X149914880Y-93849465D01*
X149761995Y-94078273D01*
X149656686Y-94332510D01*
X149603000Y-94602408D01*
X149603000Y-94877592D01*
X149656686Y-95147490D01*
X149761995Y-95401727D01*
X149914880Y-95630535D01*
X150109465Y-95825120D01*
X150338273Y-95978005D01*
X150415515Y-96010000D01*
X150338273Y-96041995D01*
X150109465Y-96194880D01*
X149914880Y-96389465D01*
X149761995Y-96618273D01*
X149656686Y-96872510D01*
X149603000Y-97142408D01*
X149603000Y-97417592D01*
X149656686Y-97687490D01*
X149761995Y-97941727D01*
X149914880Y-98170535D01*
X150109465Y-98365120D01*
X150338273Y-98518005D01*
X150415515Y-98550000D01*
X150338273Y-98581995D01*
X150109465Y-98734880D01*
X149914880Y-98929465D01*
X149761995Y-99158273D01*
X149656686Y-99412510D01*
X149603000Y-99682408D01*
X149603000Y-99957592D01*
X149656686Y-100227490D01*
X149761995Y-100481727D01*
X149914880Y-100710535D01*
X150109465Y-100905120D01*
X150338273Y-101058005D01*
X150415515Y-101090000D01*
X150338273Y-101121995D01*
X150109465Y-101274880D01*
X149914880Y-101469465D01*
X149761995Y-101698273D01*
X149656686Y-101952510D01*
X149603000Y-102222408D01*
X149603000Y-102497592D01*
X149656686Y-102767490D01*
X149761995Y-103021727D01*
X149914880Y-103250535D01*
X150109465Y-103445120D01*
X150338273Y-103598005D01*
X150409943Y-103627692D01*
X150396977Y-103632364D01*
X150281020Y-103694344D01*
X150214040Y-103934435D01*
X151000000Y-104720395D01*
X151785960Y-103934435D01*
X151718980Y-103694344D01*
X151583240Y-103630515D01*
X151661727Y-103598005D01*
X151890535Y-103445120D01*
X152085120Y-103250535D01*
X152238005Y-103021727D01*
X152343314Y-102767490D01*
X152397000Y-102497592D01*
X152397000Y-102222408D01*
X152343314Y-101952510D01*
X152238005Y-101698273D01*
X152085120Y-101469465D01*
X151890535Y-101274880D01*
X151661727Y-101121995D01*
X151584485Y-101090000D01*
X151661727Y-101058005D01*
X151890535Y-100905120D01*
X152085120Y-100710535D01*
X152238005Y-100481727D01*
X152343314Y-100227490D01*
X152397000Y-99957592D01*
X152397000Y-99682408D01*
X152343314Y-99412510D01*
X152238005Y-99158273D01*
X152085120Y-98929465D01*
X151890535Y-98734880D01*
X151661727Y-98581995D01*
X151584485Y-98550000D01*
X151661727Y-98518005D01*
X151890535Y-98365120D01*
X152085120Y-98170535D01*
X152238005Y-97941727D01*
X152343314Y-97687490D01*
X152397000Y-97417592D01*
X152397000Y-97142408D01*
X152343314Y-96872510D01*
X152238005Y-96618273D01*
X152085120Y-96389465D01*
X151890535Y-96194880D01*
X151661727Y-96041995D01*
X151584485Y-96010000D01*
X151661727Y-95978005D01*
X151890535Y-95825120D01*
X152085120Y-95630535D01*
X152238005Y-95401727D01*
X152343314Y-95147490D01*
X152397000Y-94877592D01*
X152397000Y-94602408D01*
X152343314Y-94332510D01*
X152238005Y-94078273D01*
X152085120Y-93849465D01*
X151890535Y-93654880D01*
X151661727Y-93501995D01*
X151584485Y-93470000D01*
X151661727Y-93438005D01*
X151890535Y-93285120D01*
X152085120Y-93090535D01*
X152238005Y-92861727D01*
X152343314Y-92607490D01*
X152397000Y-92337592D01*
X152397000Y-92062408D01*
X152343314Y-91792510D01*
X152238005Y-91538273D01*
X152085120Y-91309465D01*
X151890535Y-91114880D01*
X151661727Y-90961995D01*
X151584485Y-90930000D01*
X151661727Y-90898005D01*
X151890535Y-90745120D01*
X152085120Y-90550535D01*
X152238005Y-90321727D01*
X152343314Y-90067490D01*
X152397000Y-89797592D01*
X152397000Y-89522408D01*
X152343314Y-89252510D01*
X152238005Y-88998273D01*
X152085120Y-88769465D01*
X151890535Y-88574880D01*
X151661727Y-88421995D01*
X151584485Y-88390000D01*
X151661727Y-88358005D01*
X151890535Y-88205120D01*
X152085120Y-88010535D01*
X152238005Y-87781727D01*
X152343314Y-87527490D01*
X152397000Y-87257592D01*
X152397000Y-86982408D01*
X152343314Y-86712510D01*
X152238005Y-86458273D01*
X152085120Y-86229465D01*
X151890535Y-86034880D01*
X151661727Y-85881995D01*
X151584485Y-85850000D01*
X151661727Y-85818005D01*
X151890535Y-85665120D01*
X152085120Y-85470535D01*
X152238005Y-85241727D01*
X152343314Y-84987490D01*
X152397000Y-84717592D01*
X152397000Y-84442408D01*
X152343314Y-84172510D01*
X152238005Y-83918273D01*
X152085120Y-83689465D01*
X151890535Y-83494880D01*
X151661727Y-83341995D01*
X151584485Y-83310000D01*
X151661727Y-83278005D01*
X151890535Y-83125120D01*
X152085120Y-82930535D01*
X152238005Y-82701727D01*
X152343314Y-82447490D01*
X152397000Y-82177592D01*
X152397000Y-81902408D01*
X152343314Y-81632510D01*
X152238005Y-81378273D01*
X152085120Y-81149465D01*
X151890535Y-80954880D01*
X151661727Y-80801995D01*
X151584485Y-80770000D01*
X151661727Y-80738005D01*
X151890535Y-80585120D01*
X152085120Y-80390535D01*
X152238005Y-80161727D01*
X152343314Y-79907490D01*
X152397000Y-79637592D01*
X152397000Y-79362408D01*
X152343314Y-79092510D01*
X152238005Y-78838273D01*
X152085120Y-78609465D01*
X151890535Y-78414880D01*
X151661727Y-78261995D01*
X151584485Y-78230000D01*
X151661727Y-78198005D01*
X151890535Y-78045120D01*
X152085120Y-77850535D01*
X152238005Y-77621727D01*
X152343314Y-77367490D01*
X152397000Y-77097592D01*
X152397000Y-76822408D01*
X152343314Y-76552510D01*
X152238005Y-76298273D01*
X152085120Y-76069465D01*
X151890535Y-75874880D01*
X151661727Y-75721995D01*
X151584485Y-75690000D01*
X151661727Y-75658005D01*
X151890535Y-75505120D01*
X152085120Y-75310535D01*
X152238005Y-75081727D01*
X152343314Y-74827490D01*
X152397000Y-74557592D01*
X152397000Y-74282408D01*
X152343314Y-74012510D01*
X152238005Y-73758273D01*
X152085120Y-73529465D01*
X151890535Y-73334880D01*
X151661727Y-73181995D01*
X151584485Y-73150000D01*
X151661727Y-73118005D01*
X151890535Y-72965120D01*
X152085120Y-72770535D01*
X152238005Y-72541727D01*
X152343314Y-72287490D01*
X152397000Y-72017592D01*
X152397000Y-71742408D01*
X152343314Y-71472510D01*
X152238005Y-71218273D01*
X152085120Y-70989465D01*
X151890535Y-70794880D01*
X151661727Y-70641995D01*
X151584485Y-70610000D01*
X151661727Y-70578005D01*
X151890535Y-70425120D01*
X152085120Y-70230535D01*
X152238005Y-70001727D01*
X152343314Y-69747490D01*
X152397000Y-69477592D01*
X152397000Y-69202408D01*
X152343314Y-68932510D01*
X152238005Y-68678273D01*
X152085120Y-68449465D01*
X151890535Y-68254880D01*
X151661727Y-68101995D01*
X151584485Y-68070000D01*
X151661727Y-68038005D01*
X151890535Y-67885120D01*
X152085120Y-67690535D01*
X152238005Y-67461727D01*
X152343314Y-67207490D01*
X152397000Y-66937592D01*
X152397000Y-66662408D01*
X152343314Y-66392510D01*
X152238005Y-66138273D01*
X152085120Y-65909465D01*
X151890535Y-65714880D01*
X151661727Y-65561995D01*
X151584485Y-65530000D01*
X151661727Y-65498005D01*
X151890535Y-65345120D01*
X152085120Y-65150535D01*
X152238005Y-64921727D01*
X152343314Y-64667490D01*
X152397000Y-64397592D01*
X152397000Y-64122408D01*
X152343314Y-63852510D01*
X152238005Y-63598273D01*
X152085120Y-63369465D01*
X151890535Y-63174880D01*
X151661727Y-63021995D01*
X151407490Y-62916686D01*
X151137592Y-62863000D01*
X150862408Y-62863000D01*
X150592510Y-62916686D01*
X150338273Y-63021995D01*
X150109465Y-63174880D01*
X149914880Y-63369465D01*
X149761995Y-63598273D01*
X149656686Y-63852510D01*
X149603000Y-64122408D01*
X132077000Y-64122408D01*
X132023314Y-63852510D01*
X131918005Y-63598273D01*
X131765120Y-63369465D01*
X131570535Y-63174880D01*
X131341727Y-63021995D01*
X131087490Y-62916686D01*
X130817592Y-62863000D01*
X130542408Y-62863000D01*
X130272510Y-62916686D01*
X130018273Y-63021995D01*
X129789465Y-63174880D01*
X129594880Y-63369465D01*
X129441995Y-63598273D01*
X129336686Y-63852510D01*
X129283000Y-64122408D01*
X125660000Y-64122408D01*
X125660000Y-56898061D01*
X126965000Y-56898061D01*
X126965000Y-57101939D01*
X127004774Y-57301898D01*
X127082795Y-57490256D01*
X127196063Y-57659774D01*
X127340226Y-57803937D01*
X127509744Y-57917205D01*
X127698102Y-57995226D01*
X127898061Y-58035000D01*
X128101939Y-58035000D01*
X128216482Y-58012216D01*
X128286595Y-58143387D01*
X128397038Y-58277962D01*
X128531613Y-58388405D01*
X128685149Y-58470472D01*
X128851745Y-58521008D01*
X129024999Y-58538072D01*
X129850001Y-58538072D01*
X130023255Y-58521008D01*
X130189851Y-58470472D01*
X130343387Y-58388405D01*
X130477962Y-58277962D01*
X130588405Y-58143387D01*
X130670472Y-57989851D01*
X130697727Y-57900000D01*
X131261928Y-57900000D01*
X131274188Y-58024482D01*
X131310498Y-58144180D01*
X131369463Y-58254494D01*
X131448815Y-58351185D01*
X131545506Y-58430537D01*
X131655820Y-58489502D01*
X131775518Y-58525812D01*
X131900000Y-58538072D01*
X132276750Y-58535000D01*
X132435500Y-58376250D01*
X132435500Y-57127000D01*
X132689500Y-57127000D01*
X132689500Y-58376250D01*
X132848250Y-58535000D01*
X133225000Y-58538072D01*
X133349482Y-58525812D01*
X133469180Y-58489502D01*
X133579494Y-58430537D01*
X133676185Y-58351185D01*
X133755537Y-58254494D01*
X133814502Y-58144180D01*
X133850812Y-58024482D01*
X133863072Y-57900000D01*
X133860000Y-57285750D01*
X133724250Y-57150000D01*
X135511928Y-57150000D01*
X135511928Y-58850000D01*
X135524188Y-58974482D01*
X135560498Y-59094180D01*
X135619463Y-59204494D01*
X135698815Y-59301185D01*
X135795506Y-59380537D01*
X135905820Y-59439502D01*
X136025518Y-59475812D01*
X136150000Y-59488072D01*
X137850000Y-59488072D01*
X137974482Y-59475812D01*
X138094180Y-59439502D01*
X138204494Y-59380537D01*
X138301185Y-59301185D01*
X138380537Y-59204494D01*
X138439502Y-59094180D01*
X138463966Y-59013534D01*
X138539731Y-59097588D01*
X138773080Y-59271641D01*
X139035901Y-59396825D01*
X139183110Y-59441476D01*
X139413000Y-59320155D01*
X139413000Y-58127000D01*
X139667000Y-58127000D01*
X139667000Y-59320155D01*
X139896890Y-59441476D01*
X140044099Y-59396825D01*
X140306920Y-59271641D01*
X140540269Y-59097588D01*
X140735178Y-58881355D01*
X140810000Y-58755745D01*
X140884822Y-58881355D01*
X141079731Y-59097588D01*
X141313080Y-59271641D01*
X141575901Y-59396825D01*
X141723110Y-59441476D01*
X141953000Y-59320155D01*
X141953000Y-58127000D01*
X139667000Y-58127000D01*
X139413000Y-58127000D01*
X139393000Y-58127000D01*
X139393000Y-57873000D01*
X139413000Y-57873000D01*
X139413000Y-56679845D01*
X139667000Y-56679845D01*
X139667000Y-57873000D01*
X141953000Y-57873000D01*
X141953000Y-56679845D01*
X142207000Y-56679845D01*
X142207000Y-57873000D01*
X142227000Y-57873000D01*
X142227000Y-58127000D01*
X142207000Y-58127000D01*
X142207000Y-59320155D01*
X142436890Y-59441476D01*
X142584099Y-59396825D01*
X142846920Y-59271641D01*
X143080269Y-59097588D01*
X143275178Y-58881355D01*
X143344805Y-58764466D01*
X143466525Y-58946632D01*
X143673368Y-59153475D01*
X143916589Y-59315990D01*
X144186842Y-59427932D01*
X144473740Y-59485000D01*
X144766260Y-59485000D01*
X145053158Y-59427932D01*
X145323411Y-59315990D01*
X145566632Y-59153475D01*
X145773475Y-58946632D01*
X145935990Y-58703411D01*
X146047932Y-58433158D01*
X146105000Y-58146260D01*
X146105000Y-57853740D01*
X146047932Y-57566842D01*
X145935990Y-57296589D01*
X145773475Y-57053368D01*
X145566632Y-56846525D01*
X145323411Y-56684010D01*
X145053158Y-56572068D01*
X144766260Y-56515000D01*
X144473740Y-56515000D01*
X144186842Y-56572068D01*
X143916589Y-56684010D01*
X143673368Y-56846525D01*
X143466525Y-57053368D01*
X143344805Y-57235534D01*
X143275178Y-57118645D01*
X143080269Y-56902412D01*
X142846920Y-56728359D01*
X142584099Y-56603175D01*
X142436890Y-56558524D01*
X142207000Y-56679845D01*
X141953000Y-56679845D01*
X141723110Y-56558524D01*
X141575901Y-56603175D01*
X141313080Y-56728359D01*
X141079731Y-56902412D01*
X140884822Y-57118645D01*
X140810000Y-57244255D01*
X140735178Y-57118645D01*
X140540269Y-56902412D01*
X140306920Y-56728359D01*
X140044099Y-56603175D01*
X139896890Y-56558524D01*
X139667000Y-56679845D01*
X139413000Y-56679845D01*
X139183110Y-56558524D01*
X139035901Y-56603175D01*
X138773080Y-56728359D01*
X138539731Y-56902412D01*
X138463966Y-56986466D01*
X138439502Y-56905820D01*
X138380537Y-56795506D01*
X138301185Y-56698815D01*
X138204494Y-56619463D01*
X138094180Y-56560498D01*
X137974482Y-56524188D01*
X137850000Y-56511928D01*
X136150000Y-56511928D01*
X136025518Y-56524188D01*
X135905820Y-56560498D01*
X135795506Y-56619463D01*
X135698815Y-56698815D01*
X135619463Y-56795506D01*
X135560498Y-56905820D01*
X135524188Y-57025518D01*
X135511928Y-57150000D01*
X133724250Y-57150000D01*
X133701250Y-57127000D01*
X132689500Y-57127000D01*
X132435500Y-57127000D01*
X131423750Y-57127000D01*
X131265000Y-57285750D01*
X131261928Y-57900000D01*
X130697727Y-57900000D01*
X130721008Y-57823255D01*
X130738072Y-57650001D01*
X130738072Y-56349999D01*
X130721008Y-56176745D01*
X130697728Y-56100000D01*
X131261928Y-56100000D01*
X131265000Y-56714250D01*
X131423750Y-56873000D01*
X132435500Y-56873000D01*
X132435500Y-55623750D01*
X132689500Y-55623750D01*
X132689500Y-56873000D01*
X133701250Y-56873000D01*
X133860000Y-56714250D01*
X133861821Y-56349999D01*
X147546928Y-56349999D01*
X147546928Y-57650001D01*
X147563992Y-57823255D01*
X147614528Y-57989851D01*
X147696595Y-58143387D01*
X147807038Y-58277962D01*
X147941613Y-58388405D01*
X147962501Y-58399570D01*
X147962501Y-58890977D01*
X147965000Y-58916350D01*
X147965000Y-59101939D01*
X148004774Y-59301898D01*
X148082795Y-59490256D01*
X148196063Y-59659774D01*
X148340226Y-59803937D01*
X148509744Y-59917205D01*
X148698102Y-59995226D01*
X148898061Y-60035000D01*
X149101939Y-60035000D01*
X149301898Y-59995226D01*
X149490256Y-59917205D01*
X149659774Y-59803937D01*
X149803937Y-59659774D01*
X149917205Y-59490256D01*
X149995226Y-59301898D01*
X150035000Y-59101939D01*
X150035000Y-58898061D01*
X149995226Y-58698102D01*
X149917205Y-58509744D01*
X149806826Y-58344549D01*
X149887962Y-58277962D01*
X149998405Y-58143387D01*
X150080472Y-57989851D01*
X150107727Y-57900000D01*
X150671928Y-57900000D01*
X150684188Y-58024482D01*
X150720498Y-58144180D01*
X150779463Y-58254494D01*
X150858815Y-58351185D01*
X150955506Y-58430537D01*
X151065820Y-58489502D01*
X151185518Y-58525812D01*
X151310000Y-58538072D01*
X151686750Y-58535000D01*
X151845500Y-58376250D01*
X151845500Y-57127000D01*
X152099500Y-57127000D01*
X152099500Y-58376250D01*
X152258250Y-58535000D01*
X152635000Y-58538072D01*
X152759482Y-58525812D01*
X152879180Y-58489502D01*
X152989494Y-58430537D01*
X153086185Y-58351185D01*
X153165537Y-58254494D01*
X153224502Y-58144180D01*
X153260812Y-58024482D01*
X153273072Y-57900000D01*
X153270000Y-57285750D01*
X153111250Y-57127000D01*
X152099500Y-57127000D01*
X151845500Y-57127000D01*
X150833750Y-57127000D01*
X150675000Y-57285750D01*
X150671928Y-57900000D01*
X150107727Y-57900000D01*
X150131008Y-57823255D01*
X150148072Y-57650001D01*
X150148072Y-57116301D01*
X150181077Y-57007499D01*
X150197500Y-56840752D01*
X150197500Y-56100000D01*
X150671928Y-56100000D01*
X150675000Y-56714250D01*
X150833750Y-56873000D01*
X151845500Y-56873000D01*
X151845500Y-55623750D01*
X152099500Y-55623750D01*
X152099500Y-56873000D01*
X153111250Y-56873000D01*
X153270000Y-56714250D01*
X153273072Y-56100000D01*
X153260812Y-55975518D01*
X153224502Y-55855820D01*
X153165537Y-55745506D01*
X153086185Y-55648815D01*
X152989494Y-55569463D01*
X152879180Y-55510498D01*
X152759482Y-55474188D01*
X152635000Y-55461928D01*
X152258250Y-55465000D01*
X152099500Y-55623750D01*
X151845500Y-55623750D01*
X151686750Y-55465000D01*
X151310000Y-55461928D01*
X151185518Y-55474188D01*
X151065820Y-55510498D01*
X150955506Y-55569463D01*
X150858815Y-55648815D01*
X150779463Y-55745506D01*
X150720498Y-55855820D01*
X150684188Y-55975518D01*
X150671928Y-56100000D01*
X150197500Y-56100000D01*
X150197500Y-55077962D01*
X150227962Y-55052962D01*
X150338405Y-54918387D01*
X150420472Y-54764851D01*
X150447727Y-54675000D01*
X150511928Y-54675000D01*
X150524188Y-54799482D01*
X150560498Y-54919180D01*
X150619463Y-55029494D01*
X150698815Y-55126185D01*
X150795506Y-55205537D01*
X150905820Y-55264502D01*
X151025518Y-55300812D01*
X151150000Y-55313072D01*
X151651750Y-55310000D01*
X151810500Y-55151250D01*
X151810500Y-54127000D01*
X152064500Y-54127000D01*
X152064500Y-55151250D01*
X152223250Y-55310000D01*
X152725000Y-55313072D01*
X152849482Y-55300812D01*
X152969180Y-55264502D01*
X153079494Y-55205537D01*
X153176185Y-55126185D01*
X153255537Y-55029494D01*
X153314502Y-54919180D01*
X153350812Y-54799482D01*
X153363072Y-54675000D01*
X153360000Y-54285750D01*
X153201250Y-54127000D01*
X152064500Y-54127000D01*
X151810500Y-54127000D01*
X150673750Y-54127000D01*
X150515000Y-54285750D01*
X150511928Y-54675000D01*
X150447727Y-54675000D01*
X150471008Y-54598255D01*
X150488072Y-54425001D01*
X150488072Y-53574999D01*
X150471008Y-53401745D01*
X150447728Y-53325000D01*
X150511928Y-53325000D01*
X150515000Y-53714250D01*
X150673750Y-53873000D01*
X151810500Y-53873000D01*
X151810500Y-52848750D01*
X152064500Y-52848750D01*
X152064500Y-53873000D01*
X153201250Y-53873000D01*
X153360000Y-53714250D01*
X153363072Y-53325000D01*
X153350812Y-53200518D01*
X153314502Y-53080820D01*
X153255537Y-52970506D01*
X153176185Y-52873815D01*
X153079494Y-52794463D01*
X152969180Y-52735498D01*
X152849482Y-52699188D01*
X152725000Y-52686928D01*
X152223250Y-52690000D01*
X152064500Y-52848750D01*
X151810500Y-52848750D01*
X151651750Y-52690000D01*
X151150000Y-52686928D01*
X151025518Y-52699188D01*
X150905820Y-52735498D01*
X150795506Y-52794463D01*
X150698815Y-52873815D01*
X150619463Y-52970506D01*
X150560498Y-53080820D01*
X150524188Y-53200518D01*
X150511928Y-53325000D01*
X150447728Y-53325000D01*
X150420472Y-53235149D01*
X150338405Y-53081613D01*
X150227962Y-52947038D01*
X150093387Y-52836595D01*
X149939851Y-52754528D01*
X149773255Y-52703992D01*
X149600001Y-52686928D01*
X148524999Y-52686928D01*
X148351745Y-52703992D01*
X148185149Y-52754528D01*
X148031613Y-52836595D01*
X147897038Y-52947038D01*
X147786595Y-53081613D01*
X147704528Y-53235149D01*
X147653992Y-53401745D01*
X147636928Y-53574999D01*
X147636928Y-54425001D01*
X147653992Y-54598255D01*
X147704528Y-54764851D01*
X147786595Y-54918387D01*
X147897038Y-55052962D01*
X147927500Y-55077962D01*
X147927501Y-55623177D01*
X147807038Y-55722038D01*
X147696595Y-55856613D01*
X147614528Y-56010149D01*
X147563992Y-56176745D01*
X147546928Y-56349999D01*
X133861821Y-56349999D01*
X133863072Y-56100000D01*
X133850812Y-55975518D01*
X133814502Y-55855820D01*
X133755537Y-55745506D01*
X133676185Y-55648815D01*
X133579494Y-55569463D01*
X133469180Y-55510498D01*
X133349482Y-55474188D01*
X133225000Y-55461928D01*
X132848250Y-55465000D01*
X132689500Y-55623750D01*
X132435500Y-55623750D01*
X132276750Y-55465000D01*
X131900000Y-55461928D01*
X131775518Y-55474188D01*
X131655820Y-55510498D01*
X131545506Y-55569463D01*
X131448815Y-55648815D01*
X131369463Y-55745506D01*
X131310498Y-55855820D01*
X131274188Y-55975518D01*
X131261928Y-56100000D01*
X130697728Y-56100000D01*
X130697500Y-56099249D01*
X130697500Y-55077962D01*
X130727962Y-55052962D01*
X130838405Y-54918387D01*
X130920472Y-54764851D01*
X130947727Y-54675000D01*
X131011928Y-54675000D01*
X131024188Y-54799482D01*
X131060498Y-54919180D01*
X131119463Y-55029494D01*
X131198815Y-55126185D01*
X131295506Y-55205537D01*
X131405820Y-55264502D01*
X131525518Y-55300812D01*
X131650000Y-55313072D01*
X132151750Y-55310000D01*
X132310500Y-55151250D01*
X132310500Y-54127000D01*
X132564500Y-54127000D01*
X132564500Y-55151250D01*
X132723250Y-55310000D01*
X133225000Y-55313072D01*
X133349482Y-55300812D01*
X133469180Y-55264502D01*
X133579494Y-55205537D01*
X133676185Y-55126185D01*
X133755537Y-55029494D01*
X133814502Y-54919180D01*
X133850812Y-54799482D01*
X133863072Y-54675000D01*
X133860000Y-54285750D01*
X133701250Y-54127000D01*
X132564500Y-54127000D01*
X132310500Y-54127000D01*
X131173750Y-54127000D01*
X131015000Y-54285750D01*
X131011928Y-54675000D01*
X130947727Y-54675000D01*
X130971008Y-54598255D01*
X130988072Y-54425001D01*
X130988072Y-53574999D01*
X130971008Y-53401745D01*
X130947728Y-53325000D01*
X131011928Y-53325000D01*
X131015000Y-53714250D01*
X131173750Y-53873000D01*
X132310500Y-53873000D01*
X132310500Y-52848750D01*
X132564500Y-52848750D01*
X132564500Y-53873000D01*
X133701250Y-53873000D01*
X133860000Y-53714250D01*
X133863072Y-53325000D01*
X133850812Y-53200518D01*
X133814502Y-53080820D01*
X133755537Y-52970506D01*
X133676185Y-52873815D01*
X133579494Y-52794463D01*
X133469180Y-52735498D01*
X133349482Y-52699188D01*
X133225000Y-52686928D01*
X132723250Y-52690000D01*
X132564500Y-52848750D01*
X132310500Y-52848750D01*
X132151750Y-52690000D01*
X131650000Y-52686928D01*
X131525518Y-52699188D01*
X131405820Y-52735498D01*
X131295506Y-52794463D01*
X131198815Y-52873815D01*
X131119463Y-52970506D01*
X131060498Y-53080820D01*
X131024188Y-53200518D01*
X131011928Y-53325000D01*
X130947728Y-53325000D01*
X130920472Y-53235149D01*
X130838405Y-53081613D01*
X130727962Y-52947038D01*
X130593387Y-52836595D01*
X130439851Y-52754528D01*
X130273255Y-52703992D01*
X130100001Y-52686928D01*
X129024999Y-52686928D01*
X128851745Y-52703992D01*
X128685149Y-52754528D01*
X128531613Y-52836595D01*
X128397038Y-52947038D01*
X128286595Y-53081613D01*
X128204528Y-53235149D01*
X128153992Y-53401745D01*
X128136928Y-53574999D01*
X128136928Y-54425001D01*
X128153992Y-54598255D01*
X128204528Y-54764851D01*
X128286595Y-54918387D01*
X128397038Y-55052962D01*
X128427500Y-55077962D01*
X128427501Y-55697038D01*
X128397038Y-55722038D01*
X128286595Y-55856613D01*
X128216482Y-55987784D01*
X128101939Y-55965000D01*
X127898061Y-55965000D01*
X127698102Y-56004774D01*
X127509744Y-56082795D01*
X127340226Y-56196063D01*
X127196063Y-56340226D01*
X127082795Y-56509744D01*
X127004774Y-56698102D01*
X126965000Y-56898061D01*
X125660000Y-56898061D01*
X125660000Y-48779872D01*
X125765000Y-48779872D01*
X125765000Y-49220128D01*
X125850890Y-49651925D01*
X126019369Y-50058669D01*
X126263962Y-50424729D01*
X126575271Y-50736038D01*
X126941331Y-50980631D01*
X127348075Y-51149110D01*
X127779872Y-51235000D01*
X128220128Y-51235000D01*
X128651925Y-51149110D01*
X129058669Y-50980631D01*
X129424729Y-50736038D01*
X129736038Y-50424729D01*
X129980631Y-50058669D01*
X130149110Y-49651925D01*
X130235000Y-49220128D01*
X130235000Y-48779872D01*
X151765000Y-48779872D01*
X151765000Y-49220128D01*
X151850890Y-49651925D01*
X152019369Y-50058669D01*
X152263962Y-50424729D01*
X152575271Y-50736038D01*
X152941331Y-50980631D01*
X153348075Y-51149110D01*
X153779872Y-51235000D01*
X154220128Y-51235000D01*
X154651925Y-51149110D01*
X155058669Y-50980631D01*
X155424729Y-50736038D01*
X155736038Y-50424729D01*
X155980631Y-50058669D01*
X156149110Y-49651925D01*
X156235000Y-49220128D01*
X156235000Y-48779872D01*
X156149110Y-48348075D01*
X155980631Y-47941331D01*
X155736038Y-47575271D01*
X155424729Y-47263962D01*
X155058669Y-47019369D01*
X154651925Y-46850890D01*
X154220128Y-46765000D01*
X153779872Y-46765000D01*
X153348075Y-46850890D01*
X152941331Y-47019369D01*
X152575271Y-47263962D01*
X152263962Y-47575271D01*
X152019369Y-47941331D01*
X151850890Y-48348075D01*
X151765000Y-48779872D01*
X130235000Y-48779872D01*
X130149110Y-48348075D01*
X129980631Y-47941331D01*
X129736038Y-47575271D01*
X129424729Y-47263962D01*
X129058669Y-47019369D01*
X128651925Y-46850890D01*
X128220128Y-46765000D01*
X127779872Y-46765000D01*
X127348075Y-46850890D01*
X126941331Y-47019369D01*
X126575271Y-47263962D01*
X126263962Y-47575271D01*
X126019369Y-47941331D01*
X125850890Y-48348075D01*
X125765000Y-48779872D01*
X125660000Y-48779872D01*
X125660000Y-46660000D01*
X156340001Y-46660000D01*
X156340000Y-148340000D01*
%TA.AperFunction,Conductor*%
D19*
G36*
X156340000Y-148340000D02*
G01*
X125660000Y-148340000D01*
X125660000Y-145779872D01*
X125765000Y-145779872D01*
X125765000Y-146220128D01*
X125850890Y-146651925D01*
X126019369Y-147058669D01*
X126263962Y-147424729D01*
X126575271Y-147736038D01*
X126941331Y-147980631D01*
X127348075Y-148149110D01*
X127779872Y-148235000D01*
X128220128Y-148235000D01*
X128651925Y-148149110D01*
X129058669Y-147980631D01*
X129424729Y-147736038D01*
X129736038Y-147424729D01*
X129980631Y-147058669D01*
X130149110Y-146651925D01*
X130235000Y-146220128D01*
X130235000Y-145779872D01*
X151765000Y-145779872D01*
X151765000Y-146220128D01*
X151850890Y-146651925D01*
X152019369Y-147058669D01*
X152263962Y-147424729D01*
X152575271Y-147736038D01*
X152941331Y-147980631D01*
X153348075Y-148149110D01*
X153779872Y-148235000D01*
X154220128Y-148235000D01*
X154651925Y-148149110D01*
X155058669Y-147980631D01*
X155424729Y-147736038D01*
X155736038Y-147424729D01*
X155980631Y-147058669D01*
X156149110Y-146651925D01*
X156235000Y-146220128D01*
X156235000Y-145779872D01*
X156149110Y-145348075D01*
X155980631Y-144941331D01*
X155736038Y-144575271D01*
X155424729Y-144263962D01*
X155058669Y-144019369D01*
X154651925Y-143850890D01*
X154220128Y-143765000D01*
X153779872Y-143765000D01*
X153348075Y-143850890D01*
X152941331Y-144019369D01*
X152575271Y-144263962D01*
X152263962Y-144575271D01*
X152019369Y-144941331D01*
X151850890Y-145348075D01*
X151765000Y-145779872D01*
X130235000Y-145779872D01*
X130149110Y-145348075D01*
X129980631Y-144941331D01*
X129736038Y-144575271D01*
X129424729Y-144263962D01*
X129058669Y-144019369D01*
X128651925Y-143850890D01*
X128220128Y-143765000D01*
X127779872Y-143765000D01*
X127348075Y-143850890D01*
X126941331Y-144019369D01*
X126575271Y-144263962D01*
X126263962Y-144575271D01*
X126019369Y-144941331D01*
X125850890Y-145348075D01*
X125765000Y-145779872D01*
X125660000Y-145779872D01*
X125660000Y-117462408D01*
X129283000Y-117462408D01*
X129283000Y-117737592D01*
X129336686Y-118007490D01*
X129441995Y-118261727D01*
X129594880Y-118490535D01*
X129789465Y-118685120D01*
X130018273Y-118838005D01*
X130095515Y-118870000D01*
X130018273Y-118901995D01*
X129789465Y-119054880D01*
X129594880Y-119249465D01*
X129441995Y-119478273D01*
X129336686Y-119732510D01*
X129283000Y-120002408D01*
X129283000Y-120277592D01*
X129336686Y-120547490D01*
X129441995Y-120801727D01*
X129594880Y-121030535D01*
X129789465Y-121225120D01*
X130018273Y-121378005D01*
X130095515Y-121410000D01*
X130018273Y-121441995D01*
X129789465Y-121594880D01*
X129594880Y-121789465D01*
X129441995Y-122018273D01*
X129336686Y-122272510D01*
X129283000Y-122542408D01*
X129283000Y-122817592D01*
X129336686Y-123087490D01*
X129441995Y-123341727D01*
X129594880Y-123570535D01*
X129789465Y-123765120D01*
X130018273Y-123918005D01*
X130095515Y-123950000D01*
X130018273Y-123981995D01*
X129789465Y-124134880D01*
X129594880Y-124329465D01*
X129441995Y-124558273D01*
X129336686Y-124812510D01*
X129283000Y-125082408D01*
X129283000Y-125357592D01*
X129336686Y-125627490D01*
X129441995Y-125881727D01*
X129594880Y-126110535D01*
X129789465Y-126305120D01*
X130018273Y-126458005D01*
X130095515Y-126490000D01*
X130018273Y-126521995D01*
X129789465Y-126674880D01*
X129594880Y-126869465D01*
X129441995Y-127098273D01*
X129336686Y-127352510D01*
X129283000Y-127622408D01*
X129283000Y-127897592D01*
X129336686Y-128167490D01*
X129441995Y-128421727D01*
X129594880Y-128650535D01*
X129789465Y-128845120D01*
X130018273Y-128998005D01*
X130095515Y-129030000D01*
X130018273Y-129061995D01*
X129789465Y-129214880D01*
X129594880Y-129409465D01*
X129441995Y-129638273D01*
X129336686Y-129892510D01*
X129283000Y-130162408D01*
X129283000Y-130437592D01*
X129336686Y-130707490D01*
X129441995Y-130961727D01*
X129594880Y-131190535D01*
X129789465Y-131385120D01*
X130018273Y-131538005D01*
X130095515Y-131570000D01*
X130018273Y-131601995D01*
X129789465Y-131754880D01*
X129594880Y-131949465D01*
X129441995Y-132178273D01*
X129336686Y-132432510D01*
X129283000Y-132702408D01*
X129283000Y-132977592D01*
X129336686Y-133247490D01*
X129441995Y-133501727D01*
X129594880Y-133730535D01*
X129789465Y-133925120D01*
X130018273Y-134078005D01*
X130095515Y-134110000D01*
X130018273Y-134141995D01*
X129789465Y-134294880D01*
X129594880Y-134489465D01*
X129441995Y-134718273D01*
X129336686Y-134972510D01*
X129283000Y-135242408D01*
X129283000Y-135517592D01*
X129336686Y-135787490D01*
X129441995Y-136041727D01*
X129594880Y-136270535D01*
X129789465Y-136465120D01*
X130018273Y-136618005D01*
X130095515Y-136650000D01*
X130018273Y-136681995D01*
X129789465Y-136834880D01*
X129594880Y-137029465D01*
X129441995Y-137258273D01*
X129336686Y-137512510D01*
X129283000Y-137782408D01*
X129283000Y-138057592D01*
X129336686Y-138327490D01*
X129441995Y-138581727D01*
X129594880Y-138810535D01*
X129789465Y-139005120D01*
X130018273Y-139158005D01*
X130095515Y-139190000D01*
X130018273Y-139221995D01*
X129789465Y-139374880D01*
X129594880Y-139569465D01*
X129441995Y-139798273D01*
X129336686Y-140052510D01*
X129283000Y-140322408D01*
X129283000Y-140597592D01*
X129336686Y-140867490D01*
X129441995Y-141121727D01*
X129594880Y-141350535D01*
X129789465Y-141545120D01*
X130018273Y-141698005D01*
X130095515Y-141730000D01*
X130018273Y-141761995D01*
X129789465Y-141914880D01*
X129594880Y-142109465D01*
X129441995Y-142338273D01*
X129336686Y-142592510D01*
X129283000Y-142862408D01*
X129283000Y-143137592D01*
X129336686Y-143407490D01*
X129441995Y-143661727D01*
X129594880Y-143890535D01*
X129789465Y-144085120D01*
X130018273Y-144238005D01*
X130272510Y-144343314D01*
X130542408Y-144397000D01*
X130817592Y-144397000D01*
X131087490Y-144343314D01*
X131341727Y-144238005D01*
X131570535Y-144085120D01*
X131765120Y-143890535D01*
X131918005Y-143661727D01*
X132023314Y-143407490D01*
X132077000Y-143137592D01*
X132077000Y-142862408D01*
X132023314Y-142592510D01*
X131918005Y-142338273D01*
X131851005Y-142238000D01*
X149599928Y-142238000D01*
X149599928Y-143762000D01*
X149612188Y-143886482D01*
X149648498Y-144006180D01*
X149707463Y-144116494D01*
X149786815Y-144213185D01*
X149883506Y-144292537D01*
X149993820Y-144351502D01*
X150113518Y-144387812D01*
X150238000Y-144400072D01*
X151762000Y-144400072D01*
X151886482Y-144387812D01*
X152006180Y-144351502D01*
X152116494Y-144292537D01*
X152213185Y-144213185D01*
X152292537Y-144116494D01*
X152351502Y-144006180D01*
X152387812Y-143886482D01*
X152400072Y-143762000D01*
X152400072Y-142238000D01*
X152387812Y-142113518D01*
X152351502Y-141993820D01*
X152292537Y-141883506D01*
X152213185Y-141786815D01*
X152116494Y-141707463D01*
X152006180Y-141648498D01*
X151886482Y-141612188D01*
X151802535Y-141603920D01*
X151890535Y-141545120D01*
X152085120Y-141350535D01*
X152238005Y-141121727D01*
X152343314Y-140867490D01*
X152397000Y-140597592D01*
X152397000Y-140322408D01*
X152343314Y-140052510D01*
X152238005Y-139798273D01*
X152085120Y-139569465D01*
X151890535Y-139374880D01*
X151661727Y-139221995D01*
X151584485Y-139190000D01*
X151661727Y-139158005D01*
X151890535Y-139005120D01*
X152085120Y-138810535D01*
X152238005Y-138581727D01*
X152343314Y-138327490D01*
X152397000Y-138057592D01*
X152397000Y-137782408D01*
X152343314Y-137512510D01*
X152238005Y-137258273D01*
X152085120Y-137029465D01*
X151890535Y-136834880D01*
X151661727Y-136681995D01*
X151584485Y-136650000D01*
X151661727Y-136618005D01*
X151890535Y-136465120D01*
X152085120Y-136270535D01*
X152238005Y-136041727D01*
X152343314Y-135787490D01*
X152397000Y-135517592D01*
X152397000Y-135242408D01*
X152343314Y-134972510D01*
X152238005Y-134718273D01*
X152085120Y-134489465D01*
X151890535Y-134294880D01*
X151661727Y-134141995D01*
X151584485Y-134110000D01*
X151661727Y-134078005D01*
X151890535Y-133925120D01*
X152085120Y-133730535D01*
X152238005Y-133501727D01*
X152343314Y-133247490D01*
X152397000Y-132977592D01*
X152397000Y-132702408D01*
X152343314Y-132432510D01*
X152238005Y-132178273D01*
X152085120Y-131949465D01*
X151890535Y-131754880D01*
X151661727Y-131601995D01*
X151584485Y-131570000D01*
X151661727Y-131538005D01*
X151890535Y-131385120D01*
X152085120Y-131190535D01*
X152238005Y-130961727D01*
X152343314Y-130707490D01*
X152397000Y-130437592D01*
X152397000Y-130162408D01*
X152343314Y-129892510D01*
X152238005Y-129638273D01*
X152085120Y-129409465D01*
X151890535Y-129214880D01*
X151661727Y-129061995D01*
X151584485Y-129030000D01*
X151661727Y-128998005D01*
X151890535Y-128845120D01*
X152085120Y-128650535D01*
X152238005Y-128421727D01*
X152343314Y-128167490D01*
X152397000Y-127897592D01*
X152397000Y-127622408D01*
X152343314Y-127352510D01*
X152238005Y-127098273D01*
X152085120Y-126869465D01*
X151890535Y-126674880D01*
X151661727Y-126521995D01*
X151584485Y-126490000D01*
X151661727Y-126458005D01*
X151890535Y-126305120D01*
X152085120Y-126110535D01*
X152238005Y-125881727D01*
X152343314Y-125627490D01*
X152397000Y-125357592D01*
X152397000Y-125082408D01*
X152343314Y-124812510D01*
X152238005Y-124558273D01*
X152085120Y-124329465D01*
X151890535Y-124134880D01*
X151661727Y-123981995D01*
X151584485Y-123950000D01*
X151661727Y-123918005D01*
X151890535Y-123765120D01*
X152085120Y-123570535D01*
X152238005Y-123341727D01*
X152343314Y-123087490D01*
X152397000Y-122817592D01*
X152397000Y-122542408D01*
X152343314Y-122272510D01*
X152238005Y-122018273D01*
X152085120Y-121789465D01*
X151890535Y-121594880D01*
X151661727Y-121441995D01*
X151584485Y-121410000D01*
X151661727Y-121378005D01*
X151890535Y-121225120D01*
X152085120Y-121030535D01*
X152238005Y-120801727D01*
X152343314Y-120547490D01*
X152397000Y-120277592D01*
X152397000Y-120002408D01*
X152343314Y-119732510D01*
X152238005Y-119478273D01*
X152085120Y-119249465D01*
X151890535Y-119054880D01*
X151661727Y-118901995D01*
X151584485Y-118870000D01*
X151661727Y-118838005D01*
X151890535Y-118685120D01*
X152085120Y-118490535D01*
X152238005Y-118261727D01*
X152343314Y-118007490D01*
X152397000Y-117737592D01*
X152397000Y-117462408D01*
X152343314Y-117192510D01*
X152238005Y-116938273D01*
X152085120Y-116709465D01*
X151890535Y-116514880D01*
X151661727Y-116361995D01*
X151584485Y-116330000D01*
X151661727Y-116298005D01*
X151890535Y-116145120D01*
X152085120Y-115950535D01*
X152238005Y-115721727D01*
X152343314Y-115467490D01*
X152397000Y-115197592D01*
X152397000Y-114922408D01*
X152343314Y-114652510D01*
X152238005Y-114398273D01*
X152085120Y-114169465D01*
X151890535Y-113974880D01*
X151661727Y-113821995D01*
X151584485Y-113790000D01*
X151661727Y-113758005D01*
X151890535Y-113605120D01*
X152085120Y-113410535D01*
X152238005Y-113181727D01*
X152343314Y-112927490D01*
X152397000Y-112657592D01*
X152397000Y-112382408D01*
X152343314Y-112112510D01*
X152238005Y-111858273D01*
X152085120Y-111629465D01*
X151890535Y-111434880D01*
X151661727Y-111281995D01*
X151584485Y-111250000D01*
X151661727Y-111218005D01*
X151890535Y-111065120D01*
X152085120Y-110870535D01*
X152238005Y-110641727D01*
X152343314Y-110387490D01*
X152397000Y-110117592D01*
X152397000Y-109842408D01*
X152343314Y-109572510D01*
X152238005Y-109318273D01*
X152085120Y-109089465D01*
X151890535Y-108894880D01*
X151661727Y-108741995D01*
X151584485Y-108710000D01*
X151661727Y-108678005D01*
X151890535Y-108525120D01*
X152085120Y-108330535D01*
X152238005Y-108101727D01*
X152343314Y-107847490D01*
X152397000Y-107577592D01*
X152397000Y-107302408D01*
X152343314Y-107032510D01*
X152238005Y-106778273D01*
X152085120Y-106549465D01*
X151890535Y-106354880D01*
X151661727Y-106201995D01*
X151590057Y-106172308D01*
X151603023Y-106167636D01*
X151718980Y-106105656D01*
X151785960Y-105865565D01*
X151000000Y-105079605D01*
X150214040Y-105865565D01*
X150281020Y-106105656D01*
X150416760Y-106169485D01*
X150338273Y-106201995D01*
X150109465Y-106354880D01*
X149914880Y-106549465D01*
X149761995Y-106778273D01*
X149656686Y-107032510D01*
X149603000Y-107302408D01*
X149603000Y-107577592D01*
X149656686Y-107847490D01*
X149761995Y-108101727D01*
X149914880Y-108330535D01*
X150109465Y-108525120D01*
X150338273Y-108678005D01*
X150415515Y-108710000D01*
X150338273Y-108741995D01*
X150109465Y-108894880D01*
X149914880Y-109089465D01*
X149761995Y-109318273D01*
X149656686Y-109572510D01*
X149603000Y-109842408D01*
X149603000Y-110117592D01*
X149656686Y-110387490D01*
X149761995Y-110641727D01*
X149914880Y-110870535D01*
X150109465Y-111065120D01*
X150338273Y-111218005D01*
X150415515Y-111250000D01*
X150338273Y-111281995D01*
X150109465Y-111434880D01*
X149914880Y-111629465D01*
X149761995Y-111858273D01*
X149656686Y-112112510D01*
X149603000Y-112382408D01*
X149603000Y-112657592D01*
X149656686Y-112927490D01*
X149761995Y-113181727D01*
X149914880Y-113410535D01*
X150109465Y-113605120D01*
X150338273Y-113758005D01*
X150415515Y-113790000D01*
X150338273Y-113821995D01*
X150109465Y-113974880D01*
X149914880Y-114169465D01*
X149761995Y-114398273D01*
X149656686Y-114652510D01*
X149603000Y-114922408D01*
X149603000Y-115197592D01*
X149656686Y-115467490D01*
X149761995Y-115721727D01*
X149914880Y-115950535D01*
X150109465Y-116145120D01*
X150338273Y-116298005D01*
X150415515Y-116330000D01*
X150338273Y-116361995D01*
X150109465Y-116514880D01*
X149914880Y-116709465D01*
X149761995Y-116938273D01*
X149656686Y-117192510D01*
X149603000Y-117462408D01*
X149603000Y-117737592D01*
X149656686Y-118007490D01*
X149761995Y-118261727D01*
X149914880Y-118490535D01*
X150109465Y-118685120D01*
X150338273Y-118838005D01*
X150415515Y-118870000D01*
X150338273Y-118901995D01*
X150109465Y-119054880D01*
X149914880Y-119249465D01*
X149761995Y-119478273D01*
X149656686Y-119732510D01*
X149603000Y-120002408D01*
X149603000Y-120277592D01*
X149656686Y-120547490D01*
X149761995Y-120801727D01*
X149914880Y-121030535D01*
X150109465Y-121225120D01*
X150338273Y-121378005D01*
X150415515Y-121410000D01*
X150338273Y-121441995D01*
X150109465Y-121594880D01*
X149914880Y-121789465D01*
X149761995Y-122018273D01*
X149656686Y-122272510D01*
X149603000Y-122542408D01*
X149603000Y-122817592D01*
X149656686Y-123087490D01*
X149761995Y-123341727D01*
X149914880Y-123570535D01*
X150109465Y-123765120D01*
X150338273Y-123918005D01*
X150415515Y-123950000D01*
X150338273Y-123981995D01*
X150109465Y-124134880D01*
X149914880Y-124329465D01*
X149761995Y-124558273D01*
X149656686Y-124812510D01*
X149603000Y-125082408D01*
X149603000Y-125357592D01*
X149656686Y-125627490D01*
X149761995Y-125881727D01*
X149914880Y-126110535D01*
X150109465Y-126305120D01*
X150338273Y-126458005D01*
X150415515Y-126490000D01*
X150338273Y-126521995D01*
X150109465Y-126674880D01*
X149914880Y-126869465D01*
X149761995Y-127098273D01*
X149656686Y-127352510D01*
X149603000Y-127622408D01*
X149603000Y-127897592D01*
X149656686Y-128167490D01*
X149761995Y-128421727D01*
X149914880Y-128650535D01*
X150109465Y-128845120D01*
X150338273Y-128998005D01*
X150415515Y-129030000D01*
X150338273Y-129061995D01*
X150109465Y-129214880D01*
X149914880Y-129409465D01*
X149761995Y-129638273D01*
X149656686Y-129892510D01*
X149603000Y-130162408D01*
X149603000Y-130437592D01*
X149656686Y-130707490D01*
X149761995Y-130961727D01*
X149914880Y-131190535D01*
X150109465Y-131385120D01*
X150338273Y-131538005D01*
X150415515Y-131570000D01*
X150338273Y-131601995D01*
X150109465Y-131754880D01*
X149914880Y-131949465D01*
X149761995Y-132178273D01*
X149656686Y-132432510D01*
X149603000Y-132702408D01*
X149603000Y-132977592D01*
X149656686Y-133247490D01*
X149761995Y-133501727D01*
X149914880Y-133730535D01*
X150109465Y-133925120D01*
X150338273Y-134078005D01*
X150415515Y-134110000D01*
X150338273Y-134141995D01*
X150109465Y-134294880D01*
X149914880Y-134489465D01*
X149761995Y-134718273D01*
X149656686Y-134972510D01*
X149603000Y-135242408D01*
X149603000Y-135517592D01*
X149656686Y-135787490D01*
X149761995Y-136041727D01*
X149914880Y-136270535D01*
X150109465Y-136465120D01*
X150338273Y-136618005D01*
X150415515Y-136650000D01*
X150338273Y-136681995D01*
X150109465Y-136834880D01*
X149914880Y-137029465D01*
X149761995Y-137258273D01*
X149656686Y-137512510D01*
X149603000Y-137782408D01*
X149603000Y-138057592D01*
X149656686Y-138327490D01*
X149761995Y-138581727D01*
X149914880Y-138810535D01*
X150109465Y-139005120D01*
X150338273Y-139158005D01*
X150415515Y-139190000D01*
X150338273Y-139221995D01*
X150109465Y-139374880D01*
X149914880Y-139569465D01*
X149761995Y-139798273D01*
X149656686Y-140052510D01*
X149603000Y-140322408D01*
X149603000Y-140597592D01*
X149656686Y-140867490D01*
X149761995Y-141121727D01*
X149914880Y-141350535D01*
X150109465Y-141545120D01*
X150197465Y-141603920D01*
X150113518Y-141612188D01*
X149993820Y-141648498D01*
X149883506Y-141707463D01*
X149786815Y-141786815D01*
X149707463Y-141883506D01*
X149648498Y-141993820D01*
X149612188Y-142113518D01*
X149599928Y-142238000D01*
X131851005Y-142238000D01*
X131765120Y-142109465D01*
X131570535Y-141914880D01*
X131341727Y-141761995D01*
X131264485Y-141730000D01*
X131341727Y-141698005D01*
X131570535Y-141545120D01*
X131765120Y-141350535D01*
X131918005Y-141121727D01*
X132023314Y-140867490D01*
X132077000Y-140597592D01*
X132077000Y-140322408D01*
X132023314Y-140052510D01*
X131918005Y-139798273D01*
X131765120Y-139569465D01*
X131570535Y-139374880D01*
X131341727Y-139221995D01*
X131264485Y-139190000D01*
X131341727Y-139158005D01*
X131570535Y-139005120D01*
X131765120Y-138810535D01*
X131918005Y-138581727D01*
X132023314Y-138327490D01*
X132077000Y-138057592D01*
X132077000Y-137782408D01*
X132023314Y-137512510D01*
X131918005Y-137258273D01*
X131765120Y-137029465D01*
X131570535Y-136834880D01*
X131341727Y-136681995D01*
X131264485Y-136650000D01*
X131341727Y-136618005D01*
X131570535Y-136465120D01*
X131765120Y-136270535D01*
X131918005Y-136041727D01*
X132023314Y-135787490D01*
X132077000Y-135517592D01*
X132077000Y-135242408D01*
X132023314Y-134972510D01*
X131918005Y-134718273D01*
X131765120Y-134489465D01*
X131570535Y-134294880D01*
X131341727Y-134141995D01*
X131264485Y-134110000D01*
X131341727Y-134078005D01*
X131570535Y-133925120D01*
X131765120Y-133730535D01*
X131918005Y-133501727D01*
X132023314Y-133247490D01*
X132077000Y-132977592D01*
X132077000Y-132702408D01*
X132023314Y-132432510D01*
X131918005Y-132178273D01*
X131765120Y-131949465D01*
X131570535Y-131754880D01*
X131341727Y-131601995D01*
X131264485Y-131570000D01*
X131341727Y-131538005D01*
X131570535Y-131385120D01*
X131765120Y-131190535D01*
X131918005Y-130961727D01*
X132023314Y-130707490D01*
X132077000Y-130437592D01*
X132077000Y-130162408D01*
X132023314Y-129892510D01*
X131918005Y-129638273D01*
X131765120Y-129409465D01*
X131570535Y-129214880D01*
X131341727Y-129061995D01*
X131264485Y-129030000D01*
X131341727Y-128998005D01*
X131570535Y-128845120D01*
X131765120Y-128650535D01*
X131918005Y-128421727D01*
X132023314Y-128167490D01*
X132077000Y-127897592D01*
X132077000Y-127622408D01*
X132023314Y-127352510D01*
X131918005Y-127098273D01*
X131765120Y-126869465D01*
X131570535Y-126674880D01*
X131341727Y-126521995D01*
X131264485Y-126490000D01*
X131341727Y-126458005D01*
X131570535Y-126305120D01*
X131765120Y-126110535D01*
X131918005Y-125881727D01*
X132023314Y-125627490D01*
X132077000Y-125357592D01*
X132077000Y-125082408D01*
X132023314Y-124812510D01*
X131918005Y-124558273D01*
X131765120Y-124329465D01*
X131570535Y-124134880D01*
X131341727Y-123981995D01*
X131264485Y-123950000D01*
X131341727Y-123918005D01*
X131570535Y-123765120D01*
X131765120Y-123570535D01*
X131918005Y-123341727D01*
X132023314Y-123087490D01*
X132077000Y-122817592D01*
X132077000Y-122542408D01*
X132023314Y-122272510D01*
X131918005Y-122018273D01*
X131765120Y-121789465D01*
X131570535Y-121594880D01*
X131341727Y-121441995D01*
X131264485Y-121410000D01*
X131341727Y-121378005D01*
X131570535Y-121225120D01*
X131765120Y-121030535D01*
X131918005Y-120801727D01*
X132023314Y-120547490D01*
X132077000Y-120277592D01*
X132077000Y-120002408D01*
X132023314Y-119732510D01*
X131918005Y-119478273D01*
X131765120Y-119249465D01*
X131570535Y-119054880D01*
X131341727Y-118901995D01*
X131264485Y-118870000D01*
X131341727Y-118838005D01*
X131570535Y-118685120D01*
X131765120Y-118490535D01*
X131918005Y-118261727D01*
X132023314Y-118007490D01*
X132077000Y-117737592D01*
X132077000Y-117462408D01*
X132023314Y-117192510D01*
X131918005Y-116938273D01*
X131765120Y-116709465D01*
X131570535Y-116514880D01*
X131341727Y-116361995D01*
X131270057Y-116332308D01*
X131283023Y-116327636D01*
X131398980Y-116265656D01*
X131465960Y-116025565D01*
X130680000Y-115239605D01*
X129894040Y-116025565D01*
X129961020Y-116265656D01*
X130096760Y-116329485D01*
X130018273Y-116361995D01*
X129789465Y-116514880D01*
X129594880Y-116709465D01*
X129441995Y-116938273D01*
X129336686Y-117192510D01*
X129283000Y-117462408D01*
X125660000Y-117462408D01*
X125660000Y-115132017D01*
X129278090Y-115132017D01*
X129319078Y-115404133D01*
X129412364Y-115663023D01*
X129474344Y-115778980D01*
X129714435Y-115845960D01*
X130500395Y-115060000D01*
X130859605Y-115060000D01*
X131645565Y-115845960D01*
X131885656Y-115778980D01*
X132002756Y-115529952D01*
X132069023Y-115262865D01*
X132081910Y-114987983D01*
X132040922Y-114715867D01*
X131947636Y-114456977D01*
X131885656Y-114341020D01*
X131645565Y-114274040D01*
X130859605Y-115060000D01*
X130500395Y-115060000D01*
X129714435Y-114274040D01*
X129474344Y-114341020D01*
X129357244Y-114590048D01*
X129290977Y-114857135D01*
X129278090Y-115132017D01*
X125660000Y-115132017D01*
X125660000Y-64122408D01*
X129283000Y-64122408D01*
X129283000Y-64397592D01*
X129336686Y-64667490D01*
X129441995Y-64921727D01*
X129594880Y-65150535D01*
X129789465Y-65345120D01*
X130018273Y-65498005D01*
X130095515Y-65530000D01*
X130018273Y-65561995D01*
X129789465Y-65714880D01*
X129594880Y-65909465D01*
X129441995Y-66138273D01*
X129336686Y-66392510D01*
X129283000Y-66662408D01*
X129283000Y-66937592D01*
X129336686Y-67207490D01*
X129441995Y-67461727D01*
X129594880Y-67690535D01*
X129789465Y-67885120D01*
X130018273Y-68038005D01*
X130095515Y-68070000D01*
X130018273Y-68101995D01*
X129789465Y-68254880D01*
X129594880Y-68449465D01*
X129441995Y-68678273D01*
X129336686Y-68932510D01*
X129283000Y-69202408D01*
X129283000Y-69477592D01*
X129336686Y-69747490D01*
X129441995Y-70001727D01*
X129594880Y-70230535D01*
X129789465Y-70425120D01*
X130018273Y-70578005D01*
X130095515Y-70610000D01*
X130018273Y-70641995D01*
X129789465Y-70794880D01*
X129594880Y-70989465D01*
X129441995Y-71218273D01*
X129336686Y-71472510D01*
X129283000Y-71742408D01*
X129283000Y-72017592D01*
X129336686Y-72287490D01*
X129441995Y-72541727D01*
X129594880Y-72770535D01*
X129789465Y-72965120D01*
X130018273Y-73118005D01*
X130095515Y-73150000D01*
X130018273Y-73181995D01*
X129789465Y-73334880D01*
X129594880Y-73529465D01*
X129441995Y-73758273D01*
X129336686Y-74012510D01*
X129283000Y-74282408D01*
X129283000Y-74557592D01*
X129336686Y-74827490D01*
X129441995Y-75081727D01*
X129594880Y-75310535D01*
X129789465Y-75505120D01*
X130018273Y-75658005D01*
X130095515Y-75690000D01*
X130018273Y-75721995D01*
X129789465Y-75874880D01*
X129594880Y-76069465D01*
X129441995Y-76298273D01*
X129336686Y-76552510D01*
X129283000Y-76822408D01*
X129283000Y-77097592D01*
X129336686Y-77367490D01*
X129441995Y-77621727D01*
X129594880Y-77850535D01*
X129789465Y-78045120D01*
X130018273Y-78198005D01*
X130095515Y-78230000D01*
X130018273Y-78261995D01*
X129789465Y-78414880D01*
X129594880Y-78609465D01*
X129441995Y-78838273D01*
X129336686Y-79092510D01*
X129283000Y-79362408D01*
X129283000Y-79637592D01*
X129336686Y-79907490D01*
X129441995Y-80161727D01*
X129594880Y-80390535D01*
X129789465Y-80585120D01*
X130018273Y-80738005D01*
X130095515Y-80770000D01*
X130018273Y-80801995D01*
X129789465Y-80954880D01*
X129594880Y-81149465D01*
X129441995Y-81378273D01*
X129336686Y-81632510D01*
X129283000Y-81902408D01*
X129283000Y-82177592D01*
X129336686Y-82447490D01*
X129441995Y-82701727D01*
X129594880Y-82930535D01*
X129789465Y-83125120D01*
X130018273Y-83278005D01*
X130095515Y-83310000D01*
X130018273Y-83341995D01*
X129789465Y-83494880D01*
X129594880Y-83689465D01*
X129441995Y-83918273D01*
X129336686Y-84172510D01*
X129283000Y-84442408D01*
X129283000Y-84717592D01*
X129336686Y-84987490D01*
X129441995Y-85241727D01*
X129594880Y-85470535D01*
X129789465Y-85665120D01*
X130018273Y-85818005D01*
X130095515Y-85850000D01*
X130018273Y-85881995D01*
X129789465Y-86034880D01*
X129594880Y-86229465D01*
X129441995Y-86458273D01*
X129336686Y-86712510D01*
X129283000Y-86982408D01*
X129283000Y-87257592D01*
X129336686Y-87527490D01*
X129441995Y-87781727D01*
X129594880Y-88010535D01*
X129789465Y-88205120D01*
X130018273Y-88358005D01*
X130095515Y-88390000D01*
X130018273Y-88421995D01*
X129789465Y-88574880D01*
X129594880Y-88769465D01*
X129441995Y-88998273D01*
X129336686Y-89252510D01*
X129283000Y-89522408D01*
X129283000Y-89797592D01*
X129336686Y-90067490D01*
X129441995Y-90321727D01*
X129594880Y-90550535D01*
X129789465Y-90745120D01*
X130018273Y-90898005D01*
X130095515Y-90930000D01*
X130018273Y-90961995D01*
X129789465Y-91114880D01*
X129594880Y-91309465D01*
X129441995Y-91538273D01*
X129336686Y-91792510D01*
X129283000Y-92062408D01*
X129283000Y-92337592D01*
X129336686Y-92607490D01*
X129441995Y-92861727D01*
X129594880Y-93090535D01*
X129789465Y-93285120D01*
X130018273Y-93438005D01*
X130095515Y-93470000D01*
X130018273Y-93501995D01*
X129789465Y-93654880D01*
X129594880Y-93849465D01*
X129441995Y-94078273D01*
X129336686Y-94332510D01*
X129283000Y-94602408D01*
X129283000Y-94877592D01*
X129336686Y-95147490D01*
X129441995Y-95401727D01*
X129594880Y-95630535D01*
X129789465Y-95825120D01*
X130018273Y-95978005D01*
X130095515Y-96010000D01*
X130018273Y-96041995D01*
X129789465Y-96194880D01*
X129594880Y-96389465D01*
X129441995Y-96618273D01*
X129336686Y-96872510D01*
X129283000Y-97142408D01*
X129283000Y-97417592D01*
X129336686Y-97687490D01*
X129441995Y-97941727D01*
X129594880Y-98170535D01*
X129789465Y-98365120D01*
X130018273Y-98518005D01*
X130095515Y-98550000D01*
X130018273Y-98581995D01*
X129789465Y-98734880D01*
X129594880Y-98929465D01*
X129441995Y-99158273D01*
X129336686Y-99412510D01*
X129283000Y-99682408D01*
X129283000Y-99957592D01*
X129336686Y-100227490D01*
X129441995Y-100481727D01*
X129594880Y-100710535D01*
X129789465Y-100905120D01*
X130018273Y-101058005D01*
X130095515Y-101090000D01*
X130018273Y-101121995D01*
X129789465Y-101274880D01*
X129594880Y-101469465D01*
X129441995Y-101698273D01*
X129336686Y-101952510D01*
X129283000Y-102222408D01*
X129283000Y-102497592D01*
X129336686Y-102767490D01*
X129441995Y-103021727D01*
X129594880Y-103250535D01*
X129789465Y-103445120D01*
X130018273Y-103598005D01*
X130095515Y-103630000D01*
X130018273Y-103661995D01*
X129789465Y-103814880D01*
X129594880Y-104009465D01*
X129441995Y-104238273D01*
X129336686Y-104492510D01*
X129283000Y-104762408D01*
X129283000Y-105037592D01*
X129336686Y-105307490D01*
X129441995Y-105561727D01*
X129594880Y-105790535D01*
X129789465Y-105985120D01*
X130018273Y-106138005D01*
X130095515Y-106170000D01*
X130018273Y-106201995D01*
X129789465Y-106354880D01*
X129594880Y-106549465D01*
X129441995Y-106778273D01*
X129336686Y-107032510D01*
X129283000Y-107302408D01*
X129283000Y-107577592D01*
X129336686Y-107847490D01*
X129441995Y-108101727D01*
X129594880Y-108330535D01*
X129789465Y-108525120D01*
X130018273Y-108678005D01*
X130095515Y-108710000D01*
X130018273Y-108741995D01*
X129789465Y-108894880D01*
X129594880Y-109089465D01*
X129441995Y-109318273D01*
X129336686Y-109572510D01*
X129283000Y-109842408D01*
X129283000Y-110117592D01*
X129336686Y-110387490D01*
X129441995Y-110641727D01*
X129594880Y-110870535D01*
X129789465Y-111065120D01*
X130018273Y-111218005D01*
X130095515Y-111250000D01*
X130018273Y-111281995D01*
X129789465Y-111434880D01*
X129594880Y-111629465D01*
X129441995Y-111858273D01*
X129336686Y-112112510D01*
X129283000Y-112382408D01*
X129283000Y-112657592D01*
X129336686Y-112927490D01*
X129441995Y-113181727D01*
X129594880Y-113410535D01*
X129789465Y-113605120D01*
X130018273Y-113758005D01*
X130089943Y-113787692D01*
X130076977Y-113792364D01*
X129961020Y-113854344D01*
X129894040Y-114094435D01*
X130680000Y-114880395D01*
X131465960Y-114094435D01*
X131398980Y-113854344D01*
X131263240Y-113790515D01*
X131341727Y-113758005D01*
X131570535Y-113605120D01*
X131765120Y-113410535D01*
X131918005Y-113181727D01*
X132023314Y-112927490D01*
X132077000Y-112657592D01*
X132077000Y-112382408D01*
X132023314Y-112112510D01*
X131918005Y-111858273D01*
X131765120Y-111629465D01*
X131570535Y-111434880D01*
X131341727Y-111281995D01*
X131264485Y-111250000D01*
X131341727Y-111218005D01*
X131570535Y-111065120D01*
X131765120Y-110870535D01*
X131918005Y-110641727D01*
X132023314Y-110387490D01*
X132077000Y-110117592D01*
X132077000Y-109842408D01*
X132023314Y-109572510D01*
X131918005Y-109318273D01*
X131765120Y-109089465D01*
X131570535Y-108894880D01*
X131341727Y-108741995D01*
X131264485Y-108710000D01*
X131341727Y-108678005D01*
X131570535Y-108525120D01*
X131765120Y-108330535D01*
X131918005Y-108101727D01*
X132023314Y-107847490D01*
X132077000Y-107577592D01*
X132077000Y-107302408D01*
X132023314Y-107032510D01*
X131918005Y-106778273D01*
X131765120Y-106549465D01*
X131570535Y-106354880D01*
X131341727Y-106201995D01*
X131264485Y-106170000D01*
X131341727Y-106138005D01*
X131570535Y-105985120D01*
X131765120Y-105790535D01*
X131918005Y-105561727D01*
X132023314Y-105307490D01*
X132077000Y-105037592D01*
X132077000Y-104762408D01*
X132023314Y-104492510D01*
X131918005Y-104238273D01*
X131765120Y-104009465D01*
X131570535Y-103814880D01*
X131341727Y-103661995D01*
X131264485Y-103630000D01*
X131341727Y-103598005D01*
X131570535Y-103445120D01*
X131765120Y-103250535D01*
X131918005Y-103021727D01*
X132023314Y-102767490D01*
X132077000Y-102497592D01*
X132077000Y-102222408D01*
X132023314Y-101952510D01*
X131918005Y-101698273D01*
X131765120Y-101469465D01*
X131570535Y-101274880D01*
X131341727Y-101121995D01*
X131264485Y-101090000D01*
X131341727Y-101058005D01*
X131570535Y-100905120D01*
X131765120Y-100710535D01*
X131918005Y-100481727D01*
X132023314Y-100227490D01*
X132077000Y-99957592D01*
X132077000Y-99682408D01*
X132023314Y-99412510D01*
X131918005Y-99158273D01*
X131765120Y-98929465D01*
X131570535Y-98734880D01*
X131341727Y-98581995D01*
X131264485Y-98550000D01*
X131341727Y-98518005D01*
X131570535Y-98365120D01*
X131765120Y-98170535D01*
X131918005Y-97941727D01*
X132023314Y-97687490D01*
X132077000Y-97417592D01*
X132077000Y-97142408D01*
X132023314Y-96872510D01*
X131918005Y-96618273D01*
X131765120Y-96389465D01*
X131570535Y-96194880D01*
X131341727Y-96041995D01*
X131264485Y-96010000D01*
X131341727Y-95978005D01*
X131570535Y-95825120D01*
X131765120Y-95630535D01*
X131918005Y-95401727D01*
X132023314Y-95147490D01*
X132077000Y-94877592D01*
X132077000Y-94602408D01*
X132023314Y-94332510D01*
X131918005Y-94078273D01*
X131765120Y-93849465D01*
X131570535Y-93654880D01*
X131341727Y-93501995D01*
X131264485Y-93470000D01*
X131341727Y-93438005D01*
X131570535Y-93285120D01*
X131765120Y-93090535D01*
X131918005Y-92861727D01*
X132023314Y-92607490D01*
X132077000Y-92337592D01*
X132077000Y-92062408D01*
X132023314Y-91792510D01*
X131918005Y-91538273D01*
X131765120Y-91309465D01*
X131570535Y-91114880D01*
X131341727Y-90961995D01*
X131264485Y-90930000D01*
X131341727Y-90898005D01*
X131570535Y-90745120D01*
X131765120Y-90550535D01*
X131918005Y-90321727D01*
X132023314Y-90067490D01*
X132077000Y-89797592D01*
X132077000Y-89522408D01*
X132023314Y-89252510D01*
X131918005Y-88998273D01*
X131765120Y-88769465D01*
X131570535Y-88574880D01*
X131341727Y-88421995D01*
X131264485Y-88390000D01*
X131341727Y-88358005D01*
X131570535Y-88205120D01*
X131765120Y-88010535D01*
X131918005Y-87781727D01*
X132023314Y-87527490D01*
X132077000Y-87257592D01*
X132077000Y-86982408D01*
X132023314Y-86712510D01*
X131918005Y-86458273D01*
X131765120Y-86229465D01*
X131600616Y-86064961D01*
X136381100Y-86064961D01*
X136381100Y-86268839D01*
X136420874Y-86468798D01*
X136498895Y-86657156D01*
X136612163Y-86826674D01*
X136656101Y-86870612D01*
X136656100Y-118154458D01*
X136649895Y-118163744D01*
X136571874Y-118352102D01*
X136532100Y-118552061D01*
X136532100Y-118755939D01*
X136571874Y-118955898D01*
X136649895Y-119144256D01*
X136763163Y-119313774D01*
X136907326Y-119457937D01*
X137076844Y-119571205D01*
X137265202Y-119649226D01*
X137465161Y-119689000D01*
X137669039Y-119689000D01*
X137868998Y-119649226D01*
X138057356Y-119571205D01*
X138226874Y-119457937D01*
X138371037Y-119313774D01*
X138484305Y-119144256D01*
X138562326Y-118955898D01*
X138602100Y-118755939D01*
X138602100Y-118552061D01*
X138562326Y-118352102D01*
X138484305Y-118163744D01*
X138371037Y-117994226D01*
X138226874Y-117850063D01*
X138176100Y-117816137D01*
X138176100Y-104972017D01*
X149598090Y-104972017D01*
X149639078Y-105244133D01*
X149732364Y-105503023D01*
X149794344Y-105618980D01*
X150034435Y-105685960D01*
X150820395Y-104900000D01*
X151179605Y-104900000D01*
X151965565Y-105685960D01*
X152205656Y-105618980D01*
X152322756Y-105369952D01*
X152389023Y-105102865D01*
X152401910Y-104827983D01*
X152360922Y-104555867D01*
X152267636Y-104296977D01*
X152205656Y-104181020D01*
X151965565Y-104114040D01*
X151179605Y-104900000D01*
X150820395Y-104900000D01*
X150034435Y-104114040D01*
X149794344Y-104181020D01*
X149677244Y-104430048D01*
X149610977Y-104697135D01*
X149598090Y-104972017D01*
X138176100Y-104972017D01*
X138176100Y-86870611D01*
X138220037Y-86826674D01*
X138333305Y-86657156D01*
X138411326Y-86468798D01*
X138451100Y-86268839D01*
X138451100Y-86064961D01*
X138411326Y-85865002D01*
X138333305Y-85676644D01*
X138220037Y-85507126D01*
X138075874Y-85362963D01*
X137906356Y-85249695D01*
X137717998Y-85171674D01*
X137518039Y-85131900D01*
X137314161Y-85131900D01*
X137114202Y-85171674D01*
X136925844Y-85249695D01*
X136756326Y-85362963D01*
X136612163Y-85507126D01*
X136498895Y-85676644D01*
X136420874Y-85865002D01*
X136381100Y-86064961D01*
X131600616Y-86064961D01*
X131570535Y-86034880D01*
X131341727Y-85881995D01*
X131264485Y-85850000D01*
X131341727Y-85818005D01*
X131570535Y-85665120D01*
X131765120Y-85470535D01*
X131918005Y-85241727D01*
X132023314Y-84987490D01*
X132077000Y-84717592D01*
X132077000Y-84442408D01*
X132023314Y-84172510D01*
X131918005Y-83918273D01*
X131765120Y-83689465D01*
X131570535Y-83494880D01*
X131341727Y-83341995D01*
X131264485Y-83310000D01*
X131341727Y-83278005D01*
X131570535Y-83125120D01*
X131765120Y-82930535D01*
X131918005Y-82701727D01*
X132023314Y-82447490D01*
X132077000Y-82177592D01*
X132077000Y-81902408D01*
X132023314Y-81632510D01*
X131918005Y-81378273D01*
X131765120Y-81149465D01*
X131570535Y-80954880D01*
X131341727Y-80801995D01*
X131264485Y-80770000D01*
X131341727Y-80738005D01*
X131570535Y-80585120D01*
X131765120Y-80390535D01*
X131918005Y-80161727D01*
X132023314Y-79907490D01*
X132077000Y-79637592D01*
X132077000Y-79362408D01*
X132023314Y-79092510D01*
X131918005Y-78838273D01*
X131765120Y-78609465D01*
X131570535Y-78414880D01*
X131341727Y-78261995D01*
X131264485Y-78230000D01*
X131341727Y-78198005D01*
X131570535Y-78045120D01*
X131765120Y-77850535D01*
X131918005Y-77621727D01*
X132023314Y-77367490D01*
X132077000Y-77097592D01*
X132077000Y-76822408D01*
X132023314Y-76552510D01*
X131918005Y-76298273D01*
X131765120Y-76069465D01*
X131570535Y-75874880D01*
X131341727Y-75721995D01*
X131264485Y-75690000D01*
X131341727Y-75658005D01*
X131570535Y-75505120D01*
X131765120Y-75310535D01*
X131918005Y-75081727D01*
X132023314Y-74827490D01*
X132077000Y-74557592D01*
X132077000Y-74282408D01*
X132023314Y-74012510D01*
X131918005Y-73758273D01*
X131765120Y-73529465D01*
X131570535Y-73334880D01*
X131341727Y-73181995D01*
X131264485Y-73150000D01*
X131341727Y-73118005D01*
X131570535Y-72965120D01*
X131765120Y-72770535D01*
X131918005Y-72541727D01*
X132023314Y-72287490D01*
X132077000Y-72017592D01*
X132077000Y-71742408D01*
X132023314Y-71472510D01*
X131918005Y-71218273D01*
X131765120Y-70989465D01*
X131570535Y-70794880D01*
X131341727Y-70641995D01*
X131264485Y-70610000D01*
X131341727Y-70578005D01*
X131570535Y-70425120D01*
X131765120Y-70230535D01*
X131918005Y-70001727D01*
X132023314Y-69747490D01*
X132077000Y-69477592D01*
X132077000Y-69202408D01*
X132023314Y-68932510D01*
X131918005Y-68678273D01*
X131765120Y-68449465D01*
X131570535Y-68254880D01*
X131341727Y-68101995D01*
X131264485Y-68070000D01*
X131341727Y-68038005D01*
X131570535Y-67885120D01*
X131765120Y-67690535D01*
X131918005Y-67461727D01*
X132023314Y-67207490D01*
X132077000Y-66937592D01*
X132077000Y-66662408D01*
X132023314Y-66392510D01*
X131918005Y-66138273D01*
X131765120Y-65909465D01*
X131570535Y-65714880D01*
X131341727Y-65561995D01*
X131264485Y-65530000D01*
X131341727Y-65498005D01*
X131570535Y-65345120D01*
X131765120Y-65150535D01*
X131918005Y-64921727D01*
X132023314Y-64667490D01*
X132077000Y-64397592D01*
X132077000Y-64122408D01*
X149603000Y-64122408D01*
X149603000Y-64397592D01*
X149656686Y-64667490D01*
X149761995Y-64921727D01*
X149914880Y-65150535D01*
X150109465Y-65345120D01*
X150338273Y-65498005D01*
X150415515Y-65530000D01*
X150338273Y-65561995D01*
X150109465Y-65714880D01*
X149914880Y-65909465D01*
X149761995Y-66138273D01*
X149656686Y-66392510D01*
X149603000Y-66662408D01*
X149603000Y-66937592D01*
X149656686Y-67207490D01*
X149761995Y-67461727D01*
X149914880Y-67690535D01*
X150109465Y-67885120D01*
X150338273Y-68038005D01*
X150415515Y-68070000D01*
X150338273Y-68101995D01*
X150109465Y-68254880D01*
X149914880Y-68449465D01*
X149761995Y-68678273D01*
X149656686Y-68932510D01*
X149603000Y-69202408D01*
X149603000Y-69477592D01*
X149656686Y-69747490D01*
X149761995Y-70001727D01*
X149914880Y-70230535D01*
X150109465Y-70425120D01*
X150338273Y-70578005D01*
X150415515Y-70610000D01*
X150338273Y-70641995D01*
X150109465Y-70794880D01*
X149914880Y-70989465D01*
X149761995Y-71218273D01*
X149656686Y-71472510D01*
X149603000Y-71742408D01*
X149603000Y-72017592D01*
X149656686Y-72287490D01*
X149761995Y-72541727D01*
X149914880Y-72770535D01*
X150109465Y-72965120D01*
X150338273Y-73118005D01*
X150415515Y-73150000D01*
X150338273Y-73181995D01*
X150109465Y-73334880D01*
X149914880Y-73529465D01*
X149761995Y-73758273D01*
X149656686Y-74012510D01*
X149603000Y-74282408D01*
X149603000Y-74557592D01*
X149656686Y-74827490D01*
X149761995Y-75081727D01*
X149914880Y-75310535D01*
X150109465Y-75505120D01*
X150338273Y-75658005D01*
X150415515Y-75690000D01*
X150338273Y-75721995D01*
X150109465Y-75874880D01*
X149914880Y-76069465D01*
X149761995Y-76298273D01*
X149656686Y-76552510D01*
X149603000Y-76822408D01*
X149603000Y-77097592D01*
X149656686Y-77367490D01*
X149761995Y-77621727D01*
X149914880Y-77850535D01*
X150109465Y-78045120D01*
X150338273Y-78198005D01*
X150415515Y-78230000D01*
X150338273Y-78261995D01*
X150109465Y-78414880D01*
X149914880Y-78609465D01*
X149761995Y-78838273D01*
X149656686Y-79092510D01*
X149603000Y-79362408D01*
X149603000Y-79637592D01*
X149656686Y-79907490D01*
X149761995Y-80161727D01*
X149914880Y-80390535D01*
X150109465Y-80585120D01*
X150338273Y-80738005D01*
X150415515Y-80770000D01*
X150338273Y-80801995D01*
X150109465Y-80954880D01*
X149914880Y-81149465D01*
X149761995Y-81378273D01*
X149656686Y-81632510D01*
X149603000Y-81902408D01*
X149603000Y-82177592D01*
X149656686Y-82447490D01*
X149761995Y-82701727D01*
X149914880Y-82930535D01*
X150109465Y-83125120D01*
X150338273Y-83278005D01*
X150415515Y-83310000D01*
X150338273Y-83341995D01*
X150109465Y-83494880D01*
X149914880Y-83689465D01*
X149761995Y-83918273D01*
X149656686Y-84172510D01*
X149603000Y-84442408D01*
X149603000Y-84717592D01*
X149656686Y-84987490D01*
X149761995Y-85241727D01*
X149914880Y-85470535D01*
X150109465Y-85665120D01*
X150338273Y-85818005D01*
X150415515Y-85850000D01*
X150338273Y-85881995D01*
X150109465Y-86034880D01*
X149914880Y-86229465D01*
X149761995Y-86458273D01*
X149656686Y-86712510D01*
X149603000Y-86982408D01*
X149603000Y-87257592D01*
X149656686Y-87527490D01*
X149761995Y-87781727D01*
X149914880Y-88010535D01*
X150109465Y-88205120D01*
X150338273Y-88358005D01*
X150415515Y-88390000D01*
X150338273Y-88421995D01*
X150109465Y-88574880D01*
X149914880Y-88769465D01*
X149761995Y-88998273D01*
X149656686Y-89252510D01*
X149603000Y-89522408D01*
X149603000Y-89797592D01*
X149656686Y-90067490D01*
X149761995Y-90321727D01*
X149914880Y-90550535D01*
X150109465Y-90745120D01*
X150338273Y-90898005D01*
X150415515Y-90930000D01*
X150338273Y-90961995D01*
X150109465Y-91114880D01*
X149914880Y-91309465D01*
X149761995Y-91538273D01*
X149656686Y-91792510D01*
X149603000Y-92062408D01*
X149603000Y-92337592D01*
X149656686Y-92607490D01*
X149761995Y-92861727D01*
X149914880Y-93090535D01*
X150109465Y-93285120D01*
X150338273Y-93438005D01*
X150415515Y-93470000D01*
X150338273Y-93501995D01*
X150109465Y-93654880D01*
X149914880Y-93849465D01*
X149761995Y-94078273D01*
X149656686Y-94332510D01*
X149603000Y-94602408D01*
X149603000Y-94877592D01*
X149656686Y-95147490D01*
X149761995Y-95401727D01*
X149914880Y-95630535D01*
X150109465Y-95825120D01*
X150338273Y-95978005D01*
X150415515Y-96010000D01*
X150338273Y-96041995D01*
X150109465Y-96194880D01*
X149914880Y-96389465D01*
X149761995Y-96618273D01*
X149656686Y-96872510D01*
X149603000Y-97142408D01*
X149603000Y-97417592D01*
X149656686Y-97687490D01*
X149761995Y-97941727D01*
X149914880Y-98170535D01*
X150109465Y-98365120D01*
X150338273Y-98518005D01*
X150415515Y-98550000D01*
X150338273Y-98581995D01*
X150109465Y-98734880D01*
X149914880Y-98929465D01*
X149761995Y-99158273D01*
X149656686Y-99412510D01*
X149603000Y-99682408D01*
X149603000Y-99957592D01*
X149656686Y-100227490D01*
X149761995Y-100481727D01*
X149914880Y-100710535D01*
X150109465Y-100905120D01*
X150338273Y-101058005D01*
X150415515Y-101090000D01*
X150338273Y-101121995D01*
X150109465Y-101274880D01*
X149914880Y-101469465D01*
X149761995Y-101698273D01*
X149656686Y-101952510D01*
X149603000Y-102222408D01*
X149603000Y-102497592D01*
X149656686Y-102767490D01*
X149761995Y-103021727D01*
X149914880Y-103250535D01*
X150109465Y-103445120D01*
X150338273Y-103598005D01*
X150409943Y-103627692D01*
X150396977Y-103632364D01*
X150281020Y-103694344D01*
X150214040Y-103934435D01*
X151000000Y-104720395D01*
X151785960Y-103934435D01*
X151718980Y-103694344D01*
X151583240Y-103630515D01*
X151661727Y-103598005D01*
X151890535Y-103445120D01*
X152085120Y-103250535D01*
X152238005Y-103021727D01*
X152343314Y-102767490D01*
X152397000Y-102497592D01*
X152397000Y-102222408D01*
X152343314Y-101952510D01*
X152238005Y-101698273D01*
X152085120Y-101469465D01*
X151890535Y-101274880D01*
X151661727Y-101121995D01*
X151584485Y-101090000D01*
X151661727Y-101058005D01*
X151890535Y-100905120D01*
X152085120Y-100710535D01*
X152238005Y-100481727D01*
X152343314Y-100227490D01*
X152397000Y-99957592D01*
X152397000Y-99682408D01*
X152343314Y-99412510D01*
X152238005Y-99158273D01*
X152085120Y-98929465D01*
X151890535Y-98734880D01*
X151661727Y-98581995D01*
X151584485Y-98550000D01*
X151661727Y-98518005D01*
X151890535Y-98365120D01*
X152085120Y-98170535D01*
X152238005Y-97941727D01*
X152343314Y-97687490D01*
X152397000Y-97417592D01*
X152397000Y-97142408D01*
X152343314Y-96872510D01*
X152238005Y-96618273D01*
X152085120Y-96389465D01*
X151890535Y-96194880D01*
X151661727Y-96041995D01*
X151584485Y-96010000D01*
X151661727Y-95978005D01*
X151890535Y-95825120D01*
X152085120Y-95630535D01*
X152238005Y-95401727D01*
X152343314Y-95147490D01*
X152397000Y-94877592D01*
X152397000Y-94602408D01*
X152343314Y-94332510D01*
X152238005Y-94078273D01*
X152085120Y-93849465D01*
X151890535Y-93654880D01*
X151661727Y-93501995D01*
X151584485Y-93470000D01*
X151661727Y-93438005D01*
X151890535Y-93285120D01*
X152085120Y-93090535D01*
X152238005Y-92861727D01*
X152343314Y-92607490D01*
X152397000Y-92337592D01*
X152397000Y-92062408D01*
X152343314Y-91792510D01*
X152238005Y-91538273D01*
X152085120Y-91309465D01*
X151890535Y-91114880D01*
X151661727Y-90961995D01*
X151584485Y-90930000D01*
X151661727Y-90898005D01*
X151890535Y-90745120D01*
X152085120Y-90550535D01*
X152238005Y-90321727D01*
X152343314Y-90067490D01*
X152397000Y-89797592D01*
X152397000Y-89522408D01*
X152343314Y-89252510D01*
X152238005Y-88998273D01*
X152085120Y-88769465D01*
X151890535Y-88574880D01*
X151661727Y-88421995D01*
X151584485Y-88390000D01*
X151661727Y-88358005D01*
X151890535Y-88205120D01*
X152085120Y-88010535D01*
X152238005Y-87781727D01*
X152343314Y-87527490D01*
X152397000Y-87257592D01*
X152397000Y-86982408D01*
X152343314Y-86712510D01*
X152238005Y-86458273D01*
X152085120Y-86229465D01*
X151890535Y-86034880D01*
X151661727Y-85881995D01*
X151584485Y-85850000D01*
X151661727Y-85818005D01*
X151890535Y-85665120D01*
X152085120Y-85470535D01*
X152238005Y-85241727D01*
X152343314Y-84987490D01*
X152397000Y-84717592D01*
X152397000Y-84442408D01*
X152343314Y-84172510D01*
X152238005Y-83918273D01*
X152085120Y-83689465D01*
X151890535Y-83494880D01*
X151661727Y-83341995D01*
X151584485Y-83310000D01*
X151661727Y-83278005D01*
X151890535Y-83125120D01*
X152085120Y-82930535D01*
X152238005Y-82701727D01*
X152343314Y-82447490D01*
X152397000Y-82177592D01*
X152397000Y-81902408D01*
X152343314Y-81632510D01*
X152238005Y-81378273D01*
X152085120Y-81149465D01*
X151890535Y-80954880D01*
X151661727Y-80801995D01*
X151584485Y-80770000D01*
X151661727Y-80738005D01*
X151890535Y-80585120D01*
X152085120Y-80390535D01*
X152238005Y-80161727D01*
X152343314Y-79907490D01*
X152397000Y-79637592D01*
X152397000Y-79362408D01*
X152343314Y-79092510D01*
X152238005Y-78838273D01*
X152085120Y-78609465D01*
X151890535Y-78414880D01*
X151661727Y-78261995D01*
X151584485Y-78230000D01*
X151661727Y-78198005D01*
X151890535Y-78045120D01*
X152085120Y-77850535D01*
X152238005Y-77621727D01*
X152343314Y-77367490D01*
X152397000Y-77097592D01*
X152397000Y-76822408D01*
X152343314Y-76552510D01*
X152238005Y-76298273D01*
X152085120Y-76069465D01*
X151890535Y-75874880D01*
X151661727Y-75721995D01*
X151584485Y-75690000D01*
X151661727Y-75658005D01*
X151890535Y-75505120D01*
X152085120Y-75310535D01*
X152238005Y-75081727D01*
X152343314Y-74827490D01*
X152397000Y-74557592D01*
X152397000Y-74282408D01*
X152343314Y-74012510D01*
X152238005Y-73758273D01*
X152085120Y-73529465D01*
X151890535Y-73334880D01*
X151661727Y-73181995D01*
X151584485Y-73150000D01*
X151661727Y-73118005D01*
X151890535Y-72965120D01*
X152085120Y-72770535D01*
X152238005Y-72541727D01*
X152343314Y-72287490D01*
X152397000Y-72017592D01*
X152397000Y-71742408D01*
X152343314Y-71472510D01*
X152238005Y-71218273D01*
X152085120Y-70989465D01*
X151890535Y-70794880D01*
X151661727Y-70641995D01*
X151584485Y-70610000D01*
X151661727Y-70578005D01*
X151890535Y-70425120D01*
X152085120Y-70230535D01*
X152238005Y-70001727D01*
X152343314Y-69747490D01*
X152397000Y-69477592D01*
X152397000Y-69202408D01*
X152343314Y-68932510D01*
X152238005Y-68678273D01*
X152085120Y-68449465D01*
X151890535Y-68254880D01*
X151661727Y-68101995D01*
X151584485Y-68070000D01*
X151661727Y-68038005D01*
X151890535Y-67885120D01*
X152085120Y-67690535D01*
X152238005Y-67461727D01*
X152343314Y-67207490D01*
X152397000Y-66937592D01*
X152397000Y-66662408D01*
X152343314Y-66392510D01*
X152238005Y-66138273D01*
X152085120Y-65909465D01*
X151890535Y-65714880D01*
X151661727Y-65561995D01*
X151584485Y-65530000D01*
X151661727Y-65498005D01*
X151890535Y-65345120D01*
X152085120Y-65150535D01*
X152238005Y-64921727D01*
X152343314Y-64667490D01*
X152397000Y-64397592D01*
X152397000Y-64122408D01*
X152343314Y-63852510D01*
X152238005Y-63598273D01*
X152085120Y-63369465D01*
X151890535Y-63174880D01*
X151661727Y-63021995D01*
X151407490Y-62916686D01*
X151137592Y-62863000D01*
X150862408Y-62863000D01*
X150592510Y-62916686D01*
X150338273Y-63021995D01*
X150109465Y-63174880D01*
X149914880Y-63369465D01*
X149761995Y-63598273D01*
X149656686Y-63852510D01*
X149603000Y-64122408D01*
X132077000Y-64122408D01*
X132023314Y-63852510D01*
X131918005Y-63598273D01*
X131765120Y-63369465D01*
X131570535Y-63174880D01*
X131341727Y-63021995D01*
X131087490Y-62916686D01*
X130817592Y-62863000D01*
X130542408Y-62863000D01*
X130272510Y-62916686D01*
X130018273Y-63021995D01*
X129789465Y-63174880D01*
X129594880Y-63369465D01*
X129441995Y-63598273D01*
X129336686Y-63852510D01*
X129283000Y-64122408D01*
X125660000Y-64122408D01*
X125660000Y-56898061D01*
X126965000Y-56898061D01*
X126965000Y-57101939D01*
X127004774Y-57301898D01*
X127082795Y-57490256D01*
X127196063Y-57659774D01*
X127340226Y-57803937D01*
X127509744Y-57917205D01*
X127698102Y-57995226D01*
X127898061Y-58035000D01*
X128101939Y-58035000D01*
X128216482Y-58012216D01*
X128286595Y-58143387D01*
X128397038Y-58277962D01*
X128531613Y-58388405D01*
X128685149Y-58470472D01*
X128851745Y-58521008D01*
X129024999Y-58538072D01*
X129850001Y-58538072D01*
X130023255Y-58521008D01*
X130189851Y-58470472D01*
X130343387Y-58388405D01*
X130477962Y-58277962D01*
X130588405Y-58143387D01*
X130670472Y-57989851D01*
X130697727Y-57900000D01*
X131261928Y-57900000D01*
X131274188Y-58024482D01*
X131310498Y-58144180D01*
X131369463Y-58254494D01*
X131448815Y-58351185D01*
X131545506Y-58430537D01*
X131655820Y-58489502D01*
X131775518Y-58525812D01*
X131900000Y-58538072D01*
X132276750Y-58535000D01*
X132435500Y-58376250D01*
X132435500Y-57127000D01*
X132689500Y-57127000D01*
X132689500Y-58376250D01*
X132848250Y-58535000D01*
X133225000Y-58538072D01*
X133349482Y-58525812D01*
X133469180Y-58489502D01*
X133579494Y-58430537D01*
X133676185Y-58351185D01*
X133755537Y-58254494D01*
X133814502Y-58144180D01*
X133850812Y-58024482D01*
X133863072Y-57900000D01*
X133860000Y-57285750D01*
X133724250Y-57150000D01*
X135511928Y-57150000D01*
X135511928Y-58850000D01*
X135524188Y-58974482D01*
X135560498Y-59094180D01*
X135619463Y-59204494D01*
X135698815Y-59301185D01*
X135795506Y-59380537D01*
X135905820Y-59439502D01*
X136025518Y-59475812D01*
X136150000Y-59488072D01*
X137850000Y-59488072D01*
X137974482Y-59475812D01*
X138094180Y-59439502D01*
X138204494Y-59380537D01*
X138301185Y-59301185D01*
X138380537Y-59204494D01*
X138439502Y-59094180D01*
X138463966Y-59013534D01*
X138539731Y-59097588D01*
X138773080Y-59271641D01*
X139035901Y-59396825D01*
X139183110Y-59441476D01*
X139413000Y-59320155D01*
X139413000Y-58127000D01*
X139667000Y-58127000D01*
X139667000Y-59320155D01*
X139896890Y-59441476D01*
X140044099Y-59396825D01*
X140306920Y-59271641D01*
X140540269Y-59097588D01*
X140735178Y-58881355D01*
X140810000Y-58755745D01*
X140884822Y-58881355D01*
X141079731Y-59097588D01*
X141313080Y-59271641D01*
X141575901Y-59396825D01*
X141723110Y-59441476D01*
X141953000Y-59320155D01*
X141953000Y-58127000D01*
X139667000Y-58127000D01*
X139413000Y-58127000D01*
X139393000Y-58127000D01*
X139393000Y-57873000D01*
X139413000Y-57873000D01*
X139413000Y-56679845D01*
X139667000Y-56679845D01*
X139667000Y-57873000D01*
X141953000Y-57873000D01*
X141953000Y-56679845D01*
X142207000Y-56679845D01*
X142207000Y-57873000D01*
X142227000Y-57873000D01*
X142227000Y-58127000D01*
X142207000Y-58127000D01*
X142207000Y-59320155D01*
X142436890Y-59441476D01*
X142584099Y-59396825D01*
X142846920Y-59271641D01*
X143080269Y-59097588D01*
X143275178Y-58881355D01*
X143344805Y-58764466D01*
X143466525Y-58946632D01*
X143673368Y-59153475D01*
X143916589Y-59315990D01*
X144186842Y-59427932D01*
X144473740Y-59485000D01*
X144766260Y-59485000D01*
X145053158Y-59427932D01*
X145323411Y-59315990D01*
X145566632Y-59153475D01*
X145773475Y-58946632D01*
X145935990Y-58703411D01*
X146047932Y-58433158D01*
X146105000Y-58146260D01*
X146105000Y-57853740D01*
X146047932Y-57566842D01*
X145935990Y-57296589D01*
X145773475Y-57053368D01*
X145566632Y-56846525D01*
X145323411Y-56684010D01*
X145053158Y-56572068D01*
X144766260Y-56515000D01*
X144473740Y-56515000D01*
X144186842Y-56572068D01*
X143916589Y-56684010D01*
X143673368Y-56846525D01*
X143466525Y-57053368D01*
X143344805Y-57235534D01*
X143275178Y-57118645D01*
X143080269Y-56902412D01*
X142846920Y-56728359D01*
X142584099Y-56603175D01*
X142436890Y-56558524D01*
X142207000Y-56679845D01*
X141953000Y-56679845D01*
X141723110Y-56558524D01*
X141575901Y-56603175D01*
X141313080Y-56728359D01*
X141079731Y-56902412D01*
X140884822Y-57118645D01*
X140810000Y-57244255D01*
X140735178Y-57118645D01*
X140540269Y-56902412D01*
X140306920Y-56728359D01*
X140044099Y-56603175D01*
X139896890Y-56558524D01*
X139667000Y-56679845D01*
X139413000Y-56679845D01*
X139183110Y-56558524D01*
X139035901Y-56603175D01*
X138773080Y-56728359D01*
X138539731Y-56902412D01*
X138463966Y-56986466D01*
X138439502Y-56905820D01*
X138380537Y-56795506D01*
X138301185Y-56698815D01*
X138204494Y-56619463D01*
X138094180Y-56560498D01*
X137974482Y-56524188D01*
X137850000Y-56511928D01*
X136150000Y-56511928D01*
X136025518Y-56524188D01*
X135905820Y-56560498D01*
X135795506Y-56619463D01*
X135698815Y-56698815D01*
X135619463Y-56795506D01*
X135560498Y-56905820D01*
X135524188Y-57025518D01*
X135511928Y-57150000D01*
X133724250Y-57150000D01*
X133701250Y-57127000D01*
X132689500Y-57127000D01*
X132435500Y-57127000D01*
X131423750Y-57127000D01*
X131265000Y-57285750D01*
X131261928Y-57900000D01*
X130697727Y-57900000D01*
X130721008Y-57823255D01*
X130738072Y-57650001D01*
X130738072Y-56349999D01*
X130721008Y-56176745D01*
X130697728Y-56100000D01*
X131261928Y-56100000D01*
X131265000Y-56714250D01*
X131423750Y-56873000D01*
X132435500Y-56873000D01*
X132435500Y-55623750D01*
X132689500Y-55623750D01*
X132689500Y-56873000D01*
X133701250Y-56873000D01*
X133860000Y-56714250D01*
X133861821Y-56349999D01*
X147546928Y-56349999D01*
X147546928Y-57650001D01*
X147563992Y-57823255D01*
X147614528Y-57989851D01*
X147696595Y-58143387D01*
X147807038Y-58277962D01*
X147941613Y-58388405D01*
X147962501Y-58399570D01*
X147962501Y-58890977D01*
X147965000Y-58916350D01*
X147965000Y-59101939D01*
X148004774Y-59301898D01*
X148082795Y-59490256D01*
X148196063Y-59659774D01*
X148340226Y-59803937D01*
X148509744Y-59917205D01*
X148698102Y-59995226D01*
X148898061Y-60035000D01*
X149101939Y-60035000D01*
X149301898Y-59995226D01*
X149490256Y-59917205D01*
X149659774Y-59803937D01*
X149803937Y-59659774D01*
X149917205Y-59490256D01*
X149995226Y-59301898D01*
X150035000Y-59101939D01*
X150035000Y-58898061D01*
X149995226Y-58698102D01*
X149917205Y-58509744D01*
X149806826Y-58344549D01*
X149887962Y-58277962D01*
X149998405Y-58143387D01*
X150080472Y-57989851D01*
X150107727Y-57900000D01*
X150671928Y-57900000D01*
X150684188Y-58024482D01*
X150720498Y-58144180D01*
X150779463Y-58254494D01*
X150858815Y-58351185D01*
X150955506Y-58430537D01*
X151065820Y-58489502D01*
X151185518Y-58525812D01*
X151310000Y-58538072D01*
X151686750Y-58535000D01*
X151845500Y-58376250D01*
X151845500Y-57127000D01*
X152099500Y-57127000D01*
X152099500Y-58376250D01*
X152258250Y-58535000D01*
X152635000Y-58538072D01*
X152759482Y-58525812D01*
X152879180Y-58489502D01*
X152989494Y-58430537D01*
X153086185Y-58351185D01*
X153165537Y-58254494D01*
X153224502Y-58144180D01*
X153260812Y-58024482D01*
X153273072Y-57900000D01*
X153270000Y-57285750D01*
X153111250Y-57127000D01*
X152099500Y-57127000D01*
X151845500Y-57127000D01*
X150833750Y-57127000D01*
X150675000Y-57285750D01*
X150671928Y-57900000D01*
X150107727Y-57900000D01*
X150131008Y-57823255D01*
X150148072Y-57650001D01*
X150148072Y-57116301D01*
X150181077Y-57007499D01*
X150197500Y-56840752D01*
X150197500Y-56100000D01*
X150671928Y-56100000D01*
X150675000Y-56714250D01*
X150833750Y-56873000D01*
X151845500Y-56873000D01*
X151845500Y-55623750D01*
X152099500Y-55623750D01*
X152099500Y-56873000D01*
X153111250Y-56873000D01*
X153270000Y-56714250D01*
X153273072Y-56100000D01*
X153260812Y-55975518D01*
X153224502Y-55855820D01*
X153165537Y-55745506D01*
X153086185Y-55648815D01*
X152989494Y-55569463D01*
X152879180Y-55510498D01*
X152759482Y-55474188D01*
X152635000Y-55461928D01*
X152258250Y-55465000D01*
X152099500Y-55623750D01*
X151845500Y-55623750D01*
X151686750Y-55465000D01*
X151310000Y-55461928D01*
X151185518Y-55474188D01*
X151065820Y-55510498D01*
X150955506Y-55569463D01*
X150858815Y-55648815D01*
X150779463Y-55745506D01*
X150720498Y-55855820D01*
X150684188Y-55975518D01*
X150671928Y-56100000D01*
X150197500Y-56100000D01*
X150197500Y-55077962D01*
X150227962Y-55052962D01*
X150338405Y-54918387D01*
X150420472Y-54764851D01*
X150447727Y-54675000D01*
X150511928Y-54675000D01*
X150524188Y-54799482D01*
X150560498Y-54919180D01*
X150619463Y-55029494D01*
X150698815Y-55126185D01*
X150795506Y-55205537D01*
X150905820Y-55264502D01*
X151025518Y-55300812D01*
X151150000Y-55313072D01*
X151651750Y-55310000D01*
X151810500Y-55151250D01*
X151810500Y-54127000D01*
X152064500Y-54127000D01*
X152064500Y-55151250D01*
X152223250Y-55310000D01*
X152725000Y-55313072D01*
X152849482Y-55300812D01*
X152969180Y-55264502D01*
X153079494Y-55205537D01*
X153176185Y-55126185D01*
X153255537Y-55029494D01*
X153314502Y-54919180D01*
X153350812Y-54799482D01*
X153363072Y-54675000D01*
X153360000Y-54285750D01*
X153201250Y-54127000D01*
X152064500Y-54127000D01*
X151810500Y-54127000D01*
X150673750Y-54127000D01*
X150515000Y-54285750D01*
X150511928Y-54675000D01*
X150447727Y-54675000D01*
X150471008Y-54598255D01*
X150488072Y-54425001D01*
X150488072Y-53574999D01*
X150471008Y-53401745D01*
X150447728Y-53325000D01*
X150511928Y-53325000D01*
X150515000Y-53714250D01*
X150673750Y-53873000D01*
X151810500Y-53873000D01*
X151810500Y-52848750D01*
X152064500Y-52848750D01*
X152064500Y-53873000D01*
X153201250Y-53873000D01*
X153360000Y-53714250D01*
X153363072Y-53325000D01*
X153350812Y-53200518D01*
X153314502Y-53080820D01*
X153255537Y-52970506D01*
X153176185Y-52873815D01*
X153079494Y-52794463D01*
X152969180Y-52735498D01*
X152849482Y-52699188D01*
X152725000Y-52686928D01*
X152223250Y-52690000D01*
X152064500Y-52848750D01*
X151810500Y-52848750D01*
X151651750Y-52690000D01*
X151150000Y-52686928D01*
X151025518Y-52699188D01*
X150905820Y-52735498D01*
X150795506Y-52794463D01*
X150698815Y-52873815D01*
X150619463Y-52970506D01*
X150560498Y-53080820D01*
X150524188Y-53200518D01*
X150511928Y-53325000D01*
X150447728Y-53325000D01*
X150420472Y-53235149D01*
X150338405Y-53081613D01*
X150227962Y-52947038D01*
X150093387Y-52836595D01*
X149939851Y-52754528D01*
X149773255Y-52703992D01*
X149600001Y-52686928D01*
X148524999Y-52686928D01*
X148351745Y-52703992D01*
X148185149Y-52754528D01*
X148031613Y-52836595D01*
X147897038Y-52947038D01*
X147786595Y-53081613D01*
X147704528Y-53235149D01*
X147653992Y-53401745D01*
X147636928Y-53574999D01*
X147636928Y-54425001D01*
X147653992Y-54598255D01*
X147704528Y-54764851D01*
X147786595Y-54918387D01*
X147897038Y-55052962D01*
X147927500Y-55077962D01*
X147927501Y-55623177D01*
X147807038Y-55722038D01*
X147696595Y-55856613D01*
X147614528Y-56010149D01*
X147563992Y-56176745D01*
X147546928Y-56349999D01*
X133861821Y-56349999D01*
X133863072Y-56100000D01*
X133850812Y-55975518D01*
X133814502Y-55855820D01*
X133755537Y-55745506D01*
X133676185Y-55648815D01*
X133579494Y-55569463D01*
X133469180Y-55510498D01*
X133349482Y-55474188D01*
X133225000Y-55461928D01*
X132848250Y-55465000D01*
X132689500Y-55623750D01*
X132435500Y-55623750D01*
X132276750Y-55465000D01*
X131900000Y-55461928D01*
X131775518Y-55474188D01*
X131655820Y-55510498D01*
X131545506Y-55569463D01*
X131448815Y-55648815D01*
X131369463Y-55745506D01*
X131310498Y-55855820D01*
X131274188Y-55975518D01*
X131261928Y-56100000D01*
X130697728Y-56100000D01*
X130697500Y-56099249D01*
X130697500Y-55077962D01*
X130727962Y-55052962D01*
X130838405Y-54918387D01*
X130920472Y-54764851D01*
X130947727Y-54675000D01*
X131011928Y-54675000D01*
X131024188Y-54799482D01*
X131060498Y-54919180D01*
X131119463Y-55029494D01*
X131198815Y-55126185D01*
X131295506Y-55205537D01*
X131405820Y-55264502D01*
X131525518Y-55300812D01*
X131650000Y-55313072D01*
X132151750Y-55310000D01*
X132310500Y-55151250D01*
X132310500Y-54127000D01*
X132564500Y-54127000D01*
X132564500Y-55151250D01*
X132723250Y-55310000D01*
X133225000Y-55313072D01*
X133349482Y-55300812D01*
X133469180Y-55264502D01*
X133579494Y-55205537D01*
X133676185Y-55126185D01*
X133755537Y-55029494D01*
X133814502Y-54919180D01*
X133850812Y-54799482D01*
X133863072Y-54675000D01*
X133860000Y-54285750D01*
X133701250Y-54127000D01*
X132564500Y-54127000D01*
X132310500Y-54127000D01*
X131173750Y-54127000D01*
X131015000Y-54285750D01*
X131011928Y-54675000D01*
X130947727Y-54675000D01*
X130971008Y-54598255D01*
X130988072Y-54425001D01*
X130988072Y-53574999D01*
X130971008Y-53401745D01*
X130947728Y-53325000D01*
X131011928Y-53325000D01*
X131015000Y-53714250D01*
X131173750Y-53873000D01*
X132310500Y-53873000D01*
X132310500Y-52848750D01*
X132564500Y-52848750D01*
X132564500Y-53873000D01*
X133701250Y-53873000D01*
X133860000Y-53714250D01*
X133863072Y-53325000D01*
X133850812Y-53200518D01*
X133814502Y-53080820D01*
X133755537Y-52970506D01*
X133676185Y-52873815D01*
X133579494Y-52794463D01*
X133469180Y-52735498D01*
X133349482Y-52699188D01*
X133225000Y-52686928D01*
X132723250Y-52690000D01*
X132564500Y-52848750D01*
X132310500Y-52848750D01*
X132151750Y-52690000D01*
X131650000Y-52686928D01*
X131525518Y-52699188D01*
X131405820Y-52735498D01*
X131295506Y-52794463D01*
X131198815Y-52873815D01*
X131119463Y-52970506D01*
X131060498Y-53080820D01*
X131024188Y-53200518D01*
X131011928Y-53325000D01*
X130947728Y-53325000D01*
X130920472Y-53235149D01*
X130838405Y-53081613D01*
X130727962Y-52947038D01*
X130593387Y-52836595D01*
X130439851Y-52754528D01*
X130273255Y-52703992D01*
X130100001Y-52686928D01*
X129024999Y-52686928D01*
X128851745Y-52703992D01*
X128685149Y-52754528D01*
X128531613Y-52836595D01*
X128397038Y-52947038D01*
X128286595Y-53081613D01*
X128204528Y-53235149D01*
X128153992Y-53401745D01*
X128136928Y-53574999D01*
X128136928Y-54425001D01*
X128153992Y-54598255D01*
X128204528Y-54764851D01*
X128286595Y-54918387D01*
X128397038Y-55052962D01*
X128427500Y-55077962D01*
X128427501Y-55697038D01*
X128397038Y-55722038D01*
X128286595Y-55856613D01*
X128216482Y-55987784D01*
X128101939Y-55965000D01*
X127898061Y-55965000D01*
X127698102Y-56004774D01*
X127509744Y-56082795D01*
X127340226Y-56196063D01*
X127196063Y-56340226D01*
X127082795Y-56509744D01*
X127004774Y-56698102D01*
X126965000Y-56898061D01*
X125660000Y-56898061D01*
X125660000Y-48779872D01*
X125765000Y-48779872D01*
X125765000Y-49220128D01*
X125850890Y-49651925D01*
X126019369Y-50058669D01*
X126263962Y-50424729D01*
X126575271Y-50736038D01*
X126941331Y-50980631D01*
X127348075Y-51149110D01*
X127779872Y-51235000D01*
X128220128Y-51235000D01*
X128651925Y-51149110D01*
X129058669Y-50980631D01*
X129424729Y-50736038D01*
X129736038Y-50424729D01*
X129980631Y-50058669D01*
X130149110Y-49651925D01*
X130235000Y-49220128D01*
X130235000Y-48779872D01*
X151765000Y-48779872D01*
X151765000Y-49220128D01*
X151850890Y-49651925D01*
X152019369Y-50058669D01*
X152263962Y-50424729D01*
X152575271Y-50736038D01*
X152941331Y-50980631D01*
X153348075Y-51149110D01*
X153779872Y-51235000D01*
X154220128Y-51235000D01*
X154651925Y-51149110D01*
X155058669Y-50980631D01*
X155424729Y-50736038D01*
X155736038Y-50424729D01*
X155980631Y-50058669D01*
X156149110Y-49651925D01*
X156235000Y-49220128D01*
X156235000Y-48779872D01*
X156149110Y-48348075D01*
X155980631Y-47941331D01*
X155736038Y-47575271D01*
X155424729Y-47263962D01*
X155058669Y-47019369D01*
X154651925Y-46850890D01*
X154220128Y-46765000D01*
X153779872Y-46765000D01*
X153348075Y-46850890D01*
X152941331Y-47019369D01*
X152575271Y-47263962D01*
X152263962Y-47575271D01*
X152019369Y-47941331D01*
X151850890Y-48348075D01*
X151765000Y-48779872D01*
X130235000Y-48779872D01*
X130149110Y-48348075D01*
X129980631Y-47941331D01*
X129736038Y-47575271D01*
X129424729Y-47263962D01*
X129058669Y-47019369D01*
X128651925Y-46850890D01*
X128220128Y-46765000D01*
X127779872Y-46765000D01*
X127348075Y-46850890D01*
X126941331Y-47019369D01*
X126575271Y-47263962D01*
X126263962Y-47575271D01*
X126019369Y-47941331D01*
X125850890Y-48348075D01*
X125765000Y-48779872D01*
X125660000Y-48779872D01*
X125660000Y-46660000D01*
X156340001Y-46660000D01*
X156340000Y-148340000D01*
G37*
%TD.AperFunction*%
%TD*%
M02*
