%TF.GenerationSoftware,KiCad,Pcbnew,5.1.9+dfsg1-1~bpo10+1*%
%TF.CreationDate,2021-06-27T12:24:29+02:00*%
%TF.ProjectId,flexPiStorm,666c6578-5069-4537-946f-726d2e6b6963,0.2*%
%TF.SameCoordinates,Original*%
%TF.FileFunction,Soldermask,Top*%
%TF.FilePolarity,Negative*%
%FSLAX46Y46*%
G04 Gerber Fmt 4.6, Leading zero omitted, Abs format (unit mm)*
G04 Created by KiCad (PCBNEW 5.1.9+dfsg1-1~bpo10+1) date 2021-06-27 12:24:29*
%MOMM*%
%LPD*%
G01*
G04 APERTURE LIST*
%ADD10R,1.700000X1.700000*%
%ADD11O,1.700000X1.700000*%
%ADD12R,1.524000X1.524000*%
%ADD13C,1.524000*%
%ADD14C,3.200000*%
%ADD15C,0.800000*%
G04 APERTURE END LIST*
D10*
%TO.C,J1*%
X137000000Y-58000000D03*
D11*
X139540000Y-58000000D03*
X142080000Y-58000000D03*
X144620000Y-58000000D03*
%TD*%
D12*
%TO.C,U1*%
X151000000Y-143000000D03*
D13*
X151000000Y-140460000D03*
X151000000Y-137920000D03*
X151000000Y-135380000D03*
X151000000Y-132840000D03*
X151000000Y-130300000D03*
X151000000Y-127760000D03*
X151000000Y-125220000D03*
X151000000Y-122680000D03*
X151000000Y-120140000D03*
X151000000Y-117600000D03*
X151000000Y-115060000D03*
X151000000Y-112520000D03*
X151000000Y-109980000D03*
X151000000Y-107440000D03*
X151000000Y-104900000D03*
X151000000Y-102360000D03*
X151000000Y-99820000D03*
X151000000Y-97280000D03*
X151000000Y-94740000D03*
X151000000Y-92200000D03*
X151000000Y-89660000D03*
X151000000Y-87120000D03*
X151000000Y-84580000D03*
X151000000Y-82040000D03*
X151000000Y-79500000D03*
X151000000Y-76960000D03*
X151000000Y-74420000D03*
X151000000Y-71880000D03*
X151000000Y-69340000D03*
X151000000Y-66800000D03*
X151000000Y-64260000D03*
X130680000Y-64260000D03*
X130680000Y-66800000D03*
X130680000Y-69340000D03*
X130680000Y-71880000D03*
X130680000Y-74420000D03*
X130680000Y-76960000D03*
X130680000Y-79500000D03*
X130680000Y-82040000D03*
X130680000Y-84580000D03*
X130680000Y-87120000D03*
X130680000Y-89660000D03*
X130680000Y-92200000D03*
X130680000Y-94740000D03*
X130680000Y-97280000D03*
X130680000Y-99820000D03*
X130680000Y-102360000D03*
X130680000Y-104900000D03*
X130680000Y-107440000D03*
X130680000Y-109980000D03*
X130680000Y-112520000D03*
X130680000Y-115060000D03*
X130680000Y-117600000D03*
X130680000Y-120140000D03*
X130680000Y-122680000D03*
X130680000Y-125220000D03*
X130680000Y-127760000D03*
X130680000Y-130300000D03*
X130680000Y-132840000D03*
X130680000Y-135380000D03*
X130680000Y-137920000D03*
X130680000Y-140460000D03*
X130680000Y-143000000D03*
%TD*%
D14*
%TO.C,H1*%
X128000000Y-49000000D03*
%TD*%
%TO.C,H2*%
X154000000Y-49000000D03*
%TD*%
%TO.C,H3*%
X154000000Y-146000000D03*
%TD*%
%TO.C,H4*%
X128000000Y-146000000D03*
%TD*%
D15*
X147000000Y-64000000D03*
X137567100Y-118654000D03*
X137416100Y-86166900D03*
M02*
