%TF.GenerationSoftware,KiCad,Pcbnew,5.1.9+dfsg1-1*%
%TF.CreationDate,2022-01-26T16:30:19+01:00*%
%TF.ProjectId,flexPiStorm,666c6578-5069-4537-946f-726d2e6b6963,0.5*%
%TF.SameCoordinates,Original*%
%TF.FileFunction,Soldermask,Top*%
%TF.FilePolarity,Negative*%
%FSLAX46Y46*%
G04 Gerber Fmt 4.6, Leading zero omitted, Abs format (unit mm)*
G04 Created by KiCad (PCBNEW 5.1.9+dfsg1-1) date 2022-01-26 16:30:19*
%MOMM*%
%LPD*%
G01*
G04 APERTURE LIST*
%ADD10R,2.400000X1.600000*%
%ADD11O,2.400000X1.600000*%
%ADD12R,1.700000X1.700000*%
%ADD13O,1.700000X1.700000*%
%ADD14C,3.200000*%
%ADD15C,0.800000*%
G04 APERTURE END LIST*
D10*
%TO.C,U1*%
X152360000Y-140590000D03*
D11*
X129500000Y-61850000D03*
X152360000Y-138050000D03*
X129500000Y-64390000D03*
X152360000Y-135510000D03*
X129500000Y-66930000D03*
X152360000Y-132970000D03*
X129500000Y-69470000D03*
X152360000Y-130430000D03*
X129500000Y-72010000D03*
X152360000Y-127890000D03*
X129500000Y-74550000D03*
X152360000Y-125350000D03*
X129500000Y-77090000D03*
X152360000Y-122810000D03*
X129500000Y-79630000D03*
X152360000Y-120270000D03*
X129500000Y-82170000D03*
X152360000Y-117730000D03*
X129500000Y-84710000D03*
X152360000Y-115190000D03*
X129500000Y-87250000D03*
X152360000Y-112650000D03*
X129500000Y-89790000D03*
X152360000Y-110110000D03*
X129500000Y-92330000D03*
X152360000Y-107570000D03*
X129500000Y-94870000D03*
X152360000Y-105030000D03*
X129500000Y-97410000D03*
X152360000Y-102490000D03*
X129500000Y-99950000D03*
X152360000Y-99950000D03*
X129500000Y-102490000D03*
X152360000Y-97410000D03*
X129500000Y-105030000D03*
X152360000Y-94870000D03*
X129500000Y-107570000D03*
X152360000Y-92330000D03*
X129500000Y-110110000D03*
X152360000Y-89790000D03*
X129500000Y-112650000D03*
X152360000Y-87250000D03*
X129500000Y-115190000D03*
X152360000Y-84710000D03*
X129500000Y-117730000D03*
X152360000Y-82170000D03*
X129500000Y-120270000D03*
X152360000Y-79630000D03*
X129500000Y-122810000D03*
X152360000Y-77090000D03*
X129500000Y-125350000D03*
X152360000Y-74550000D03*
X129500000Y-127890000D03*
X152360000Y-72010000D03*
X129500000Y-130430000D03*
X152360000Y-69470000D03*
X129500000Y-132970000D03*
X152360000Y-66930000D03*
X129500000Y-135510000D03*
X152360000Y-64390000D03*
X129500000Y-138050000D03*
X152360000Y-61850000D03*
X129500000Y-140590000D03*
%TD*%
D12*
%TO.C,J1*%
X137000000Y-56000000D03*
D13*
X139540000Y-56000000D03*
X142080000Y-56000000D03*
X144620000Y-56000000D03*
%TD*%
D14*
%TO.C,H1*%
X128000000Y-49000000D03*
%TD*%
%TO.C,H2*%
X154000000Y-49000000D03*
%TD*%
%TO.C,H3*%
X154000000Y-146000000D03*
%TD*%
%TO.C,H4*%
X128000000Y-146000000D03*
%TD*%
%TO.C,C1*%
G36*
G01*
X128775000Y-57650002D02*
X128775000Y-56349998D01*
G75*
G02*
X129024998Y-56100000I249998J0D01*
G01*
X129850002Y-56100000D01*
G75*
G02*
X130100000Y-56349998I0J-249998D01*
G01*
X130100000Y-57650002D01*
G75*
G02*
X129850002Y-57900000I-249998J0D01*
G01*
X129024998Y-57900000D01*
G75*
G02*
X128775000Y-57650002I0J249998D01*
G01*
G37*
G36*
G01*
X131900000Y-57650002D02*
X131900000Y-56349998D01*
G75*
G02*
X132149998Y-56100000I249998J0D01*
G01*
X132975002Y-56100000D01*
G75*
G02*
X133225000Y-56349998I0J-249998D01*
G01*
X133225000Y-57650002D01*
G75*
G02*
X132975002Y-57900000I-249998J0D01*
G01*
X132149998Y-57900000D01*
G75*
G02*
X131900000Y-57650002I0J249998D01*
G01*
G37*
%TD*%
%TO.C,C2*%
G36*
G01*
X151310000Y-57650002D02*
X151310000Y-56349998D01*
G75*
G02*
X151559998Y-56100000I249998J0D01*
G01*
X152385002Y-56100000D01*
G75*
G02*
X152635000Y-56349998I0J-249998D01*
G01*
X152635000Y-57650002D01*
G75*
G02*
X152385002Y-57900000I-249998J0D01*
G01*
X151559998Y-57900000D01*
G75*
G02*
X151310000Y-57650002I0J249998D01*
G01*
G37*
G36*
G01*
X148185000Y-57650002D02*
X148185000Y-56349998D01*
G75*
G02*
X148434998Y-56100000I249998J0D01*
G01*
X149260002Y-56100000D01*
G75*
G02*
X149510000Y-56349998I0J-249998D01*
G01*
X149510000Y-57650002D01*
G75*
G02*
X149260002Y-57900000I-249998J0D01*
G01*
X148434998Y-57900000D01*
G75*
G02*
X148185000Y-57650002I0J249998D01*
G01*
G37*
%TD*%
%TO.C,C3*%
G36*
G01*
X128775000Y-54425001D02*
X128775000Y-53574999D01*
G75*
G02*
X129024999Y-53325000I249999J0D01*
G01*
X130100001Y-53325000D01*
G75*
G02*
X130350000Y-53574999I0J-249999D01*
G01*
X130350000Y-54425001D01*
G75*
G02*
X130100001Y-54675000I-249999J0D01*
G01*
X129024999Y-54675000D01*
G75*
G02*
X128775000Y-54425001I0J249999D01*
G01*
G37*
G36*
G01*
X131650000Y-54425001D02*
X131650000Y-53574999D01*
G75*
G02*
X131899999Y-53325000I249999J0D01*
G01*
X132975001Y-53325000D01*
G75*
G02*
X133225000Y-53574999I0J-249999D01*
G01*
X133225000Y-54425001D01*
G75*
G02*
X132975001Y-54675000I-249999J0D01*
G01*
X131899999Y-54675000D01*
G75*
G02*
X131650000Y-54425001I0J249999D01*
G01*
G37*
%TD*%
%TO.C,C4*%
G36*
G01*
X151150000Y-54425001D02*
X151150000Y-53574999D01*
G75*
G02*
X151399999Y-53325000I249999J0D01*
G01*
X152475001Y-53325000D01*
G75*
G02*
X152725000Y-53574999I0J-249999D01*
G01*
X152725000Y-54425001D01*
G75*
G02*
X152475001Y-54675000I-249999J0D01*
G01*
X151399999Y-54675000D01*
G75*
G02*
X151150000Y-54425001I0J249999D01*
G01*
G37*
G36*
G01*
X148275000Y-54425001D02*
X148275000Y-53574999D01*
G75*
G02*
X148524999Y-53325000I249999J0D01*
G01*
X149600001Y-53325000D01*
G75*
G02*
X149850000Y-53574999I0J-249999D01*
G01*
X149850000Y-54425001D01*
G75*
G02*
X149600001Y-54675000I-249999J0D01*
G01*
X148524999Y-54675000D01*
G75*
G02*
X148275000Y-54425001I0J249999D01*
G01*
G37*
%TD*%
D15*
X131333700Y-95301100D03*
M02*
