%TF.GenerationSoftware,KiCad,Pcbnew,5.1.9+dfsg1-1*%
%TF.CreationDate,2022-02-08T20:28:24+01:00*%
%TF.ProjectId,flexPiStorm,666c6578-5069-4537-946f-726d2e6b6963,v2022.02.08*%
%TF.SameCoordinates,Original*%
%TF.FileFunction,Copper,L1,Top*%
%TF.FilePolarity,Positive*%
%FSLAX46Y46*%
G04 Gerber Fmt 4.6, Leading zero omitted, Abs format (unit mm)*
G04 Created by KiCad (PCBNEW 5.1.9+dfsg1-1) date 2022-02-08 20:28:24*
%MOMM*%
%LPD*%
G01*
G04 APERTURE LIST*
%TA.AperFunction,ComponentPad*%
%ADD10R,2.400000X1.600000*%
%TD*%
%TA.AperFunction,ComponentPad*%
%ADD11O,2.400000X1.600000*%
%TD*%
%TA.AperFunction,ComponentPad*%
%ADD12R,1.700000X1.700000*%
%TD*%
%TA.AperFunction,ComponentPad*%
%ADD13O,1.700000X1.700000*%
%TD*%
%TA.AperFunction,ViaPad*%
%ADD14C,0.800000*%
%TD*%
%TA.AperFunction,Conductor*%
%ADD15C,0.250000*%
%TD*%
%TA.AperFunction,Conductor*%
%ADD16C,0.254000*%
%TD*%
%TA.AperFunction,Conductor*%
%ADD17C,0.100000*%
%TD*%
G04 APERTURE END LIST*
D10*
%TO.P,U1,1*%
%TO.N,/P1*%
X152360000Y-140590000D03*
D11*
%TO.P,U1,33*%
%TO.N,/P64*%
X129500000Y-61850000D03*
%TO.P,U1,2*%
%TO.N,/P3*%
X152360000Y-138050000D03*
%TO.P,U1,34*%
%TO.N,/P62*%
X129500000Y-64390000D03*
%TO.P,U1,3*%
%TO.N,/P5*%
X152360000Y-135510000D03*
%TO.P,U1,35*%
%TO.N,/P60*%
X129500000Y-66930000D03*
%TO.P,U1,4*%
%TO.N,/P7*%
X152360000Y-132970000D03*
%TO.P,U1,36*%
%TO.N,/P58*%
X129500000Y-69470000D03*
%TO.P,U1,5*%
%TO.N,/P9*%
X152360000Y-130430000D03*
%TO.P,U1,37*%
%TO.N,/P56*%
X129500000Y-72010000D03*
%TO.P,U1,6*%
%TO.N,/P11*%
X152360000Y-127890000D03*
%TO.P,U1,38*%
%TO.N,/P54*%
X129500000Y-74550000D03*
%TO.P,U1,7*%
%TO.N,/P13*%
X152360000Y-125350000D03*
%TO.P,U1,39*%
%TO.N,/P52*%
X129500000Y-77090000D03*
%TO.P,U1,8*%
%TO.N,/P15*%
X152360000Y-122810000D03*
%TO.P,U1,40*%
%TO.N,/P50*%
X129500000Y-79630000D03*
%TO.P,U1,9*%
%TO.N,/P17*%
X152360000Y-120270000D03*
%TO.P,U1,41*%
%TO.N,/P48*%
X129500000Y-82170000D03*
%TO.P,U1,10*%
%TO.N,/P19*%
X152360000Y-117730000D03*
%TO.P,U1,42*%
%TO.N,/P46*%
X129500000Y-84710000D03*
%TO.P,U1,11*%
%TO.N,/P21*%
X152360000Y-115190000D03*
%TO.P,U1,43*%
%TO.N,/P44*%
X129500000Y-87250000D03*
%TO.P,U1,12*%
%TO.N,/P23*%
X152360000Y-112650000D03*
%TO.P,U1,44*%
%TO.N,/P42*%
X129500000Y-89790000D03*
%TO.P,U1,13*%
%TO.N,/P25*%
X152360000Y-110110000D03*
%TO.P,U1,45*%
%TO.N,/P40*%
X129500000Y-92330000D03*
%TO.P,U1,14*%
%TO.N,VCC*%
X152360000Y-107570000D03*
%TO.P,U1,46*%
%TO.N,/P38*%
X129500000Y-94870000D03*
%TO.P,U1,15*%
%TO.N,/P29*%
X152360000Y-105030000D03*
%TO.P,U1,47*%
%TO.N,/P36*%
X129500000Y-97410000D03*
%TO.P,U1,16*%
%TO.N,GND*%
X152360000Y-102490000D03*
%TO.P,U1,48*%
%TO.N,/P34*%
X129500000Y-99950000D03*
%TO.P,U1,17*%
%TO.N,/P33*%
X152360000Y-99950000D03*
%TO.P,U1,49*%
%TO.N,VCC*%
X129500000Y-102490000D03*
%TO.P,U1,18*%
%TO.N,/P35*%
X152360000Y-97410000D03*
%TO.P,U1,50*%
%TO.N,/P30*%
X129500000Y-105030000D03*
%TO.P,U1,19*%
%TO.N,/P37*%
X152360000Y-94870000D03*
%TO.P,U1,51*%
%TO.N,/P28*%
X129500000Y-107570000D03*
%TO.P,U1,20*%
%TO.N,/P39*%
X152360000Y-92330000D03*
%TO.P,U1,52*%
%TO.N,/P26*%
X129500000Y-110110000D03*
%TO.P,U1,21*%
%TO.N,/P41*%
X152360000Y-89790000D03*
%TO.P,U1,53*%
%TO.N,GND*%
X129500000Y-112650000D03*
%TO.P,U1,22*%
%TO.N,/P43*%
X152360000Y-87250000D03*
%TO.P,U1,54*%
%TO.N,/P22*%
X129500000Y-115190000D03*
%TO.P,U1,23*%
%TO.N,/P45*%
X152360000Y-84710000D03*
%TO.P,U1,55*%
%TO.N,/P20*%
X129500000Y-117730000D03*
%TO.P,U1,24*%
%TO.N,/P47*%
X152360000Y-82170000D03*
%TO.P,U1,56*%
%TO.N,/P18*%
X129500000Y-120270000D03*
%TO.P,U1,25*%
%TO.N,/P49*%
X152360000Y-79630000D03*
%TO.P,U1,57*%
%TO.N,/P16*%
X129500000Y-122810000D03*
%TO.P,U1,26*%
%TO.N,/P51*%
X152360000Y-77090000D03*
%TO.P,U1,58*%
%TO.N,/P14*%
X129500000Y-125350000D03*
%TO.P,U1,27*%
%TO.N,/P53*%
X152360000Y-74550000D03*
%TO.P,U1,59*%
%TO.N,/P12*%
X129500000Y-127890000D03*
%TO.P,U1,28*%
%TO.N,/P55*%
X152360000Y-72010000D03*
%TO.P,U1,60*%
%TO.N,/P10*%
X129500000Y-130430000D03*
%TO.P,U1,29*%
%TO.N,/P57*%
X152360000Y-69470000D03*
%TO.P,U1,61*%
%TO.N,/P8*%
X129500000Y-132970000D03*
%TO.P,U1,30*%
%TO.N,/P59*%
X152360000Y-66930000D03*
%TO.P,U1,62*%
%TO.N,/P6*%
X129500000Y-135510000D03*
%TO.P,U1,31*%
%TO.N,/P61*%
X152360000Y-64390000D03*
%TO.P,U1,63*%
%TO.N,/P4*%
X129500000Y-138050000D03*
%TO.P,U1,32*%
%TO.N,/P63*%
X152360000Y-61850000D03*
%TO.P,U1,64*%
%TO.N,/P2*%
X129500000Y-140590000D03*
%TD*%
D12*
%TO.P,J1,1*%
%TO.N,VCC*%
X137000000Y-56000000D03*
D13*
%TO.P,J1,2*%
%TO.N,GND*%
X139540000Y-56000000D03*
%TO.P,J1,3*%
X142080000Y-56000000D03*
%TO.P,J1,4*%
%TO.N,Net-(J1-Pad4)*%
X144620000Y-56000000D03*
%TD*%
%TO.P,C1,1*%
%TO.N,VCC*%
%TA.AperFunction,SMDPad,CuDef*%
G36*
G01*
X128775000Y-57650002D02*
X128775000Y-56349998D01*
G75*
G02*
X129024998Y-56100000I249998J0D01*
G01*
X129850002Y-56100000D01*
G75*
G02*
X130100000Y-56349998I0J-249998D01*
G01*
X130100000Y-57650002D01*
G75*
G02*
X129850002Y-57900000I-249998J0D01*
G01*
X129024998Y-57900000D01*
G75*
G02*
X128775000Y-57650002I0J249998D01*
G01*
G37*
%TD.AperFunction*%
%TO.P,C1,2*%
%TO.N,GND*%
%TA.AperFunction,SMDPad,CuDef*%
G36*
G01*
X131900000Y-57650002D02*
X131900000Y-56349998D01*
G75*
G02*
X132149998Y-56100000I249998J0D01*
G01*
X132975002Y-56100000D01*
G75*
G02*
X133225000Y-56349998I0J-249998D01*
G01*
X133225000Y-57650002D01*
G75*
G02*
X132975002Y-57900000I-249998J0D01*
G01*
X132149998Y-57900000D01*
G75*
G02*
X131900000Y-57650002I0J249998D01*
G01*
G37*
%TD.AperFunction*%
%TD*%
%TO.P,C2,2*%
%TO.N,GND*%
%TA.AperFunction,SMDPad,CuDef*%
G36*
G01*
X151310000Y-57650002D02*
X151310000Y-56349998D01*
G75*
G02*
X151559998Y-56100000I249998J0D01*
G01*
X152385002Y-56100000D01*
G75*
G02*
X152635000Y-56349998I0J-249998D01*
G01*
X152635000Y-57650002D01*
G75*
G02*
X152385002Y-57900000I-249998J0D01*
G01*
X151559998Y-57900000D01*
G75*
G02*
X151310000Y-57650002I0J249998D01*
G01*
G37*
%TD.AperFunction*%
%TO.P,C2,1*%
%TO.N,VCC*%
%TA.AperFunction,SMDPad,CuDef*%
G36*
G01*
X148185000Y-57650002D02*
X148185000Y-56349998D01*
G75*
G02*
X148434998Y-56100000I249998J0D01*
G01*
X149260002Y-56100000D01*
G75*
G02*
X149510000Y-56349998I0J-249998D01*
G01*
X149510000Y-57650002D01*
G75*
G02*
X149260002Y-57900000I-249998J0D01*
G01*
X148434998Y-57900000D01*
G75*
G02*
X148185000Y-57650002I0J249998D01*
G01*
G37*
%TD.AperFunction*%
%TD*%
%TO.P,C3,1*%
%TO.N,VCC*%
%TA.AperFunction,SMDPad,CuDef*%
G36*
G01*
X128775000Y-54425001D02*
X128775000Y-53574999D01*
G75*
G02*
X129024999Y-53325000I249999J0D01*
G01*
X130100001Y-53325000D01*
G75*
G02*
X130350000Y-53574999I0J-249999D01*
G01*
X130350000Y-54425001D01*
G75*
G02*
X130100001Y-54675000I-249999J0D01*
G01*
X129024999Y-54675000D01*
G75*
G02*
X128775000Y-54425001I0J249999D01*
G01*
G37*
%TD.AperFunction*%
%TO.P,C3,2*%
%TO.N,GND*%
%TA.AperFunction,SMDPad,CuDef*%
G36*
G01*
X131650000Y-54425001D02*
X131650000Y-53574999D01*
G75*
G02*
X131899999Y-53325000I249999J0D01*
G01*
X132975001Y-53325000D01*
G75*
G02*
X133225000Y-53574999I0J-249999D01*
G01*
X133225000Y-54425001D01*
G75*
G02*
X132975001Y-54675000I-249999J0D01*
G01*
X131899999Y-54675000D01*
G75*
G02*
X131650000Y-54425001I0J249999D01*
G01*
G37*
%TD.AperFunction*%
%TD*%
%TO.P,C4,2*%
%TO.N,GND*%
%TA.AperFunction,SMDPad,CuDef*%
G36*
G01*
X151150000Y-54425001D02*
X151150000Y-53574999D01*
G75*
G02*
X151399999Y-53325000I249999J0D01*
G01*
X152475001Y-53325000D01*
G75*
G02*
X152725000Y-53574999I0J-249999D01*
G01*
X152725000Y-54425001D01*
G75*
G02*
X152475001Y-54675000I-249999J0D01*
G01*
X151399999Y-54675000D01*
G75*
G02*
X151150000Y-54425001I0J249999D01*
G01*
G37*
%TD.AperFunction*%
%TO.P,C4,1*%
%TO.N,VCC*%
%TA.AperFunction,SMDPad,CuDef*%
G36*
G01*
X148275000Y-54425001D02*
X148275000Y-53574999D01*
G75*
G02*
X148524999Y-53325000I249999J0D01*
G01*
X149600001Y-53325000D01*
G75*
G02*
X149850000Y-53574999I0J-249999D01*
G01*
X149850000Y-54425001D01*
G75*
G02*
X149600001Y-54675000I-249999J0D01*
G01*
X148524999Y-54675000D01*
G75*
G02*
X148275000Y-54425001I0J249999D01*
G01*
G37*
%TD.AperFunction*%
%TD*%
D14*
%TO.N,/P38*%
X131025300Y-96395300D03*
%TD*%
D15*
%TO.N,VCC*%
X129500000Y-102490000D02*
X127974700Y-102490000D01*
X129437500Y-57000000D02*
X127974700Y-58462800D01*
X127974700Y-58462800D02*
X127974700Y-102490000D01*
X129562500Y-54000000D02*
X129437500Y-54125000D01*
X129437500Y-54125000D02*
X129437500Y-57000000D01*
X137000000Y-56000000D02*
X135824700Y-56000000D01*
X129562500Y-54000000D02*
X130597500Y-52965000D01*
X130597500Y-52965000D02*
X133230400Y-52965000D01*
X133230400Y-52965000D02*
X135824700Y-55559300D01*
X135824700Y-55559300D02*
X135824700Y-56000000D01*
X148847500Y-54324500D02*
X148847500Y-57000000D01*
X149062500Y-54000000D02*
X148847500Y-54215000D01*
X148847500Y-54215000D02*
X148847500Y-54324500D01*
X148847500Y-54324500D02*
X139483500Y-54324500D01*
X139483500Y-54324500D02*
X138175300Y-55632700D01*
X138175300Y-55632700D02*
X138175300Y-56000000D01*
X137000000Y-56000000D02*
X138175300Y-56000000D01*
%TO.N,GND*%
X132562500Y-57000000D02*
X132437500Y-56875000D01*
X132437500Y-56875000D02*
X132437500Y-54000000D01*
X139540000Y-56000000D02*
X138364600Y-57175400D01*
X138364600Y-57175400D02*
X132737900Y-57175400D01*
X132737900Y-57175400D02*
X132562500Y-57000000D01*
X152360000Y-102490000D02*
X153885300Y-102490000D01*
X151972500Y-57000000D02*
X153885300Y-58912800D01*
X153885300Y-58912800D02*
X153885300Y-102490000D01*
X151937500Y-54000000D02*
X151972500Y-54035000D01*
X151972500Y-54035000D02*
X151972500Y-57000000D01*
X142080000Y-56000000D02*
X143255300Y-56000000D01*
X151972500Y-57000000D02*
X150691000Y-58281500D01*
X150691000Y-58281500D02*
X148248600Y-58281500D01*
X148248600Y-58281500D02*
X146028500Y-56061400D01*
X146028500Y-56061400D02*
X146028500Y-55739600D01*
X146028500Y-55739600D02*
X145063700Y-54774800D01*
X145063700Y-54774800D02*
X144114600Y-54774800D01*
X144114600Y-54774800D02*
X143255300Y-55634100D01*
X143255300Y-55634100D02*
X143255300Y-56000000D01*
%TO.N,/P38*%
X131025300Y-94870000D02*
X131025300Y-96395300D01*
X129500000Y-94870000D02*
X131025300Y-94870000D01*
%TD*%
D16*
%TO.N,GND*%
X156340000Y-148340000D02*
X125660000Y-148340000D01*
X125660000Y-145779872D01*
X125765000Y-145779872D01*
X125765000Y-146220128D01*
X125850890Y-146651925D01*
X126019369Y-147058669D01*
X126263962Y-147424729D01*
X126575271Y-147736038D01*
X126941331Y-147980631D01*
X127348075Y-148149110D01*
X127779872Y-148235000D01*
X128220128Y-148235000D01*
X128651925Y-148149110D01*
X129058669Y-147980631D01*
X129424729Y-147736038D01*
X129736038Y-147424729D01*
X129980631Y-147058669D01*
X130149110Y-146651925D01*
X130235000Y-146220128D01*
X130235000Y-145779872D01*
X151765000Y-145779872D01*
X151765000Y-146220128D01*
X151850890Y-146651925D01*
X152019369Y-147058669D01*
X152263962Y-147424729D01*
X152575271Y-147736038D01*
X152941331Y-147980631D01*
X153348075Y-148149110D01*
X153779872Y-148235000D01*
X154220128Y-148235000D01*
X154651925Y-148149110D01*
X155058669Y-147980631D01*
X155424729Y-147736038D01*
X155736038Y-147424729D01*
X155980631Y-147058669D01*
X156149110Y-146651925D01*
X156235000Y-146220128D01*
X156235000Y-145779872D01*
X156149110Y-145348075D01*
X155980631Y-144941331D01*
X155736038Y-144575271D01*
X155424729Y-144263962D01*
X155058669Y-144019369D01*
X154651925Y-143850890D01*
X154220128Y-143765000D01*
X153779872Y-143765000D01*
X153348075Y-143850890D01*
X152941331Y-144019369D01*
X152575271Y-144263962D01*
X152263962Y-144575271D01*
X152019369Y-144941331D01*
X151850890Y-145348075D01*
X151765000Y-145779872D01*
X130235000Y-145779872D01*
X130149110Y-145348075D01*
X129980631Y-144941331D01*
X129736038Y-144575271D01*
X129424729Y-144263962D01*
X129058669Y-144019369D01*
X128651925Y-143850890D01*
X128220128Y-143765000D01*
X127779872Y-143765000D01*
X127348075Y-143850890D01*
X126941331Y-144019369D01*
X126575271Y-144263962D01*
X126263962Y-144575271D01*
X126019369Y-144941331D01*
X125850890Y-145348075D01*
X125765000Y-145779872D01*
X125660000Y-145779872D01*
X125660000Y-115190000D01*
X127658057Y-115190000D01*
X127685764Y-115471309D01*
X127767818Y-115741808D01*
X127901068Y-115991101D01*
X128080392Y-116209608D01*
X128298899Y-116388932D01*
X128431858Y-116460000D01*
X128298899Y-116531068D01*
X128080392Y-116710392D01*
X127901068Y-116928899D01*
X127767818Y-117178192D01*
X127685764Y-117448691D01*
X127658057Y-117730000D01*
X127685764Y-118011309D01*
X127767818Y-118281808D01*
X127901068Y-118531101D01*
X128080392Y-118749608D01*
X128298899Y-118928932D01*
X128431858Y-119000000D01*
X128298899Y-119071068D01*
X128080392Y-119250392D01*
X127901068Y-119468899D01*
X127767818Y-119718192D01*
X127685764Y-119988691D01*
X127658057Y-120270000D01*
X127685764Y-120551309D01*
X127767818Y-120821808D01*
X127901068Y-121071101D01*
X128080392Y-121289608D01*
X128298899Y-121468932D01*
X128431858Y-121540000D01*
X128298899Y-121611068D01*
X128080392Y-121790392D01*
X127901068Y-122008899D01*
X127767818Y-122258192D01*
X127685764Y-122528691D01*
X127658057Y-122810000D01*
X127685764Y-123091309D01*
X127767818Y-123361808D01*
X127901068Y-123611101D01*
X128080392Y-123829608D01*
X128298899Y-124008932D01*
X128431858Y-124080000D01*
X128298899Y-124151068D01*
X128080392Y-124330392D01*
X127901068Y-124548899D01*
X127767818Y-124798192D01*
X127685764Y-125068691D01*
X127658057Y-125350000D01*
X127685764Y-125631309D01*
X127767818Y-125901808D01*
X127901068Y-126151101D01*
X128080392Y-126369608D01*
X128298899Y-126548932D01*
X128431858Y-126620000D01*
X128298899Y-126691068D01*
X128080392Y-126870392D01*
X127901068Y-127088899D01*
X127767818Y-127338192D01*
X127685764Y-127608691D01*
X127658057Y-127890000D01*
X127685764Y-128171309D01*
X127767818Y-128441808D01*
X127901068Y-128691101D01*
X128080392Y-128909608D01*
X128298899Y-129088932D01*
X128431858Y-129160000D01*
X128298899Y-129231068D01*
X128080392Y-129410392D01*
X127901068Y-129628899D01*
X127767818Y-129878192D01*
X127685764Y-130148691D01*
X127658057Y-130430000D01*
X127685764Y-130711309D01*
X127767818Y-130981808D01*
X127901068Y-131231101D01*
X128080392Y-131449608D01*
X128298899Y-131628932D01*
X128431858Y-131700000D01*
X128298899Y-131771068D01*
X128080392Y-131950392D01*
X127901068Y-132168899D01*
X127767818Y-132418192D01*
X127685764Y-132688691D01*
X127658057Y-132970000D01*
X127685764Y-133251309D01*
X127767818Y-133521808D01*
X127901068Y-133771101D01*
X128080392Y-133989608D01*
X128298899Y-134168932D01*
X128431858Y-134240000D01*
X128298899Y-134311068D01*
X128080392Y-134490392D01*
X127901068Y-134708899D01*
X127767818Y-134958192D01*
X127685764Y-135228691D01*
X127658057Y-135510000D01*
X127685764Y-135791309D01*
X127767818Y-136061808D01*
X127901068Y-136311101D01*
X128080392Y-136529608D01*
X128298899Y-136708932D01*
X128431858Y-136780000D01*
X128298899Y-136851068D01*
X128080392Y-137030392D01*
X127901068Y-137248899D01*
X127767818Y-137498192D01*
X127685764Y-137768691D01*
X127658057Y-138050000D01*
X127685764Y-138331309D01*
X127767818Y-138601808D01*
X127901068Y-138851101D01*
X128080392Y-139069608D01*
X128298899Y-139248932D01*
X128431858Y-139320000D01*
X128298899Y-139391068D01*
X128080392Y-139570392D01*
X127901068Y-139788899D01*
X127767818Y-140038192D01*
X127685764Y-140308691D01*
X127658057Y-140590000D01*
X127685764Y-140871309D01*
X127767818Y-141141808D01*
X127901068Y-141391101D01*
X128080392Y-141609608D01*
X128298899Y-141788932D01*
X128548192Y-141922182D01*
X128818691Y-142004236D01*
X129029508Y-142025000D01*
X129970492Y-142025000D01*
X130181309Y-142004236D01*
X130451808Y-141922182D01*
X130701101Y-141788932D01*
X130919608Y-141609608D01*
X131098932Y-141391101D01*
X131232182Y-141141808D01*
X131314236Y-140871309D01*
X131341943Y-140590000D01*
X131314236Y-140308691D01*
X131232182Y-140038192D01*
X131098932Y-139788899D01*
X130919608Y-139570392D01*
X130701101Y-139391068D01*
X130568142Y-139320000D01*
X130701101Y-139248932D01*
X130919608Y-139069608D01*
X131098932Y-138851101D01*
X131232182Y-138601808D01*
X131314236Y-138331309D01*
X131341943Y-138050000D01*
X131314236Y-137768691D01*
X131232182Y-137498192D01*
X131098932Y-137248899D01*
X130919608Y-137030392D01*
X130701101Y-136851068D01*
X130568142Y-136780000D01*
X130701101Y-136708932D01*
X130919608Y-136529608D01*
X131098932Y-136311101D01*
X131232182Y-136061808D01*
X131314236Y-135791309D01*
X131341943Y-135510000D01*
X131314236Y-135228691D01*
X131232182Y-134958192D01*
X131098932Y-134708899D01*
X130919608Y-134490392D01*
X130701101Y-134311068D01*
X130568142Y-134240000D01*
X130701101Y-134168932D01*
X130919608Y-133989608D01*
X131098932Y-133771101D01*
X131232182Y-133521808D01*
X131314236Y-133251309D01*
X131341943Y-132970000D01*
X131314236Y-132688691D01*
X131232182Y-132418192D01*
X131098932Y-132168899D01*
X130919608Y-131950392D01*
X130701101Y-131771068D01*
X130568142Y-131700000D01*
X130701101Y-131628932D01*
X130919608Y-131449608D01*
X131098932Y-131231101D01*
X131232182Y-130981808D01*
X131314236Y-130711309D01*
X131341943Y-130430000D01*
X131314236Y-130148691D01*
X131232182Y-129878192D01*
X131098932Y-129628899D01*
X130919608Y-129410392D01*
X130701101Y-129231068D01*
X130568142Y-129160000D01*
X130701101Y-129088932D01*
X130919608Y-128909608D01*
X131098932Y-128691101D01*
X131232182Y-128441808D01*
X131314236Y-128171309D01*
X131341943Y-127890000D01*
X131314236Y-127608691D01*
X131232182Y-127338192D01*
X131098932Y-127088899D01*
X130919608Y-126870392D01*
X130701101Y-126691068D01*
X130568142Y-126620000D01*
X130701101Y-126548932D01*
X130919608Y-126369608D01*
X131098932Y-126151101D01*
X131232182Y-125901808D01*
X131314236Y-125631309D01*
X131341943Y-125350000D01*
X131314236Y-125068691D01*
X131232182Y-124798192D01*
X131098932Y-124548899D01*
X130919608Y-124330392D01*
X130701101Y-124151068D01*
X130568142Y-124080000D01*
X130701101Y-124008932D01*
X130919608Y-123829608D01*
X131098932Y-123611101D01*
X131232182Y-123361808D01*
X131314236Y-123091309D01*
X131341943Y-122810000D01*
X131314236Y-122528691D01*
X131232182Y-122258192D01*
X131098932Y-122008899D01*
X130919608Y-121790392D01*
X130701101Y-121611068D01*
X130568142Y-121540000D01*
X130701101Y-121468932D01*
X130919608Y-121289608D01*
X131098932Y-121071101D01*
X131232182Y-120821808D01*
X131314236Y-120551309D01*
X131341943Y-120270000D01*
X131314236Y-119988691D01*
X131232182Y-119718192D01*
X131098932Y-119468899D01*
X130919608Y-119250392D01*
X130701101Y-119071068D01*
X130568142Y-119000000D01*
X130701101Y-118928932D01*
X130919608Y-118749608D01*
X131098932Y-118531101D01*
X131232182Y-118281808D01*
X131314236Y-118011309D01*
X131341943Y-117730000D01*
X131314236Y-117448691D01*
X131232182Y-117178192D01*
X131098932Y-116928899D01*
X130919608Y-116710392D01*
X130701101Y-116531068D01*
X130568142Y-116460000D01*
X130701101Y-116388932D01*
X130919608Y-116209608D01*
X131098932Y-115991101D01*
X131232182Y-115741808D01*
X131314236Y-115471309D01*
X131341943Y-115190000D01*
X131314236Y-114908691D01*
X131232182Y-114638192D01*
X131098932Y-114388899D01*
X130919608Y-114170392D01*
X130701101Y-113991068D01*
X130573259Y-113922735D01*
X130802839Y-113772601D01*
X131004500Y-113574895D01*
X131163715Y-113341646D01*
X131274367Y-113081818D01*
X131291904Y-112999039D01*
X131169915Y-112777000D01*
X129627000Y-112777000D01*
X129627000Y-112797000D01*
X129373000Y-112797000D01*
X129373000Y-112777000D01*
X127830085Y-112777000D01*
X127708096Y-112999039D01*
X127725633Y-113081818D01*
X127836285Y-113341646D01*
X127995500Y-113574895D01*
X128197161Y-113772601D01*
X128426741Y-113922735D01*
X128298899Y-113991068D01*
X128080392Y-114170392D01*
X127901068Y-114388899D01*
X127767818Y-114638192D01*
X127685764Y-114908691D01*
X127658057Y-115190000D01*
X125660000Y-115190000D01*
X125660000Y-102490000D01*
X127211023Y-102490000D01*
X127225697Y-102638986D01*
X127269154Y-102782247D01*
X127339726Y-102914276D01*
X127434699Y-103030001D01*
X127550424Y-103124974D01*
X127682453Y-103195546D01*
X127825714Y-103239003D01*
X127875861Y-103243942D01*
X127901068Y-103291101D01*
X128080392Y-103509608D01*
X128298899Y-103688932D01*
X128431858Y-103760000D01*
X128298899Y-103831068D01*
X128080392Y-104010392D01*
X127901068Y-104228899D01*
X127767818Y-104478192D01*
X127685764Y-104748691D01*
X127658057Y-105030000D01*
X127685764Y-105311309D01*
X127767818Y-105581808D01*
X127901068Y-105831101D01*
X128080392Y-106049608D01*
X128298899Y-106228932D01*
X128431858Y-106300000D01*
X128298899Y-106371068D01*
X128080392Y-106550392D01*
X127901068Y-106768899D01*
X127767818Y-107018192D01*
X127685764Y-107288691D01*
X127658057Y-107570000D01*
X127685764Y-107851309D01*
X127767818Y-108121808D01*
X127901068Y-108371101D01*
X128080392Y-108589608D01*
X128298899Y-108768932D01*
X128431858Y-108840000D01*
X128298899Y-108911068D01*
X128080392Y-109090392D01*
X127901068Y-109308899D01*
X127767818Y-109558192D01*
X127685764Y-109828691D01*
X127658057Y-110110000D01*
X127685764Y-110391309D01*
X127767818Y-110661808D01*
X127901068Y-110911101D01*
X128080392Y-111129608D01*
X128298899Y-111308932D01*
X128426741Y-111377265D01*
X128197161Y-111527399D01*
X127995500Y-111725105D01*
X127836285Y-111958354D01*
X127725633Y-112218182D01*
X127708096Y-112300961D01*
X127830085Y-112523000D01*
X129373000Y-112523000D01*
X129373000Y-112503000D01*
X129627000Y-112503000D01*
X129627000Y-112523000D01*
X131169915Y-112523000D01*
X131291904Y-112300961D01*
X131274367Y-112218182D01*
X131163715Y-111958354D01*
X131004500Y-111725105D01*
X130802839Y-111527399D01*
X130573259Y-111377265D01*
X130701101Y-111308932D01*
X130919608Y-111129608D01*
X131098932Y-110911101D01*
X131232182Y-110661808D01*
X131314236Y-110391309D01*
X131341943Y-110110000D01*
X131314236Y-109828691D01*
X131232182Y-109558192D01*
X131098932Y-109308899D01*
X130919608Y-109090392D01*
X130701101Y-108911068D01*
X130568142Y-108840000D01*
X130701101Y-108768932D01*
X130919608Y-108589608D01*
X131098932Y-108371101D01*
X131232182Y-108121808D01*
X131314236Y-107851309D01*
X131341943Y-107570000D01*
X131314236Y-107288691D01*
X131232182Y-107018192D01*
X131098932Y-106768899D01*
X130919608Y-106550392D01*
X130701101Y-106371068D01*
X130568142Y-106300000D01*
X130701101Y-106228932D01*
X130919608Y-106049608D01*
X131098932Y-105831101D01*
X131232182Y-105581808D01*
X131314236Y-105311309D01*
X131341943Y-105030000D01*
X150518057Y-105030000D01*
X150545764Y-105311309D01*
X150627818Y-105581808D01*
X150761068Y-105831101D01*
X150940392Y-106049608D01*
X151158899Y-106228932D01*
X151291858Y-106300000D01*
X151158899Y-106371068D01*
X150940392Y-106550392D01*
X150761068Y-106768899D01*
X150627818Y-107018192D01*
X150545764Y-107288691D01*
X150518057Y-107570000D01*
X150545764Y-107851309D01*
X150627818Y-108121808D01*
X150761068Y-108371101D01*
X150940392Y-108589608D01*
X151158899Y-108768932D01*
X151291858Y-108840000D01*
X151158899Y-108911068D01*
X150940392Y-109090392D01*
X150761068Y-109308899D01*
X150627818Y-109558192D01*
X150545764Y-109828691D01*
X150518057Y-110110000D01*
X150545764Y-110391309D01*
X150627818Y-110661808D01*
X150761068Y-110911101D01*
X150940392Y-111129608D01*
X151158899Y-111308932D01*
X151291858Y-111380000D01*
X151158899Y-111451068D01*
X150940392Y-111630392D01*
X150761068Y-111848899D01*
X150627818Y-112098192D01*
X150545764Y-112368691D01*
X150518057Y-112650000D01*
X150545764Y-112931309D01*
X150627818Y-113201808D01*
X150761068Y-113451101D01*
X150940392Y-113669608D01*
X151158899Y-113848932D01*
X151291858Y-113920000D01*
X151158899Y-113991068D01*
X150940392Y-114170392D01*
X150761068Y-114388899D01*
X150627818Y-114638192D01*
X150545764Y-114908691D01*
X150518057Y-115190000D01*
X150545764Y-115471309D01*
X150627818Y-115741808D01*
X150761068Y-115991101D01*
X150940392Y-116209608D01*
X151158899Y-116388932D01*
X151291858Y-116460000D01*
X151158899Y-116531068D01*
X150940392Y-116710392D01*
X150761068Y-116928899D01*
X150627818Y-117178192D01*
X150545764Y-117448691D01*
X150518057Y-117730000D01*
X150545764Y-118011309D01*
X150627818Y-118281808D01*
X150761068Y-118531101D01*
X150940392Y-118749608D01*
X151158899Y-118928932D01*
X151291858Y-119000000D01*
X151158899Y-119071068D01*
X150940392Y-119250392D01*
X150761068Y-119468899D01*
X150627818Y-119718192D01*
X150545764Y-119988691D01*
X150518057Y-120270000D01*
X150545764Y-120551309D01*
X150627818Y-120821808D01*
X150761068Y-121071101D01*
X150940392Y-121289608D01*
X151158899Y-121468932D01*
X151291858Y-121540000D01*
X151158899Y-121611068D01*
X150940392Y-121790392D01*
X150761068Y-122008899D01*
X150627818Y-122258192D01*
X150545764Y-122528691D01*
X150518057Y-122810000D01*
X150545764Y-123091309D01*
X150627818Y-123361808D01*
X150761068Y-123611101D01*
X150940392Y-123829608D01*
X151158899Y-124008932D01*
X151291858Y-124080000D01*
X151158899Y-124151068D01*
X150940392Y-124330392D01*
X150761068Y-124548899D01*
X150627818Y-124798192D01*
X150545764Y-125068691D01*
X150518057Y-125350000D01*
X150545764Y-125631309D01*
X150627818Y-125901808D01*
X150761068Y-126151101D01*
X150940392Y-126369608D01*
X151158899Y-126548932D01*
X151291858Y-126620000D01*
X151158899Y-126691068D01*
X150940392Y-126870392D01*
X150761068Y-127088899D01*
X150627818Y-127338192D01*
X150545764Y-127608691D01*
X150518057Y-127890000D01*
X150545764Y-128171309D01*
X150627818Y-128441808D01*
X150761068Y-128691101D01*
X150940392Y-128909608D01*
X151158899Y-129088932D01*
X151291858Y-129160000D01*
X151158899Y-129231068D01*
X150940392Y-129410392D01*
X150761068Y-129628899D01*
X150627818Y-129878192D01*
X150545764Y-130148691D01*
X150518057Y-130430000D01*
X150545764Y-130711309D01*
X150627818Y-130981808D01*
X150761068Y-131231101D01*
X150940392Y-131449608D01*
X151158899Y-131628932D01*
X151291858Y-131700000D01*
X151158899Y-131771068D01*
X150940392Y-131950392D01*
X150761068Y-132168899D01*
X150627818Y-132418192D01*
X150545764Y-132688691D01*
X150518057Y-132970000D01*
X150545764Y-133251309D01*
X150627818Y-133521808D01*
X150761068Y-133771101D01*
X150940392Y-133989608D01*
X151158899Y-134168932D01*
X151291858Y-134240000D01*
X151158899Y-134311068D01*
X150940392Y-134490392D01*
X150761068Y-134708899D01*
X150627818Y-134958192D01*
X150545764Y-135228691D01*
X150518057Y-135510000D01*
X150545764Y-135791309D01*
X150627818Y-136061808D01*
X150761068Y-136311101D01*
X150940392Y-136529608D01*
X151158899Y-136708932D01*
X151291858Y-136780000D01*
X151158899Y-136851068D01*
X150940392Y-137030392D01*
X150761068Y-137248899D01*
X150627818Y-137498192D01*
X150545764Y-137768691D01*
X150518057Y-138050000D01*
X150545764Y-138331309D01*
X150627818Y-138601808D01*
X150761068Y-138851101D01*
X150940392Y-139069608D01*
X151053482Y-139162419D01*
X151035518Y-139164188D01*
X150915820Y-139200498D01*
X150805506Y-139259463D01*
X150708815Y-139338815D01*
X150629463Y-139435506D01*
X150570498Y-139545820D01*
X150534188Y-139665518D01*
X150521928Y-139790000D01*
X150521928Y-141390000D01*
X150534188Y-141514482D01*
X150570498Y-141634180D01*
X150629463Y-141744494D01*
X150708815Y-141841185D01*
X150805506Y-141920537D01*
X150915820Y-141979502D01*
X151035518Y-142015812D01*
X151160000Y-142028072D01*
X153560000Y-142028072D01*
X153684482Y-142015812D01*
X153804180Y-141979502D01*
X153914494Y-141920537D01*
X154011185Y-141841185D01*
X154090537Y-141744494D01*
X154149502Y-141634180D01*
X154185812Y-141514482D01*
X154198072Y-141390000D01*
X154198072Y-139790000D01*
X154185812Y-139665518D01*
X154149502Y-139545820D01*
X154090537Y-139435506D01*
X154011185Y-139338815D01*
X153914494Y-139259463D01*
X153804180Y-139200498D01*
X153684482Y-139164188D01*
X153666518Y-139162419D01*
X153779608Y-139069608D01*
X153958932Y-138851101D01*
X154092182Y-138601808D01*
X154174236Y-138331309D01*
X154201943Y-138050000D01*
X154174236Y-137768691D01*
X154092182Y-137498192D01*
X153958932Y-137248899D01*
X153779608Y-137030392D01*
X153561101Y-136851068D01*
X153428142Y-136780000D01*
X153561101Y-136708932D01*
X153779608Y-136529608D01*
X153958932Y-136311101D01*
X154092182Y-136061808D01*
X154174236Y-135791309D01*
X154201943Y-135510000D01*
X154174236Y-135228691D01*
X154092182Y-134958192D01*
X153958932Y-134708899D01*
X153779608Y-134490392D01*
X153561101Y-134311068D01*
X153428142Y-134240000D01*
X153561101Y-134168932D01*
X153779608Y-133989608D01*
X153958932Y-133771101D01*
X154092182Y-133521808D01*
X154174236Y-133251309D01*
X154201943Y-132970000D01*
X154174236Y-132688691D01*
X154092182Y-132418192D01*
X153958932Y-132168899D01*
X153779608Y-131950392D01*
X153561101Y-131771068D01*
X153428142Y-131700000D01*
X153561101Y-131628932D01*
X153779608Y-131449608D01*
X153958932Y-131231101D01*
X154092182Y-130981808D01*
X154174236Y-130711309D01*
X154201943Y-130430000D01*
X154174236Y-130148691D01*
X154092182Y-129878192D01*
X153958932Y-129628899D01*
X153779608Y-129410392D01*
X153561101Y-129231068D01*
X153428142Y-129160000D01*
X153561101Y-129088932D01*
X153779608Y-128909608D01*
X153958932Y-128691101D01*
X154092182Y-128441808D01*
X154174236Y-128171309D01*
X154201943Y-127890000D01*
X154174236Y-127608691D01*
X154092182Y-127338192D01*
X153958932Y-127088899D01*
X153779608Y-126870392D01*
X153561101Y-126691068D01*
X153428142Y-126620000D01*
X153561101Y-126548932D01*
X153779608Y-126369608D01*
X153958932Y-126151101D01*
X154092182Y-125901808D01*
X154174236Y-125631309D01*
X154201943Y-125350000D01*
X154174236Y-125068691D01*
X154092182Y-124798192D01*
X153958932Y-124548899D01*
X153779608Y-124330392D01*
X153561101Y-124151068D01*
X153428142Y-124080000D01*
X153561101Y-124008932D01*
X153779608Y-123829608D01*
X153958932Y-123611101D01*
X154092182Y-123361808D01*
X154174236Y-123091309D01*
X154201943Y-122810000D01*
X154174236Y-122528691D01*
X154092182Y-122258192D01*
X153958932Y-122008899D01*
X153779608Y-121790392D01*
X153561101Y-121611068D01*
X153428142Y-121540000D01*
X153561101Y-121468932D01*
X153779608Y-121289608D01*
X153958932Y-121071101D01*
X154092182Y-120821808D01*
X154174236Y-120551309D01*
X154201943Y-120270000D01*
X154174236Y-119988691D01*
X154092182Y-119718192D01*
X153958932Y-119468899D01*
X153779608Y-119250392D01*
X153561101Y-119071068D01*
X153428142Y-119000000D01*
X153561101Y-118928932D01*
X153779608Y-118749608D01*
X153958932Y-118531101D01*
X154092182Y-118281808D01*
X154174236Y-118011309D01*
X154201943Y-117730000D01*
X154174236Y-117448691D01*
X154092182Y-117178192D01*
X153958932Y-116928899D01*
X153779608Y-116710392D01*
X153561101Y-116531068D01*
X153428142Y-116460000D01*
X153561101Y-116388932D01*
X153779608Y-116209608D01*
X153958932Y-115991101D01*
X154092182Y-115741808D01*
X154174236Y-115471309D01*
X154201943Y-115190000D01*
X154174236Y-114908691D01*
X154092182Y-114638192D01*
X153958932Y-114388899D01*
X153779608Y-114170392D01*
X153561101Y-113991068D01*
X153428142Y-113920000D01*
X153561101Y-113848932D01*
X153779608Y-113669608D01*
X153958932Y-113451101D01*
X154092182Y-113201808D01*
X154174236Y-112931309D01*
X154201943Y-112650000D01*
X154174236Y-112368691D01*
X154092182Y-112098192D01*
X153958932Y-111848899D01*
X153779608Y-111630392D01*
X153561101Y-111451068D01*
X153428142Y-111380000D01*
X153561101Y-111308932D01*
X153779608Y-111129608D01*
X153958932Y-110911101D01*
X154092182Y-110661808D01*
X154174236Y-110391309D01*
X154201943Y-110110000D01*
X154174236Y-109828691D01*
X154092182Y-109558192D01*
X153958932Y-109308899D01*
X153779608Y-109090392D01*
X153561101Y-108911068D01*
X153428142Y-108840000D01*
X153561101Y-108768932D01*
X153779608Y-108589608D01*
X153958932Y-108371101D01*
X154092182Y-108121808D01*
X154174236Y-107851309D01*
X154201943Y-107570000D01*
X154174236Y-107288691D01*
X154092182Y-107018192D01*
X153958932Y-106768899D01*
X153779608Y-106550392D01*
X153561101Y-106371068D01*
X153428142Y-106300000D01*
X153561101Y-106228932D01*
X153779608Y-106049608D01*
X153958932Y-105831101D01*
X154092182Y-105581808D01*
X154174236Y-105311309D01*
X154201943Y-105030000D01*
X154174236Y-104748691D01*
X154092182Y-104478192D01*
X153958932Y-104228899D01*
X153779608Y-104010392D01*
X153561101Y-103831068D01*
X153433259Y-103762735D01*
X153662839Y-103612601D01*
X153864500Y-103414895D01*
X154023715Y-103181646D01*
X154134367Y-102921818D01*
X154151904Y-102839039D01*
X154029915Y-102617000D01*
X152487000Y-102617000D01*
X152487000Y-102637000D01*
X152233000Y-102637000D01*
X152233000Y-102617000D01*
X150690085Y-102617000D01*
X150568096Y-102839039D01*
X150585633Y-102921818D01*
X150696285Y-103181646D01*
X150855500Y-103414895D01*
X151057161Y-103612601D01*
X151286741Y-103762735D01*
X151158899Y-103831068D01*
X150940392Y-104010392D01*
X150761068Y-104228899D01*
X150627818Y-104478192D01*
X150545764Y-104748691D01*
X150518057Y-105030000D01*
X131341943Y-105030000D01*
X131314236Y-104748691D01*
X131232182Y-104478192D01*
X131098932Y-104228899D01*
X130919608Y-104010392D01*
X130701101Y-103831068D01*
X130568142Y-103760000D01*
X130701101Y-103688932D01*
X130919608Y-103509608D01*
X131098932Y-103291101D01*
X131232182Y-103041808D01*
X131314236Y-102771309D01*
X131341943Y-102490000D01*
X131314236Y-102208691D01*
X131232182Y-101938192D01*
X131098932Y-101688899D01*
X130919608Y-101470392D01*
X130701101Y-101291068D01*
X130568142Y-101220000D01*
X130701101Y-101148932D01*
X130919608Y-100969608D01*
X131098932Y-100751101D01*
X131232182Y-100501808D01*
X131314236Y-100231309D01*
X131341943Y-99950000D01*
X131314236Y-99668691D01*
X131232182Y-99398192D01*
X131098932Y-99148899D01*
X130919608Y-98930392D01*
X130701101Y-98751068D01*
X130568142Y-98680000D01*
X130701101Y-98608932D01*
X130919608Y-98429608D01*
X131098932Y-98211101D01*
X131232182Y-97961808D01*
X131314236Y-97691309D01*
X131341943Y-97410000D01*
X131339522Y-97385421D01*
X131515556Y-97312505D01*
X131685074Y-97199237D01*
X131829237Y-97055074D01*
X131942505Y-96885556D01*
X132020526Y-96697198D01*
X132060300Y-96497239D01*
X132060300Y-96293361D01*
X132020526Y-96093402D01*
X131942505Y-95905044D01*
X131829237Y-95735526D01*
X131785300Y-95691589D01*
X131785300Y-94907333D01*
X131788977Y-94870000D01*
X131774303Y-94721014D01*
X131730846Y-94577753D01*
X131660274Y-94445724D01*
X131565301Y-94329999D01*
X131449576Y-94235026D01*
X131317547Y-94164454D01*
X131174286Y-94120997D01*
X131124139Y-94116058D01*
X131098932Y-94068899D01*
X130919608Y-93850392D01*
X130701101Y-93671068D01*
X130568142Y-93600000D01*
X130701101Y-93528932D01*
X130919608Y-93349608D01*
X131098932Y-93131101D01*
X131232182Y-92881808D01*
X131314236Y-92611309D01*
X131341943Y-92330000D01*
X131314236Y-92048691D01*
X131232182Y-91778192D01*
X131098932Y-91528899D01*
X130919608Y-91310392D01*
X130701101Y-91131068D01*
X130568142Y-91060000D01*
X130701101Y-90988932D01*
X130919608Y-90809608D01*
X131098932Y-90591101D01*
X131232182Y-90341808D01*
X131314236Y-90071309D01*
X131341943Y-89790000D01*
X131314236Y-89508691D01*
X131232182Y-89238192D01*
X131098932Y-88988899D01*
X130919608Y-88770392D01*
X130701101Y-88591068D01*
X130568142Y-88520000D01*
X130701101Y-88448932D01*
X130919608Y-88269608D01*
X131098932Y-88051101D01*
X131232182Y-87801808D01*
X131314236Y-87531309D01*
X131341943Y-87250000D01*
X131314236Y-86968691D01*
X131232182Y-86698192D01*
X131098932Y-86448899D01*
X130919608Y-86230392D01*
X130701101Y-86051068D01*
X130568142Y-85980000D01*
X130701101Y-85908932D01*
X130919608Y-85729608D01*
X131098932Y-85511101D01*
X131232182Y-85261808D01*
X131314236Y-84991309D01*
X131341943Y-84710000D01*
X131314236Y-84428691D01*
X131232182Y-84158192D01*
X131098932Y-83908899D01*
X130919608Y-83690392D01*
X130701101Y-83511068D01*
X130568142Y-83440000D01*
X130701101Y-83368932D01*
X130919608Y-83189608D01*
X131098932Y-82971101D01*
X131232182Y-82721808D01*
X131314236Y-82451309D01*
X131341943Y-82170000D01*
X131314236Y-81888691D01*
X131232182Y-81618192D01*
X131098932Y-81368899D01*
X130919608Y-81150392D01*
X130701101Y-80971068D01*
X130568142Y-80900000D01*
X130701101Y-80828932D01*
X130919608Y-80649608D01*
X131098932Y-80431101D01*
X131232182Y-80181808D01*
X131314236Y-79911309D01*
X131341943Y-79630000D01*
X131314236Y-79348691D01*
X131232182Y-79078192D01*
X131098932Y-78828899D01*
X130919608Y-78610392D01*
X130701101Y-78431068D01*
X130568142Y-78360000D01*
X130701101Y-78288932D01*
X130919608Y-78109608D01*
X131098932Y-77891101D01*
X131232182Y-77641808D01*
X131314236Y-77371309D01*
X131341943Y-77090000D01*
X131314236Y-76808691D01*
X131232182Y-76538192D01*
X131098932Y-76288899D01*
X130919608Y-76070392D01*
X130701101Y-75891068D01*
X130568142Y-75820000D01*
X130701101Y-75748932D01*
X130919608Y-75569608D01*
X131098932Y-75351101D01*
X131232182Y-75101808D01*
X131314236Y-74831309D01*
X131341943Y-74550000D01*
X131314236Y-74268691D01*
X131232182Y-73998192D01*
X131098932Y-73748899D01*
X130919608Y-73530392D01*
X130701101Y-73351068D01*
X130568142Y-73280000D01*
X130701101Y-73208932D01*
X130919608Y-73029608D01*
X131098932Y-72811101D01*
X131232182Y-72561808D01*
X131314236Y-72291309D01*
X131341943Y-72010000D01*
X131314236Y-71728691D01*
X131232182Y-71458192D01*
X131098932Y-71208899D01*
X130919608Y-70990392D01*
X130701101Y-70811068D01*
X130568142Y-70740000D01*
X130701101Y-70668932D01*
X130919608Y-70489608D01*
X131098932Y-70271101D01*
X131232182Y-70021808D01*
X131314236Y-69751309D01*
X131341943Y-69470000D01*
X131314236Y-69188691D01*
X131232182Y-68918192D01*
X131098932Y-68668899D01*
X130919608Y-68450392D01*
X130701101Y-68271068D01*
X130568142Y-68200000D01*
X130701101Y-68128932D01*
X130919608Y-67949608D01*
X131098932Y-67731101D01*
X131232182Y-67481808D01*
X131314236Y-67211309D01*
X131341943Y-66930000D01*
X131314236Y-66648691D01*
X131232182Y-66378192D01*
X131098932Y-66128899D01*
X130919608Y-65910392D01*
X130701101Y-65731068D01*
X130568142Y-65660000D01*
X130701101Y-65588932D01*
X130919608Y-65409608D01*
X131098932Y-65191101D01*
X131232182Y-64941808D01*
X131314236Y-64671309D01*
X131341943Y-64390000D01*
X131314236Y-64108691D01*
X131232182Y-63838192D01*
X131098932Y-63588899D01*
X130919608Y-63370392D01*
X130701101Y-63191068D01*
X130568142Y-63120000D01*
X130701101Y-63048932D01*
X130919608Y-62869608D01*
X131098932Y-62651101D01*
X131232182Y-62401808D01*
X131314236Y-62131309D01*
X131341943Y-61850000D01*
X150518057Y-61850000D01*
X150545764Y-62131309D01*
X150627818Y-62401808D01*
X150761068Y-62651101D01*
X150940392Y-62869608D01*
X151158899Y-63048932D01*
X151291858Y-63120000D01*
X151158899Y-63191068D01*
X150940392Y-63370392D01*
X150761068Y-63588899D01*
X150627818Y-63838192D01*
X150545764Y-64108691D01*
X150518057Y-64390000D01*
X150545764Y-64671309D01*
X150627818Y-64941808D01*
X150761068Y-65191101D01*
X150940392Y-65409608D01*
X151158899Y-65588932D01*
X151291858Y-65660000D01*
X151158899Y-65731068D01*
X150940392Y-65910392D01*
X150761068Y-66128899D01*
X150627818Y-66378192D01*
X150545764Y-66648691D01*
X150518057Y-66930000D01*
X150545764Y-67211309D01*
X150627818Y-67481808D01*
X150761068Y-67731101D01*
X150940392Y-67949608D01*
X151158899Y-68128932D01*
X151291858Y-68200000D01*
X151158899Y-68271068D01*
X150940392Y-68450392D01*
X150761068Y-68668899D01*
X150627818Y-68918192D01*
X150545764Y-69188691D01*
X150518057Y-69470000D01*
X150545764Y-69751309D01*
X150627818Y-70021808D01*
X150761068Y-70271101D01*
X150940392Y-70489608D01*
X151158899Y-70668932D01*
X151291858Y-70740000D01*
X151158899Y-70811068D01*
X150940392Y-70990392D01*
X150761068Y-71208899D01*
X150627818Y-71458192D01*
X150545764Y-71728691D01*
X150518057Y-72010000D01*
X150545764Y-72291309D01*
X150627818Y-72561808D01*
X150761068Y-72811101D01*
X150940392Y-73029608D01*
X151158899Y-73208932D01*
X151291858Y-73280000D01*
X151158899Y-73351068D01*
X150940392Y-73530392D01*
X150761068Y-73748899D01*
X150627818Y-73998192D01*
X150545764Y-74268691D01*
X150518057Y-74550000D01*
X150545764Y-74831309D01*
X150627818Y-75101808D01*
X150761068Y-75351101D01*
X150940392Y-75569608D01*
X151158899Y-75748932D01*
X151291858Y-75820000D01*
X151158899Y-75891068D01*
X150940392Y-76070392D01*
X150761068Y-76288899D01*
X150627818Y-76538192D01*
X150545764Y-76808691D01*
X150518057Y-77090000D01*
X150545764Y-77371309D01*
X150627818Y-77641808D01*
X150761068Y-77891101D01*
X150940392Y-78109608D01*
X151158899Y-78288932D01*
X151291858Y-78360000D01*
X151158899Y-78431068D01*
X150940392Y-78610392D01*
X150761068Y-78828899D01*
X150627818Y-79078192D01*
X150545764Y-79348691D01*
X150518057Y-79630000D01*
X150545764Y-79911309D01*
X150627818Y-80181808D01*
X150761068Y-80431101D01*
X150940392Y-80649608D01*
X151158899Y-80828932D01*
X151291858Y-80900000D01*
X151158899Y-80971068D01*
X150940392Y-81150392D01*
X150761068Y-81368899D01*
X150627818Y-81618192D01*
X150545764Y-81888691D01*
X150518057Y-82170000D01*
X150545764Y-82451309D01*
X150627818Y-82721808D01*
X150761068Y-82971101D01*
X150940392Y-83189608D01*
X151158899Y-83368932D01*
X151291858Y-83440000D01*
X151158899Y-83511068D01*
X150940392Y-83690392D01*
X150761068Y-83908899D01*
X150627818Y-84158192D01*
X150545764Y-84428691D01*
X150518057Y-84710000D01*
X150545764Y-84991309D01*
X150627818Y-85261808D01*
X150761068Y-85511101D01*
X150940392Y-85729608D01*
X151158899Y-85908932D01*
X151291858Y-85980000D01*
X151158899Y-86051068D01*
X150940392Y-86230392D01*
X150761068Y-86448899D01*
X150627818Y-86698192D01*
X150545764Y-86968691D01*
X150518057Y-87250000D01*
X150545764Y-87531309D01*
X150627818Y-87801808D01*
X150761068Y-88051101D01*
X150940392Y-88269608D01*
X151158899Y-88448932D01*
X151291858Y-88520000D01*
X151158899Y-88591068D01*
X150940392Y-88770392D01*
X150761068Y-88988899D01*
X150627818Y-89238192D01*
X150545764Y-89508691D01*
X150518057Y-89790000D01*
X150545764Y-90071309D01*
X150627818Y-90341808D01*
X150761068Y-90591101D01*
X150940392Y-90809608D01*
X151158899Y-90988932D01*
X151291858Y-91060000D01*
X151158899Y-91131068D01*
X150940392Y-91310392D01*
X150761068Y-91528899D01*
X150627818Y-91778192D01*
X150545764Y-92048691D01*
X150518057Y-92330000D01*
X150545764Y-92611309D01*
X150627818Y-92881808D01*
X150761068Y-93131101D01*
X150940392Y-93349608D01*
X151158899Y-93528932D01*
X151291858Y-93600000D01*
X151158899Y-93671068D01*
X150940392Y-93850392D01*
X150761068Y-94068899D01*
X150627818Y-94318192D01*
X150545764Y-94588691D01*
X150518057Y-94870000D01*
X150545764Y-95151309D01*
X150627818Y-95421808D01*
X150761068Y-95671101D01*
X150940392Y-95889608D01*
X151158899Y-96068932D01*
X151291858Y-96140000D01*
X151158899Y-96211068D01*
X150940392Y-96390392D01*
X150761068Y-96608899D01*
X150627818Y-96858192D01*
X150545764Y-97128691D01*
X150518057Y-97410000D01*
X150545764Y-97691309D01*
X150627818Y-97961808D01*
X150761068Y-98211101D01*
X150940392Y-98429608D01*
X151158899Y-98608932D01*
X151291858Y-98680000D01*
X151158899Y-98751068D01*
X150940392Y-98930392D01*
X150761068Y-99148899D01*
X150627818Y-99398192D01*
X150545764Y-99668691D01*
X150518057Y-99950000D01*
X150545764Y-100231309D01*
X150627818Y-100501808D01*
X150761068Y-100751101D01*
X150940392Y-100969608D01*
X151158899Y-101148932D01*
X151286741Y-101217265D01*
X151057161Y-101367399D01*
X150855500Y-101565105D01*
X150696285Y-101798354D01*
X150585633Y-102058182D01*
X150568096Y-102140961D01*
X150690085Y-102363000D01*
X152233000Y-102363000D01*
X152233000Y-102343000D01*
X152487000Y-102343000D01*
X152487000Y-102363000D01*
X154029915Y-102363000D01*
X154151904Y-102140961D01*
X154134367Y-102058182D01*
X154023715Y-101798354D01*
X153864500Y-101565105D01*
X153662839Y-101367399D01*
X153433259Y-101217265D01*
X153561101Y-101148932D01*
X153779608Y-100969608D01*
X153958932Y-100751101D01*
X154092182Y-100501808D01*
X154174236Y-100231309D01*
X154201943Y-99950000D01*
X154174236Y-99668691D01*
X154092182Y-99398192D01*
X153958932Y-99148899D01*
X153779608Y-98930392D01*
X153561101Y-98751068D01*
X153428142Y-98680000D01*
X153561101Y-98608932D01*
X153779608Y-98429608D01*
X153958932Y-98211101D01*
X154092182Y-97961808D01*
X154174236Y-97691309D01*
X154201943Y-97410000D01*
X154174236Y-97128691D01*
X154092182Y-96858192D01*
X153958932Y-96608899D01*
X153779608Y-96390392D01*
X153561101Y-96211068D01*
X153428142Y-96140000D01*
X153561101Y-96068932D01*
X153779608Y-95889608D01*
X153958932Y-95671101D01*
X154092182Y-95421808D01*
X154174236Y-95151309D01*
X154201943Y-94870000D01*
X154174236Y-94588691D01*
X154092182Y-94318192D01*
X153958932Y-94068899D01*
X153779608Y-93850392D01*
X153561101Y-93671068D01*
X153428142Y-93600000D01*
X153561101Y-93528932D01*
X153779608Y-93349608D01*
X153958932Y-93131101D01*
X154092182Y-92881808D01*
X154174236Y-92611309D01*
X154201943Y-92330000D01*
X154174236Y-92048691D01*
X154092182Y-91778192D01*
X153958932Y-91528899D01*
X153779608Y-91310392D01*
X153561101Y-91131068D01*
X153428142Y-91060000D01*
X153561101Y-90988932D01*
X153779608Y-90809608D01*
X153958932Y-90591101D01*
X154092182Y-90341808D01*
X154174236Y-90071309D01*
X154201943Y-89790000D01*
X154174236Y-89508691D01*
X154092182Y-89238192D01*
X153958932Y-88988899D01*
X153779608Y-88770392D01*
X153561101Y-88591068D01*
X153428142Y-88520000D01*
X153561101Y-88448932D01*
X153779608Y-88269608D01*
X153958932Y-88051101D01*
X154092182Y-87801808D01*
X154174236Y-87531309D01*
X154201943Y-87250000D01*
X154174236Y-86968691D01*
X154092182Y-86698192D01*
X153958932Y-86448899D01*
X153779608Y-86230392D01*
X153561101Y-86051068D01*
X153428142Y-85980000D01*
X153561101Y-85908932D01*
X153779608Y-85729608D01*
X153958932Y-85511101D01*
X154092182Y-85261808D01*
X154174236Y-84991309D01*
X154201943Y-84710000D01*
X154174236Y-84428691D01*
X154092182Y-84158192D01*
X153958932Y-83908899D01*
X153779608Y-83690392D01*
X153561101Y-83511068D01*
X153428142Y-83440000D01*
X153561101Y-83368932D01*
X153779608Y-83189608D01*
X153958932Y-82971101D01*
X154092182Y-82721808D01*
X154174236Y-82451309D01*
X154201943Y-82170000D01*
X154174236Y-81888691D01*
X154092182Y-81618192D01*
X153958932Y-81368899D01*
X153779608Y-81150392D01*
X153561101Y-80971068D01*
X153428142Y-80900000D01*
X153561101Y-80828932D01*
X153779608Y-80649608D01*
X153958932Y-80431101D01*
X154092182Y-80181808D01*
X154174236Y-79911309D01*
X154201943Y-79630000D01*
X154174236Y-79348691D01*
X154092182Y-79078192D01*
X153958932Y-78828899D01*
X153779608Y-78610392D01*
X153561101Y-78431068D01*
X153428142Y-78360000D01*
X153561101Y-78288932D01*
X153779608Y-78109608D01*
X153958932Y-77891101D01*
X154092182Y-77641808D01*
X154174236Y-77371309D01*
X154201943Y-77090000D01*
X154174236Y-76808691D01*
X154092182Y-76538192D01*
X153958932Y-76288899D01*
X153779608Y-76070392D01*
X153561101Y-75891068D01*
X153428142Y-75820000D01*
X153561101Y-75748932D01*
X153779608Y-75569608D01*
X153958932Y-75351101D01*
X154092182Y-75101808D01*
X154174236Y-74831309D01*
X154201943Y-74550000D01*
X154174236Y-74268691D01*
X154092182Y-73998192D01*
X153958932Y-73748899D01*
X153779608Y-73530392D01*
X153561101Y-73351068D01*
X153428142Y-73280000D01*
X153561101Y-73208932D01*
X153779608Y-73029608D01*
X153958932Y-72811101D01*
X154092182Y-72561808D01*
X154174236Y-72291309D01*
X154201943Y-72010000D01*
X154174236Y-71728691D01*
X154092182Y-71458192D01*
X153958932Y-71208899D01*
X153779608Y-70990392D01*
X153561101Y-70811068D01*
X153428142Y-70740000D01*
X153561101Y-70668932D01*
X153779608Y-70489608D01*
X153958932Y-70271101D01*
X154092182Y-70021808D01*
X154174236Y-69751309D01*
X154201943Y-69470000D01*
X154174236Y-69188691D01*
X154092182Y-68918192D01*
X153958932Y-68668899D01*
X153779608Y-68450392D01*
X153561101Y-68271068D01*
X153428142Y-68200000D01*
X153561101Y-68128932D01*
X153779608Y-67949608D01*
X153958932Y-67731101D01*
X154092182Y-67481808D01*
X154174236Y-67211309D01*
X154201943Y-66930000D01*
X154174236Y-66648691D01*
X154092182Y-66378192D01*
X153958932Y-66128899D01*
X153779608Y-65910392D01*
X153561101Y-65731068D01*
X153428142Y-65660000D01*
X153561101Y-65588932D01*
X153779608Y-65409608D01*
X153958932Y-65191101D01*
X154092182Y-64941808D01*
X154174236Y-64671309D01*
X154201943Y-64390000D01*
X154174236Y-64108691D01*
X154092182Y-63838192D01*
X153958932Y-63588899D01*
X153779608Y-63370392D01*
X153561101Y-63191068D01*
X153428142Y-63120000D01*
X153561101Y-63048932D01*
X153779608Y-62869608D01*
X153958932Y-62651101D01*
X154092182Y-62401808D01*
X154174236Y-62131309D01*
X154201943Y-61850000D01*
X154174236Y-61568691D01*
X154092182Y-61298192D01*
X153958932Y-61048899D01*
X153779608Y-60830392D01*
X153561101Y-60651068D01*
X153311808Y-60517818D01*
X153041309Y-60435764D01*
X152830492Y-60415000D01*
X151889508Y-60415000D01*
X151678691Y-60435764D01*
X151408192Y-60517818D01*
X151158899Y-60651068D01*
X150940392Y-60830392D01*
X150761068Y-61048899D01*
X150627818Y-61298192D01*
X150545764Y-61568691D01*
X150518057Y-61850000D01*
X131341943Y-61850000D01*
X131314236Y-61568691D01*
X131232182Y-61298192D01*
X131098932Y-61048899D01*
X130919608Y-60830392D01*
X130701101Y-60651068D01*
X130451808Y-60517818D01*
X130181309Y-60435764D01*
X129970492Y-60415000D01*
X129029508Y-60415000D01*
X128818691Y-60435764D01*
X128734700Y-60461242D01*
X128734700Y-58777601D01*
X128978781Y-58533520D01*
X129024998Y-58538072D01*
X129850002Y-58538072D01*
X130023256Y-58521008D01*
X130189852Y-58470472D01*
X130343387Y-58388405D01*
X130477962Y-58277962D01*
X130588405Y-58143387D01*
X130670472Y-57989852D01*
X130697728Y-57900000D01*
X131261928Y-57900000D01*
X131274188Y-58024482D01*
X131310498Y-58144180D01*
X131369463Y-58254494D01*
X131448815Y-58351185D01*
X131545506Y-58430537D01*
X131655820Y-58489502D01*
X131775518Y-58525812D01*
X131900000Y-58538072D01*
X132276750Y-58535000D01*
X132435500Y-58376250D01*
X132435500Y-57127000D01*
X132689500Y-57127000D01*
X132689500Y-58376250D01*
X132848250Y-58535000D01*
X133225000Y-58538072D01*
X133349482Y-58525812D01*
X133469180Y-58489502D01*
X133579494Y-58430537D01*
X133676185Y-58351185D01*
X133755537Y-58254494D01*
X133814502Y-58144180D01*
X133850812Y-58024482D01*
X133863072Y-57900000D01*
X133860000Y-57285750D01*
X133701250Y-57127000D01*
X132689500Y-57127000D01*
X132435500Y-57127000D01*
X131423750Y-57127000D01*
X131265000Y-57285750D01*
X131261928Y-57900000D01*
X130697728Y-57900000D01*
X130721008Y-57823256D01*
X130738072Y-57650002D01*
X130738072Y-56349998D01*
X130721008Y-56176744D01*
X130697729Y-56100000D01*
X131261928Y-56100000D01*
X131265000Y-56714250D01*
X131423750Y-56873000D01*
X132435500Y-56873000D01*
X132435500Y-55623750D01*
X132689500Y-55623750D01*
X132689500Y-56873000D01*
X133701250Y-56873000D01*
X133860000Y-56714250D01*
X133863072Y-56100000D01*
X133850812Y-55975518D01*
X133814502Y-55855820D01*
X133755537Y-55745506D01*
X133676185Y-55648815D01*
X133579494Y-55569463D01*
X133469180Y-55510498D01*
X133349482Y-55474188D01*
X133225000Y-55461928D01*
X132848250Y-55465000D01*
X132689500Y-55623750D01*
X132435500Y-55623750D01*
X132276750Y-55465000D01*
X131900000Y-55461928D01*
X131775518Y-55474188D01*
X131655820Y-55510498D01*
X131545506Y-55569463D01*
X131448815Y-55648815D01*
X131369463Y-55745506D01*
X131310498Y-55855820D01*
X131274188Y-55975518D01*
X131261928Y-56100000D01*
X130697729Y-56100000D01*
X130670472Y-56010148D01*
X130588405Y-55856613D01*
X130477962Y-55722038D01*
X130343387Y-55611595D01*
X130197500Y-55533616D01*
X130197500Y-55303469D01*
X130273255Y-55296008D01*
X130439851Y-55245472D01*
X130593387Y-55163405D01*
X130727962Y-55052962D01*
X130838405Y-54918387D01*
X130920472Y-54764851D01*
X130947727Y-54675000D01*
X131011928Y-54675000D01*
X131024188Y-54799482D01*
X131060498Y-54919180D01*
X131119463Y-55029494D01*
X131198815Y-55126185D01*
X131295506Y-55205537D01*
X131405820Y-55264502D01*
X131525518Y-55300812D01*
X131650000Y-55313072D01*
X132151750Y-55310000D01*
X132310500Y-55151250D01*
X132310500Y-54127000D01*
X131173750Y-54127000D01*
X131015000Y-54285750D01*
X131011928Y-54675000D01*
X130947727Y-54675000D01*
X130971008Y-54598255D01*
X130988072Y-54425001D01*
X130988072Y-53725000D01*
X131025750Y-53725000D01*
X131173750Y-53873000D01*
X132310500Y-53873000D01*
X132310500Y-53853000D01*
X132564500Y-53853000D01*
X132564500Y-53873000D01*
X132584500Y-53873000D01*
X132584500Y-54127000D01*
X132564500Y-54127000D01*
X132564500Y-55151250D01*
X132723250Y-55310000D01*
X133225000Y-55313072D01*
X133349482Y-55300812D01*
X133469180Y-55264502D01*
X133579494Y-55205537D01*
X133676185Y-55126185D01*
X133755537Y-55029494D01*
X133814502Y-54919180D01*
X133850812Y-54799482D01*
X133863072Y-54675000D01*
X133863052Y-54672453D01*
X135064700Y-55874102D01*
X135064700Y-55962667D01*
X135061023Y-56000000D01*
X135075697Y-56148986D01*
X135119154Y-56292247D01*
X135189726Y-56424276D01*
X135284699Y-56540001D01*
X135400424Y-56634974D01*
X135511928Y-56694575D01*
X135511928Y-56850000D01*
X135524188Y-56974482D01*
X135560498Y-57094180D01*
X135619463Y-57204494D01*
X135698815Y-57301185D01*
X135795506Y-57380537D01*
X135905820Y-57439502D01*
X136025518Y-57475812D01*
X136150000Y-57488072D01*
X137850000Y-57488072D01*
X137974482Y-57475812D01*
X138094180Y-57439502D01*
X138204494Y-57380537D01*
X138301185Y-57301185D01*
X138380537Y-57204494D01*
X138439502Y-57094180D01*
X138463966Y-57013534D01*
X138539731Y-57097588D01*
X138773080Y-57271641D01*
X139035901Y-57396825D01*
X139183110Y-57441476D01*
X139413000Y-57320155D01*
X139413000Y-56127000D01*
X139667000Y-56127000D01*
X139667000Y-57320155D01*
X139896890Y-57441476D01*
X140044099Y-57396825D01*
X140306920Y-57271641D01*
X140540269Y-57097588D01*
X140735178Y-56881355D01*
X140810000Y-56755745D01*
X140884822Y-56881355D01*
X141079731Y-57097588D01*
X141313080Y-57271641D01*
X141575901Y-57396825D01*
X141723110Y-57441476D01*
X141953000Y-57320155D01*
X141953000Y-56127000D01*
X139667000Y-56127000D01*
X139413000Y-56127000D01*
X139393000Y-56127000D01*
X139393000Y-55873000D01*
X139413000Y-55873000D01*
X139413000Y-55853000D01*
X139667000Y-55853000D01*
X139667000Y-55873000D01*
X141953000Y-55873000D01*
X141953000Y-55853000D01*
X142207000Y-55853000D01*
X142207000Y-55873000D01*
X142227000Y-55873000D01*
X142227000Y-56127000D01*
X142207000Y-56127000D01*
X142207000Y-57320155D01*
X142436890Y-57441476D01*
X142584099Y-57396825D01*
X142846920Y-57271641D01*
X143080269Y-57097588D01*
X143275178Y-56881355D01*
X143344805Y-56764466D01*
X143466525Y-56946632D01*
X143673368Y-57153475D01*
X143916589Y-57315990D01*
X144186842Y-57427932D01*
X144473740Y-57485000D01*
X144766260Y-57485000D01*
X145053158Y-57427932D01*
X145323411Y-57315990D01*
X145566632Y-57153475D01*
X145773475Y-56946632D01*
X145935990Y-56703411D01*
X146047932Y-56433158D01*
X146105000Y-56146260D01*
X146105000Y-55853740D01*
X146047932Y-55566842D01*
X145935990Y-55296589D01*
X145794277Y-55084500D01*
X147935467Y-55084500D01*
X148031613Y-55163405D01*
X148087500Y-55193278D01*
X148087500Y-55533616D01*
X147941613Y-55611595D01*
X147807038Y-55722038D01*
X147696595Y-55856613D01*
X147614528Y-56010148D01*
X147563992Y-56176744D01*
X147546928Y-56349998D01*
X147546928Y-57650002D01*
X147563992Y-57823256D01*
X147614528Y-57989852D01*
X147696595Y-58143387D01*
X147807038Y-58277962D01*
X147941613Y-58388405D01*
X148095148Y-58470472D01*
X148261744Y-58521008D01*
X148434998Y-58538072D01*
X149260002Y-58538072D01*
X149433256Y-58521008D01*
X149599852Y-58470472D01*
X149753387Y-58388405D01*
X149887962Y-58277962D01*
X149998405Y-58143387D01*
X150080472Y-57989852D01*
X150107728Y-57900000D01*
X150671928Y-57900000D01*
X150684188Y-58024482D01*
X150720498Y-58144180D01*
X150779463Y-58254494D01*
X150858815Y-58351185D01*
X150955506Y-58430537D01*
X151065820Y-58489502D01*
X151185518Y-58525812D01*
X151310000Y-58538072D01*
X151686750Y-58535000D01*
X151845500Y-58376250D01*
X151845500Y-57127000D01*
X152099500Y-57127000D01*
X152099500Y-58376250D01*
X152258250Y-58535000D01*
X152635000Y-58538072D01*
X152759482Y-58525812D01*
X152879180Y-58489502D01*
X152989494Y-58430537D01*
X153086185Y-58351185D01*
X153165537Y-58254494D01*
X153224502Y-58144180D01*
X153260812Y-58024482D01*
X153273072Y-57900000D01*
X153270000Y-57285750D01*
X153111250Y-57127000D01*
X152099500Y-57127000D01*
X151845500Y-57127000D01*
X150833750Y-57127000D01*
X150675000Y-57285750D01*
X150671928Y-57900000D01*
X150107728Y-57900000D01*
X150131008Y-57823256D01*
X150148072Y-57650002D01*
X150148072Y-56349998D01*
X150131008Y-56176744D01*
X150107729Y-56100000D01*
X150671928Y-56100000D01*
X150675000Y-56714250D01*
X150833750Y-56873000D01*
X151845500Y-56873000D01*
X151845500Y-55623750D01*
X152099500Y-55623750D01*
X152099500Y-56873000D01*
X153111250Y-56873000D01*
X153270000Y-56714250D01*
X153273072Y-56100000D01*
X153260812Y-55975518D01*
X153224502Y-55855820D01*
X153165537Y-55745506D01*
X153086185Y-55648815D01*
X152989494Y-55569463D01*
X152879180Y-55510498D01*
X152759482Y-55474188D01*
X152635000Y-55461928D01*
X152258250Y-55465000D01*
X152099500Y-55623750D01*
X151845500Y-55623750D01*
X151686750Y-55465000D01*
X151310000Y-55461928D01*
X151185518Y-55474188D01*
X151065820Y-55510498D01*
X150955506Y-55569463D01*
X150858815Y-55648815D01*
X150779463Y-55745506D01*
X150720498Y-55855820D01*
X150684188Y-55975518D01*
X150671928Y-56100000D01*
X150107729Y-56100000D01*
X150080472Y-56010148D01*
X149998405Y-55856613D01*
X149887962Y-55722038D01*
X149753387Y-55611595D01*
X149607500Y-55533616D01*
X149607500Y-55312333D01*
X149773255Y-55296008D01*
X149939851Y-55245472D01*
X150093387Y-55163405D01*
X150227962Y-55052962D01*
X150338405Y-54918387D01*
X150420472Y-54764851D01*
X150447727Y-54675000D01*
X150511928Y-54675000D01*
X150524188Y-54799482D01*
X150560498Y-54919180D01*
X150619463Y-55029494D01*
X150698815Y-55126185D01*
X150795506Y-55205537D01*
X150905820Y-55264502D01*
X151025518Y-55300812D01*
X151150000Y-55313072D01*
X151651750Y-55310000D01*
X151810500Y-55151250D01*
X151810500Y-54127000D01*
X152064500Y-54127000D01*
X152064500Y-55151250D01*
X152223250Y-55310000D01*
X152725000Y-55313072D01*
X152849482Y-55300812D01*
X152969180Y-55264502D01*
X153079494Y-55205537D01*
X153176185Y-55126185D01*
X153255537Y-55029494D01*
X153314502Y-54919180D01*
X153350812Y-54799482D01*
X153363072Y-54675000D01*
X153360000Y-54285750D01*
X153201250Y-54127000D01*
X152064500Y-54127000D01*
X151810500Y-54127000D01*
X150673750Y-54127000D01*
X150515000Y-54285750D01*
X150511928Y-54675000D01*
X150447727Y-54675000D01*
X150471008Y-54598255D01*
X150488072Y-54425001D01*
X150488072Y-53574999D01*
X150471008Y-53401745D01*
X150447728Y-53325000D01*
X150511928Y-53325000D01*
X150515000Y-53714250D01*
X150673750Y-53873000D01*
X151810500Y-53873000D01*
X151810500Y-52848750D01*
X152064500Y-52848750D01*
X152064500Y-53873000D01*
X153201250Y-53873000D01*
X153360000Y-53714250D01*
X153363072Y-53325000D01*
X153350812Y-53200518D01*
X153314502Y-53080820D01*
X153255537Y-52970506D01*
X153176185Y-52873815D01*
X153079494Y-52794463D01*
X152969180Y-52735498D01*
X152849482Y-52699188D01*
X152725000Y-52686928D01*
X152223250Y-52690000D01*
X152064500Y-52848750D01*
X151810500Y-52848750D01*
X151651750Y-52690000D01*
X151150000Y-52686928D01*
X151025518Y-52699188D01*
X150905820Y-52735498D01*
X150795506Y-52794463D01*
X150698815Y-52873815D01*
X150619463Y-52970506D01*
X150560498Y-53080820D01*
X150524188Y-53200518D01*
X150511928Y-53325000D01*
X150447728Y-53325000D01*
X150420472Y-53235149D01*
X150338405Y-53081613D01*
X150227962Y-52947038D01*
X150093387Y-52836595D01*
X149939851Y-52754528D01*
X149773255Y-52703992D01*
X149600001Y-52686928D01*
X148524999Y-52686928D01*
X148351745Y-52703992D01*
X148185149Y-52754528D01*
X148031613Y-52836595D01*
X147897038Y-52947038D01*
X147786595Y-53081613D01*
X147704528Y-53235149D01*
X147653992Y-53401745D01*
X147637962Y-53564500D01*
X139520822Y-53564500D01*
X139483499Y-53560824D01*
X139446176Y-53564500D01*
X139446167Y-53564500D01*
X139334514Y-53575497D01*
X139191253Y-53618954D01*
X139059224Y-53689526D01*
X138943499Y-53784499D01*
X138919701Y-53813497D01*
X138145350Y-54587849D01*
X138094180Y-54560498D01*
X137974482Y-54524188D01*
X137850000Y-54511928D01*
X136150000Y-54511928D01*
X136025518Y-54524188D01*
X135905820Y-54560498D01*
X135902483Y-54562282D01*
X133794204Y-52454003D01*
X133770401Y-52424999D01*
X133654676Y-52330026D01*
X133522647Y-52259454D01*
X133379386Y-52215997D01*
X133267733Y-52205000D01*
X133267722Y-52205000D01*
X133230400Y-52201324D01*
X133193078Y-52205000D01*
X130634822Y-52205000D01*
X130597499Y-52201324D01*
X130560176Y-52205000D01*
X130560167Y-52205000D01*
X130448514Y-52215997D01*
X130305253Y-52259454D01*
X130173223Y-52330026D01*
X130089583Y-52398668D01*
X130057499Y-52424999D01*
X130033701Y-52453997D01*
X129800770Y-52686928D01*
X129024999Y-52686928D01*
X128851745Y-52703992D01*
X128685149Y-52754528D01*
X128531613Y-52836595D01*
X128397038Y-52947038D01*
X128286595Y-53081613D01*
X128204528Y-53235149D01*
X128153992Y-53401745D01*
X128136928Y-53574999D01*
X128136928Y-54425001D01*
X128153992Y-54598255D01*
X128204528Y-54764851D01*
X128286595Y-54918387D01*
X128397038Y-55052962D01*
X128531613Y-55163405D01*
X128677500Y-55241384D01*
X128677500Y-55533616D01*
X128531613Y-55611595D01*
X128397038Y-55722038D01*
X128286595Y-55856613D01*
X128204528Y-56010148D01*
X128153992Y-56176744D01*
X128136928Y-56349998D01*
X128136928Y-57225771D01*
X127463703Y-57898996D01*
X127434699Y-57922799D01*
X127379671Y-57989852D01*
X127339726Y-58038524D01*
X127283675Y-58143387D01*
X127269154Y-58170554D01*
X127225697Y-58313815D01*
X127214700Y-58425468D01*
X127214700Y-58425478D01*
X127211024Y-58462800D01*
X127214700Y-58500122D01*
X127214701Y-102452657D01*
X127211023Y-102490000D01*
X125660000Y-102490000D01*
X125660000Y-48779872D01*
X125765000Y-48779872D01*
X125765000Y-49220128D01*
X125850890Y-49651925D01*
X126019369Y-50058669D01*
X126263962Y-50424729D01*
X126575271Y-50736038D01*
X126941331Y-50980631D01*
X127348075Y-51149110D01*
X127779872Y-51235000D01*
X128220128Y-51235000D01*
X128651925Y-51149110D01*
X129058669Y-50980631D01*
X129424729Y-50736038D01*
X129736038Y-50424729D01*
X129980631Y-50058669D01*
X130149110Y-49651925D01*
X130235000Y-49220128D01*
X130235000Y-48779872D01*
X151765000Y-48779872D01*
X151765000Y-49220128D01*
X151850890Y-49651925D01*
X152019369Y-50058669D01*
X152263962Y-50424729D01*
X152575271Y-50736038D01*
X152941331Y-50980631D01*
X153348075Y-51149110D01*
X153779872Y-51235000D01*
X154220128Y-51235000D01*
X154651925Y-51149110D01*
X155058669Y-50980631D01*
X155424729Y-50736038D01*
X155736038Y-50424729D01*
X155980631Y-50058669D01*
X156149110Y-49651925D01*
X156235000Y-49220128D01*
X156235000Y-48779872D01*
X156149110Y-48348075D01*
X155980631Y-47941331D01*
X155736038Y-47575271D01*
X155424729Y-47263962D01*
X155058669Y-47019369D01*
X154651925Y-46850890D01*
X154220128Y-46765000D01*
X153779872Y-46765000D01*
X153348075Y-46850890D01*
X152941331Y-47019369D01*
X152575271Y-47263962D01*
X152263962Y-47575271D01*
X152019369Y-47941331D01*
X151850890Y-48348075D01*
X151765000Y-48779872D01*
X130235000Y-48779872D01*
X130149110Y-48348075D01*
X129980631Y-47941331D01*
X129736038Y-47575271D01*
X129424729Y-47263962D01*
X129058669Y-47019369D01*
X128651925Y-46850890D01*
X128220128Y-46765000D01*
X127779872Y-46765000D01*
X127348075Y-46850890D01*
X126941331Y-47019369D01*
X126575271Y-47263962D01*
X126263962Y-47575271D01*
X126019369Y-47941331D01*
X125850890Y-48348075D01*
X125765000Y-48779872D01*
X125660000Y-48779872D01*
X125660000Y-46660000D01*
X156340001Y-46660000D01*
X156340000Y-148340000D01*
%TA.AperFunction,Conductor*%
D17*
G36*
X156340000Y-148340000D02*
G01*
X125660000Y-148340000D01*
X125660000Y-145779872D01*
X125765000Y-145779872D01*
X125765000Y-146220128D01*
X125850890Y-146651925D01*
X126019369Y-147058669D01*
X126263962Y-147424729D01*
X126575271Y-147736038D01*
X126941331Y-147980631D01*
X127348075Y-148149110D01*
X127779872Y-148235000D01*
X128220128Y-148235000D01*
X128651925Y-148149110D01*
X129058669Y-147980631D01*
X129424729Y-147736038D01*
X129736038Y-147424729D01*
X129980631Y-147058669D01*
X130149110Y-146651925D01*
X130235000Y-146220128D01*
X130235000Y-145779872D01*
X151765000Y-145779872D01*
X151765000Y-146220128D01*
X151850890Y-146651925D01*
X152019369Y-147058669D01*
X152263962Y-147424729D01*
X152575271Y-147736038D01*
X152941331Y-147980631D01*
X153348075Y-148149110D01*
X153779872Y-148235000D01*
X154220128Y-148235000D01*
X154651925Y-148149110D01*
X155058669Y-147980631D01*
X155424729Y-147736038D01*
X155736038Y-147424729D01*
X155980631Y-147058669D01*
X156149110Y-146651925D01*
X156235000Y-146220128D01*
X156235000Y-145779872D01*
X156149110Y-145348075D01*
X155980631Y-144941331D01*
X155736038Y-144575271D01*
X155424729Y-144263962D01*
X155058669Y-144019369D01*
X154651925Y-143850890D01*
X154220128Y-143765000D01*
X153779872Y-143765000D01*
X153348075Y-143850890D01*
X152941331Y-144019369D01*
X152575271Y-144263962D01*
X152263962Y-144575271D01*
X152019369Y-144941331D01*
X151850890Y-145348075D01*
X151765000Y-145779872D01*
X130235000Y-145779872D01*
X130149110Y-145348075D01*
X129980631Y-144941331D01*
X129736038Y-144575271D01*
X129424729Y-144263962D01*
X129058669Y-144019369D01*
X128651925Y-143850890D01*
X128220128Y-143765000D01*
X127779872Y-143765000D01*
X127348075Y-143850890D01*
X126941331Y-144019369D01*
X126575271Y-144263962D01*
X126263962Y-144575271D01*
X126019369Y-144941331D01*
X125850890Y-145348075D01*
X125765000Y-145779872D01*
X125660000Y-145779872D01*
X125660000Y-115190000D01*
X127658057Y-115190000D01*
X127685764Y-115471309D01*
X127767818Y-115741808D01*
X127901068Y-115991101D01*
X128080392Y-116209608D01*
X128298899Y-116388932D01*
X128431858Y-116460000D01*
X128298899Y-116531068D01*
X128080392Y-116710392D01*
X127901068Y-116928899D01*
X127767818Y-117178192D01*
X127685764Y-117448691D01*
X127658057Y-117730000D01*
X127685764Y-118011309D01*
X127767818Y-118281808D01*
X127901068Y-118531101D01*
X128080392Y-118749608D01*
X128298899Y-118928932D01*
X128431858Y-119000000D01*
X128298899Y-119071068D01*
X128080392Y-119250392D01*
X127901068Y-119468899D01*
X127767818Y-119718192D01*
X127685764Y-119988691D01*
X127658057Y-120270000D01*
X127685764Y-120551309D01*
X127767818Y-120821808D01*
X127901068Y-121071101D01*
X128080392Y-121289608D01*
X128298899Y-121468932D01*
X128431858Y-121540000D01*
X128298899Y-121611068D01*
X128080392Y-121790392D01*
X127901068Y-122008899D01*
X127767818Y-122258192D01*
X127685764Y-122528691D01*
X127658057Y-122810000D01*
X127685764Y-123091309D01*
X127767818Y-123361808D01*
X127901068Y-123611101D01*
X128080392Y-123829608D01*
X128298899Y-124008932D01*
X128431858Y-124080000D01*
X128298899Y-124151068D01*
X128080392Y-124330392D01*
X127901068Y-124548899D01*
X127767818Y-124798192D01*
X127685764Y-125068691D01*
X127658057Y-125350000D01*
X127685764Y-125631309D01*
X127767818Y-125901808D01*
X127901068Y-126151101D01*
X128080392Y-126369608D01*
X128298899Y-126548932D01*
X128431858Y-126620000D01*
X128298899Y-126691068D01*
X128080392Y-126870392D01*
X127901068Y-127088899D01*
X127767818Y-127338192D01*
X127685764Y-127608691D01*
X127658057Y-127890000D01*
X127685764Y-128171309D01*
X127767818Y-128441808D01*
X127901068Y-128691101D01*
X128080392Y-128909608D01*
X128298899Y-129088932D01*
X128431858Y-129160000D01*
X128298899Y-129231068D01*
X128080392Y-129410392D01*
X127901068Y-129628899D01*
X127767818Y-129878192D01*
X127685764Y-130148691D01*
X127658057Y-130430000D01*
X127685764Y-130711309D01*
X127767818Y-130981808D01*
X127901068Y-131231101D01*
X128080392Y-131449608D01*
X128298899Y-131628932D01*
X128431858Y-131700000D01*
X128298899Y-131771068D01*
X128080392Y-131950392D01*
X127901068Y-132168899D01*
X127767818Y-132418192D01*
X127685764Y-132688691D01*
X127658057Y-132970000D01*
X127685764Y-133251309D01*
X127767818Y-133521808D01*
X127901068Y-133771101D01*
X128080392Y-133989608D01*
X128298899Y-134168932D01*
X128431858Y-134240000D01*
X128298899Y-134311068D01*
X128080392Y-134490392D01*
X127901068Y-134708899D01*
X127767818Y-134958192D01*
X127685764Y-135228691D01*
X127658057Y-135510000D01*
X127685764Y-135791309D01*
X127767818Y-136061808D01*
X127901068Y-136311101D01*
X128080392Y-136529608D01*
X128298899Y-136708932D01*
X128431858Y-136780000D01*
X128298899Y-136851068D01*
X128080392Y-137030392D01*
X127901068Y-137248899D01*
X127767818Y-137498192D01*
X127685764Y-137768691D01*
X127658057Y-138050000D01*
X127685764Y-138331309D01*
X127767818Y-138601808D01*
X127901068Y-138851101D01*
X128080392Y-139069608D01*
X128298899Y-139248932D01*
X128431858Y-139320000D01*
X128298899Y-139391068D01*
X128080392Y-139570392D01*
X127901068Y-139788899D01*
X127767818Y-140038192D01*
X127685764Y-140308691D01*
X127658057Y-140590000D01*
X127685764Y-140871309D01*
X127767818Y-141141808D01*
X127901068Y-141391101D01*
X128080392Y-141609608D01*
X128298899Y-141788932D01*
X128548192Y-141922182D01*
X128818691Y-142004236D01*
X129029508Y-142025000D01*
X129970492Y-142025000D01*
X130181309Y-142004236D01*
X130451808Y-141922182D01*
X130701101Y-141788932D01*
X130919608Y-141609608D01*
X131098932Y-141391101D01*
X131232182Y-141141808D01*
X131314236Y-140871309D01*
X131341943Y-140590000D01*
X131314236Y-140308691D01*
X131232182Y-140038192D01*
X131098932Y-139788899D01*
X130919608Y-139570392D01*
X130701101Y-139391068D01*
X130568142Y-139320000D01*
X130701101Y-139248932D01*
X130919608Y-139069608D01*
X131098932Y-138851101D01*
X131232182Y-138601808D01*
X131314236Y-138331309D01*
X131341943Y-138050000D01*
X131314236Y-137768691D01*
X131232182Y-137498192D01*
X131098932Y-137248899D01*
X130919608Y-137030392D01*
X130701101Y-136851068D01*
X130568142Y-136780000D01*
X130701101Y-136708932D01*
X130919608Y-136529608D01*
X131098932Y-136311101D01*
X131232182Y-136061808D01*
X131314236Y-135791309D01*
X131341943Y-135510000D01*
X131314236Y-135228691D01*
X131232182Y-134958192D01*
X131098932Y-134708899D01*
X130919608Y-134490392D01*
X130701101Y-134311068D01*
X130568142Y-134240000D01*
X130701101Y-134168932D01*
X130919608Y-133989608D01*
X131098932Y-133771101D01*
X131232182Y-133521808D01*
X131314236Y-133251309D01*
X131341943Y-132970000D01*
X131314236Y-132688691D01*
X131232182Y-132418192D01*
X131098932Y-132168899D01*
X130919608Y-131950392D01*
X130701101Y-131771068D01*
X130568142Y-131700000D01*
X130701101Y-131628932D01*
X130919608Y-131449608D01*
X131098932Y-131231101D01*
X131232182Y-130981808D01*
X131314236Y-130711309D01*
X131341943Y-130430000D01*
X131314236Y-130148691D01*
X131232182Y-129878192D01*
X131098932Y-129628899D01*
X130919608Y-129410392D01*
X130701101Y-129231068D01*
X130568142Y-129160000D01*
X130701101Y-129088932D01*
X130919608Y-128909608D01*
X131098932Y-128691101D01*
X131232182Y-128441808D01*
X131314236Y-128171309D01*
X131341943Y-127890000D01*
X131314236Y-127608691D01*
X131232182Y-127338192D01*
X131098932Y-127088899D01*
X130919608Y-126870392D01*
X130701101Y-126691068D01*
X130568142Y-126620000D01*
X130701101Y-126548932D01*
X130919608Y-126369608D01*
X131098932Y-126151101D01*
X131232182Y-125901808D01*
X131314236Y-125631309D01*
X131341943Y-125350000D01*
X131314236Y-125068691D01*
X131232182Y-124798192D01*
X131098932Y-124548899D01*
X130919608Y-124330392D01*
X130701101Y-124151068D01*
X130568142Y-124080000D01*
X130701101Y-124008932D01*
X130919608Y-123829608D01*
X131098932Y-123611101D01*
X131232182Y-123361808D01*
X131314236Y-123091309D01*
X131341943Y-122810000D01*
X131314236Y-122528691D01*
X131232182Y-122258192D01*
X131098932Y-122008899D01*
X130919608Y-121790392D01*
X130701101Y-121611068D01*
X130568142Y-121540000D01*
X130701101Y-121468932D01*
X130919608Y-121289608D01*
X131098932Y-121071101D01*
X131232182Y-120821808D01*
X131314236Y-120551309D01*
X131341943Y-120270000D01*
X131314236Y-119988691D01*
X131232182Y-119718192D01*
X131098932Y-119468899D01*
X130919608Y-119250392D01*
X130701101Y-119071068D01*
X130568142Y-119000000D01*
X130701101Y-118928932D01*
X130919608Y-118749608D01*
X131098932Y-118531101D01*
X131232182Y-118281808D01*
X131314236Y-118011309D01*
X131341943Y-117730000D01*
X131314236Y-117448691D01*
X131232182Y-117178192D01*
X131098932Y-116928899D01*
X130919608Y-116710392D01*
X130701101Y-116531068D01*
X130568142Y-116460000D01*
X130701101Y-116388932D01*
X130919608Y-116209608D01*
X131098932Y-115991101D01*
X131232182Y-115741808D01*
X131314236Y-115471309D01*
X131341943Y-115190000D01*
X131314236Y-114908691D01*
X131232182Y-114638192D01*
X131098932Y-114388899D01*
X130919608Y-114170392D01*
X130701101Y-113991068D01*
X130573259Y-113922735D01*
X130802839Y-113772601D01*
X131004500Y-113574895D01*
X131163715Y-113341646D01*
X131274367Y-113081818D01*
X131291904Y-112999039D01*
X131169915Y-112777000D01*
X129627000Y-112777000D01*
X129627000Y-112797000D01*
X129373000Y-112797000D01*
X129373000Y-112777000D01*
X127830085Y-112777000D01*
X127708096Y-112999039D01*
X127725633Y-113081818D01*
X127836285Y-113341646D01*
X127995500Y-113574895D01*
X128197161Y-113772601D01*
X128426741Y-113922735D01*
X128298899Y-113991068D01*
X128080392Y-114170392D01*
X127901068Y-114388899D01*
X127767818Y-114638192D01*
X127685764Y-114908691D01*
X127658057Y-115190000D01*
X125660000Y-115190000D01*
X125660000Y-102490000D01*
X127211023Y-102490000D01*
X127225697Y-102638986D01*
X127269154Y-102782247D01*
X127339726Y-102914276D01*
X127434699Y-103030001D01*
X127550424Y-103124974D01*
X127682453Y-103195546D01*
X127825714Y-103239003D01*
X127875861Y-103243942D01*
X127901068Y-103291101D01*
X128080392Y-103509608D01*
X128298899Y-103688932D01*
X128431858Y-103760000D01*
X128298899Y-103831068D01*
X128080392Y-104010392D01*
X127901068Y-104228899D01*
X127767818Y-104478192D01*
X127685764Y-104748691D01*
X127658057Y-105030000D01*
X127685764Y-105311309D01*
X127767818Y-105581808D01*
X127901068Y-105831101D01*
X128080392Y-106049608D01*
X128298899Y-106228932D01*
X128431858Y-106300000D01*
X128298899Y-106371068D01*
X128080392Y-106550392D01*
X127901068Y-106768899D01*
X127767818Y-107018192D01*
X127685764Y-107288691D01*
X127658057Y-107570000D01*
X127685764Y-107851309D01*
X127767818Y-108121808D01*
X127901068Y-108371101D01*
X128080392Y-108589608D01*
X128298899Y-108768932D01*
X128431858Y-108840000D01*
X128298899Y-108911068D01*
X128080392Y-109090392D01*
X127901068Y-109308899D01*
X127767818Y-109558192D01*
X127685764Y-109828691D01*
X127658057Y-110110000D01*
X127685764Y-110391309D01*
X127767818Y-110661808D01*
X127901068Y-110911101D01*
X128080392Y-111129608D01*
X128298899Y-111308932D01*
X128426741Y-111377265D01*
X128197161Y-111527399D01*
X127995500Y-111725105D01*
X127836285Y-111958354D01*
X127725633Y-112218182D01*
X127708096Y-112300961D01*
X127830085Y-112523000D01*
X129373000Y-112523000D01*
X129373000Y-112503000D01*
X129627000Y-112503000D01*
X129627000Y-112523000D01*
X131169915Y-112523000D01*
X131291904Y-112300961D01*
X131274367Y-112218182D01*
X131163715Y-111958354D01*
X131004500Y-111725105D01*
X130802839Y-111527399D01*
X130573259Y-111377265D01*
X130701101Y-111308932D01*
X130919608Y-111129608D01*
X131098932Y-110911101D01*
X131232182Y-110661808D01*
X131314236Y-110391309D01*
X131341943Y-110110000D01*
X131314236Y-109828691D01*
X131232182Y-109558192D01*
X131098932Y-109308899D01*
X130919608Y-109090392D01*
X130701101Y-108911068D01*
X130568142Y-108840000D01*
X130701101Y-108768932D01*
X130919608Y-108589608D01*
X131098932Y-108371101D01*
X131232182Y-108121808D01*
X131314236Y-107851309D01*
X131341943Y-107570000D01*
X131314236Y-107288691D01*
X131232182Y-107018192D01*
X131098932Y-106768899D01*
X130919608Y-106550392D01*
X130701101Y-106371068D01*
X130568142Y-106300000D01*
X130701101Y-106228932D01*
X130919608Y-106049608D01*
X131098932Y-105831101D01*
X131232182Y-105581808D01*
X131314236Y-105311309D01*
X131341943Y-105030000D01*
X150518057Y-105030000D01*
X150545764Y-105311309D01*
X150627818Y-105581808D01*
X150761068Y-105831101D01*
X150940392Y-106049608D01*
X151158899Y-106228932D01*
X151291858Y-106300000D01*
X151158899Y-106371068D01*
X150940392Y-106550392D01*
X150761068Y-106768899D01*
X150627818Y-107018192D01*
X150545764Y-107288691D01*
X150518057Y-107570000D01*
X150545764Y-107851309D01*
X150627818Y-108121808D01*
X150761068Y-108371101D01*
X150940392Y-108589608D01*
X151158899Y-108768932D01*
X151291858Y-108840000D01*
X151158899Y-108911068D01*
X150940392Y-109090392D01*
X150761068Y-109308899D01*
X150627818Y-109558192D01*
X150545764Y-109828691D01*
X150518057Y-110110000D01*
X150545764Y-110391309D01*
X150627818Y-110661808D01*
X150761068Y-110911101D01*
X150940392Y-111129608D01*
X151158899Y-111308932D01*
X151291858Y-111380000D01*
X151158899Y-111451068D01*
X150940392Y-111630392D01*
X150761068Y-111848899D01*
X150627818Y-112098192D01*
X150545764Y-112368691D01*
X150518057Y-112650000D01*
X150545764Y-112931309D01*
X150627818Y-113201808D01*
X150761068Y-113451101D01*
X150940392Y-113669608D01*
X151158899Y-113848932D01*
X151291858Y-113920000D01*
X151158899Y-113991068D01*
X150940392Y-114170392D01*
X150761068Y-114388899D01*
X150627818Y-114638192D01*
X150545764Y-114908691D01*
X150518057Y-115190000D01*
X150545764Y-115471309D01*
X150627818Y-115741808D01*
X150761068Y-115991101D01*
X150940392Y-116209608D01*
X151158899Y-116388932D01*
X151291858Y-116460000D01*
X151158899Y-116531068D01*
X150940392Y-116710392D01*
X150761068Y-116928899D01*
X150627818Y-117178192D01*
X150545764Y-117448691D01*
X150518057Y-117730000D01*
X150545764Y-118011309D01*
X150627818Y-118281808D01*
X150761068Y-118531101D01*
X150940392Y-118749608D01*
X151158899Y-118928932D01*
X151291858Y-119000000D01*
X151158899Y-119071068D01*
X150940392Y-119250392D01*
X150761068Y-119468899D01*
X150627818Y-119718192D01*
X150545764Y-119988691D01*
X150518057Y-120270000D01*
X150545764Y-120551309D01*
X150627818Y-120821808D01*
X150761068Y-121071101D01*
X150940392Y-121289608D01*
X151158899Y-121468932D01*
X151291858Y-121540000D01*
X151158899Y-121611068D01*
X150940392Y-121790392D01*
X150761068Y-122008899D01*
X150627818Y-122258192D01*
X150545764Y-122528691D01*
X150518057Y-122810000D01*
X150545764Y-123091309D01*
X150627818Y-123361808D01*
X150761068Y-123611101D01*
X150940392Y-123829608D01*
X151158899Y-124008932D01*
X151291858Y-124080000D01*
X151158899Y-124151068D01*
X150940392Y-124330392D01*
X150761068Y-124548899D01*
X150627818Y-124798192D01*
X150545764Y-125068691D01*
X150518057Y-125350000D01*
X150545764Y-125631309D01*
X150627818Y-125901808D01*
X150761068Y-126151101D01*
X150940392Y-126369608D01*
X151158899Y-126548932D01*
X151291858Y-126620000D01*
X151158899Y-126691068D01*
X150940392Y-126870392D01*
X150761068Y-127088899D01*
X150627818Y-127338192D01*
X150545764Y-127608691D01*
X150518057Y-127890000D01*
X150545764Y-128171309D01*
X150627818Y-128441808D01*
X150761068Y-128691101D01*
X150940392Y-128909608D01*
X151158899Y-129088932D01*
X151291858Y-129160000D01*
X151158899Y-129231068D01*
X150940392Y-129410392D01*
X150761068Y-129628899D01*
X150627818Y-129878192D01*
X150545764Y-130148691D01*
X150518057Y-130430000D01*
X150545764Y-130711309D01*
X150627818Y-130981808D01*
X150761068Y-131231101D01*
X150940392Y-131449608D01*
X151158899Y-131628932D01*
X151291858Y-131700000D01*
X151158899Y-131771068D01*
X150940392Y-131950392D01*
X150761068Y-132168899D01*
X150627818Y-132418192D01*
X150545764Y-132688691D01*
X150518057Y-132970000D01*
X150545764Y-133251309D01*
X150627818Y-133521808D01*
X150761068Y-133771101D01*
X150940392Y-133989608D01*
X151158899Y-134168932D01*
X151291858Y-134240000D01*
X151158899Y-134311068D01*
X150940392Y-134490392D01*
X150761068Y-134708899D01*
X150627818Y-134958192D01*
X150545764Y-135228691D01*
X150518057Y-135510000D01*
X150545764Y-135791309D01*
X150627818Y-136061808D01*
X150761068Y-136311101D01*
X150940392Y-136529608D01*
X151158899Y-136708932D01*
X151291858Y-136780000D01*
X151158899Y-136851068D01*
X150940392Y-137030392D01*
X150761068Y-137248899D01*
X150627818Y-137498192D01*
X150545764Y-137768691D01*
X150518057Y-138050000D01*
X150545764Y-138331309D01*
X150627818Y-138601808D01*
X150761068Y-138851101D01*
X150940392Y-139069608D01*
X151053482Y-139162419D01*
X151035518Y-139164188D01*
X150915820Y-139200498D01*
X150805506Y-139259463D01*
X150708815Y-139338815D01*
X150629463Y-139435506D01*
X150570498Y-139545820D01*
X150534188Y-139665518D01*
X150521928Y-139790000D01*
X150521928Y-141390000D01*
X150534188Y-141514482D01*
X150570498Y-141634180D01*
X150629463Y-141744494D01*
X150708815Y-141841185D01*
X150805506Y-141920537D01*
X150915820Y-141979502D01*
X151035518Y-142015812D01*
X151160000Y-142028072D01*
X153560000Y-142028072D01*
X153684482Y-142015812D01*
X153804180Y-141979502D01*
X153914494Y-141920537D01*
X154011185Y-141841185D01*
X154090537Y-141744494D01*
X154149502Y-141634180D01*
X154185812Y-141514482D01*
X154198072Y-141390000D01*
X154198072Y-139790000D01*
X154185812Y-139665518D01*
X154149502Y-139545820D01*
X154090537Y-139435506D01*
X154011185Y-139338815D01*
X153914494Y-139259463D01*
X153804180Y-139200498D01*
X153684482Y-139164188D01*
X153666518Y-139162419D01*
X153779608Y-139069608D01*
X153958932Y-138851101D01*
X154092182Y-138601808D01*
X154174236Y-138331309D01*
X154201943Y-138050000D01*
X154174236Y-137768691D01*
X154092182Y-137498192D01*
X153958932Y-137248899D01*
X153779608Y-137030392D01*
X153561101Y-136851068D01*
X153428142Y-136780000D01*
X153561101Y-136708932D01*
X153779608Y-136529608D01*
X153958932Y-136311101D01*
X154092182Y-136061808D01*
X154174236Y-135791309D01*
X154201943Y-135510000D01*
X154174236Y-135228691D01*
X154092182Y-134958192D01*
X153958932Y-134708899D01*
X153779608Y-134490392D01*
X153561101Y-134311068D01*
X153428142Y-134240000D01*
X153561101Y-134168932D01*
X153779608Y-133989608D01*
X153958932Y-133771101D01*
X154092182Y-133521808D01*
X154174236Y-133251309D01*
X154201943Y-132970000D01*
X154174236Y-132688691D01*
X154092182Y-132418192D01*
X153958932Y-132168899D01*
X153779608Y-131950392D01*
X153561101Y-131771068D01*
X153428142Y-131700000D01*
X153561101Y-131628932D01*
X153779608Y-131449608D01*
X153958932Y-131231101D01*
X154092182Y-130981808D01*
X154174236Y-130711309D01*
X154201943Y-130430000D01*
X154174236Y-130148691D01*
X154092182Y-129878192D01*
X153958932Y-129628899D01*
X153779608Y-129410392D01*
X153561101Y-129231068D01*
X153428142Y-129160000D01*
X153561101Y-129088932D01*
X153779608Y-128909608D01*
X153958932Y-128691101D01*
X154092182Y-128441808D01*
X154174236Y-128171309D01*
X154201943Y-127890000D01*
X154174236Y-127608691D01*
X154092182Y-127338192D01*
X153958932Y-127088899D01*
X153779608Y-126870392D01*
X153561101Y-126691068D01*
X153428142Y-126620000D01*
X153561101Y-126548932D01*
X153779608Y-126369608D01*
X153958932Y-126151101D01*
X154092182Y-125901808D01*
X154174236Y-125631309D01*
X154201943Y-125350000D01*
X154174236Y-125068691D01*
X154092182Y-124798192D01*
X153958932Y-124548899D01*
X153779608Y-124330392D01*
X153561101Y-124151068D01*
X153428142Y-124080000D01*
X153561101Y-124008932D01*
X153779608Y-123829608D01*
X153958932Y-123611101D01*
X154092182Y-123361808D01*
X154174236Y-123091309D01*
X154201943Y-122810000D01*
X154174236Y-122528691D01*
X154092182Y-122258192D01*
X153958932Y-122008899D01*
X153779608Y-121790392D01*
X153561101Y-121611068D01*
X153428142Y-121540000D01*
X153561101Y-121468932D01*
X153779608Y-121289608D01*
X153958932Y-121071101D01*
X154092182Y-120821808D01*
X154174236Y-120551309D01*
X154201943Y-120270000D01*
X154174236Y-119988691D01*
X154092182Y-119718192D01*
X153958932Y-119468899D01*
X153779608Y-119250392D01*
X153561101Y-119071068D01*
X153428142Y-119000000D01*
X153561101Y-118928932D01*
X153779608Y-118749608D01*
X153958932Y-118531101D01*
X154092182Y-118281808D01*
X154174236Y-118011309D01*
X154201943Y-117730000D01*
X154174236Y-117448691D01*
X154092182Y-117178192D01*
X153958932Y-116928899D01*
X153779608Y-116710392D01*
X153561101Y-116531068D01*
X153428142Y-116460000D01*
X153561101Y-116388932D01*
X153779608Y-116209608D01*
X153958932Y-115991101D01*
X154092182Y-115741808D01*
X154174236Y-115471309D01*
X154201943Y-115190000D01*
X154174236Y-114908691D01*
X154092182Y-114638192D01*
X153958932Y-114388899D01*
X153779608Y-114170392D01*
X153561101Y-113991068D01*
X153428142Y-113920000D01*
X153561101Y-113848932D01*
X153779608Y-113669608D01*
X153958932Y-113451101D01*
X154092182Y-113201808D01*
X154174236Y-112931309D01*
X154201943Y-112650000D01*
X154174236Y-112368691D01*
X154092182Y-112098192D01*
X153958932Y-111848899D01*
X153779608Y-111630392D01*
X153561101Y-111451068D01*
X153428142Y-111380000D01*
X153561101Y-111308932D01*
X153779608Y-111129608D01*
X153958932Y-110911101D01*
X154092182Y-110661808D01*
X154174236Y-110391309D01*
X154201943Y-110110000D01*
X154174236Y-109828691D01*
X154092182Y-109558192D01*
X153958932Y-109308899D01*
X153779608Y-109090392D01*
X153561101Y-108911068D01*
X153428142Y-108840000D01*
X153561101Y-108768932D01*
X153779608Y-108589608D01*
X153958932Y-108371101D01*
X154092182Y-108121808D01*
X154174236Y-107851309D01*
X154201943Y-107570000D01*
X154174236Y-107288691D01*
X154092182Y-107018192D01*
X153958932Y-106768899D01*
X153779608Y-106550392D01*
X153561101Y-106371068D01*
X153428142Y-106300000D01*
X153561101Y-106228932D01*
X153779608Y-106049608D01*
X153958932Y-105831101D01*
X154092182Y-105581808D01*
X154174236Y-105311309D01*
X154201943Y-105030000D01*
X154174236Y-104748691D01*
X154092182Y-104478192D01*
X153958932Y-104228899D01*
X153779608Y-104010392D01*
X153561101Y-103831068D01*
X153433259Y-103762735D01*
X153662839Y-103612601D01*
X153864500Y-103414895D01*
X154023715Y-103181646D01*
X154134367Y-102921818D01*
X154151904Y-102839039D01*
X154029915Y-102617000D01*
X152487000Y-102617000D01*
X152487000Y-102637000D01*
X152233000Y-102637000D01*
X152233000Y-102617000D01*
X150690085Y-102617000D01*
X150568096Y-102839039D01*
X150585633Y-102921818D01*
X150696285Y-103181646D01*
X150855500Y-103414895D01*
X151057161Y-103612601D01*
X151286741Y-103762735D01*
X151158899Y-103831068D01*
X150940392Y-104010392D01*
X150761068Y-104228899D01*
X150627818Y-104478192D01*
X150545764Y-104748691D01*
X150518057Y-105030000D01*
X131341943Y-105030000D01*
X131314236Y-104748691D01*
X131232182Y-104478192D01*
X131098932Y-104228899D01*
X130919608Y-104010392D01*
X130701101Y-103831068D01*
X130568142Y-103760000D01*
X130701101Y-103688932D01*
X130919608Y-103509608D01*
X131098932Y-103291101D01*
X131232182Y-103041808D01*
X131314236Y-102771309D01*
X131341943Y-102490000D01*
X131314236Y-102208691D01*
X131232182Y-101938192D01*
X131098932Y-101688899D01*
X130919608Y-101470392D01*
X130701101Y-101291068D01*
X130568142Y-101220000D01*
X130701101Y-101148932D01*
X130919608Y-100969608D01*
X131098932Y-100751101D01*
X131232182Y-100501808D01*
X131314236Y-100231309D01*
X131341943Y-99950000D01*
X131314236Y-99668691D01*
X131232182Y-99398192D01*
X131098932Y-99148899D01*
X130919608Y-98930392D01*
X130701101Y-98751068D01*
X130568142Y-98680000D01*
X130701101Y-98608932D01*
X130919608Y-98429608D01*
X131098932Y-98211101D01*
X131232182Y-97961808D01*
X131314236Y-97691309D01*
X131341943Y-97410000D01*
X131339522Y-97385421D01*
X131515556Y-97312505D01*
X131685074Y-97199237D01*
X131829237Y-97055074D01*
X131942505Y-96885556D01*
X132020526Y-96697198D01*
X132060300Y-96497239D01*
X132060300Y-96293361D01*
X132020526Y-96093402D01*
X131942505Y-95905044D01*
X131829237Y-95735526D01*
X131785300Y-95691589D01*
X131785300Y-94907333D01*
X131788977Y-94870000D01*
X131774303Y-94721014D01*
X131730846Y-94577753D01*
X131660274Y-94445724D01*
X131565301Y-94329999D01*
X131449576Y-94235026D01*
X131317547Y-94164454D01*
X131174286Y-94120997D01*
X131124139Y-94116058D01*
X131098932Y-94068899D01*
X130919608Y-93850392D01*
X130701101Y-93671068D01*
X130568142Y-93600000D01*
X130701101Y-93528932D01*
X130919608Y-93349608D01*
X131098932Y-93131101D01*
X131232182Y-92881808D01*
X131314236Y-92611309D01*
X131341943Y-92330000D01*
X131314236Y-92048691D01*
X131232182Y-91778192D01*
X131098932Y-91528899D01*
X130919608Y-91310392D01*
X130701101Y-91131068D01*
X130568142Y-91060000D01*
X130701101Y-90988932D01*
X130919608Y-90809608D01*
X131098932Y-90591101D01*
X131232182Y-90341808D01*
X131314236Y-90071309D01*
X131341943Y-89790000D01*
X131314236Y-89508691D01*
X131232182Y-89238192D01*
X131098932Y-88988899D01*
X130919608Y-88770392D01*
X130701101Y-88591068D01*
X130568142Y-88520000D01*
X130701101Y-88448932D01*
X130919608Y-88269608D01*
X131098932Y-88051101D01*
X131232182Y-87801808D01*
X131314236Y-87531309D01*
X131341943Y-87250000D01*
X131314236Y-86968691D01*
X131232182Y-86698192D01*
X131098932Y-86448899D01*
X130919608Y-86230392D01*
X130701101Y-86051068D01*
X130568142Y-85980000D01*
X130701101Y-85908932D01*
X130919608Y-85729608D01*
X131098932Y-85511101D01*
X131232182Y-85261808D01*
X131314236Y-84991309D01*
X131341943Y-84710000D01*
X131314236Y-84428691D01*
X131232182Y-84158192D01*
X131098932Y-83908899D01*
X130919608Y-83690392D01*
X130701101Y-83511068D01*
X130568142Y-83440000D01*
X130701101Y-83368932D01*
X130919608Y-83189608D01*
X131098932Y-82971101D01*
X131232182Y-82721808D01*
X131314236Y-82451309D01*
X131341943Y-82170000D01*
X131314236Y-81888691D01*
X131232182Y-81618192D01*
X131098932Y-81368899D01*
X130919608Y-81150392D01*
X130701101Y-80971068D01*
X130568142Y-80900000D01*
X130701101Y-80828932D01*
X130919608Y-80649608D01*
X131098932Y-80431101D01*
X131232182Y-80181808D01*
X131314236Y-79911309D01*
X131341943Y-79630000D01*
X131314236Y-79348691D01*
X131232182Y-79078192D01*
X131098932Y-78828899D01*
X130919608Y-78610392D01*
X130701101Y-78431068D01*
X130568142Y-78360000D01*
X130701101Y-78288932D01*
X130919608Y-78109608D01*
X131098932Y-77891101D01*
X131232182Y-77641808D01*
X131314236Y-77371309D01*
X131341943Y-77090000D01*
X131314236Y-76808691D01*
X131232182Y-76538192D01*
X131098932Y-76288899D01*
X130919608Y-76070392D01*
X130701101Y-75891068D01*
X130568142Y-75820000D01*
X130701101Y-75748932D01*
X130919608Y-75569608D01*
X131098932Y-75351101D01*
X131232182Y-75101808D01*
X131314236Y-74831309D01*
X131341943Y-74550000D01*
X131314236Y-74268691D01*
X131232182Y-73998192D01*
X131098932Y-73748899D01*
X130919608Y-73530392D01*
X130701101Y-73351068D01*
X130568142Y-73280000D01*
X130701101Y-73208932D01*
X130919608Y-73029608D01*
X131098932Y-72811101D01*
X131232182Y-72561808D01*
X131314236Y-72291309D01*
X131341943Y-72010000D01*
X131314236Y-71728691D01*
X131232182Y-71458192D01*
X131098932Y-71208899D01*
X130919608Y-70990392D01*
X130701101Y-70811068D01*
X130568142Y-70740000D01*
X130701101Y-70668932D01*
X130919608Y-70489608D01*
X131098932Y-70271101D01*
X131232182Y-70021808D01*
X131314236Y-69751309D01*
X131341943Y-69470000D01*
X131314236Y-69188691D01*
X131232182Y-68918192D01*
X131098932Y-68668899D01*
X130919608Y-68450392D01*
X130701101Y-68271068D01*
X130568142Y-68200000D01*
X130701101Y-68128932D01*
X130919608Y-67949608D01*
X131098932Y-67731101D01*
X131232182Y-67481808D01*
X131314236Y-67211309D01*
X131341943Y-66930000D01*
X131314236Y-66648691D01*
X131232182Y-66378192D01*
X131098932Y-66128899D01*
X130919608Y-65910392D01*
X130701101Y-65731068D01*
X130568142Y-65660000D01*
X130701101Y-65588932D01*
X130919608Y-65409608D01*
X131098932Y-65191101D01*
X131232182Y-64941808D01*
X131314236Y-64671309D01*
X131341943Y-64390000D01*
X131314236Y-64108691D01*
X131232182Y-63838192D01*
X131098932Y-63588899D01*
X130919608Y-63370392D01*
X130701101Y-63191068D01*
X130568142Y-63120000D01*
X130701101Y-63048932D01*
X130919608Y-62869608D01*
X131098932Y-62651101D01*
X131232182Y-62401808D01*
X131314236Y-62131309D01*
X131341943Y-61850000D01*
X150518057Y-61850000D01*
X150545764Y-62131309D01*
X150627818Y-62401808D01*
X150761068Y-62651101D01*
X150940392Y-62869608D01*
X151158899Y-63048932D01*
X151291858Y-63120000D01*
X151158899Y-63191068D01*
X150940392Y-63370392D01*
X150761068Y-63588899D01*
X150627818Y-63838192D01*
X150545764Y-64108691D01*
X150518057Y-64390000D01*
X150545764Y-64671309D01*
X150627818Y-64941808D01*
X150761068Y-65191101D01*
X150940392Y-65409608D01*
X151158899Y-65588932D01*
X151291858Y-65660000D01*
X151158899Y-65731068D01*
X150940392Y-65910392D01*
X150761068Y-66128899D01*
X150627818Y-66378192D01*
X150545764Y-66648691D01*
X150518057Y-66930000D01*
X150545764Y-67211309D01*
X150627818Y-67481808D01*
X150761068Y-67731101D01*
X150940392Y-67949608D01*
X151158899Y-68128932D01*
X151291858Y-68200000D01*
X151158899Y-68271068D01*
X150940392Y-68450392D01*
X150761068Y-68668899D01*
X150627818Y-68918192D01*
X150545764Y-69188691D01*
X150518057Y-69470000D01*
X150545764Y-69751309D01*
X150627818Y-70021808D01*
X150761068Y-70271101D01*
X150940392Y-70489608D01*
X151158899Y-70668932D01*
X151291858Y-70740000D01*
X151158899Y-70811068D01*
X150940392Y-70990392D01*
X150761068Y-71208899D01*
X150627818Y-71458192D01*
X150545764Y-71728691D01*
X150518057Y-72010000D01*
X150545764Y-72291309D01*
X150627818Y-72561808D01*
X150761068Y-72811101D01*
X150940392Y-73029608D01*
X151158899Y-73208932D01*
X151291858Y-73280000D01*
X151158899Y-73351068D01*
X150940392Y-73530392D01*
X150761068Y-73748899D01*
X150627818Y-73998192D01*
X150545764Y-74268691D01*
X150518057Y-74550000D01*
X150545764Y-74831309D01*
X150627818Y-75101808D01*
X150761068Y-75351101D01*
X150940392Y-75569608D01*
X151158899Y-75748932D01*
X151291858Y-75820000D01*
X151158899Y-75891068D01*
X150940392Y-76070392D01*
X150761068Y-76288899D01*
X150627818Y-76538192D01*
X150545764Y-76808691D01*
X150518057Y-77090000D01*
X150545764Y-77371309D01*
X150627818Y-77641808D01*
X150761068Y-77891101D01*
X150940392Y-78109608D01*
X151158899Y-78288932D01*
X151291858Y-78360000D01*
X151158899Y-78431068D01*
X150940392Y-78610392D01*
X150761068Y-78828899D01*
X150627818Y-79078192D01*
X150545764Y-79348691D01*
X150518057Y-79630000D01*
X150545764Y-79911309D01*
X150627818Y-80181808D01*
X150761068Y-80431101D01*
X150940392Y-80649608D01*
X151158899Y-80828932D01*
X151291858Y-80900000D01*
X151158899Y-80971068D01*
X150940392Y-81150392D01*
X150761068Y-81368899D01*
X150627818Y-81618192D01*
X150545764Y-81888691D01*
X150518057Y-82170000D01*
X150545764Y-82451309D01*
X150627818Y-82721808D01*
X150761068Y-82971101D01*
X150940392Y-83189608D01*
X151158899Y-83368932D01*
X151291858Y-83440000D01*
X151158899Y-83511068D01*
X150940392Y-83690392D01*
X150761068Y-83908899D01*
X150627818Y-84158192D01*
X150545764Y-84428691D01*
X150518057Y-84710000D01*
X150545764Y-84991309D01*
X150627818Y-85261808D01*
X150761068Y-85511101D01*
X150940392Y-85729608D01*
X151158899Y-85908932D01*
X151291858Y-85980000D01*
X151158899Y-86051068D01*
X150940392Y-86230392D01*
X150761068Y-86448899D01*
X150627818Y-86698192D01*
X150545764Y-86968691D01*
X150518057Y-87250000D01*
X150545764Y-87531309D01*
X150627818Y-87801808D01*
X150761068Y-88051101D01*
X150940392Y-88269608D01*
X151158899Y-88448932D01*
X151291858Y-88520000D01*
X151158899Y-88591068D01*
X150940392Y-88770392D01*
X150761068Y-88988899D01*
X150627818Y-89238192D01*
X150545764Y-89508691D01*
X150518057Y-89790000D01*
X150545764Y-90071309D01*
X150627818Y-90341808D01*
X150761068Y-90591101D01*
X150940392Y-90809608D01*
X151158899Y-90988932D01*
X151291858Y-91060000D01*
X151158899Y-91131068D01*
X150940392Y-91310392D01*
X150761068Y-91528899D01*
X150627818Y-91778192D01*
X150545764Y-92048691D01*
X150518057Y-92330000D01*
X150545764Y-92611309D01*
X150627818Y-92881808D01*
X150761068Y-93131101D01*
X150940392Y-93349608D01*
X151158899Y-93528932D01*
X151291858Y-93600000D01*
X151158899Y-93671068D01*
X150940392Y-93850392D01*
X150761068Y-94068899D01*
X150627818Y-94318192D01*
X150545764Y-94588691D01*
X150518057Y-94870000D01*
X150545764Y-95151309D01*
X150627818Y-95421808D01*
X150761068Y-95671101D01*
X150940392Y-95889608D01*
X151158899Y-96068932D01*
X151291858Y-96140000D01*
X151158899Y-96211068D01*
X150940392Y-96390392D01*
X150761068Y-96608899D01*
X150627818Y-96858192D01*
X150545764Y-97128691D01*
X150518057Y-97410000D01*
X150545764Y-97691309D01*
X150627818Y-97961808D01*
X150761068Y-98211101D01*
X150940392Y-98429608D01*
X151158899Y-98608932D01*
X151291858Y-98680000D01*
X151158899Y-98751068D01*
X150940392Y-98930392D01*
X150761068Y-99148899D01*
X150627818Y-99398192D01*
X150545764Y-99668691D01*
X150518057Y-99950000D01*
X150545764Y-100231309D01*
X150627818Y-100501808D01*
X150761068Y-100751101D01*
X150940392Y-100969608D01*
X151158899Y-101148932D01*
X151286741Y-101217265D01*
X151057161Y-101367399D01*
X150855500Y-101565105D01*
X150696285Y-101798354D01*
X150585633Y-102058182D01*
X150568096Y-102140961D01*
X150690085Y-102363000D01*
X152233000Y-102363000D01*
X152233000Y-102343000D01*
X152487000Y-102343000D01*
X152487000Y-102363000D01*
X154029915Y-102363000D01*
X154151904Y-102140961D01*
X154134367Y-102058182D01*
X154023715Y-101798354D01*
X153864500Y-101565105D01*
X153662839Y-101367399D01*
X153433259Y-101217265D01*
X153561101Y-101148932D01*
X153779608Y-100969608D01*
X153958932Y-100751101D01*
X154092182Y-100501808D01*
X154174236Y-100231309D01*
X154201943Y-99950000D01*
X154174236Y-99668691D01*
X154092182Y-99398192D01*
X153958932Y-99148899D01*
X153779608Y-98930392D01*
X153561101Y-98751068D01*
X153428142Y-98680000D01*
X153561101Y-98608932D01*
X153779608Y-98429608D01*
X153958932Y-98211101D01*
X154092182Y-97961808D01*
X154174236Y-97691309D01*
X154201943Y-97410000D01*
X154174236Y-97128691D01*
X154092182Y-96858192D01*
X153958932Y-96608899D01*
X153779608Y-96390392D01*
X153561101Y-96211068D01*
X153428142Y-96140000D01*
X153561101Y-96068932D01*
X153779608Y-95889608D01*
X153958932Y-95671101D01*
X154092182Y-95421808D01*
X154174236Y-95151309D01*
X154201943Y-94870000D01*
X154174236Y-94588691D01*
X154092182Y-94318192D01*
X153958932Y-94068899D01*
X153779608Y-93850392D01*
X153561101Y-93671068D01*
X153428142Y-93600000D01*
X153561101Y-93528932D01*
X153779608Y-93349608D01*
X153958932Y-93131101D01*
X154092182Y-92881808D01*
X154174236Y-92611309D01*
X154201943Y-92330000D01*
X154174236Y-92048691D01*
X154092182Y-91778192D01*
X153958932Y-91528899D01*
X153779608Y-91310392D01*
X153561101Y-91131068D01*
X153428142Y-91060000D01*
X153561101Y-90988932D01*
X153779608Y-90809608D01*
X153958932Y-90591101D01*
X154092182Y-90341808D01*
X154174236Y-90071309D01*
X154201943Y-89790000D01*
X154174236Y-89508691D01*
X154092182Y-89238192D01*
X153958932Y-88988899D01*
X153779608Y-88770392D01*
X153561101Y-88591068D01*
X153428142Y-88520000D01*
X153561101Y-88448932D01*
X153779608Y-88269608D01*
X153958932Y-88051101D01*
X154092182Y-87801808D01*
X154174236Y-87531309D01*
X154201943Y-87250000D01*
X154174236Y-86968691D01*
X154092182Y-86698192D01*
X153958932Y-86448899D01*
X153779608Y-86230392D01*
X153561101Y-86051068D01*
X153428142Y-85980000D01*
X153561101Y-85908932D01*
X153779608Y-85729608D01*
X153958932Y-85511101D01*
X154092182Y-85261808D01*
X154174236Y-84991309D01*
X154201943Y-84710000D01*
X154174236Y-84428691D01*
X154092182Y-84158192D01*
X153958932Y-83908899D01*
X153779608Y-83690392D01*
X153561101Y-83511068D01*
X153428142Y-83440000D01*
X153561101Y-83368932D01*
X153779608Y-83189608D01*
X153958932Y-82971101D01*
X154092182Y-82721808D01*
X154174236Y-82451309D01*
X154201943Y-82170000D01*
X154174236Y-81888691D01*
X154092182Y-81618192D01*
X153958932Y-81368899D01*
X153779608Y-81150392D01*
X153561101Y-80971068D01*
X153428142Y-80900000D01*
X153561101Y-80828932D01*
X153779608Y-80649608D01*
X153958932Y-80431101D01*
X154092182Y-80181808D01*
X154174236Y-79911309D01*
X154201943Y-79630000D01*
X154174236Y-79348691D01*
X154092182Y-79078192D01*
X153958932Y-78828899D01*
X153779608Y-78610392D01*
X153561101Y-78431068D01*
X153428142Y-78360000D01*
X153561101Y-78288932D01*
X153779608Y-78109608D01*
X153958932Y-77891101D01*
X154092182Y-77641808D01*
X154174236Y-77371309D01*
X154201943Y-77090000D01*
X154174236Y-76808691D01*
X154092182Y-76538192D01*
X153958932Y-76288899D01*
X153779608Y-76070392D01*
X153561101Y-75891068D01*
X153428142Y-75820000D01*
X153561101Y-75748932D01*
X153779608Y-75569608D01*
X153958932Y-75351101D01*
X154092182Y-75101808D01*
X154174236Y-74831309D01*
X154201943Y-74550000D01*
X154174236Y-74268691D01*
X154092182Y-73998192D01*
X153958932Y-73748899D01*
X153779608Y-73530392D01*
X153561101Y-73351068D01*
X153428142Y-73280000D01*
X153561101Y-73208932D01*
X153779608Y-73029608D01*
X153958932Y-72811101D01*
X154092182Y-72561808D01*
X154174236Y-72291309D01*
X154201943Y-72010000D01*
X154174236Y-71728691D01*
X154092182Y-71458192D01*
X153958932Y-71208899D01*
X153779608Y-70990392D01*
X153561101Y-70811068D01*
X153428142Y-70740000D01*
X153561101Y-70668932D01*
X153779608Y-70489608D01*
X153958932Y-70271101D01*
X154092182Y-70021808D01*
X154174236Y-69751309D01*
X154201943Y-69470000D01*
X154174236Y-69188691D01*
X154092182Y-68918192D01*
X153958932Y-68668899D01*
X153779608Y-68450392D01*
X153561101Y-68271068D01*
X153428142Y-68200000D01*
X153561101Y-68128932D01*
X153779608Y-67949608D01*
X153958932Y-67731101D01*
X154092182Y-67481808D01*
X154174236Y-67211309D01*
X154201943Y-66930000D01*
X154174236Y-66648691D01*
X154092182Y-66378192D01*
X153958932Y-66128899D01*
X153779608Y-65910392D01*
X153561101Y-65731068D01*
X153428142Y-65660000D01*
X153561101Y-65588932D01*
X153779608Y-65409608D01*
X153958932Y-65191101D01*
X154092182Y-64941808D01*
X154174236Y-64671309D01*
X154201943Y-64390000D01*
X154174236Y-64108691D01*
X154092182Y-63838192D01*
X153958932Y-63588899D01*
X153779608Y-63370392D01*
X153561101Y-63191068D01*
X153428142Y-63120000D01*
X153561101Y-63048932D01*
X153779608Y-62869608D01*
X153958932Y-62651101D01*
X154092182Y-62401808D01*
X154174236Y-62131309D01*
X154201943Y-61850000D01*
X154174236Y-61568691D01*
X154092182Y-61298192D01*
X153958932Y-61048899D01*
X153779608Y-60830392D01*
X153561101Y-60651068D01*
X153311808Y-60517818D01*
X153041309Y-60435764D01*
X152830492Y-60415000D01*
X151889508Y-60415000D01*
X151678691Y-60435764D01*
X151408192Y-60517818D01*
X151158899Y-60651068D01*
X150940392Y-60830392D01*
X150761068Y-61048899D01*
X150627818Y-61298192D01*
X150545764Y-61568691D01*
X150518057Y-61850000D01*
X131341943Y-61850000D01*
X131314236Y-61568691D01*
X131232182Y-61298192D01*
X131098932Y-61048899D01*
X130919608Y-60830392D01*
X130701101Y-60651068D01*
X130451808Y-60517818D01*
X130181309Y-60435764D01*
X129970492Y-60415000D01*
X129029508Y-60415000D01*
X128818691Y-60435764D01*
X128734700Y-60461242D01*
X128734700Y-58777601D01*
X128978781Y-58533520D01*
X129024998Y-58538072D01*
X129850002Y-58538072D01*
X130023256Y-58521008D01*
X130189852Y-58470472D01*
X130343387Y-58388405D01*
X130477962Y-58277962D01*
X130588405Y-58143387D01*
X130670472Y-57989852D01*
X130697728Y-57900000D01*
X131261928Y-57900000D01*
X131274188Y-58024482D01*
X131310498Y-58144180D01*
X131369463Y-58254494D01*
X131448815Y-58351185D01*
X131545506Y-58430537D01*
X131655820Y-58489502D01*
X131775518Y-58525812D01*
X131900000Y-58538072D01*
X132276750Y-58535000D01*
X132435500Y-58376250D01*
X132435500Y-57127000D01*
X132689500Y-57127000D01*
X132689500Y-58376250D01*
X132848250Y-58535000D01*
X133225000Y-58538072D01*
X133349482Y-58525812D01*
X133469180Y-58489502D01*
X133579494Y-58430537D01*
X133676185Y-58351185D01*
X133755537Y-58254494D01*
X133814502Y-58144180D01*
X133850812Y-58024482D01*
X133863072Y-57900000D01*
X133860000Y-57285750D01*
X133701250Y-57127000D01*
X132689500Y-57127000D01*
X132435500Y-57127000D01*
X131423750Y-57127000D01*
X131265000Y-57285750D01*
X131261928Y-57900000D01*
X130697728Y-57900000D01*
X130721008Y-57823256D01*
X130738072Y-57650002D01*
X130738072Y-56349998D01*
X130721008Y-56176744D01*
X130697729Y-56100000D01*
X131261928Y-56100000D01*
X131265000Y-56714250D01*
X131423750Y-56873000D01*
X132435500Y-56873000D01*
X132435500Y-55623750D01*
X132689500Y-55623750D01*
X132689500Y-56873000D01*
X133701250Y-56873000D01*
X133860000Y-56714250D01*
X133863072Y-56100000D01*
X133850812Y-55975518D01*
X133814502Y-55855820D01*
X133755537Y-55745506D01*
X133676185Y-55648815D01*
X133579494Y-55569463D01*
X133469180Y-55510498D01*
X133349482Y-55474188D01*
X133225000Y-55461928D01*
X132848250Y-55465000D01*
X132689500Y-55623750D01*
X132435500Y-55623750D01*
X132276750Y-55465000D01*
X131900000Y-55461928D01*
X131775518Y-55474188D01*
X131655820Y-55510498D01*
X131545506Y-55569463D01*
X131448815Y-55648815D01*
X131369463Y-55745506D01*
X131310498Y-55855820D01*
X131274188Y-55975518D01*
X131261928Y-56100000D01*
X130697729Y-56100000D01*
X130670472Y-56010148D01*
X130588405Y-55856613D01*
X130477962Y-55722038D01*
X130343387Y-55611595D01*
X130197500Y-55533616D01*
X130197500Y-55303469D01*
X130273255Y-55296008D01*
X130439851Y-55245472D01*
X130593387Y-55163405D01*
X130727962Y-55052962D01*
X130838405Y-54918387D01*
X130920472Y-54764851D01*
X130947727Y-54675000D01*
X131011928Y-54675000D01*
X131024188Y-54799482D01*
X131060498Y-54919180D01*
X131119463Y-55029494D01*
X131198815Y-55126185D01*
X131295506Y-55205537D01*
X131405820Y-55264502D01*
X131525518Y-55300812D01*
X131650000Y-55313072D01*
X132151750Y-55310000D01*
X132310500Y-55151250D01*
X132310500Y-54127000D01*
X131173750Y-54127000D01*
X131015000Y-54285750D01*
X131011928Y-54675000D01*
X130947727Y-54675000D01*
X130971008Y-54598255D01*
X130988072Y-54425001D01*
X130988072Y-53725000D01*
X131025750Y-53725000D01*
X131173750Y-53873000D01*
X132310500Y-53873000D01*
X132310500Y-53853000D01*
X132564500Y-53853000D01*
X132564500Y-53873000D01*
X132584500Y-53873000D01*
X132584500Y-54127000D01*
X132564500Y-54127000D01*
X132564500Y-55151250D01*
X132723250Y-55310000D01*
X133225000Y-55313072D01*
X133349482Y-55300812D01*
X133469180Y-55264502D01*
X133579494Y-55205537D01*
X133676185Y-55126185D01*
X133755537Y-55029494D01*
X133814502Y-54919180D01*
X133850812Y-54799482D01*
X133863072Y-54675000D01*
X133863052Y-54672453D01*
X135064700Y-55874102D01*
X135064700Y-55962667D01*
X135061023Y-56000000D01*
X135075697Y-56148986D01*
X135119154Y-56292247D01*
X135189726Y-56424276D01*
X135284699Y-56540001D01*
X135400424Y-56634974D01*
X135511928Y-56694575D01*
X135511928Y-56850000D01*
X135524188Y-56974482D01*
X135560498Y-57094180D01*
X135619463Y-57204494D01*
X135698815Y-57301185D01*
X135795506Y-57380537D01*
X135905820Y-57439502D01*
X136025518Y-57475812D01*
X136150000Y-57488072D01*
X137850000Y-57488072D01*
X137974482Y-57475812D01*
X138094180Y-57439502D01*
X138204494Y-57380537D01*
X138301185Y-57301185D01*
X138380537Y-57204494D01*
X138439502Y-57094180D01*
X138463966Y-57013534D01*
X138539731Y-57097588D01*
X138773080Y-57271641D01*
X139035901Y-57396825D01*
X139183110Y-57441476D01*
X139413000Y-57320155D01*
X139413000Y-56127000D01*
X139667000Y-56127000D01*
X139667000Y-57320155D01*
X139896890Y-57441476D01*
X140044099Y-57396825D01*
X140306920Y-57271641D01*
X140540269Y-57097588D01*
X140735178Y-56881355D01*
X140810000Y-56755745D01*
X140884822Y-56881355D01*
X141079731Y-57097588D01*
X141313080Y-57271641D01*
X141575901Y-57396825D01*
X141723110Y-57441476D01*
X141953000Y-57320155D01*
X141953000Y-56127000D01*
X139667000Y-56127000D01*
X139413000Y-56127000D01*
X139393000Y-56127000D01*
X139393000Y-55873000D01*
X139413000Y-55873000D01*
X139413000Y-55853000D01*
X139667000Y-55853000D01*
X139667000Y-55873000D01*
X141953000Y-55873000D01*
X141953000Y-55853000D01*
X142207000Y-55853000D01*
X142207000Y-55873000D01*
X142227000Y-55873000D01*
X142227000Y-56127000D01*
X142207000Y-56127000D01*
X142207000Y-57320155D01*
X142436890Y-57441476D01*
X142584099Y-57396825D01*
X142846920Y-57271641D01*
X143080269Y-57097588D01*
X143275178Y-56881355D01*
X143344805Y-56764466D01*
X143466525Y-56946632D01*
X143673368Y-57153475D01*
X143916589Y-57315990D01*
X144186842Y-57427932D01*
X144473740Y-57485000D01*
X144766260Y-57485000D01*
X145053158Y-57427932D01*
X145323411Y-57315990D01*
X145566632Y-57153475D01*
X145773475Y-56946632D01*
X145935990Y-56703411D01*
X146047932Y-56433158D01*
X146105000Y-56146260D01*
X146105000Y-55853740D01*
X146047932Y-55566842D01*
X145935990Y-55296589D01*
X145794277Y-55084500D01*
X147935467Y-55084500D01*
X148031613Y-55163405D01*
X148087500Y-55193278D01*
X148087500Y-55533616D01*
X147941613Y-55611595D01*
X147807038Y-55722038D01*
X147696595Y-55856613D01*
X147614528Y-56010148D01*
X147563992Y-56176744D01*
X147546928Y-56349998D01*
X147546928Y-57650002D01*
X147563992Y-57823256D01*
X147614528Y-57989852D01*
X147696595Y-58143387D01*
X147807038Y-58277962D01*
X147941613Y-58388405D01*
X148095148Y-58470472D01*
X148261744Y-58521008D01*
X148434998Y-58538072D01*
X149260002Y-58538072D01*
X149433256Y-58521008D01*
X149599852Y-58470472D01*
X149753387Y-58388405D01*
X149887962Y-58277962D01*
X149998405Y-58143387D01*
X150080472Y-57989852D01*
X150107728Y-57900000D01*
X150671928Y-57900000D01*
X150684188Y-58024482D01*
X150720498Y-58144180D01*
X150779463Y-58254494D01*
X150858815Y-58351185D01*
X150955506Y-58430537D01*
X151065820Y-58489502D01*
X151185518Y-58525812D01*
X151310000Y-58538072D01*
X151686750Y-58535000D01*
X151845500Y-58376250D01*
X151845500Y-57127000D01*
X152099500Y-57127000D01*
X152099500Y-58376250D01*
X152258250Y-58535000D01*
X152635000Y-58538072D01*
X152759482Y-58525812D01*
X152879180Y-58489502D01*
X152989494Y-58430537D01*
X153086185Y-58351185D01*
X153165537Y-58254494D01*
X153224502Y-58144180D01*
X153260812Y-58024482D01*
X153273072Y-57900000D01*
X153270000Y-57285750D01*
X153111250Y-57127000D01*
X152099500Y-57127000D01*
X151845500Y-57127000D01*
X150833750Y-57127000D01*
X150675000Y-57285750D01*
X150671928Y-57900000D01*
X150107728Y-57900000D01*
X150131008Y-57823256D01*
X150148072Y-57650002D01*
X150148072Y-56349998D01*
X150131008Y-56176744D01*
X150107729Y-56100000D01*
X150671928Y-56100000D01*
X150675000Y-56714250D01*
X150833750Y-56873000D01*
X151845500Y-56873000D01*
X151845500Y-55623750D01*
X152099500Y-55623750D01*
X152099500Y-56873000D01*
X153111250Y-56873000D01*
X153270000Y-56714250D01*
X153273072Y-56100000D01*
X153260812Y-55975518D01*
X153224502Y-55855820D01*
X153165537Y-55745506D01*
X153086185Y-55648815D01*
X152989494Y-55569463D01*
X152879180Y-55510498D01*
X152759482Y-55474188D01*
X152635000Y-55461928D01*
X152258250Y-55465000D01*
X152099500Y-55623750D01*
X151845500Y-55623750D01*
X151686750Y-55465000D01*
X151310000Y-55461928D01*
X151185518Y-55474188D01*
X151065820Y-55510498D01*
X150955506Y-55569463D01*
X150858815Y-55648815D01*
X150779463Y-55745506D01*
X150720498Y-55855820D01*
X150684188Y-55975518D01*
X150671928Y-56100000D01*
X150107729Y-56100000D01*
X150080472Y-56010148D01*
X149998405Y-55856613D01*
X149887962Y-55722038D01*
X149753387Y-55611595D01*
X149607500Y-55533616D01*
X149607500Y-55312333D01*
X149773255Y-55296008D01*
X149939851Y-55245472D01*
X150093387Y-55163405D01*
X150227962Y-55052962D01*
X150338405Y-54918387D01*
X150420472Y-54764851D01*
X150447727Y-54675000D01*
X150511928Y-54675000D01*
X150524188Y-54799482D01*
X150560498Y-54919180D01*
X150619463Y-55029494D01*
X150698815Y-55126185D01*
X150795506Y-55205537D01*
X150905820Y-55264502D01*
X151025518Y-55300812D01*
X151150000Y-55313072D01*
X151651750Y-55310000D01*
X151810500Y-55151250D01*
X151810500Y-54127000D01*
X152064500Y-54127000D01*
X152064500Y-55151250D01*
X152223250Y-55310000D01*
X152725000Y-55313072D01*
X152849482Y-55300812D01*
X152969180Y-55264502D01*
X153079494Y-55205537D01*
X153176185Y-55126185D01*
X153255537Y-55029494D01*
X153314502Y-54919180D01*
X153350812Y-54799482D01*
X153363072Y-54675000D01*
X153360000Y-54285750D01*
X153201250Y-54127000D01*
X152064500Y-54127000D01*
X151810500Y-54127000D01*
X150673750Y-54127000D01*
X150515000Y-54285750D01*
X150511928Y-54675000D01*
X150447727Y-54675000D01*
X150471008Y-54598255D01*
X150488072Y-54425001D01*
X150488072Y-53574999D01*
X150471008Y-53401745D01*
X150447728Y-53325000D01*
X150511928Y-53325000D01*
X150515000Y-53714250D01*
X150673750Y-53873000D01*
X151810500Y-53873000D01*
X151810500Y-52848750D01*
X152064500Y-52848750D01*
X152064500Y-53873000D01*
X153201250Y-53873000D01*
X153360000Y-53714250D01*
X153363072Y-53325000D01*
X153350812Y-53200518D01*
X153314502Y-53080820D01*
X153255537Y-52970506D01*
X153176185Y-52873815D01*
X153079494Y-52794463D01*
X152969180Y-52735498D01*
X152849482Y-52699188D01*
X152725000Y-52686928D01*
X152223250Y-52690000D01*
X152064500Y-52848750D01*
X151810500Y-52848750D01*
X151651750Y-52690000D01*
X151150000Y-52686928D01*
X151025518Y-52699188D01*
X150905820Y-52735498D01*
X150795506Y-52794463D01*
X150698815Y-52873815D01*
X150619463Y-52970506D01*
X150560498Y-53080820D01*
X150524188Y-53200518D01*
X150511928Y-53325000D01*
X150447728Y-53325000D01*
X150420472Y-53235149D01*
X150338405Y-53081613D01*
X150227962Y-52947038D01*
X150093387Y-52836595D01*
X149939851Y-52754528D01*
X149773255Y-52703992D01*
X149600001Y-52686928D01*
X148524999Y-52686928D01*
X148351745Y-52703992D01*
X148185149Y-52754528D01*
X148031613Y-52836595D01*
X147897038Y-52947038D01*
X147786595Y-53081613D01*
X147704528Y-53235149D01*
X147653992Y-53401745D01*
X147637962Y-53564500D01*
X139520822Y-53564500D01*
X139483499Y-53560824D01*
X139446176Y-53564500D01*
X139446167Y-53564500D01*
X139334514Y-53575497D01*
X139191253Y-53618954D01*
X139059224Y-53689526D01*
X138943499Y-53784499D01*
X138919701Y-53813497D01*
X138145350Y-54587849D01*
X138094180Y-54560498D01*
X137974482Y-54524188D01*
X137850000Y-54511928D01*
X136150000Y-54511928D01*
X136025518Y-54524188D01*
X135905820Y-54560498D01*
X135902483Y-54562282D01*
X133794204Y-52454003D01*
X133770401Y-52424999D01*
X133654676Y-52330026D01*
X133522647Y-52259454D01*
X133379386Y-52215997D01*
X133267733Y-52205000D01*
X133267722Y-52205000D01*
X133230400Y-52201324D01*
X133193078Y-52205000D01*
X130634822Y-52205000D01*
X130597499Y-52201324D01*
X130560176Y-52205000D01*
X130560167Y-52205000D01*
X130448514Y-52215997D01*
X130305253Y-52259454D01*
X130173223Y-52330026D01*
X130089583Y-52398668D01*
X130057499Y-52424999D01*
X130033701Y-52453997D01*
X129800770Y-52686928D01*
X129024999Y-52686928D01*
X128851745Y-52703992D01*
X128685149Y-52754528D01*
X128531613Y-52836595D01*
X128397038Y-52947038D01*
X128286595Y-53081613D01*
X128204528Y-53235149D01*
X128153992Y-53401745D01*
X128136928Y-53574999D01*
X128136928Y-54425001D01*
X128153992Y-54598255D01*
X128204528Y-54764851D01*
X128286595Y-54918387D01*
X128397038Y-55052962D01*
X128531613Y-55163405D01*
X128677500Y-55241384D01*
X128677500Y-55533616D01*
X128531613Y-55611595D01*
X128397038Y-55722038D01*
X128286595Y-55856613D01*
X128204528Y-56010148D01*
X128153992Y-56176744D01*
X128136928Y-56349998D01*
X128136928Y-57225771D01*
X127463703Y-57898996D01*
X127434699Y-57922799D01*
X127379671Y-57989852D01*
X127339726Y-58038524D01*
X127283675Y-58143387D01*
X127269154Y-58170554D01*
X127225697Y-58313815D01*
X127214700Y-58425468D01*
X127214700Y-58425478D01*
X127211024Y-58462800D01*
X127214700Y-58500122D01*
X127214701Y-102452657D01*
X127211023Y-102490000D01*
X125660000Y-102490000D01*
X125660000Y-48779872D01*
X125765000Y-48779872D01*
X125765000Y-49220128D01*
X125850890Y-49651925D01*
X126019369Y-50058669D01*
X126263962Y-50424729D01*
X126575271Y-50736038D01*
X126941331Y-50980631D01*
X127348075Y-51149110D01*
X127779872Y-51235000D01*
X128220128Y-51235000D01*
X128651925Y-51149110D01*
X129058669Y-50980631D01*
X129424729Y-50736038D01*
X129736038Y-50424729D01*
X129980631Y-50058669D01*
X130149110Y-49651925D01*
X130235000Y-49220128D01*
X130235000Y-48779872D01*
X151765000Y-48779872D01*
X151765000Y-49220128D01*
X151850890Y-49651925D01*
X152019369Y-50058669D01*
X152263962Y-50424729D01*
X152575271Y-50736038D01*
X152941331Y-50980631D01*
X153348075Y-51149110D01*
X153779872Y-51235000D01*
X154220128Y-51235000D01*
X154651925Y-51149110D01*
X155058669Y-50980631D01*
X155424729Y-50736038D01*
X155736038Y-50424729D01*
X155980631Y-50058669D01*
X156149110Y-49651925D01*
X156235000Y-49220128D01*
X156235000Y-48779872D01*
X156149110Y-48348075D01*
X155980631Y-47941331D01*
X155736038Y-47575271D01*
X155424729Y-47263962D01*
X155058669Y-47019369D01*
X154651925Y-46850890D01*
X154220128Y-46765000D01*
X153779872Y-46765000D01*
X153348075Y-46850890D01*
X152941331Y-47019369D01*
X152575271Y-47263962D01*
X152263962Y-47575271D01*
X152019369Y-47941331D01*
X151850890Y-48348075D01*
X151765000Y-48779872D01*
X130235000Y-48779872D01*
X130149110Y-48348075D01*
X129980631Y-47941331D01*
X129736038Y-47575271D01*
X129424729Y-47263962D01*
X129058669Y-47019369D01*
X128651925Y-46850890D01*
X128220128Y-46765000D01*
X127779872Y-46765000D01*
X127348075Y-46850890D01*
X126941331Y-47019369D01*
X126575271Y-47263962D01*
X126263962Y-47575271D01*
X126019369Y-47941331D01*
X125850890Y-48348075D01*
X125765000Y-48779872D01*
X125660000Y-48779872D01*
X125660000Y-46660000D01*
X156340001Y-46660000D01*
X156340000Y-148340000D01*
G37*
%TD.AperFunction*%
%TD*%
M02*
