M48
; DRILL file {KiCad 5.1.9+dfsg1-1~bpo10+1} date Sun Aug  8 22:23:05 2021
; FORMAT={-:-/ absolute / metric / decimal}
; #@! TF.CreationDate,2021-08-08T22:23:05+02:00
; #@! TF.GenerationSoftware,Kicad,Pcbnew,5.1.9+dfsg1-1~bpo10+1
; #@! TF.FileFunction,Plated,1,2,PTH
FMAT,2
METRIC
T1C0.400
T2C0.800
T3C1.000
%
G90
G05
T1
X133.0Y-52.0
X135.0Y-63.0
X154.0Y-57.0
T2
X129.14Y-61.26
X129.14Y-63.8
X129.14Y-66.34
X129.14Y-68.88
X129.14Y-71.42
X129.14Y-73.96
X129.14Y-76.5
X129.14Y-79.04
X129.14Y-81.58
X129.14Y-84.12
X129.14Y-86.66
X129.14Y-89.2
X129.14Y-91.74
X129.14Y-94.28
X129.14Y-96.82
X129.14Y-99.36
X129.14Y-101.9
X129.14Y-104.44
X129.14Y-106.98
X129.14Y-109.52
X129.14Y-112.06
X129.14Y-114.6
X129.14Y-117.14
X129.14Y-119.68
X129.14Y-122.22
X129.14Y-124.76
X129.14Y-127.3
X129.14Y-129.84
X129.14Y-132.38
X129.14Y-134.92
X129.14Y-137.46
X129.14Y-140.0
X152.0Y-61.26
X152.0Y-63.8
X152.0Y-66.34
X152.0Y-68.88
X152.0Y-71.42
X152.0Y-73.96
X152.0Y-76.5
X152.0Y-79.04
X152.0Y-81.58
X152.0Y-84.12
X152.0Y-86.66
X152.0Y-89.2
X152.0Y-91.74
X152.0Y-94.28
X152.0Y-96.82
X152.0Y-99.36
X152.0Y-101.9
X152.0Y-104.44
X152.0Y-106.98
X152.0Y-109.52
X152.0Y-112.06
X152.0Y-114.6
X152.0Y-117.14
X152.0Y-119.68
X152.0Y-122.22
X152.0Y-124.76
X152.0Y-127.3
X152.0Y-129.84
X152.0Y-132.38
X152.0Y-134.92
X152.0Y-137.46
X152.0Y-140.0
T3
X137.0Y-56.0
X139.54Y-56.0
X142.08Y-56.0
X144.62Y-56.0
T0
M30
