M48
; DRILL file {KiCad 5.1.9+dfsg1-1} date Tue Feb  8 20:28:09 2022
; FORMAT={-:-/ absolute / metric / decimal}
; #@! TF.CreationDate,2022-02-08T20:28:09+01:00
; #@! TF.GenerationSoftware,Kicad,Pcbnew,5.1.9+dfsg1-1
; #@! TF.FileFunction,Plated,1,2,PTH
FMAT,2
METRIC
T1C0.400
T2C0.800
T3C1.000
%
G90
G05
T1
X131.025Y-96.395
T2
X129.5Y-61.85
X129.5Y-64.39
X129.5Y-66.93
X129.5Y-69.47
X129.5Y-72.01
X129.5Y-74.55
X129.5Y-77.09
X129.5Y-79.63
X129.5Y-82.17
X129.5Y-84.71
X129.5Y-87.25
X129.5Y-89.79
X129.5Y-92.33
X129.5Y-94.87
X129.5Y-97.41
X129.5Y-99.95
X129.5Y-102.49
X129.5Y-105.03
X129.5Y-107.57
X129.5Y-110.11
X129.5Y-112.65
X129.5Y-115.19
X129.5Y-117.73
X129.5Y-120.27
X129.5Y-122.81
X129.5Y-125.35
X129.5Y-127.89
X129.5Y-130.43
X129.5Y-132.97
X129.5Y-135.51
X129.5Y-138.05
X129.5Y-140.59
X152.36Y-61.85
X152.36Y-64.39
X152.36Y-66.93
X152.36Y-69.47
X152.36Y-72.01
X152.36Y-74.55
X152.36Y-77.09
X152.36Y-79.63
X152.36Y-82.17
X152.36Y-84.71
X152.36Y-87.25
X152.36Y-89.79
X152.36Y-92.33
X152.36Y-94.87
X152.36Y-97.41
X152.36Y-99.95
X152.36Y-102.49
X152.36Y-105.03
X152.36Y-107.57
X152.36Y-110.11
X152.36Y-112.65
X152.36Y-115.19
X152.36Y-117.73
X152.36Y-120.27
X152.36Y-122.81
X152.36Y-125.35
X152.36Y-127.89
X152.36Y-130.43
X152.36Y-132.97
X152.36Y-135.51
X152.36Y-138.05
X152.36Y-140.59
T3
X137.0Y-56.0
X139.54Y-56.0
X142.08Y-56.0
X144.62Y-56.0
T0
M30
