M48
; DRILL file {KiCad 5.1.9+dfsg1-1~bpo10+1} date Fri Jun 25 21:39:03 2021
; FORMAT={-:-/ absolute / metric / decimal}
; #@! TF.CreationDate,2021-06-25T21:39:03+02:00
; #@! TF.GenerationSoftware,Kicad,Pcbnew,5.1.9+dfsg1-1~bpo10+1
; #@! TF.FileFunction,Plated,1,2,PTH
FMAT,2
METRIC
T1C0.400
T2C0.813
T3C1.000
%
G90
G05
T1
X137.416Y-86.167
X137.567Y-118.654
X147.0Y-64.0
T2
X130.68Y-64.26
X130.68Y-66.8
X130.68Y-69.34
X130.68Y-71.88
X130.68Y-74.42
X130.68Y-76.96
X130.68Y-79.5
X130.68Y-82.04
X130.68Y-84.58
X130.68Y-87.12
X130.68Y-89.66
X130.68Y-92.2
X130.68Y-94.74
X130.68Y-97.28
X130.68Y-99.82
X130.68Y-102.36
X130.68Y-104.9
X130.68Y-107.44
X130.68Y-109.98
X130.68Y-112.52
X130.68Y-115.06
X130.68Y-117.6
X130.68Y-120.14
X130.68Y-122.68
X130.68Y-125.22
X130.68Y-127.76
X130.68Y-130.3
X130.68Y-132.84
X130.68Y-135.38
X130.68Y-137.92
X130.68Y-140.46
X130.68Y-143.0
X151.0Y-64.26
X151.0Y-66.8
X151.0Y-69.34
X151.0Y-71.88
X151.0Y-74.42
X151.0Y-76.96
X151.0Y-79.5
X151.0Y-82.04
X151.0Y-84.58
X151.0Y-87.12
X151.0Y-89.66
X151.0Y-92.2
X151.0Y-94.74
X151.0Y-97.28
X151.0Y-99.82
X151.0Y-102.36
X151.0Y-104.9
X151.0Y-107.44
X151.0Y-109.98
X151.0Y-112.52
X151.0Y-115.06
X151.0Y-117.6
X151.0Y-120.14
X151.0Y-122.68
X151.0Y-125.22
X151.0Y-127.76
X151.0Y-130.3
X151.0Y-132.84
X151.0Y-135.38
X151.0Y-137.92
X151.0Y-140.46
X151.0Y-143.0
T3
X137.0Y-58.0
X139.54Y-58.0
X142.08Y-58.0
X144.62Y-58.0
T0
M30
