%TF.GenerationSoftware,KiCad,Pcbnew,5.1.9+dfsg1-1*%
%TF.CreationDate,2022-01-26T16:30:19+01:00*%
%TF.ProjectId,flexPiStorm,666c6578-5069-4537-946f-726d2e6b6963,0.5*%
%TF.SameCoordinates,Original*%
%TF.FileFunction,Soldermask,Bot*%
%TF.FilePolarity,Negative*%
%FSLAX46Y46*%
G04 Gerber Fmt 4.6, Leading zero omitted, Abs format (unit mm)*
G04 Created by KiCad (PCBNEW 5.1.9+dfsg1-1) date 2022-01-26 16:30:19*
%MOMM*%
%LPD*%
G01*
G04 APERTURE LIST*
%ADD10R,2.000000X1.800000*%
%ADD11R,1.600000X0.250000*%
%ADD12R,2.400000X1.600000*%
%ADD13O,2.400000X1.600000*%
%ADD14R,1.700000X1.700000*%
%ADD15O,1.700000X1.700000*%
%ADD16C,3.200000*%
%ADD17C,0.800000*%
G04 APERTURE END LIST*
D10*
%TO.C,J2*%
X143050000Y-118050000D03*
X143050000Y-82050000D03*
D11*
X139000000Y-115750000D03*
X139000000Y-115250000D03*
X139000000Y-114750000D03*
X139000000Y-114250000D03*
X139000000Y-113750000D03*
X139000000Y-113250000D03*
X139000000Y-112750000D03*
X139000000Y-112250000D03*
X139000000Y-111750000D03*
X139000000Y-111250000D03*
X139000000Y-110750000D03*
X139000000Y-110250000D03*
X139000000Y-109750000D03*
X139000000Y-109250000D03*
X139000000Y-108750000D03*
X139000000Y-108250000D03*
X139000000Y-107750000D03*
X139000000Y-107250000D03*
X139000000Y-106750000D03*
X139000000Y-106250000D03*
X139000000Y-105750000D03*
X139000000Y-105250000D03*
X139000000Y-104750000D03*
X139000000Y-104250000D03*
X139000000Y-103750000D03*
X139000000Y-103250000D03*
X139000000Y-102750000D03*
X139000000Y-102250000D03*
X139000000Y-101750000D03*
X139000000Y-101250000D03*
X139000000Y-100750000D03*
X139000000Y-100250000D03*
X139000000Y-99750000D03*
X139000000Y-99250000D03*
X139000000Y-98750000D03*
X139000000Y-98250000D03*
X139000000Y-97750000D03*
X139000000Y-97250000D03*
X139000000Y-96750000D03*
X139000000Y-96250000D03*
X139000000Y-95750000D03*
X139000000Y-95250000D03*
X139000000Y-94750000D03*
X139000000Y-94250000D03*
X139000000Y-93750000D03*
X139000000Y-93250000D03*
X139000000Y-92750000D03*
X139000000Y-92250000D03*
X139000000Y-91750000D03*
X139000000Y-91250000D03*
X139000000Y-90750000D03*
X139000000Y-90250000D03*
X139000000Y-89750000D03*
X139000000Y-89250000D03*
X139000000Y-88750000D03*
X139000000Y-88250000D03*
X139000000Y-87750000D03*
X139000000Y-87250000D03*
X139000000Y-86750000D03*
X139000000Y-86250000D03*
X139000000Y-85750000D03*
X139000000Y-85250000D03*
X139000000Y-84750000D03*
X139000000Y-84250000D03*
%TD*%
D12*
%TO.C,U1*%
X152360000Y-140590000D03*
D13*
X129500000Y-61850000D03*
X152360000Y-138050000D03*
X129500000Y-64390000D03*
X152360000Y-135510000D03*
X129500000Y-66930000D03*
X152360000Y-132970000D03*
X129500000Y-69470000D03*
X152360000Y-130430000D03*
X129500000Y-72010000D03*
X152360000Y-127890000D03*
X129500000Y-74550000D03*
X152360000Y-125350000D03*
X129500000Y-77090000D03*
X152360000Y-122810000D03*
X129500000Y-79630000D03*
X152360000Y-120270000D03*
X129500000Y-82170000D03*
X152360000Y-117730000D03*
X129500000Y-84710000D03*
X152360000Y-115190000D03*
X129500000Y-87250000D03*
X152360000Y-112650000D03*
X129500000Y-89790000D03*
X152360000Y-110110000D03*
X129500000Y-92330000D03*
X152360000Y-107570000D03*
X129500000Y-94870000D03*
X152360000Y-105030000D03*
X129500000Y-97410000D03*
X152360000Y-102490000D03*
X129500000Y-99950000D03*
X152360000Y-99950000D03*
X129500000Y-102490000D03*
X152360000Y-97410000D03*
X129500000Y-105030000D03*
X152360000Y-94870000D03*
X129500000Y-107570000D03*
X152360000Y-92330000D03*
X129500000Y-110110000D03*
X152360000Y-89790000D03*
X129500000Y-112650000D03*
X152360000Y-87250000D03*
X129500000Y-115190000D03*
X152360000Y-84710000D03*
X129500000Y-117730000D03*
X152360000Y-82170000D03*
X129500000Y-120270000D03*
X152360000Y-79630000D03*
X129500000Y-122810000D03*
X152360000Y-77090000D03*
X129500000Y-125350000D03*
X152360000Y-74550000D03*
X129500000Y-127890000D03*
X152360000Y-72010000D03*
X129500000Y-130430000D03*
X152360000Y-69470000D03*
X129500000Y-132970000D03*
X152360000Y-66930000D03*
X129500000Y-135510000D03*
X152360000Y-64390000D03*
X129500000Y-138050000D03*
X152360000Y-61850000D03*
X129500000Y-140590000D03*
%TD*%
D14*
%TO.C,J1*%
X137000000Y-56000000D03*
D15*
X139540000Y-56000000D03*
X142080000Y-56000000D03*
X144620000Y-56000000D03*
%TD*%
D16*
%TO.C,H1*%
X128000000Y-49000000D03*
%TD*%
%TO.C,H2*%
X154000000Y-49000000D03*
%TD*%
%TO.C,H3*%
X154000000Y-146000000D03*
%TD*%
%TO.C,H4*%
X128000000Y-146000000D03*
%TD*%
%TO.C,D1*%
G36*
G01*
X139200000Y-65375000D02*
X139200000Y-66625000D01*
G75*
G02*
X138950000Y-66875000I-250000J0D01*
G01*
X138025000Y-66875000D01*
G75*
G02*
X137775000Y-66625000I0J250000D01*
G01*
X137775000Y-65375000D01*
G75*
G02*
X138025000Y-65125000I250000J0D01*
G01*
X138950000Y-65125000D01*
G75*
G02*
X139200000Y-65375000I0J-250000D01*
G01*
G37*
G36*
G01*
X136225000Y-65375000D02*
X136225000Y-66625000D01*
G75*
G02*
X135975000Y-66875000I-250000J0D01*
G01*
X135050000Y-66875000D01*
G75*
G02*
X134800000Y-66625000I0J250000D01*
G01*
X134800000Y-65375000D01*
G75*
G02*
X135050000Y-65125000I250000J0D01*
G01*
X135975000Y-65125000D01*
G75*
G02*
X136225000Y-65375000I0J-250000D01*
G01*
G37*
%TD*%
%TO.C,R1*%
G36*
G01*
X141800000Y-66625001D02*
X141800000Y-65374999D01*
G75*
G02*
X142049999Y-65125000I249999J0D01*
G01*
X142850001Y-65125000D01*
G75*
G02*
X143100000Y-65374999I0J-249999D01*
G01*
X143100000Y-66625001D01*
G75*
G02*
X142850001Y-66875000I-249999J0D01*
G01*
X142049999Y-66875000D01*
G75*
G02*
X141800000Y-66625001I0J249999D01*
G01*
G37*
G36*
G01*
X144900000Y-66625001D02*
X144900000Y-65374999D01*
G75*
G02*
X145149999Y-65125000I249999J0D01*
G01*
X145950001Y-65125000D01*
G75*
G02*
X146200000Y-65374999I0J-249999D01*
G01*
X146200000Y-66625001D01*
G75*
G02*
X145950001Y-66875000I-249999J0D01*
G01*
X145149999Y-66875000D01*
G75*
G02*
X144900000Y-66625001I0J249999D01*
G01*
G37*
%TD*%
D17*
X131333700Y-95301100D03*
M02*
